<?xml version="1.0" encoding="utf-8"?>
<!-- Generator: Adobe Illustrator 19.0.0, SVG Export Plug-In . SVG Version: 6.00 Build 0)  -->
<svg version="1.1" id="Layer_1" xmlns="http://www.w3.org/2000/svg" xmlns:xlink="http://www.w3.org/1999/xlink" x="0px" y="0px"
	 viewBox="0 0 202.2 129.8" style="enable-background:new 0 0 202.2 129.8;" xml:space="preserve">
<style type="text/css">
	.st0{clip-path:url(#SVGID_1_);fill:#8E9090;}
	.st1{clip-path:url(#SVGID_1_);fill:none;stroke:#8E9090;stroke-width:2.4;stroke-miterlimit:10;}
	.st2{clip-path:url(#SVGID_1_);fill:none;stroke:#8E9090;stroke-width:2.4;stroke-linejoin:bevel;stroke-miterlimit:10;}
</style>
<g id="XMLID_93_">
	<g>
		<defs>
			<rect id="SVGID_3_" x="43.7" y="23.8" width="114.8" height="82.3"/>
		</defs>
		<clipPath id="SVGID_1_">
			<use xlink:href="#SVGID_3_"  style="overflow:visible;"/>
		</clipPath>
		<path class="st0" d="M65.5,67.1c9.5,0,17.1,7.7,17.1,17.1c0,9.5-7.7,17.1-17.1,17.1s-17.1-7.7-17.1-17.1
			C48.4,74.8,56.1,67.1,65.5,67.1 M65.5,62.4c-12.1,0-21.8,9.8-21.8,21.8S53.5,106,65.5,106c12.1,0,21.8-9.8,21.8-21.8
			S77.6,62.4,65.5,62.4"/>
		<path class="st0" d="M136,65.7c9.8,0,17.8,8,17.8,17.8c0,9.8-8,17.8-17.8,17.8s-17.8-8-17.8-17.8C118.2,73.7,126.2,65.7,136,65.7
			 M136,61c-12.4,0-22.5,10.1-22.5,22.5S123.6,106,136,106s22.5-10.1,22.5-22.5S148.4,61,136,61"/>
		<polyline id="XMLID_96_" class="st1" points="136.4,83.5 120.2,29.2 110.7,29.2 		"/>
		<polygon id="XMLID_95_" class="st2" points="65.5,83.5 101.1,82.1 125.4,48.4 91.5,48.4 		"/>
		<line id="XMLID_94_" class="st1" x1="101.1" y1="82.1" x2="88.7" y2="38.8"/>
		<line id="XMLID_92_" class="st1" x1="82" y1="38.8" x2="101.1" y2="38.8"/>
	</g>
</g>
</svg>
