<?xml version="1.0" encoding="utf-8"?>
<!-- Generator: Adobe Illustrator 22.1.0, SVG Export Plug-In . SVG Version: 6.00 Build 0)  -->
<svg version="1.1" xmlns="http://www.w3.org/2000/svg" xmlns:xlink="http://www.w3.org/1999/xlink" x="0px" y="0px"
	 viewBox="0 0 202.2 129.8" style="enable-background:new 0 0 202.2 129.8;" xml:space="preserve">
<style type="text/css">
	.st0{clip-path:url(#SVGID_1_);fill:#73C3D5;}
	.st1{fill:#73C3D5;}
	.st2{clip-path:url(#SVGID_2_);fill:#73C3D5;}
</style>
<g id="Layer_1">
	<g>
		<g>
			<defs>
				<rect id="SVGID_5_" x="30" y="15.9" width="142.2" height="98.1"/>
			</defs>
			<clipPath id="SVGID_1_">
				<use xlink:href="#SVGID_5_"  style="overflow:visible;"/>
			</clipPath>
			<path class="st0" d="M57,65.6c11.7,0,21.2,9.5,21.2,21.2s-9.5,21.2-21.2,21.2s-21.2-9.5-21.2-21.2S45.3,65.6,57,65.6 M57,59.8
				C42.1,59.8,30,71.9,30,86.9c0,14.9,12.1,27.1,27.1,27.1c14.9,0,27.1-12.1,27.1-27.1C84.1,71.9,72,59.8,57,59.8"/>
			<path class="st0" d="M144.3,64c12.2,0,22.1,9.9,22.1,22.1s-9.9,22.1-22.1,22.1c-12.2,0-22.1-9.9-22.1-22.1S132.2,64,144.3,64
				 M144.3,58.2c-15.4,0-27.9,12.5-27.9,27.9c0,15.4,12.5,27.9,27.9,27.9c15.4,0,27.9-12.5,27.9-27.9
				C172.2,70.7,159.7,58.2,144.3,58.2"/>
			<polygon class="st0" points="142.1,86.9 122.6,21.7 113,21.7 113,15.9 127,15.9 147.6,85.2 			"/>
			<path class="st0" d="M57.2,89l-2.5-4.6l32.2-43.5l2.3-1.2h42l2.4,4.6L103.5,86l-2.2,1.2L57.2,89z M90.7,45.5L63,82.9l36.6-1.5
				l26-36H90.7z"/>
			
				<rect x="90.5" y="29.6" transform="matrix(0.9612 -0.2757 0.2757 0.9612 -12.23 27.9828)" class="st0" width="5.8" height="55.8"/>
			<rect x="77.4" y="27.8" class="st0" width="23.7" height="5.8"/>
		</g>
	</g>
</g>
<g id="Layer_2">
	<g>
		<polygon class="st1" points="327.7,320.3 304,296.5 280.3,320.3 256.6,296.5 232.6,320.6 232.6,324.2 232.9,324.4 237,324.4 
			256.6,304.8 276.2,324.4 284.4,324.4 304,304.8 323.6,324.4 331.8,324.4 351.4,304.8 371,324.4 375.1,324.4 375.4,324.2 
			375.4,320.6 351.4,296.5 		"/>
		<polygon class="st1" points="252.4,274.9 277,324.4 280.3,324.4 282.9,323.1 260.8,278.8 304,267.9 347.2,278.8 325.1,323.1 
			327.7,324.4 330.9,324.4 355.6,274.9 304,261.9 		"/>
		<rect x="301.1" y="264.9" class="st1" width="5.8" height="35.7"/>
		<polygon class="st1" points="342.5,272.9 336.6,272.9 336.6,236.5 332.4,232.2 275.6,232.2 271.3,236.5 271.3,272.9 265.5,272.9 
			265.5,234.1 273.1,226.3 334.8,226.3 342.5,234.1 		"/>
		<g>
			<defs>
				<rect id="SVGID_7_" x="232.6" y="214.4" width="142.8" height="110"/>
			</defs>
			<clipPath id="SVGID_2_">
				<use xlink:href="#SVGID_7_"  style="overflow:visible;"/>
			</clipPath>
			<path class="st2" d="M295,229.3l-5.8,0c0-5.1,3.1-14.8,14.8-14.8c11.7,0,14.8,9.7,14.8,14.8h-5.8c0-1.5-0.5-9-8.9-9
				C295.3,220.3,295,228.3,295,229.3"/>
		</g>
	</g>
</g>
</svg>
