<?xml version="1.0" encoding="utf-8"?>
<!-- Generator: Adobe Illustrator 19.0.0, SVG Export Plug-In . SVG Version: 6.00 Build 0)  -->
<svg version="1.1" id="Layer_1" xmlns="http://www.w3.org/2000/svg" xmlns:xlink="http://www.w3.org/1999/xlink" x="0px" y="0px"
	 viewBox="0 0 556.4 650.4" style="enable-background:new 0 0 556.4 650.4;" xml:space="preserve">
<style type="text/css">
	.st0{clip-path:url(#SVGID_1_);}
	.st1{fill:#8E9090;}
	.st2{clip-path:url(#SVGID_2_);}
	.st3{clip-path:url(#SVGID_3_);}
	.st4{clip-path:url(#SVGID_4_);}
	.st5{clip-path:url(#SVGID_5_);}
</style>
<g>
	<defs>
		<rect id="SVGID_11_" x="-723.6" y="-629.6" width="1280" height="1280"/>
	</defs>
	<clipPath id="SVGID_1_">
		<use xlink:href="#SVGID_11_"  style="overflow:visible;"/>
	</clipPath>
	<g class="st0">
		<g>
			<path id="XMLID_15_" class="st1" d="M-393.2,954.5c105.3-75,209.1-152.7,308.9-234.6c102.5,152,228,290.2,366.1,408.8
				c16.7,14.4,33.6,28.5,50.7,42.4c-51.2,47.1-98.4,98.7-140.1,154.1c-27.8-17.3-55.9-34.3-84.2-50.8
				C-62.8,1174.5-247.6,1084.9-393.2,954.5z"/>
		</g>
		<g>
			<defs>
				<path id="SVGID_13_" d="M332.6,1170.9c-17.1-13.9-34-28-50.7-42.4C143.8,1010,18.3,871.8-84.2,719.8
					C159,520,377.9,295.1,533.3,23.2c12.5-21.9,24.6-44.3,36.1-66.9c71.7-5.5,143.3-19,213.1-39.2c-4.2,126.6,3,253.5,21.3,378.2
					c28.1,191.1,80.5,376.9,152.4,555.6c-165.7,43-324.7,106.7-468.3,199.8C433.1,1086,381,1126.4,332.6,1170.9z"/>
			</defs>
			<clipPath id="SVGID_2_">
				<use xlink:href="#SVGID_13_"  style="overflow:visible;"/>
			</clipPath>
			<g class="st2">
				<g>
					<line class="st1" x1="495" y1="-337.6" x2="62.2" y2="1269.7"/>
					<polygon class="st1" points="64.4,1270.3 497.1,-337 492.8,-338.2 60.1,1269.2 					"/>
				</g>
				<g>
					<line class="st1" x1="698.2" y1="-283.1" x2="265.5" y2="1324.2"/>
					<polygon class="st1" points="267.7,1324.8 700.4,-282.6 696,-283.7 263.3,1323.6 					"/>
				</g>
				<g>
					<line class="st1" x1="513.4" y1="-332.7" x2="80.7" y2="1274.7"/>
					<polygon class="st1" points="82.9,1275.3 515.6,-332.1 511.3,-333.2 78.5,1274.1 					"/>
				</g>
				<g>
					<line class="st1" x1="716.7" y1="-278.2" x2="284" y2="1329.2"/>
					<polygon class="st1" points="286.1,1329.7 718.9,-277.6 714.5,-278.8 281.8,1328.6 					"/>
				</g>
				<g>
					<line class="st1" x1="347.1" y1="-377.2" x2="-85.6" y2="1230.1"/>
					<polygon class="st1" points="-83.4,1230.7 349.3,-376.6 345,-377.8 -87.8,1229.6 					"/>
				</g>
				<g>
					<line class="st1" x1="531.9" y1="-327.7" x2="99.2" y2="1279.7"/>
					<polygon class="st1" points="101.4,1280.2 534.1,-327.1 529.7,-328.3 97,1279.1 					"/>
				</g>
				<g>
					<line class="st1" x1="735.2" y1="-273.2" x2="302.4" y2="1334.1"/>
					<polygon class="st1" points="304.6,1334.7 737.3,-272.7 733,-273.8 300.3,1333.5 					"/>
				</g>
				<g>
					<line class="st1" x1="365.6" y1="-372.3" x2="-67.1" y2="1235.1"/>
					<polygon class="st1" points="-64.9,1235.7 367.8,-371.7 363.5,-372.8 -69.3,1234.5 					"/>
				</g>
				<g>
					<line class="st1" x1="550.4" y1="-322.7" x2="117.7" y2="1284.6"/>
					<polygon class="st1" points="119.8,1285.2 552.6,-322.2 548.2,-323.3 115.5,1284 					"/>
				</g>
				<g>
					<line class="st1" x1="753.7" y1="-268.3" x2="320.9" y2="1339.1"/>
					<polygon class="st1" points="323.1,1339.6 755.8,-267.7 751.5,-268.9 318.7,1338.5 					"/>
				</g>
				<g>
					<line class="st1" x1="384.1" y1="-367.3" x2="-48.6" y2="1240"/>
					<polygon class="st1" points="-46.5,1240.6 386.3,-366.7 381.9,-367.9 -50.8,1239.5 					"/>
				</g>
				<g>
					<line class="st1" x1="568.9" y1="-317.8" x2="136.1" y2="1289.6"/>
					<polygon class="st1" points="138.3,1290.1 571,-317.2 566.7,-318.4 134,1289 					"/>
				</g>
				<g>
					<line class="st1" x1="772.1" y1="-263.3" x2="339.4" y2="1344"/>
					<polygon class="st1" points="341.6,1344.6 774.3,-262.8 770,-263.9 337.2,1343.4 					"/>
				</g>
				<g>
					<line class="st1" x1="402.6" y1="-362.4" x2="-30.2" y2="1245"/>
					<polygon class="st1" points="-28,1245.6 404.8,-361.8 400.4,-362.9 -32.3,1244.4 					"/>
				</g>
				<g>
					<line class="st1" x1="587.4" y1="-312.8" x2="154.6" y2="1294.5"/>
					<polygon class="st1" points="156.8,1295.1 589.5,-312.3 585.2,-313.4 152.5,1293.9 					"/>
				</g>
				<g>
					<line class="st1" x1="790.6" y1="-258.4" x2="357.9" y2="1349"/>
					<polygon class="st1" points="360,1349.5 792.8,-257.8 788.4,-259 355.7,1348.4 					"/>
				</g>
				<g>
					<line class="st1" x1="421.1" y1="-357.4" x2="-11.7" y2="1249.9"/>
					<polygon class="st1" points="-9.5,1250.5 423.2,-356.8 418.9,-358 -13.8,1249.4 					"/>
				</g>
				<g>
					<line class="st1" x1="605.8" y1="-307.9" x2="173.1" y2="1299.5"/>
					<polygon class="st1" points="175.3,1300 608,-307.3 603.7,-308.5 170.9,1298.9 					"/>
				</g>
				<g>
					<line class="st1" x1="809.1" y1="-253.4" x2="376.4" y2="1353.9"/>
					<polygon class="st1" points="378.5,1354.5 811.3,-252.9 806.9,-254 374.2,1353.3 					"/>
				</g>
				<g>
					<line class="st1" x1="439.5" y1="-352.5" x2="6.8" y2="1254.9"/>
					<polygon class="st1" points="9,1255.5 441.7,-351.9 437.4,-353 4.6,1254.3 					"/>
				</g>
				<g>
					<line class="st1" x1="624.3" y1="-302.9" x2="191.6" y2="1304.4"/>
					<polygon class="st1" points="193.7,1305 626.5,-302.4 622.1,-303.5 189.4,1303.8 					"/>
				</g>
				<g>
					<line class="st1" x1="827.6" y1="-248.5" x2="394.8" y2="1358.9"/>
					<polygon class="st1" points="397,1359.4 829.7,-247.9 825.4,-249.1 392.7,1358.3 					"/>
				</g>
				<g>
					<line class="st1" x1="458" y1="-347.5" x2="25.3" y2="1259.8"/>
					<polygon class="st1" points="27.5,1260.4 460.2,-346.9 455.8,-348.1 23.1,1259.3 					"/>
				</g>
				<g>
					<line class="st1" x1="642.8" y1="-298" x2="210.1" y2="1309.4"/>
					<polygon class="st1" points="212.2,1309.9 645,-297.4 640.6,-298.6 207.9,1308.8 					"/>
				</g>
				<g>
					<line class="st1" x1="846" y1="-243.5" x2="413.3" y2="1363.8"/>
					<polygon class="st1" points="415.5,1364.4 848.2,-242.9 843.9,-244.1 411.1,1363.2 					"/>
				</g>
				<g>
					<line class="st1" x1="476.5" y1="-342.6" x2="43.8" y2="1264.8"/>
					<polygon class="st1" points="45.9,1265.4 478.7,-342 474.3,-343.1 41.6,1264.2 					"/>
				</g>
				<g>
					<line class="st1" x1="217.8" y1="-411.8" x2="-214.9" y2="1195.6"/>
					<polygon class="st1" points="-212.8,1196.1 220,-411.2 215.6,-412.4 -217.1,1195 					"/>
				</g>
				<g>
					<line class="st1" x1="236.3" y1="-406.8" x2="-196.4" y2="1200.5"/>
					<polygon class="st1" points="-194.3,1201.1 238.5,-406.3 234.1,-407.4 -198.6,1199.9 					"/>
				</g>
				<g>
					<line class="st1" x1="254.8" y1="-401.9" x2="-178" y2="1205.5"/>
					<polygon class="st1" points="-175.8,1206 256.9,-401.3 252.6,-402.5 -180.1,1204.9 					"/>
				</g>
				<g>
					<line class="st1" x1="273.2" y1="-396.9" x2="-159.5" y2="1210.4"/>
					<polygon class="st1" points="-157.3,1211 275.4,-396.4 271.1,-397.5 -161.7,1209.8 					"/>
				</g>
				<g>
					<line class="st1" x1="291.7" y1="-392" x2="-141" y2="1215.4"/>
					<polygon class="st1" points="-138.8,1215.9 293.9,-391.4 289.5,-392.6 -143.2,1214.8 					"/>
				</g>
				<g>
					<line class="st1" x1="310.2" y1="-387" x2="-122.5" y2="1220.3"/>
					<polygon class="st1" points="-120.4,1220.9 312.4,-386.5 308,-387.6 -124.7,1219.7 					"/>
				</g>
				<g>
					<line class="st1" x1="328.7" y1="-382.1" x2="-104.1" y2="1225.3"/>
					<polygon class="st1" points="-101.9,1225.8 330.8,-381.5 326.5,-382.7 -106.2,1224.7 					"/>
				</g>
				<g>
					<line class="st1" x1="661.3" y1="-293" x2="228.5" y2="1314.3"/>
					<polygon class="st1" points="230.7,1314.9 663.4,-292.5 659.1,-293.6 226.4,1313.7 					"/>
				</g>
				<g>
					<line class="st1" x1="864.5" y1="-238.6" x2="431.8" y2="1368.8"/>
					<polygon class="st1" points="434,1369.4 866.7,-238 862.3,-239.2 429.6,1368.2 					"/>
				</g>
				<g>
					<line class="st1" x1="679.7" y1="-288.1" x2="247" y2="1319.3"/>
					<polygon class="st1" points="249.2,1319.8 681.9,-287.5 677.6,-288.7 244.8,1318.7 					"/>
				</g>
				<g>
					<line class="st1" x1="883" y1="-233.6" x2="450.3" y2="1373.7"/>
					<polygon class="st1" points="452.4,1374.3 885.2,-233 880.8,-234.2 448.1,1373.1 					"/>
				</g>
				<g>
					<line class="st1" x1="901.5" y1="-228.7" x2="468.7" y2="1378.7"/>
					<polygon class="st1" points="470.9,1379.3 903.6,-228.1 899.3,-229.3 466.6,1378.1 					"/>
				</g>
				<g>
					<line class="st1" x1="919.9" y1="-223.7" x2="487.2" y2="1383.6"/>
					<polygon class="st1" points="489.4,1384.2 922.1,-223.1 917.8,-224.3 485,1383 					"/>
				</g>
				<g>
					<line class="st1" x1="938.4" y1="-218.8" x2="505.7" y2="1388.6"/>
					<polygon class="st1" points="507.9,1389.2 940.6,-218.2 936.3,-219.4 503.5,1388 					"/>
				</g>
				<g>
					<line class="st1" x1="956.9" y1="-213.8" x2="524.2" y2="1393.5"/>
					<polygon class="st1" points="526.3,1394.1 959.1,-213.2 954.7,-214.4 522,1392.9 					"/>
				</g>
				<g>
					<line class="st1" x1="975.4" y1="-208.9" x2="542.7" y2="1398.5"/>
					<polygon class="st1" points="544.8,1399.1 977.6,-208.3 973.2,-209.5 540.5,1397.9 					"/>
				</g>
				<g>
					<line class="st1" x1="993.9" y1="-203.9" x2="561.1" y2="1403.4"/>
					<polygon class="st1" points="563.3,1404 996,-203.3 991.7,-204.5 559,1402.8 					"/>
				</g>
				<g>
					<line class="st1" x1="1012.3" y1="-199" x2="579.6" y2="1408.4"/>
					<polygon class="st1" points="581.8,1409 1014.5,-198.4 1010.2,-199.6 577.4,1407.8 					"/>
				</g>
				<g>
					<line class="st1" x1="1030.8" y1="-194" x2="598.1" y2="1413.3"/>
					<polygon class="st1" points="600.3,1413.9 1033,-193.4 1028.6,-194.6 595.9,1412.7 					"/>
				</g>
				<g>
					<line class="st1" x1="1049.3" y1="-189.1" x2="616.6" y2="1418.3"/>
					<polygon class="st1" points="618.7,1418.9 1051.5,-188.5 1047.1,-189.7 614.4,1417.7 					"/>
				</g>
				<g>
					<line class="st1" x1="1067.8" y1="-184.1" x2="635" y2="1423.2"/>
					<polygon class="st1" points="637.2,1423.8 1069.9,-183.5 1065.6,-184.7 632.9,1422.6 					"/>
				</g>
				<g>
					<line class="st1" x1="1086.2" y1="-179.2" x2="653.5" y2="1428.2"/>
					<polygon class="st1" points="655.7,1428.8 1088.4,-178.6 1084.1,-179.8 651.3,1427.6 					"/>
				</g>
				<g>
					<line class="st1" x1="1104.7" y1="-174.2" x2="672" y2="1433.1"/>
					<polygon class="st1" points="674.2,1433.7 1106.9,-173.6 1102.6,-174.8 669.8,1432.6 					"/>
				</g>
				<g>
					<line class="st1" x1="1123.2" y1="-169.3" x2="690.5" y2="1438.1"/>
					<polygon class="st1" points="692.6,1438.7 1125.4,-168.7 1121,-169.8 688.3,1437.5 					"/>
				</g>
				<g>
					<line class="st1" x1="1141.7" y1="-164.3" x2="708.9" y2="1443"/>
					<polygon class="st1" points="711.1,1443.6 1143.9,-163.7 1139.5,-164.9 706.8,1442.5 					"/>
				</g>
				<g>
					<line class="st1" x1="1160.2" y1="-159.4" x2="727.4" y2="1448"/>
					<polygon class="st1" points="729.6,1448.6 1162.3,-158.8 1158,-159.9 725.3,1447.4 					"/>
				</g>
				<g>
					<line class="st1" x1="1178.6" y1="-154.3" x2="745.9" y2="1453.1"/>
					<polygon class="st1" points="748.1,1453.6 1180.8,-153.7 1176.5,-154.9 743.7,1452.5 					"/>
				</g>
				<g>
					<line class="st1" x1="1197.1" y1="-149.3" x2="764.4" y2="1458"/>
					<polygon class="st1" points="766.6,1458.6 1199.3,-148.8 1194.9,-149.9 762.2,1457.4 					"/>
				</g>
				<g>
					<line class="st1" x1="1215.6" y1="-144.4" x2="782.9" y2="1463"/>
					<polygon class="st1" points="785,1463.5 1217.8,-143.8 1213.4,-145 780.7,1462.4 					"/>
				</g>
				<g>
					<line class="st1" x1="1234.1" y1="-139.4" x2="801.3" y2="1467.9"/>
					<polygon class="st1" points="803.5,1468.5 1236.2,-138.9 1231.9,-140 799.2,1467.3 					"/>
				</g>
				<g>
					<line class="st1" x1="1252.5" y1="-134.5" x2="819.8" y2="1472.9"/>
					<polygon class="st1" points="822,1473.4 1254.7,-133.9 1250.4,-135.1 817.6,1472.3 					"/>
				</g>
			</g>
		</g>
		<g>
			<defs>
				<path id="SVGID_15_" d="M-1147,1478.6c149.9-111.9,305.7-217.1,460.7-322.2c183.9,290.3,414.3,539.2,674,759.1
					c-173.7,89.7-344.3,186.2-512,287.6C-752.1,1980.8-959.4,1735.5-1147,1478.6z"/>
			</defs>
			<clipPath id="SVGID_3_">
				<use xlink:href="#SVGID_15_"  style="overflow:visible;"/>
			</clipPath>
			<g class="st3">
				<g>
					<g>
						<line class="st1" x1="-280.6" y1="1360.6" x2="-1009.6" y2="1781.4"/>
						
							<rect x="-1065.9" y="1570.4" transform="matrix(-0.866 0.5 -0.5 -0.866 -418.2891 3254.0415)" class="st1" width="841.7" height="1.1"/>
					</g>
					<g>
						<line class="st1" x1="-271.1" y1="1377.1" x2="-1000" y2="1798"/>
						
							<rect x="-1056.4" y="1587" transform="matrix(-0.866 0.5 -0.5 -0.866 -392.157 3280.1726)" class="st1" width="841.7" height="1.1"/>
					</g>
					<g>
						<line class="st1" x1="-261.5" y1="1393.7" x2="-990.4" y2="1814.5"/>
						
							<rect x="-1046.8" y="1603.6" transform="matrix(-0.866 0.5 -0.5 -0.866 -366.0259 3306.3037)" class="st1" width="841.7" height="1.1"/>
					</g>
					<g>
						<line class="st1" x1="-251.9" y1="1410.3" x2="-980.9" y2="1831.1"/>
						
							<rect x="-1037.3" y="1620.1" transform="matrix(-0.866 0.5 -0.5 -0.866 -339.8948 3332.4348)" class="st1" width="841.7" height="1.1"/>
					</g>
					<g>
						<line class="st1" x1="-242.4" y1="1426.8" x2="-971.3" y2="1847.7"/>
						
							<rect x="-1027.7" y="1636.7" transform="matrix(-0.866 0.5 -0.5 -0.866 -313.7637 3358.5659)" class="st1" width="841.7" height="1.1"/>
					</g>
					<g>
						<line class="st1" x1="-232.8" y1="1443.4" x2="-961.7" y2="1864.2"/>
						
							<rect x="-1018.1" y="1653.3" transform="matrix(-0.866 0.5 -0.5 -0.866 -287.6327 3384.6973)" class="st1" width="841.7" height="1.1"/>
					</g>
					<g>
						<line class="st1" x1="-223.3" y1="1460" x2="-952.2" y2="1880.8"/>
						
							<rect x="-1008.6" y="1669.8" transform="matrix(-0.866 0.5 -0.5 -0.866 -261.5016 3410.8284)" class="st1" width="841.7" height="1.1"/>
					</g>
					<g>
						<line class="st1" x1="-213.7" y1="1476.5" x2="-942.6" y2="1897.4"/>
						
							<rect x="-999" y="1686.4" transform="matrix(-0.866 0.5 -0.5 -0.866 -235.3705 3436.9595)" class="st1" width="841.7" height="1.1"/>
					</g>
					<g>
						<line class="st1" x1="-204.1" y1="1493.1" x2="-933" y2="1913.9"/>
						
							<rect x="-989.4" y="1703" transform="matrix(-0.866 0.5 -0.5 -0.866 -209.2394 3463.0906)" class="st1" width="841.7" height="1.1"/>
					</g>
					<g>
						<line class="st1" x1="-194.6" y1="1509.7" x2="-923.5" y2="1930.5"/>
						
							<rect x="-979.9" y="1719.5" transform="matrix(-0.866 0.5 -0.5 -0.866 -183.1084 3489.2217)" class="st1" width="841.7" height="1.1"/>
					</g>
					<g>
						<line class="st1" x1="-185" y1="1526.2" x2="-913.9" y2="1947.1"/>
						
							<rect x="-970.3" y="1736.1" transform="matrix(-0.866 0.5 -0.5 -0.866 -156.9773 3515.353)" class="st1" width="841.7" height="1.1"/>
					</g>
					<g>
						<line class="st1" x1="-175.4" y1="1542.8" x2="-904.4" y2="1963.6"/>
						
							<rect x="-960.7" y="1752.6" transform="matrix(-0.866 0.5 -0.5 -0.866 -130.8462 3541.4841)" class="st1" width="841.7" height="1.1"/>
					</g>
					<g>
						<line class="st1" x1="-165.9" y1="1559.4" x2="-894.8" y2="1980.2"/>
						
							<rect x="-951.2" y="1769.2" transform="matrix(-0.866 0.5 -0.5 -0.866 -104.7151 3567.6152)" class="st1" width="841.7" height="1.1"/>
					</g>
					<g>
						<line class="st1" x1="-156.3" y1="1575.9" x2="-885.2" y2="1996.8"/>
						
							<rect x="-941.6" y="1785.8" transform="matrix(-0.866 0.5 -0.5 -0.866 -78.584 3593.7463)" class="st1" width="841.7" height="1.1"/>
					</g>
					<g>
						<line class="st1" x1="-146.7" y1="1592.5" x2="-875.7" y2="2013.3"/>
						
							<rect x="-932" y="1802.3" transform="matrix(-0.866 0.5 -0.5 -0.866 -52.453 3619.8777)" class="st1" width="841.7" height="1.1"/>
					</g>
					<g>
						<line class="st1" x1="-137.2" y1="1609.1" x2="-866.1" y2="2029.9"/>
						
							<rect x="-922.5" y="1818.9" transform="matrix(-0.866 0.5 -0.5 -0.866 -26.3219 3646.0088)" class="st1" width="841.7" height="1.1"/>
					</g>
					<g>
						<line class="st1" x1="-127.6" y1="1625.6" x2="-856.5" y2="2046.5"/>
						
							<rect x="-912.9" y="1835.5" transform="matrix(-0.866 0.5 -0.5 -0.866 -0.1908 3672.1399)" class="st1" width="841.7" height="1.1"/>
					</g>
					<g>
						<line class="st1" x1="-118" y1="1642.2" x2="-847" y2="2063"/>
						
							<rect x="-903.3" y="1852" transform="matrix(-0.866 0.5 -0.5 -0.866 25.9414 3698.2708)" class="st1" width="841.7" height="1.1"/>
					</g>
					<g>
						<line class="st1" x1="-108.5" y1="1658.8" x2="-837.4" y2="2079.6"/>
						
							<rect x="-893.8" y="1868.6" transform="matrix(-0.866 0.5 -0.5 -0.866 52.0724 3724.4019)" class="st1" width="841.7" height="1.1"/>
					</g>
					<g>
						<line class="st1" x1="-98.9" y1="1675.3" x2="-827.8" y2="2096.2"/>
						
							<rect x="-884.2" y="1885.2" transform="matrix(-0.866 0.5 -0.5 -0.866 78.2035 3750.5332)" class="st1" width="841.7" height="1.1"/>
					</g>
					<g>
						<line class="st1" x1="-89.3" y1="1691.9" x2="-818.3" y2="2112.7"/>
						
							<rect x="-874.7" y="1901.7" transform="matrix(-0.866 0.5 -0.5 -0.866 104.3346 3776.6643)" class="st1" width="841.7" height="1.1"/>
					</g>
					<g>
						<line class="st1" x1="-79.8" y1="1708.5" x2="-808.7" y2="2129.3"/>
						
							<rect x="-865.1" y="1918.3" transform="matrix(-0.866 0.5 -0.5 -0.866 130.4657 3802.7954)" class="st1" width="841.7" height="1.1"/>
					</g>
					<g>
						<line class="st1" x1="-70.2" y1="1725" x2="-799.1" y2="2145.9"/>
						
							<rect x="-855.5" y="1934.9" transform="matrix(-0.866 0.5 -0.5 -0.866 156.5968 3828.9265)" class="st1" width="841.7" height="1.1"/>
					</g>
					<g>
						<line class="st1" x1="-60.7" y1="1741.6" x2="-789.6" y2="2162.4"/>
						
							<rect x="-846" y="1951.4" transform="matrix(-0.866 0.5 -0.5 -0.866 182.7278 3855.0579)" class="st1" width="841.7" height="1.1"/>
					</g>
					<g>
						<line class="st1" x1="-51.1" y1="1758.2" x2="-780" y2="2179"/>
						
							<rect x="-836.4" y="1968" transform="matrix(-0.866 0.5 -0.5 -0.866 208.8589 3881.189)" class="st1" width="841.7" height="1.1"/>
					</g>
					<g>
						<line class="st1" x1="-41.5" y1="1774.7" x2="-770.4" y2="2195.6"/>
						
							<rect x="-826.8" y="1984.6" transform="matrix(-0.866 0.5 -0.5 -0.866 234.9899 3907.3201)" class="st1" width="841.7" height="1.1"/>
					</g>
					<g>
						<line class="st1" x1="-32" y1="1791.3" x2="-760.9" y2="2212.1"/>
						
							<rect x="-817.3" y="2001.1" transform="matrix(-0.866 0.5 -0.5 -0.866 261.121 3933.4512)" class="st1" width="841.7" height="1.1"/>
					</g>
					<g>
						<line class="st1" x1="-22.4" y1="1807.9" x2="-751.3" y2="2228.7"/>
						
							<rect x="-807.7" y="2017.7" transform="matrix(-0.866 0.5 -0.5 -0.866 287.2521 3959.5825)" class="st1" width="841.7" height="1.1"/>
					</g>
					<g>
						<line class="st1" x1="-12.8" y1="1824.4" x2="-741.8" y2="2245.3"/>
						
							<rect x="-798.1" y="2034.3" transform="matrix(-0.866 0.5 -0.5 -0.866 313.3832 3985.7136)" class="st1" width="841.7" height="1.1"/>
					</g>
					<g>
						<line class="st1" x1="-3.3" y1="1841" x2="-732.2" y2="2261.8"/>
						
							<rect x="-788.6" y="2050.8" transform="matrix(-0.866 0.5 -0.5 -0.866 339.5143 4011.8447)" class="st1" width="841.7" height="1.1"/>
					</g>
					<g>
						<line class="st1" x1="6.3" y1="1857.6" x2="-722.6" y2="2278.4"/>
						
							<rect x="-779" y="2067.4" transform="matrix(-0.866 0.5 -0.5 -0.866 365.6457 4037.9761)" class="st1" width="841.7" height="1.1"/>
					</g>
					<g>
						<line class="st1" x1="15.9" y1="1874.1" x2="-713.1" y2="2295"/>
						
							<rect x="-769.4" y="2084" transform="matrix(-0.866 0.5 -0.5 -0.866 391.7767 4064.1072)" class="st1" width="841.7" height="1.1"/>
					</g>
					<g>
						<line class="st1" x1="25.4" y1="1890.7" x2="-703.5" y2="2311.5"/>
						
							<rect x="-759.9" y="2100.5" transform="matrix(-0.866 0.5 -0.5 -0.866 417.9077 4090.2383)" class="st1" width="841.7" height="1.1"/>
					</g>
					<g>
						<line class="st1" x1="35" y1="1907.3" x2="-693.9" y2="2328.1"/>
						
							<rect x="-750.3" y="2117.1" transform="matrix(-0.866 0.5 -0.5 -0.866 444.04 4116.3691)" class="st1" width="841.7" height="1.1"/>
					</g>
					<g>
						<line class="st1" x1="44.6" y1="1923.8" x2="-684.4" y2="2344.7"/>
						
							<rect x="-740.7" y="2133.7" transform="matrix(-0.866 0.5 -0.5 -0.866 470.1711 4142.5005)" class="st1" width="841.7" height="1.1"/>
					</g>
					<g>
						<line class="st1" x1="54.1" y1="1940.4" x2="-674.8" y2="2361.2"/>
						
							<rect x="-731.2" y="2150.2" transform="matrix(-0.866 0.5 -0.5 -0.866 496.3022 4168.6313)" class="st1" width="841.7" height="1.1"/>
					</g>
					<g>
						<line class="st1" x1="63.7" y1="1957" x2="-665.2" y2="2377.8"/>
						
							<rect x="-721.6" y="2166.8" transform="matrix(-0.866 0.5 -0.5 -0.866 522.433 4194.7627)" class="st1" width="841.7" height="1.1"/>
					</g>
					<g>
						<line class="st1" x1="73.3" y1="1973.5" x2="-655.7" y2="2394.4"/>
						
							<rect x="-712.1" y="2183.4" transform="matrix(-0.866 0.5 -0.5 -0.866 548.5641 4220.894)" class="st1" width="841.7" height="1.1"/>
					</g>
					<g>
						<line class="st1" x1="82.8" y1="1990.1" x2="-646.1" y2="2410.9"/>
						
							<rect x="-702.5" y="2199.9" transform="matrix(-0.866 0.5 -0.5 -0.866 574.6952 4247.0254)" class="st1" width="841.7" height="1.1"/>
					</g>
					<g>
						<line class="st1" x1="92.4" y1="2006.7" x2="-636.5" y2="2427.5"/>
						
							<rect x="-692.9" y="2216.5" transform="matrix(-0.866 0.5 -0.5 -0.866 600.8262 4273.1562)" class="st1" width="841.7" height="1.1"/>
					</g>
					<g>
						<line class="st1" x1="101.9" y1="2023.2" x2="-627" y2="2444.1"/>
						
							<rect x="-683.4" y="2233.1" transform="matrix(-0.866 0.5 -0.5 -0.866 626.9572 4299.2876)" class="st1" width="841.7" height="1.1"/>
					</g>
					<g>
						<line class="st1" x1="111.5" y1="2039.8" x2="-617.4" y2="2460.6"/>
						
							<rect x="-673.8" y="2249.6" transform="matrix(-0.866 0.5 -0.5 -0.866 653.0883 4325.4189)" class="st1" width="841.7" height="1.1"/>
					</g>
					<g>
						<line class="st1" x1="121.1" y1="2056.4" x2="-607.8" y2="2477.2"/>
						
							<rect x="-664.2" y="2266.2" transform="matrix(-0.866 0.5 -0.5 -0.866 679.2194 4351.5498)" class="st1" width="841.7" height="1.1"/>
					</g>
					<g>
						<line class="st1" x1="130.6" y1="2072.9" x2="-598.3" y2="2493.8"/>
						
							<rect x="-654.7" y="2282.8" transform="matrix(-0.866 0.5 -0.5 -0.866 705.3508 4377.6812)" class="st1" width="841.7" height="1.1"/>
					</g>
					<g>
						<line class="st1" x1="140.2" y1="2089.5" x2="-588.7" y2="2510.3"/>
						
							<rect x="-645.1" y="2299.3" transform="matrix(-0.866 0.5 -0.5 -0.866 731.4819 4403.812)" class="st1" width="841.7" height="1.1"/>
					</g>
				</g>
				<g>
					<g>
						<line class="st1" x1="-701.5" y1="631.6" x2="-1430.4" y2="1052.5"/>
						
							<rect x="-1486.8" y="841.5" transform="matrix(-0.866 0.5 -0.5 -0.866 -1568.0668 2104.2979)" class="st1" width="841.7" height="1.1"/>
					</g>
					<g>
						<line class="st1" x1="-691.9" y1="648.2" x2="-1420.9" y2="1069.1"/>
						
							<rect x="-1477.2" y="858.1" transform="matrix(-0.866 0.5 -0.5 -0.866 -1541.9347 2130.429)" class="st1" width="841.7" height="1.1"/>
					</g>
					<g>
						<line class="st1" x1="-682.4" y1="664.8" x2="-1411.3" y2="1085.6"/>
						
							<rect x="-1467.7" y="874.6" transform="matrix(-0.866 0.5 -0.5 -0.866 -1515.8036 2156.5601)" class="st1" width="841.7" height="1.1"/>
					</g>
					<g>
						<line class="st1" x1="-672.8" y1="681.3" x2="-1401.7" y2="1102.2"/>
						
							<rect x="-1458.1" y="891.2" transform="matrix(-0.866 0.5 -0.5 -0.866 -1489.6726 2182.6912)" class="st1" width="841.7" height="1.1"/>
					</g>
					<g>
						<line class="st1" x1="-663.2" y1="697.9" x2="-1392.2" y2="1118.8"/>
						
							<rect x="-1448.5" y="907.8" transform="matrix(-0.866 0.5 -0.5 -0.866 -1463.5415 2208.8223)" class="st1" width="841.7" height="1.1"/>
					</g>
					<g>
						<line class="st1" x1="-653.7" y1="714.5" x2="-1382.6" y2="1135.3"/>
						
							<rect x="-1439" y="924.3" transform="matrix(-0.866 0.5 -0.5 -0.866 -1437.4104 2234.9536)" class="st1" width="841.7" height="1.1"/>
					</g>
					<g>
						<line class="st1" x1="-644.1" y1="731" x2="-1373" y2="1151.9"/>
						
							<rect x="-1429.4" y="940.9" transform="matrix(-0.866 0.5 -0.5 -0.866 -1411.2793 2261.0847)" class="st1" width="841.7" height="1.1"/>
					</g>
					<g>
						<line class="st1" x1="-634.5" y1="747.6" x2="-1363.5" y2="1168.5"/>
						
							<rect x="-1419.8" y="957.5" transform="matrix(-0.866 0.5 -0.5 -0.866 -1385.1482 2287.2158)" class="st1" width="841.7" height="1.1"/>
					</g>
					<g>
						<line class="st1" x1="-625" y1="764.2" x2="-1353.9" y2="1185"/>
						
							<rect x="-1410.3" y="974" transform="matrix(-0.866 0.5 -0.5 -0.866 -1359.0171 2313.3469)" class="st1" width="841.7" height="1.1"/>
					</g>
					<g>
						<line class="st1" x1="-615.4" y1="780.7" x2="-1344.3" y2="1201.6"/>
						
							<rect x="-1400.7" y="990.6" transform="matrix(-0.866 0.5 -0.5 -0.866 -1332.886 2339.478)" class="st1" width="841.7" height="1.1"/>
					</g>
					<g>
						<line class="st1" x1="-605.8" y1="797.3" x2="-1334.8" y2="1218.2"/>
						
							<rect x="-1391.2" y="1007.2" transform="matrix(-0.866 0.5 -0.5 -0.866 -1306.755 2365.6091)" class="st1" width="841.7" height="1.1"/>
					</g>
					<g>
						<line class="st1" x1="-596.3" y1="813.9" x2="-1325.2" y2="1234.7"/>
						
							<rect x="-1381.6" y="1023.7" transform="matrix(-0.866 0.5 -0.5 -0.866 -1280.6239 2391.7402)" class="st1" width="841.7" height="1.1"/>
					</g>
					<g>
						<line class="st1" x1="-586.7" y1="830.4" x2="-1315.6" y2="1251.3"/>
						
							<rect x="-1372" y="1040.3" transform="matrix(-0.866 0.5 -0.5 -0.866 -1254.4928 2417.8716)" class="st1" width="841.7" height="1.1"/>
					</g>
					<g>
						<line class="st1" x1="-577.2" y1="847" x2="-1306.1" y2="1267.9"/>
						
							<rect x="-1362.5" y="1056.9" transform="matrix(-0.866 0.5 -0.5 -0.866 -1228.3617 2444.0027)" class="st1" width="841.7" height="1.1"/>
					</g>
					<g>
						<line class="st1" x1="-567.6" y1="863.6" x2="-1296.5" y2="1284.4"/>
						
							<rect x="-1352.9" y="1073.4" transform="matrix(-0.866 0.5 -0.5 -0.866 -1202.2306 2470.1338)" class="st1" width="841.7" height="1.1"/>
					</g>
					<g>
						<line class="st1" x1="-558" y1="880.1" x2="-1286.9" y2="1301"/>
						
							<rect x="-1343.3" y="1090" transform="matrix(-0.866 0.5 -0.5 -0.866 -1176.0995 2496.2649)" class="st1" width="841.7" height="1.1"/>
					</g>
					<g>
						<line class="st1" x1="-548.5" y1="896.7" x2="-1277.4" y2="1317.6"/>
						
							<rect x="-1333.8" y="1106.6" transform="matrix(-0.866 0.5 -0.5 -0.866 -1149.9684 2522.396)" class="st1" width="841.7" height="1.1"/>
					</g>
					<g>
						<line class="st1" x1="-538.9" y1="913.3" x2="-1267.8" y2="1334.1"/>
						
							<rect x="-1324.2" y="1123.1" transform="matrix(-0.866 0.5 -0.5 -0.866 -1123.8364 2548.5271)" class="st1" width="841.7" height="1.1"/>
					</g>
					<g>
						<line class="st1" x1="-529.3" y1="929.8" x2="-1258.3" y2="1350.7"/>
						
							<rect x="-1314.6" y="1139.7" transform="matrix(-0.866 0.5 -0.5 -0.866 -1097.7053 2574.6582)" class="st1" width="841.7" height="1.1"/>
					</g>
					<g>
						<line class="st1" x1="-519.8" y1="946.4" x2="-1248.7" y2="1367.3"/>
						
							<rect x="-1305.1" y="1156.3" transform="matrix(-0.866 0.5 -0.5 -0.866 -1071.5742 2600.7896)" class="st1" width="841.7" height="1.1"/>
					</g>
					<g>
						<line class="st1" x1="-510.2" y1="963" x2="-1239.1" y2="1383.8"/>
						
							<rect x="-1295.5" y="1172.8" transform="matrix(-0.866 0.5 -0.5 -0.866 -1045.4431 2626.9207)" class="st1" width="841.7" height="1.1"/>
					</g>
					<g>
						<line class="st1" x1="-500.6" y1="979.5" x2="-1229.6" y2="1400.4"/>
						
							<rect x="-1285.9" y="1189.4" transform="matrix(-0.866 0.5 -0.5 -0.866 -1019.3121 2653.0518)" class="st1" width="841.7" height="1.1"/>
					</g>
					<g>
						<line class="st1" x1="-491.1" y1="996.1" x2="-1220" y2="1417"/>
						
							<rect x="-1276.4" y="1206" transform="matrix(-0.866 0.5 -0.5 -0.866 -993.181 2679.1829)" class="st1" width="841.7" height="1.1"/>
					</g>
					<g>
						<line class="st1" x1="-481.5" y1="1012.7" x2="-1210.4" y2="1433.5"/>
						
							<rect x="-1266.8" y="1222.5" transform="matrix(-0.866 0.5 -0.5 -0.866 -967.0499 2705.3142)" class="st1" width="841.7" height="1.1"/>
					</g>
					<g>
						<line class="st1" x1="-471.9" y1="1029.2" x2="-1200.9" y2="1450.1"/>
						
							<rect x="-1257.2" y="1239.1" transform="matrix(-0.866 0.5 -0.5 -0.866 -940.9188 2731.4453)" class="st1" width="841.7" height="1.1"/>
					</g>
					<g>
						<line class="st1" x1="-462.4" y1="1045.8" x2="-1191.3" y2="1466.7"/>
						
							<rect x="-1247.7" y="1255.7" transform="matrix(-0.866 0.5 -0.5 -0.866 -914.7877 2757.5764)" class="st1" width="841.7" height="1.1"/>
					</g>
					<g>
						<line class="st1" x1="-452.8" y1="1062.4" x2="-1181.7" y2="1483.2"/>
						
							<rect x="-1238.1" y="1272.2" transform="matrix(-0.866 0.5 -0.5 -0.866 -888.6566 2783.7075)" class="st1" width="841.7" height="1.1"/>
					</g>
					<g>
						<line class="st1" x1="-443.2" y1="1078.9" x2="-1172.2" y2="1499.8"/>
						
							<rect x="-1228.6" y="1288.8" transform="matrix(-0.866 0.5 -0.5 -0.866 -862.5256 2809.8386)" class="st1" width="841.7" height="1.1"/>
					</g>
					<g>
						<line class="st1" x1="-433.7" y1="1095.5" x2="-1162.6" y2="1516.4"/>
						
							<rect x="-1219" y="1305.4" transform="matrix(-0.866 0.5 -0.5 -0.866 -836.3945 2835.9697)" class="st1" width="841.7" height="1.1"/>
					</g>
					<g>
						<line class="st1" x1="-424.1" y1="1112.1" x2="-1153" y2="1532.9"/>
						
							<rect x="-1209.4" y="1321.9" transform="matrix(-0.866 0.5 -0.5 -0.866 -810.2634 2862.1011)" class="st1" width="841.7" height="1.1"/>
					</g>
					<g>
						<line class="st1" x1="-414.6" y1="1128.6" x2="-1143.5" y2="1549.5"/>
						
							<rect x="-1199.9" y="1338.5" transform="matrix(-0.866 0.5 -0.5 -0.866 -784.1321 2888.2324)" class="st1" width="841.7" height="1.1"/>
					</g>
					<g>
						<line class="st1" x1="-405" y1="1145.2" x2="-1133.9" y2="1566.1"/>
						
							<rect x="-1190.3" y="1355.1" transform="matrix(-0.866 0.5 -0.5 -0.866 -758.001 2914.3635)" class="st1" width="841.7" height="1.1"/>
					</g>
					<g>
						<line class="st1" x1="-395.4" y1="1161.8" x2="-1124.3" y2="1582.6"/>
						
							<rect x="-1180.7" y="1371.6" transform="matrix(-0.866 0.5 -0.5 -0.866 -731.8699 2940.4946)" class="st1" width="841.7" height="1.1"/>
					</g>
					<g>
						<line class="st1" x1="-385.9" y1="1178.3" x2="-1114.8" y2="1599.2"/>
						
							<rect x="-1171.2" y="1388.2" transform="matrix(-0.866 0.5 -0.5 -0.866 -705.7378 2966.6255)" class="st1" width="841.7" height="1.1"/>
					</g>
					<g>
						<line class="st1" x1="-376.3" y1="1194.9" x2="-1105.2" y2="1615.8"/>
						
							<rect x="-1161.6" y="1404.8" transform="matrix(-0.866 0.5 -0.5 -0.866 -679.6067 2992.7568)" class="st1" width="841.7" height="1.1"/>
					</g>
					<g>
						<line class="st1" x1="-366.7" y1="1211.5" x2="-1095.7" y2="1632.3"/>
						
							<rect x="-1152" y="1421.3" transform="matrix(-0.866 0.5 -0.5 -0.866 -653.4756 3018.8879)" class="st1" width="841.7" height="1.1"/>
					</g>
					<g>
						<line class="st1" x1="-357.2" y1="1228" x2="-1086.1" y2="1648.9"/>
						
							<rect x="-1142.5" y="1437.9" transform="matrix(-0.866 0.5 -0.5 -0.866 -627.3447 3045.0193)" class="st1" width="841.7" height="1.1"/>
					</g>
					<g>
						<line class="st1" x1="-347.6" y1="1244.6" x2="-1076.5" y2="1665.5"/>
						
							<rect x="-1132.9" y="1454.5" transform="matrix(-0.866 0.5 -0.5 -0.866 -601.2137 3071.1504)" class="st1" width="841.7" height="1.1"/>
					</g>
					<g>
						<line class="st1" x1="-338" y1="1261.2" x2="-1067" y2="1682"/>
						
							<rect x="-1123.3" y="1471" transform="matrix(-0.866 0.5 -0.5 -0.866 -575.0826 3097.2815)" class="st1" width="841.7" height="1.1"/>
					</g>
					<g>
						<line class="st1" x1="-328.5" y1="1277.7" x2="-1057.4" y2="1698.6"/>
						
							<rect x="-1113.8" y="1487.6" transform="matrix(-0.866 0.5 -0.5 -0.866 -548.9515 3123.4126)" class="st1" width="841.7" height="1.1"/>
					</g>
					<g>
						<line class="st1" x1="-318.9" y1="1294.3" x2="-1047.8" y2="1715.1"/>
						
							<rect x="-1104.2" y="1504.2" transform="matrix(-0.866 0.5 -0.5 -0.866 -522.8204 3149.5437)" class="st1" width="841.7" height="1.1"/>
					</g>
					<g>
						<line class="st1" x1="-309.3" y1="1310.9" x2="-1038.3" y2="1731.7"/>
						
							<rect x="-1094.6" y="1520.7" transform="matrix(-0.866 0.5 -0.5 -0.866 -496.6894 3175.675)" class="st1" width="841.7" height="1.1"/>
					</g>
					<g>
						<line class="st1" x1="-299.8" y1="1327.4" x2="-1028.7" y2="1748.3"/>
						
							<rect x="-1085.1" y="1537.3" transform="matrix(-0.866 0.5 -0.5 -0.866 -470.5583 3201.8062)" class="st1" width="841.7" height="1.1"/>
					</g>
					<g>
						<line class="st1" x1="-290.2" y1="1344" x2="-1019.1" y2="1764.8"/>
						
							<rect x="-1075.5" y="1553.9" transform="matrix(-0.866 0.5 -0.5 -0.866 -444.4269 3227.9373)" class="st1" width="841.7" height="1.1"/>
					</g>
					<g>
						<line class="st1" x1="-280.6" y1="1360.6" x2="-1009.6" y2="1781.4"/>
						
							<rect x="-1066" y="1570.4" transform="matrix(-0.866 0.5 -0.5 -0.866 -418.2959 3254.0684)" class="st1" width="841.7" height="1.1"/>
					</g>
				</g>
			</g>
		</g>
		<g>
			<defs>
				<path id="SVGID_17_" d="M-686.3,1156.5c42.9-29.1,85.7-58.1,128.4-87.3c55.1-37.7,110.2-75.9,164.9-114.8
					c145.5,130.4,330.4,220,501.4,319.8c28.3,16.5,56.3,33.5,84.2,50.8C70.2,1487.2-5.6,1681.1-1.9,1883.2
					c0.2,8.8,0.5,17.7,0.9,26.4c-3.8,2-7.6,3.9-11.4,5.9C-272.1,1695.7-502.4,1446.8-686.3,1156.5z"/>
			</defs>
			<clipPath id="SVGID_4_">
				<use xlink:href="#SVGID_17_"  style="overflow:visible;"/>
			</clipPath>
			<g class="st4">
				<g>
					<line class="st1" x1="356.6" y1="1316" x2="-506.2" y2="819"/>
					<polygon class="st1" points="352.2,1323.8 361.1,1308.2 -501.7,811.2 -510.7,826.8 					"/>
				</g>
				<g>
					<line class="st1" x1="280.1" y1="1448.5" x2="-582.7" y2="951.5"/>
					<polygon class="st1" points="275.6,1456.3 284.6,1440.7 -578.2,943.7 -587.2,959.3 					"/>
				</g>
				<g>
					<line class="st1" x1="241.9" y1="1514.8" x2="-621" y2="1017.8"/>
					<polygon class="st1" points="237.4,1522.6 246.4,1507 -616.5,1010 -625.5,1025.6 					"/>
				</g>
				<g>
					<line class="st1" x1="184.5" y1="1614.2" x2="-678.3" y2="1117.2"/>
					<polygon class="st1" points="180,1622 189,1606.4 -673.8,1109.4 -682.8,1125 					"/>
				</g>
				<g>
					<line class="st1" x1="127.1" y1="1713.6" x2="-735.7" y2="1216.6"/>
					<polygon class="st1" points="122.6,1721.4 131.6,1705.8 -731.2,1208.8 -740.2,1224.4 					"/>
				</g>
				<g>
					<line class="st1" x1="50.6" y1="1846.1" x2="-812.3" y2="1349.1"/>
					<polygon class="st1" points="46.1,1853.9 55.1,1838.3 -807.8,1341.3 -816.7,1356.9 					"/>
				</g>
				<g>
					<line class="st1" x1="12.3" y1="1912.4" x2="-850.5" y2="1415.4"/>
					<polygon class="st1" points="7.8,1920.2 16.8,1904.6 -846,1407.6 -855,1423.2 					"/>
				</g>
				<g>
					<line class="st1" x1="394.9" y1="1249.7" x2="-467.9" y2="752.7"/>
					<polygon class="st1" points="390.4,1257.5 399.4,1241.9 -463.4,744.9 -472.4,760.5 					"/>
				</g>
				<g>
					<line class="st1" x1="337.5" y1="1349.1" x2="-525.3" y2="852.1"/>
					<polygon class="st1" points="333,1356.9 342,1341.3 -520.8,844.3 -529.8,859.9 					"/>
				</g>
				<g>
					<line class="st1" x1="261" y1="1481.7" x2="-601.8" y2="984.7"/>
					<polygon class="st1" points="256.5,1489.5 265.5,1473.9 -597.3,976.9 -606.3,992.5 					"/>
				</g>
				<g>
					<line class="st1" x1="222.7" y1="1547.9" x2="-640.1" y2="1050.9"/>
					<polygon class="st1" points="218.2,1555.7 227.2,1540.1 -635.6,1043.1 -644.6,1058.7 					"/>
				</g>
				<g>
					<line class="st1" x1="165.4" y1="1647.3" x2="-697.5" y2="1150.3"/>
					<polygon class="st1" points="160.9,1655.1 169.9,1639.5 -693,1142.5 -702,1158.1 					"/>
				</g>
				<g>
					<line class="st1" x1="108" y1="1746.7" x2="-754.9" y2="1249.7"/>
					<polygon class="st1" points="103.5,1754.5 112.5,1738.9 -750.4,1241.9 -759.4,1257.5 					"/>
				</g>
				<g>
					<line class="st1" x1="31.5" y1="1879.3" x2="-831.4" y2="1382.3"/>
					<polygon class="st1" points="27,1887.1 35.9,1871.5 -826.9,1374.5 -835.9,1390.1 					"/>
				</g>
				<g>
					<line class="st1" x1="-6.8" y1="1945.5" x2="-869.6" y2="1448.5"/>
					<polygon class="st1" points="-11.3,1953.3 -2.3,1937.7 -865.1,1440.7 -874.1,1456.3 					"/>
				</g>
				<g>
					<line class="st1" x1="375.8" y1="1282.9" x2="-487.1" y2="785.9"/>
					<polygon class="st1" points="371.3,1290.7 380.3,1275.1 -482.6,778.1 -491.6,793.7 					"/>
				</g>
				<g>
					<line class="st1" x1="318.4" y1="1382.3" x2="-544.4" y2="885.3"/>
					<polygon class="st1" points="313.9,1390.1 322.9,1374.5 -539.9,877.5 -548.9,893.1 					"/>
				</g>
				<g>
					<line class="st1" x1="299.3" y1="1415.4" x2="-563.6" y2="918.4"/>
					<polygon class="st1" points="294.8,1423.2 303.8,1407.6 -559.1,910.6 -568.1,926.2 					"/>
				</g>
				<g>
					<line class="st1" x1="203.6" y1="1581.1" x2="-659.2" y2="1084.1"/>
					<polygon class="st1" points="199.1,1588.9 208.1,1573.3 -654.7,1076.3 -663.7,1091.9 					"/>
				</g>
				<g>
					<line class="st1" x1="146.2" y1="1680.5" x2="-716.6" y2="1183.5"/>
					<polygon class="st1" points="141.7,1688.3 150.7,1672.7 -712.1,1175.7 -721.1,1191.3 					"/>
				</g>
				<g>
					<line class="st1" x1="88.8" y1="1779.9" x2="-774" y2="1282.9"/>
					<polygon class="st1" points="84.3,1787.7 93.3,1772.1 -769.5,1275.1 -778.5,1290.7 					"/>
				</g>
				<g>
					<line class="st1" x1="69.7" y1="1813" x2="-793.1" y2="1316"/>
					<polygon class="st1" points="65.2,1820.8 74.2,1805.2 -788.6,1308.2 -797.6,1323.8 					"/>
				</g>
				<g>
					<line class="st1" x1="-25.9" y1="1978.7" x2="-888.8" y2="1481.7"/>
					<polygon class="st1" points="-30.4,1986.5 -21.4,1970.9 -884.3,1473.9 -893.3,1489.5 					"/>
				</g>
			</g>
		</g>
		<g>
			<path id="XMLID_13_" class="st1" d="M192.5,1325c146.3,91.2,285.7,193.7,415.5,306.9C400.5,1714,197.7,1807.5-1,1909.7
				c-0.4-8.8-0.8-17.6-0.9-26.4C-5.6,1681.1,70.2,1487.2,192.5,1325z"/>
		</g>
		<g>
			<defs>
				<path id="SVGID_19_" d="M-1367.3,1652.8c71.4-60.3,145.1-118.1,220.3-174.2c187.7,256.9,394.9,502.2,622.7,724.5
					c-76.1,46-151.6,93-226.6,140.9C-938.1,2098.9-1145.5,1868.4-1367.3,1652.8z"/>
			</defs>
			<clipPath id="SVGID_5_">
				<use xlink:href="#SVGID_19_"  style="overflow:visible;"/>
			</clipPath>
			<g class="st5">
				<g>
					<line class="st1" x1="-400.9" y1="2219.5" x2="-1020.5" y2="1141.7"/>
					<polygon class="st1" points="-408.7,2224 -393.1,2215 -1012.7,1137.2 -1028.3,1146.2 					"/>
				</g>
				<g>
					<line class="st1" x1="-533.4" y1="2296" x2="-1153" y2="1218.2"/>
					<polygon class="st1" points="-541.2,2300.5 -525.6,2291.5 -1145.2,1213.7 -1160.8,1222.7 					"/>
				</g>
				<g>
					<line class="st1" x1="-599.7" y1="2334.2" x2="-1219.3" y2="1256.5"/>
					<polygon class="st1" points="-607.5,2338.7 -591.9,2329.7 -1211.5,1252 -1227.1,1261 					"/>
				</g>
				<g>
					<line class="st1" x1="-699.1" y1="2391.6" x2="-1318.7" y2="1313.9"/>
					<polygon class="st1" points="-706.9,2396.1 -691.3,2387.1 -1310.9,1309.4 -1326.5,1318.4 					"/>
				</g>
				<g>
					<line class="st1" x1="-798.5" y1="2449" x2="-1418.1" y2="1371.3"/>
					<polygon class="st1" points="-806.3,2453.5 -790.7,2444.5 -1410.3,1366.8 -1425.9,1375.8 					"/>
				</g>
				<g>
					<line class="st1" x1="-931" y1="2525.5" x2="-1550.6" y2="1447.8"/>
					<polygon class="st1" points="-938.8,2530 -923.2,2521 -1542.8,1443.3 -1558.4,1452.3 					"/>
				</g>
				<g>
					<line class="st1" x1="-997.3" y1="2563.8" x2="-1616.9" y2="1486"/>
					<polygon class="st1" points="-1005,2568.3 -989.5,2559.3 -1609.1,1481.5 -1624.7,1490.5 					"/>
				</g>
				<g>
					<line class="st1" x1="-334.6" y1="2181.2" x2="-954.2" y2="1103.5"/>
					<polygon class="st1" points="-342.4,2185.7 -326.8,2176.7 -946.4,1099 -962,1108 					"/>
				</g>
				<g>
					<line class="st1" x1="-434" y1="2238.6" x2="-1053.6" y2="1160.8"/>
					<polygon class="st1" points="-441.8,2243.1 -426.2,2234.1 -1045.8,1156.3 -1061.4,1165.3 					"/>
				</g>
				<g>
					<line class="st1" x1="-566.5" y1="2315.1" x2="-1186.2" y2="1237.4"/>
					<polygon class="st1" points="-574.3,2319.6 -558.7,2310.6 -1178.4,1232.9 -1194,1241.9 					"/>
				</g>
				<g>
					<line class="st1" x1="-632.8" y1="2353.4" x2="-1252.4" y2="1275.6"/>
					<polygon class="st1" points="-640.6,2357.9 -625,2348.9 -1244.6,1271.1 -1260.2,1280.1 					"/>
				</g>
				<g>
					<line class="st1" x1="-732.2" y1="2410.8" x2="-1351.8" y2="1333"/>
					<polygon class="st1" points="-740,2415.3 -724.4,2406.3 -1344,1328.5 -1359.6,1337.5 					"/>
				</g>
				<g>
					<line class="st1" x1="-831.6" y1="2468.2" x2="-1451.2" y2="1390.4"/>
					<polygon class="st1" points="-839.4,2472.7 -823.8,2463.7 -1443.4,1385.9 -1459,1394.9 					"/>
				</g>
				<g>
					<line class="st1" x1="-964.1" y1="2544.7" x2="-1583.8" y2="1466.9"/>
					<polygon class="st1" points="-971.9,2549.2 -956.3,2540.2 -1576,1462.4 -1591.6,1471.4 					"/>
				</g>
				<g>
					<line class="st1" x1="-1030.4" y1="2582.9" x2="-1650" y2="1505.2"/>
					<polygon class="st1" points="-1038.2,2587.4 -1022.6,2578.4 -1642.2,1500.7 -1657.8,1509.7 					"/>
				</g>
				<g>
					<line class="st1" x1="-367.7" y1="2200.3" x2="-987.4" y2="1122.6"/>
					<polygon class="st1" points="-375.5,2204.8 -359.9,2195.8 -979.6,1118.1 -995.2,1127.1 					"/>
				</g>
				<g>
					<line class="st1" x1="-467.1" y1="2257.7" x2="-1086.8" y2="1180"/>
					<polygon class="st1" points="-474.9,2262.2 -459.3,2253.2 -1079,1175.5 -1094.6,1184.5 					"/>
				</g>
				<g>
					<line class="st1" x1="-500.3" y1="2276.9" x2="-1119.9" y2="1199.1"/>
					<polygon class="st1" points="-508.1,2281.4 -492.5,2272.4 -1112.1,1194.6 -1127.7,1203.6 					"/>
				</g>
				<g>
					<line class="st1" x1="-665.9" y1="2372.5" x2="-1285.6" y2="1294.8"/>
					<polygon class="st1" points="-673.7,2377 -658.1,2368 -1277.8,1290.3 -1293.4,1299.3 					"/>
				</g>
				<g>
					<line class="st1" x1="-765.3" y1="2429.9" x2="-1385" y2="1352.1"/>
					<polygon class="st1" points="-773.1,2434.4 -757.5,2425.4 -1377.2,1347.6 -1392.8,1356.6 					"/>
				</g>
				<g>
					<line class="st1" x1="-864.7" y1="2487.3" x2="-1484.4" y2="1409.5"/>
					<polygon class="st1" points="-872.5,2491.8 -856.9,2482.8 -1476.6,1405 -1492.2,1414 					"/>
				</g>
				<g>
					<line class="st1" x1="-897.9" y1="2506.4" x2="-1517.5" y2="1428.7"/>
					<polygon class="st1" points="-905.7,2510.9 -890.1,2501.9 -1509.7,1424.2 -1525.3,1433.2 					"/>
				</g>
				<g>
					<line class="st1" x1="-1063.5" y1="2602.1" x2="-1683.2" y2="1524.3"/>
					<polygon class="st1" points="-1071.3,2606.6 -1055.7,2597.6 -1675.4,1519.8 -1691,1528.8 					"/>
				</g>
			</g>
		</g>
	</g>
</g>
</svg>
