<?xml version="1.0" encoding="utf-8"?>
<!-- Generator: Adobe Illustrator 19.0.0, SVG Export Plug-In . SVG Version: 6.00 Build 0)  -->
<svg version="1.1" id="Layer_1" xmlns="http://www.w3.org/2000/svg" xmlns:xlink="http://www.w3.org/1999/xlink" x="0px" y="0px"
	 viewBox="0 0 102.7 34.4" style="enable-background:new 0 0 102.7 34.4;" xml:space="preserve">
<style type="text/css">
	.st0{fill:#FFFFFF;}
</style>
<g>
	<polygon class="st0" points="24.1,13.7 24.1,10.3 20.6,12 	"/>
	<path class="st0" d="M17.2,30.9V6.9l-3.4,1.7V12l-3.4,1.7v-3.4L6.9,12v3.4l-3.4,1.7c0-7.6,6.2-13.7,13.7-13.7
		c6.5,0,11.9,4.5,13.4,10.5l-3,1.5l3.4,1.7C30.9,24.8,24.8,30.9,17.2,30.9 M17.2,0C7.7,0,0,7.7,0,17.2c0,9.5,7.7,17.2,17.2,17.2
		c9.5,0,17.2-7.7,17.2-17.2C34.4,7.7,26.7,0,17.2,0"/>
	<path class="st0" d="M42,17.3c0,0.3-0.1,0.6-0.2,0.9c-0.1,0.3-0.3,0.6-0.5,0.8c-0.2,0.2-0.5,0.4-0.8,0.5c-0.3,0.1-0.6,0.2-1,0.2
		c-0.3,0-0.6,0-0.9-0.1c-0.3-0.1-0.6-0.2-0.8-0.4c-0.2-0.2-0.4-0.5-0.6-0.8c-0.2-0.3-0.2-0.7-0.2-1.2v-5.9c0-0.4,0.1-0.7,0.2-1
		c0.1-0.3,0.3-0.6,0.5-0.8C38,9.3,38.2,9.2,38.5,9c0.3-0.1,0.6-0.2,1-0.2c0.4,0,0.7,0.1,1,0.2c0.3,0.1,0.6,0.3,0.8,0.5
		c0.2,0.2,0.4,0.5,0.5,0.8c0.1,0.3,0.2,0.7,0.2,1V12h-1.5v-0.5c0-0.3-0.1-0.6-0.3-0.8c-0.2-0.2-0.4-0.3-0.7-0.3
		c-0.4,0-0.6,0.1-0.8,0.4c-0.1,0.2-0.2,0.5-0.2,0.9v5.5c0,0.3,0.1,0.6,0.2,0.8c0.1,0.2,0.4,0.3,0.7,0.3c0.1,0,0.2,0,0.3-0.1
		c0.1,0,0.2-0.1,0.3-0.2c0.1-0.1,0.2-0.2,0.2-0.3c0.1-0.1,0.1-0.3,0.1-0.5v-0.5H42V17.3z"/>
	<path class="st0" d="M45.6,12L45.6,12l-0.8,3.9h1.5L45.6,12z M45,8.9h1.3l2.4,10.7h-1.5l-0.5-2.3h-2.1l-0.5,2.3h-1.5L45,8.9z"/>
	<path class="st0" d="M54.4,12h-1.5v-0.3c0-0.4-0.1-0.7-0.2-0.9c-0.2-0.3-0.4-0.4-0.8-0.4c-0.2,0-0.4,0-0.5,0.1
		c-0.1,0.1-0.2,0.2-0.3,0.3c-0.1,0.1-0.1,0.3-0.2,0.4c0,0.2,0,0.3,0,0.5c0,0.2,0,0.4,0,0.5c0,0.1,0.1,0.3,0.1,0.4
		c0.1,0.1,0.1,0.2,0.3,0.3c0.1,0.1,0.3,0.2,0.5,0.2l1.2,0.5c0.3,0.1,0.6,0.3,0.8,0.5c0.2,0.2,0.4,0.4,0.5,0.6
		c0.1,0.2,0.2,0.5,0.2,0.8c0,0.3,0.1,0.7,0.1,1c0,0.5,0,0.9-0.1,1.3c-0.1,0.4-0.2,0.7-0.4,1c-0.2,0.3-0.5,0.5-0.8,0.7
		c-0.3,0.2-0.8,0.2-1.2,0.2c-0.4,0-0.7-0.1-1-0.2c-0.3-0.1-0.6-0.3-0.8-0.5c-0.2-0.2-0.4-0.5-0.5-0.8c-0.1-0.3-0.2-0.6-0.2-1v-0.6
		h1.5v0.5c0,0.3,0.1,0.5,0.2,0.8c0.2,0.2,0.4,0.3,0.8,0.3c0.3,0,0.5,0,0.6-0.1c0.1-0.1,0.3-0.2,0.3-0.3c0.1-0.1,0.1-0.3,0.1-0.5
		c0-0.2,0-0.4,0-0.7c0-0.3,0-0.5,0-0.7c0-0.2-0.1-0.3-0.1-0.4c-0.1-0.1-0.2-0.2-0.3-0.3c-0.1-0.1-0.3-0.1-0.5-0.2l-1.1-0.5
		c-0.7-0.3-1.1-0.6-1.3-1.1c-0.2-0.4-0.3-1-0.3-1.7c0-0.4,0.1-0.8,0.2-1.1c0.1-0.4,0.3-0.7,0.5-0.9c0.2-0.3,0.5-0.5,0.8-0.6
		c0.3-0.2,0.7-0.2,1.2-0.2c0.4,0,0.7,0.1,1,0.2c0.3,0.1,0.6,0.3,0.8,0.6c0.2,0.2,0.4,0.5,0.5,0.8c0.1,0.3,0.2,0.6,0.2,0.9V12z"/>
	<polygon class="st0" points="56.5,10.4 54.7,10.4 54.7,8.9 59.8,8.9 59.8,10.4 58,10.4 58,19.7 56.5,19.7 	"/>
	<polygon class="st0" points="60.5,8.9 62,8.9 62,18.1 65.1,18.1 65.1,19.7 60.5,19.7 	"/>
	<polygon class="st0" points="66.1,8.9 70.6,8.9 70.6,10.4 67.6,10.4 67.6,13.5 70.2,13.5 70.2,15 67.6,15 67.6,18.1 70.6,18.1 
		70.6,19.7 66.1,19.7 	"/>
	<polygon class="st0" points="72.9,8.9 77.5,8.9 77.5,10.4 74.4,10.4 74.4,13.6 77.1,13.6 77.1,15.1 74.4,15.1 74.4,19.7 72.9,19.7 
			"/>
	<path class="st0" d="M79.9,17.1c0,0.4,0.1,0.6,0.3,0.8c0.2,0.2,0.4,0.3,0.7,0.3c0.3,0,0.5-0.1,0.7-0.3c0.2-0.2,0.3-0.4,0.3-0.8
		v-5.7c0-0.4-0.1-0.6-0.3-0.8c-0.2-0.2-0.4-0.3-0.7-0.3c-0.3,0-0.5,0.1-0.7,0.3c-0.2,0.2-0.3,0.4-0.3,0.8V17.1z M78.4,11.5
		c0-0.4,0.1-0.8,0.2-1.1c0.2-0.3,0.3-0.6,0.6-0.8C79.5,9.3,79.7,9.1,80,9c0.3-0.1,0.6-0.2,0.9-0.2c0.3,0,0.6,0.1,0.9,0.2
		c0.3,0.1,0.6,0.3,0.8,0.5c0.2,0.2,0.4,0.5,0.6,0.8c0.2,0.3,0.2,0.7,0.2,1.1v5.7c0,0.4-0.1,0.8-0.2,1.2c-0.2,0.3-0.3,0.6-0.6,0.8
		c-0.2,0.2-0.5,0.4-0.8,0.5c-0.3,0.1-0.6,0.2-0.9,0.2c-0.3,0-0.6-0.1-0.9-0.2c-0.3-0.1-0.6-0.3-0.8-0.5c-0.2-0.2-0.4-0.5-0.6-0.8
		c-0.2-0.3-0.2-0.7-0.2-1.2V11.5z"/>
	<path class="st0" d="M86.4,13.7h0.9c0.3,0,0.5,0,0.6-0.1c0.2-0.1,0.3-0.2,0.4-0.3c0.1-0.1,0.1-0.3,0.2-0.5c0-0.2,0-0.4,0-0.7
		s0-0.5,0-0.7c0-0.2-0.1-0.4-0.2-0.5c-0.1-0.1-0.2-0.3-0.4-0.3c-0.2-0.1-0.4-0.1-0.7-0.1h-0.8V13.7z M84.9,8.9h2.5
		c1.8,0,2.7,1,2.7,3.1c0,0.6-0.1,1.2-0.3,1.6c-0.2,0.4-0.5,0.8-1,1.1l1.7,4.9h-1.6l-1.4-4.6h-0.9v4.6h-1.5V8.9z"/>
	<path class="st0" d="M91.2,11.5c0-0.4,0.1-0.8,0.2-1.1c0.2-0.3,0.3-0.6,0.6-0.8c0.2-0.2,0.5-0.4,0.8-0.5c0.3-0.1,0.6-0.2,0.9-0.2
		c0.3,0,0.6,0.1,0.9,0.2c0.3,0.1,0.6,0.3,0.8,0.5c0.2,0.2,0.4,0.5,0.6,0.8c0.2,0.3,0.2,0.7,0.2,1.1V12h-1.5v-0.5
		c0-0.4-0.1-0.6-0.3-0.8c-0.2-0.2-0.4-0.3-0.7-0.3c-0.3,0-0.5,0.1-0.7,0.3c-0.2,0.2-0.3,0.4-0.3,0.8v5.7c0,0.4,0.1,0.6,0.3,0.8
		c0.2,0.2,0.4,0.3,0.7,0.3c0.3,0,0.5-0.1,0.7-0.3c0.2-0.2,0.3-0.4,0.3-0.8v-2h-1.2v-1.4h2.8v3.4c0,0.4-0.1,0.8-0.2,1.2
		c-0.2,0.3-0.3,0.6-0.6,0.8c-0.2,0.2-0.5,0.4-0.8,0.5c-0.3,0.1-0.6,0.2-0.9,0.2c-0.3,0-0.6-0.1-0.9-0.2c-0.3-0.1-0.6-0.3-0.8-0.5
		c-0.2-0.2-0.4-0.5-0.6-0.8c-0.2-0.3-0.2-0.7-0.2-1.2V11.5z"/>
	<polygon class="st0" points="97.7,8.9 102.3,8.9 102.3,10.4 99.2,10.4 99.2,13.5 101.9,13.5 101.9,15 99.2,15 99.2,18.1 
		102.3,18.1 102.3,19.7 97.7,19.7 	"/>
	<path class="st0" d="M39.5,23.5h-0.8v2.7h0.8c0.7,0,0.8-0.5,0.8-1.3C40.3,24.1,40.1,23.5,39.5,23.5 M39.4,27h-0.8v3h-0.9v-7.3h1.6
		c1.1,0,1.7,0.5,1.7,2.1C41.2,26.4,40.6,27,39.4,27"/>
	<path class="st0" d="M47.8,24.2l-0.7,3.4h1.4L47.8,24.2z M49,30.1l-0.3-1.7h-1.7l-0.3,1.7h-0.9l1.7-7.3h0.9l1.7,7.3H49z"/>
	<path class="st0" d="M56.8,23.5H56v2.6h0.8c0.7,0,0.8-0.5,0.8-1.3C57.6,24.1,57.5,23.5,56.8,23.5 M57.8,30.1l-1-3.1H56v3.1h-0.9
		v-7.3h1.7c1.1,0,1.7,0.5,1.7,2.1c0,1-0.2,1.6-0.9,1.9l1.1,3.3H57.8z"/>
	<polygon class="st0" points="65.8,23.5 65.8,30.1 64.9,30.1 64.9,23.5 63.7,23.5 63.7,22.7 67,22.7 67,23.5 	"/>
	<polygon class="st0" points="75.2,30.1 73.3,25.1 73.3,30.1 72.4,30.1 72.4,22.7 73.2,22.7 75.1,27.7 75.1,22.7 76,22.7 76,30.1 	
		"/>
	<polygon class="st0" points="81.8,30.1 81.8,22.7 84.7,22.7 84.7,23.5 82.7,23.5 82.7,26 84.4,26 84.4,26.8 82.7,26.8 82.7,29.3 
		84.7,29.3 84.7,30.1 	"/>
	<path class="st0" d="M91.9,23.5h-0.8v2.6h0.8c0.7,0,0.8-0.5,0.8-1.3C92.7,24.1,92.6,23.5,91.9,23.5 M92.9,30.1l-1-3.1h-0.8v3.1
		h-0.9v-7.3h1.7c1.1,0,1.7,0.5,1.7,2.1c0,1-0.2,1.6-0.9,1.9l1.1,3.3H92.9z"/>
	<path class="st0" d="M102.2,29.7c-0.3,0.3-0.7,0.4-1.3,0.4c-0.6,0-1-0.2-1.3-0.4c-0.3-0.3-0.5-0.8-0.5-1.5h0.9c0,0.5,0.1,0.7,0.2,1
		c0.1,0.1,0.3,0.2,0.6,0.2c0.3,0,0.5-0.1,0.6-0.2c0.2-0.2,0.2-0.5,0.2-1c0-0.8-0.1-1.1-0.7-1.3l-0.8-0.3c-0.7-0.3-1-0.7-1-1.8
		c0-0.6,0.2-1.2,0.6-1.5c0.3-0.3,0.7-0.4,1.2-0.4c0.5,0,0.9,0.2,1.2,0.4c0.4,0.4,0.5,0.8,0.5,1.5h-0.9c0-0.4,0-0.7-0.2-0.9
		c-0.1-0.2-0.3-0.2-0.6-0.2c-0.3,0-0.4,0.1-0.6,0.2c-0.2,0.2-0.3,0.5-0.3,0.9c0,0.7,0.1,0.9,0.7,1.2l0.8,0.3c0.8,0.3,1,0.9,1,2
		C102.7,28.9,102.5,29.3,102.2,29.7"/>
</g>
</svg>
