<?xml version="1.0" encoding="utf-8"?>
<!-- Generator: Adobe Illustrator 22.1.0, SVG Export Plug-In . SVG Version: 6.00 Build 0)  -->
<svg version="1.1" id="Layer_1" xmlns="http://www.w3.org/2000/svg" xmlns:xlink="http://www.w3.org/1999/xlink" x="0px" y="0px"
	 viewBox="0 0 92.7 28.3" style="enable-background:new 0 0 92.7 28.3;" xml:space="preserve">
<style type="text/css">
	.st0{fill:#54565A;}
</style>
<g>
	<g>
		<path class="st0" d="M42.1,13.7c2.9-1,3.5-3.4,3.5-5.4c0-3.1-2.2-5.7-8.6-5.7H25.1c0,0,0,22.3,0,23c0.7,0,11.9,0,11.9,0
			c6.4,0,8.8-3.3,8.8-6.6C45.8,14.9,42.1,13.7,42.1,13.7z M30.8,7.6h8l0,0l0,0c0.9,0.2,1.6,0.9,1.6,1.8s-0.7,1.8-1.6,1.9h-8V7.6z
			 M38.4,20.2h-7.6v-3.8h7.8l0,0l0,0c1,0.1,1.7,0.9,1.7,1.9S39.4,20.2,38.4,20.2z"/>
	</g>
	<path class="st0" d="M72.5,2.6h20.2v5H78.1v3.7h13.1v5H78.1v4h14.5v5.3c0,0-19.5,0-20.2,0C72.5,24.9,72.5,2.6,72.5,2.6z"/>
	<path class="st0" d="M60.8,2.6H48.6v23c0,0,5,0,5.6,0c0-0.6,0-9.3,0-9.3h6.2c1.8,0,3.1,1.5,3.1,3.3v6H69v-7.4
		c0-3.4-3.3-4.5-3.3-4.5s3.4-1,3.4-5.1C69,3.6,64.7,2.6,60.8,2.6z M63.8,9.7c-0.1,0.8-0.9,1.6-1.8,1.6h-7.9V7.6H62
		c0.9,0,1.7,0.7,1.8,1.6V9.7z"/>
	<path id="XMLID_14_" class="st0" d="M21.5,20c-0.1,0-7.7,0.1-10.3-0.1c-4.2-0.4-5.7-3.5-5.7-6.1c0-3.2,2.2-5.5,5.5-5.9
		c1.6-0.2,10.3-0.1,10.4-0.1h0.2V2.6h-0.2h-9.9c-1.1,0.1-2.9,0.2-4.8,0.9C5,4.4,3.4,5.6,2.3,7.2C0.8,9.2,0,11.6,0,14.1
		c0,0.8,0.1,1.6,0.2,2.3c0.7,3.5,3,6.4,6.3,7.9c1.1,0.5,2.8,1.1,6.3,1.3h1.9h6.9h0.2v-5.5L21.5,20z"/>
</g>
</svg>
