<svg version="1.1" id="Layer_1" xmlns="http://www.w3.org/2000/svg" xmlns:xlink="http://www.w3.org/1999/xlink" x="0" y="0" viewBox="0 0 102.7 34.4" xml:space="preserve" enable-background="new 0 0 102.7 34.4"><style type="text/css">.st0{fill:#fff}</style><g><g><path class="st0" d="M47.1,16.8c2.9-1,3.5-3.4,3.5-5.4c0-3.1-2.2-5.7-8.6-5.7l-11.9,0c0,0,0,22.3,0,23c0.7,0,11.9,0,11.9,0 c6.4,0,8.8-3.3,8.8-6.6C50.8,18,47.1,16.8,47.1,16.8z M35.8,10.7h8h0l0,0c0.9,0.2,1.6,0.9,1.6,1.8c0,0.9-0.7,1.8-1.6,1.9l-8,0 L35.8,10.7z M43.4,23.3h-7.6v-3.8h7.8h0l0,0c1,0.1,1.7,0.9,1.7,1.9C45.3,22.4,44.4,23.3,43.4,23.3z"/></g><path class="st0" d="M77.5,5.7h20.2l0,5H83.1l0,3.7h13.1v5H83.1v4h14.5l0,5.3c0,0-19.5,0-20.2,0C77.5,28,77.5,5.7,77.5,5.7z"/><path class="st0" d="M65.8,5.7H53.6v23c0,0,5,0,5.6,0c0-0.6,0-9.3,0-9.3l6.2,0c1.8,0,3.1,1.5,3.1,3.3v6l5.5,0l0-7.4 c0-3.4-3.3-4.5-3.3-4.5s3.4-1,3.4-5.1C74,6.7,69.7,5.7,65.8,5.7z M68.8,12.8c-0.1,0.8-0.9,1.6-1.8,1.6l-7.9,0v-3.7H67 c0.9,0,1.7,0.7,1.8,1.6V12.8z"/><path id="XMLID_14_" class="st0" d="M26.5,23.1c-0.1,0-7.7,0.1-10.3-0.1c-4.2-0.4-5.7-3.5-5.7-6.1c0-3.2,2.2-5.5,5.5-5.9 c1.6-0.2,10.3-0.1,10.4-0.1l0.2,0l0-5.2l-0.2,0l-9.9,0c-1.1,0.1-2.9,0.2-4.8,0.9C10,7.5,8.4,8.7,7.3,10.3c-1.5,2-2.3,4.4-2.3,6.9 c0,0.8,0.1,1.6,0.2,2.3c0.7,3.5,3,6.4,6.3,7.9c1.1,0.5,2.8,1.1,6.3,1.3c0,0,1.9,0,1.9,0l6.9,0h0.2l0-5.5L26.5,23.1z"/></g></svg>