<?xml version="1.0" encoding="utf-8"?>
<!-- Generator: Adobe Illustrator 19.0.0, SVG Export Plug-In . SVG Version: 6.00 Build 0)  -->
<svg version="1.1" id="Layer_1" xmlns="http://www.w3.org/2000/svg" xmlns:xlink="http://www.w3.org/1999/xlink" x="0px" y="0px"
	 viewBox="0 0 246.2 220.4" style="enable-background:new 0 0 246.2 220.4;" xml:space="preserve">
<style type="text/css">
	.st0{fill:#FFFFFF;}
	.st1{fill:#8C189B;}
</style>
<path id="XMLID_55_" class="st0" d="M172.8,95.9c-0.6,0-1.1-0.1-1.7-0.2c-2.6-0.7-4.6-2.8-5.1-5.4l-4.3-22.8l-31.6,8.6
	c-2.8,0.8-5.7-0.3-7.4-2.7c-1.7-2.4-1.7-5.5,0-7.9L166,3c1.5-2.1,4-3.2,6.5-2.9c2.5,0.3,4.7,2,5.6,4.5l7.3,20.1l51-24
	c2.9-1.4,6.3-0.5,8.3,2s1.9,6.1-0.1,8.6l-66.5,82.2C176.8,95,174.8,95.9,172.8,95.9z M167.2,52.1c1.3,0,2.5,0.4,3.6,1.1
	c1.6,1,2.7,2.7,3.1,4.6l2.9,15.5l38.3-47.4l-30.7,14.4c-1.7,0.8-3.8,0.9-5.5,0.1c-1.8-0.7-3.2-2.2-3.8-4l-5.3-14.7L144.7,58
	l20.7-5.6C166,52.2,166.6,52.1,167.2,52.1z"/>
<path id="XMLID_56_" class="st1" d="M38.8,220.4C21.7,220.4,6,209,1.3,191.7c-5.6-20.6,6.7-41.9,27.4-47.5c2.8-0.8,5.8-1.2,8.7-1.3
	c4.6-17.1,18-30.8,35.7-35.6c17.6-4.7,36.1,0.4,48.7,12.8c2.6-1.4,5.3-2.5,8.2-3.2c10-2.7,20.4-1.3,29.4,3.8
	c9,5.2,15.4,13.5,18.1,23.5c2.7,10,1.3,20.4-3.8,29.4c-5.2,9-13.5,15.4-23.5,18.1c-8.7,2.3-17.8,1.5-25.9-2
	c-6.5,7.4-15.1,12.8-24.8,15.4c-9.7,2.6-19.8,2.3-29.2-0.8c-5.2,7.2-12.7,12.5-21.4,14.8C45.5,219.9,42.1,220.4,38.8,220.4z
	 M38.7,163.1c-1.6,0-3.2,0.2-4.8,0.6c-9.9,2.7-15.8,12.9-13.1,22.7c2.7,9.9,12.9,15.7,22.7,13.1c5.9-1.6,10.6-6,12.7-11.7
	c1-2.8,3.2-5.1,6.1-6.1c2.8-1,6-0.8,8.6,0.8c7.1,4.1,15.3,5.3,23.3,3.1c7.9-2.1,14.5-7.2,18.6-14.4c1.5-2.6,4.1-4.4,7-5
	c3-0.5,6,0.3,8.3,2.2c4.7,3.9,10.9,5.4,16.8,3.8c4.8-1.3,8.8-4.4,11.3-8.7c2.5-4.3,3.1-9.3,1.8-14.1c-1.3-4.8-4.4-8.8-8.7-11.3
	s-9.3-3.1-14.1-1.8c0,0,0,0,0,0c-3.1,0.8-5.8,2.4-8.1,4.6c-2.2,2.1-5.1,3.1-8.1,2.8c-3-0.3-5.7-2-7.4-4.5
	c-7.2-10.9-20.6-16-33.3-12.6c-12.7,3.4-21.7,14.5-22.5,27.6c-0.2,3-1.7,5.8-4.1,7.6c-2.4,1.8-5.5,2.4-8.5,1.6
	C41.8,163.2,40.3,163.1,38.7,163.1z"/>
</svg>
