<?xml version="1.0" encoding="utf-8"?>
<!-- Generator: Adobe Illustrator 19.0.0, SVG Export Plug-In . SVG Version: 6.00 Build 0)  -->
<svg version="1.1" id="Layer_1" xmlns="http://www.w3.org/2000/svg" xmlns:xlink="http://www.w3.org/1999/xlink" x="0px" y="0px"
	 viewBox="0 0 87.7 76.7" style="enable-background:new 0 0 87.7 76.7;" xml:space="preserve">
<style type="text/css">
	.st0{fill:#8E9090;}
</style>
<g id="XMLID_3_">
	<g id="XMLID_15_">
		<path id="XMLID_16_" class="st0" d="M18.3,38.9h49.6L56.2,62.2H29.9L18.3,38.9z M12.1,35.1l15.3,30.5h31.4L74,35.1H12.1z"/>
	</g>
	<g id="XMLID_4_">
		<g id="XMLID_13_">
			
				<rect id="XMLID_14_" x="15.1" y="18" transform="matrix(0.4458 0.8951 -0.8951 0.4458 30.6574 -10.4133)" class="st0" width="17.3" height="3.2"/>
		</g>
		<g id="XMLID_9_">
			
				<rect id="XMLID_11_" x="30.5" y="18" transform="matrix(0.4458 0.8951 -0.8951 0.4458 39.2304 -24.2607)" class="st0" width="17.3" height="3.2"/>
		</g>
		<g id="XMLID_7_">
			
				<rect id="XMLID_8_" x="46" y="18" transform="matrix(0.4458 0.8951 -0.8951 0.4458 47.8034 -38.1081)" class="st0" width="17.3" height="3.2"/>
		</g>
		<g id="XMLID_5_">
			<polygon id="XMLID_6_" class="st0" points="75.6,52.2 65.3,52.2 65.3,49 72.4,49 72.4,44.3 67.8,44.3 67.8,41.2 75.6,41.2 			"/>
		</g>
	</g>
</g>
</svg>
