<svg version="1.1" id="Layer_1" xmlns="http://www.w3.org/2000/svg" xmlns:xlink="http://www.w3.org/1999/xlink" x="0" y="0" viewBox="0 0 556.2 939" xml:space="preserve" enable-background="new 0 0 556.2 939"><style type="text/css">.st0{clip-path:url(#SVGID_1_)}.st1{fill:#8f9091}.st2{clip-path:url(#SVGID_2_)}.st3{clip-path:url(#SVGID_3_)}.st4{clip-path:url(#SVGID_4_)}.st5{fill:#fff}.st6{clip-path:url(#SVGID_5_)}.st7{clip-path:url(#SVGID_6_)}</style><g><defs><rect id="SVGID_13_" x="-722.8" width="1279" height="939"/></defs><clipPath id="SVGID_1_"><use xlink:href="#SVGID_13_" overflow="visible"/></clipPath><g class="st0"><g><path id="XMLID_21_" class="st1" d="M418,399.2c-12.4,81.1-21.3,162.8-25.8,245c-1.9,34.9-3,69.8-3.3,104.6 c27.6-16.4,55-33.1,82.3-50.1C447.2,600.1,429.5,500,418,399.2z"/></g><g><path id="XMLID_19_" class="st1" d="M489.4,769.4c-6.5-23.5-12.6-47.1-18.3-70.8c-27.2,17-54.6,33.7-82.3,50.1 c-1.1,112.4,5.9,224.4,19.8,335.7c73.8,30.3,152.5,45.9,231.9,41.6C571.1,1018.6,523.4,893.1,489.4,769.4z"/></g><g><path id="XMLID_17_" class="st1" d="M666,1124c-8.5,0.9-17,1.6-25.5,2.1c54.3,84,121.8,157,206.3,209.5 c-17.7-81.5-32.1-164.1-43.6-247.4C759.6,1106.5,713.6,1118.9,666,1124z"/></g><g><defs><path id="SVGID_15_" d="M640.5,1126.1c8.5-0.5,17-1.1,25.5-2.1c47.6-5.2,93.6-17.6,137.3-35.9 c-26.8-194.2-38.2-392.6-41.7-591.4c-14.5,11.2-29,22.4-43.6,33.3c-79.8,59.8-162.3,115.7-246.8,168.6 c5.7,23.7,11.8,47.3,18.3,70.8C523.4,893.1,571.1,1018.6,640.5,1126.1z"/></defs><clipPath id="SVGID_2_"><use xlink:href="#SVGID_15_" overflow="visible"/></clipPath><g class="st2"><g><line class="st1" x1="1139" y1="629.1" x2="805.3" y2="1263.2"/><rect x="613.8" y="945.8" transform="matrix(-0.4657 0.885 -0.885 -0.4657 2262.1362 526.4894)" class="st1" width="716.6" height=".8"/></g><g><line class="st1" x1="1127.4" y1="623" x2="793.7" y2="1257.1"/><rect x="602.2" y="939.7" transform="matrix(-0.4657 0.885 -0.885 -0.4657 2239.7061 527.8101)" class="st1" width="716.6" height=".8"/></g><g><line class="st1" x1="1115.7" y1="616.9" x2="782.1" y2="1251"/><rect x="590.6" y="933.6" transform="matrix(-0.4657 0.885 -0.885 -0.4657 2217.2759 529.1308)" class="st1" width="716.6" height=".8"/></g><g><line class="st1" x1="1104.1" y1="610.8" x2="770.4" y2="1244.9"/><rect x="579" y="927.5" transform="matrix(-0.4657 0.885 -0.885 -0.4657 2194.8457 530.4515)" class="st1" width="716.6" height=".8"/></g><g><line class="st1" x1="1092.5" y1="604.7" x2="758.8" y2="1238.8"/><rect x="567.4" y="921.3" transform="matrix(-0.4657 0.885 -0.885 -0.4657 2172.4155 531.7723)" class="st1" width="716.6" height=".8"/></g><g><line class="st1" x1="1080.9" y1="598.5" x2="747.2" y2="1232.7"/><rect x="555.8" y="915.2" transform="matrix(-0.4657 0.885 -0.885 -0.4657 2149.9854 533.093)" class="st1" width="716.6" height=".8"/></g><g><line class="st1" x1="1069.3" y1="592.4" x2="735.6" y2="1226.6"/><rect x="544.1" y="909.1" transform="matrix(-0.4657 0.885 -0.885 -0.4657 2127.5552 534.4138)" class="st1" width="716.6" height=".8"/></g><g><line class="st1" x1="1057.7" y1="586.3" x2="724" y2="1220.5"/><rect x="532.5" y="903" transform="matrix(-0.4657 0.885 -0.885 -0.4657 2105.1248 535.7344)" class="st1" width="716.6" height=".8"/></g><g><line class="st1" x1="1046.1" y1="580.2" x2="712.4" y2="1214.4"/><rect x="520.9" y="896.9" transform="matrix(-0.4657 0.885 -0.885 -0.4657 2082.6948 537.0552)" class="st1" width="716.6" height=".8"/></g><g><line class="st1" x1="1034.4" y1="574.1" x2="700.8" y2="1208.2"/><rect x="509.3" y="890.8" transform="matrix(-0.4657 0.885 -0.885 -0.4657 2060.2644 538.3759)" class="st1" width="716.6" height=".8"/></g><g><line class="st1" x1="1022.8" y1="568" x2="689.1" y2="1202.1"/><rect x="497.7" y="884.7" transform="matrix(-0.4657 0.885 -0.885 -0.4657 2037.8342 539.6967)" class="st1" width="716.6" height=".8"/></g><g><line class="st1" x1="1011.2" y1="561.9" x2="677.5" y2="1196"/><rect x="486.1" y="878.6" transform="matrix(-0.4657 0.885 -0.885 -0.4657 2015.4041 541.0174)" class="st1" width="716.6" height=".8"/></g><g><line class="st1" x1="999.6" y1="555.8" x2="665.9" y2="1189.9"/><rect x="474.5" y="872.5" transform="matrix(-0.4657 0.885 -0.885 -0.4657 1992.9739 542.3381)" class="st1" width="716.6" height=".8"/></g><g><line class="st1" x1="988" y1="549.7" x2="654.3" y2="1183.8"/><rect x="462.9" y="866.3" transform="matrix(-0.4657 0.885 -0.885 -0.4657 1970.5437 543.6588)" class="st1" width="716.6" height=".8"/></g><g><line class="st1" x1="976.4" y1="543.5" x2="642.7" y2="1177.7"/><rect x="451.2" y="860.2" transform="matrix(-0.4657 0.885 -0.885 -0.4657 1948.1134 544.9796)" class="st1" width="716.6" height=".8"/></g><g><line class="st1" x1="964.8" y1="537.4" x2="631.1" y2="1171.6"/><rect x="439.6" y="854.1" transform="matrix(-0.4657 0.885 -0.885 -0.4657 1925.6833 546.3003)" class="st1" width="716.6" height=".8"/></g><g><line class="st1" x1="953.1" y1="531.3" x2="619.5" y2="1165.5"/><rect x="428" y="848" transform="matrix(-0.4657 0.885 -0.885 -0.4657 1903.2531 547.621)" class="st1" width="716.6" height=".8"/></g><g><line class="st1" x1="941.5" y1="525.2" x2="607.8" y2="1159.4"/><rect x="416.4" y="841.9" transform="matrix(-0.4657 0.885 -0.885 -0.4657 1880.823 548.9418)" class="st1" width="716.6" height=".8"/></g><g><line class="st1" x1="929.9" y1="519.1" x2="596.2" y2="1153.2"/><rect x="404.8" y="835.8" transform="matrix(-0.4657 0.885 -0.885 -0.4657 1858.3927 550.2625)" class="st1" width="716.6" height=".8"/></g><g><line class="st1" x1="918.3" y1="513" x2="584.6" y2="1147.1"/><rect x="393.2" y="829.7" transform="matrix(-0.4657 0.885 -0.885 -0.4657 1835.9625 551.5832)" class="st1" width="716.6" height=".8"/></g><g><line class="st1" x1="906.7" y1="506.9" x2="573" y2="1141"/><rect x="381.6" y="823.6" transform="matrix(-0.4657 0.885 -0.885 -0.4657 1813.5322 552.9039)" class="st1" width="716.6" height=".8"/></g><g><line class="st1" x1="895.1" y1="500.8" x2="561.4" y2="1134.9"/><rect x="369.9" y="817.5" transform="matrix(-0.4657 0.885 -0.885 -0.4657 1791.1022 554.2247)" class="st1" width="716.6" height=".8"/></g><g><line class="st1" x1="883.5" y1="494.7" x2="549.8" y2="1128.8"/><rect x="358.3" y="811.3" transform="matrix(-0.4657 0.885 -0.885 -0.4657 1768.6719 555.5454)" class="st1" width="716.6" height=".8"/></g><g><line class="st1" x1="871.9" y1="488.5" x2="538.2" y2="1122.7"/><rect x="346.7" y="805.2" transform="matrix(-0.4657 0.885 -0.885 -0.4657 1746.2418 556.8661)" class="st1" width="716.6" height=".8"/></g><g><line class="st1" x1="860.2" y1="482.4" x2="526.5" y2="1116.6"/><rect x="335.1" y="799.1" transform="matrix(-0.4657 0.885 -0.885 -0.4657 1723.8115 558.1868)" class="st1" width="716.6" height=".8"/></g><g><line class="st1" x1="848.6" y1="476.3" x2="514.9" y2="1110.5"/><rect x="323.5" y="793" transform="matrix(-0.4657 0.885 -0.885 -0.4657 1701.3813 559.5076)" class="st1" width="716.6" height=".8"/></g><g><line class="st1" x1="837" y1="470.2" x2="503.3" y2="1104.4"/><rect x="311.9" y="786.9" transform="matrix(-0.4657 0.885 -0.885 -0.4657 1678.9512 560.8283)" class="st1" width="716.6" height=".8"/></g><g><line class="st1" x1="825.4" y1="464.1" x2="491.7" y2="1098.2"/><rect x="300.3" y="780.8" transform="matrix(-0.4657 0.885 -0.885 -0.4657 1656.521 562.149)" class="st1" width="716.6" height=".8"/></g><g><line class="st1" x1="813.8" y1="458" x2="480.1" y2="1092.1"/><rect x="288.6" y="774.7" transform="matrix(-0.4657 0.885 -0.885 -0.4657 1634.0907 563.4698)" class="st1" width="716.6" height=".8"/></g><g><line class="st1" x1="802.2" y1="451.9" x2="468.5" y2="1086"/><rect x="277" y="768.6" transform="matrix(-0.4657 0.885 -0.885 -0.4657 1611.6606 564.7905)" class="st1" width="716.6" height=".8"/></g><g><line class="st1" x1="790.6" y1="445.8" x2="456.9" y2="1079.9"/><rect x="265.4" y="762.5" transform="matrix(-0.4657 0.885 -0.885 -0.4657 1589.2303 566.1112)" class="st1" width="716.6" height=".8"/></g><g><line class="st1" x1="778.9" y1="439.7" x2="445.2" y2="1073.8"/><rect x="253.8" y="756.3" transform="matrix(-0.4657 0.885 -0.885 -0.4657 1566.8003 567.4319)" class="st1" width="716.6" height=".8"/></g><g><line class="st1" x1="767.3" y1="433.5" x2="433.6" y2="1067.7"/><rect x="242.2" y="750.2" transform="matrix(-0.4657 0.885 -0.885 -0.4657 1544.37 568.7527)" class="st1" width="716.6" height=".8"/></g><g><line class="st1" x1="755.7" y1="427.4" x2="422" y2="1061.6"/><rect x="230.6" y="744.1" transform="matrix(-0.4657 0.885 -0.885 -0.4657 1521.9398 570.0734)" class="st1" width="716.6" height=".8"/></g><g><line class="st1" x1="744.1" y1="421.3" x2="410.4" y2="1055.5"/><rect x="219" y="738" transform="matrix(-0.4657 0.885 -0.885 -0.4657 1499.5095 571.3941)" class="st1" width="716.6" height=".8"/></g><g><line class="st1" x1="732.5" y1="415.2" x2="398.8" y2="1049.4"/><rect x="207.3" y="731.9" transform="matrix(-0.4657 0.885 -0.885 -0.4657 1477.0795 572.7148)" class="st1" width="716.6" height=".8"/></g><g><line class="st1" x1="720.9" y1="409.1" x2="387.2" y2="1043.2"/><rect x="195.7" y="725.8" transform="matrix(-0.4657 0.885 -0.885 -0.4657 1454.6492 574.0356)" class="st1" width="716.6" height=".8"/></g><g><line class="st1" x1="709.3" y1="403" x2="375.6" y2="1037.1"/><rect x="184.1" y="719.7" transform="matrix(-0.4657 0.885 -0.885 -0.4657 1432.2191 575.3563)" class="st1" width="716.6" height=".8"/></g><g><line class="st1" x1="697.6" y1="396.9" x2="364" y2="1031"/><rect x="172.5" y="713.6" transform="matrix(-0.4657 0.885 -0.885 -0.4657 1409.7888 576.6771)" class="st1" width="716.6" height=".8"/></g><g><line class="st1" x1="686" y1="390.8" x2="352.3" y2="1024.9"/><rect x="160.9" y="707.5" transform="matrix(-0.4657 0.885 -0.885 -0.4657 1387.3586 577.9977)" class="st1" width="716.6" height=".8"/></g><g><line class="st1" x1="674.4" y1="384.7" x2="340.7" y2="1018.8"/><rect x="149.3" y="701.3" transform="matrix(-0.4657 0.885 -0.885 -0.4657 1364.9285 579.3185)" class="st1" width="716.6" height=".8"/></g><g><line class="st1" x1="662.8" y1="378.5" x2="329.1" y2="1012.7"/><rect x="137.7" y="695.2" transform="matrix(-0.4657 0.885 -0.885 -0.4657 1342.4983 580.6392)" class="st1" width="716.6" height=".8"/></g><g><line class="st1" x1="651.2" y1="372.4" x2="317.5" y2="1006.6"/><rect x="126.1" y="689.1" transform="matrix(-0.4657 0.885 -0.885 -0.4657 1320.0682 581.96)" class="st1" width="716.6" height=".8"/></g><g><line class="st1" x1="639.6" y1="366.3" x2="305.9" y2="1000.5"/><rect x="114.4" y="683" transform="matrix(-0.4657 0.885 -0.885 -0.4657 1297.6378 583.2807)" class="st1" width="716.6" height=".8"/></g><g><line class="st1" x1="628" y1="360.2" x2="294.3" y2="994.4"/><rect x="102.8" y="676.9" transform="matrix(-0.4657 0.885 -0.885 -0.4657 1275.2076 584.6014)" class="st1" width="716.6" height=".8"/></g></g></g><g><defs><path id="SVGID_17_" d="M840.1,333.9c19.1,16.7,37.4,34.4,54.8,52.7c47.6-41.9,93.8-85.4,138.2-130.5L762.7,113.8 c-1,53.2-1.7,106.5-2.1,159.9C788.6,291.9,815.2,312.1,840.1,333.9z"/></defs><clipPath id="SVGID_3_"><use xlink:href="#SVGID_17_" overflow="visible"/></clipPath><g class="st3"><g><line class="st1" x1="1425.2" y1="-117.6" x2="1449.9" y2="511.8"/><rect x="1388.2" y="-117.9" transform="matrix(-0.9992 3.919795e-02 -3.919795e-02 -0.9992 2881.8081 337.6514)" class="st1" width="98.8" height="629.9"/></g><g><line class="st1" x1="1215.4" y1="-109.4" x2="1240.1" y2="520"/><rect x="1178.4" y="-109.7" transform="matrix(-0.9992 3.919795e-02 -3.919795e-02 -0.9992 2462.6611 362.3306)" class="st1" width="98.8" height="629.9"/></g><g><line class="st1" x1="1005.6" y1="-101.2" x2="1030.3" y2="528.3"/><rect x="968.6" y="-101.4" transform="matrix(-0.9992 3.919795e-02 -3.919795e-02 -0.9992 2043.5137 387.0111)" class="st1" width="98.8" height="629.9"/></g><g><line class="st1" x1="795.8" y1="-93" x2="820.5" y2="536.5"/><rect x="758.8" y="-93.2" transform="matrix(-0.9992 3.919795e-02 -3.919795e-02 -0.9992 1624.3667 411.6904)" class="st1" width="98.8" height="629.9"/></g></g></g><g><defs><path id="SVGID_19_" d="M760.6,273.7c0.4-53.4,1.1-106.7,2.1-159.9L510-19.2c-17.6,63.4-33.9,127.2-48.5,191.3 C567,177.3,670.7,215.2,760.6,273.7z"/></defs><clipPath id="SVGID_4_"><use xlink:href="#SVGID_19_" overflow="visible"/></clipPath><g class="st4"><g><line class="st1" x1="877.8" y1="291.1" x2="300.8" y2="313.7"/><rect x="300.5" y="299.3" transform="matrix(-0.9992 3.919938e-02 -3.919938e-02 -0.9992 1189.9269 581.486)" class="st1" width="577.4" height="6.2"/></g><g><line class="st1" x1="874.7" y1="212.4" x2="297.7" y2="235"/><rect x="297.5" y="220.6" transform="matrix(-0.9992 3.919938e-02 -3.919938e-02 -0.9992 1180.6714 424.3056)" class="st1" width="577.4" height="6.2"/></g><g><line class="st1" x1="871.6" y1="133.7" x2="294.6" y2="156.4"/><rect x="294.4" y="142" transform="matrix(-0.9992 3.919938e-02 -3.919938e-02 -0.9992 1171.4165 267.1255)" class="st1" width="577.4" height="6.2"/></g><g><line class="st1" x1="868.5" y1="55" x2="291.5" y2="77.7"/><rect x="291.3" y="63.3" transform="matrix(-0.9992 3.919877e-02 -3.919877e-02 -0.9992 1162.1614 109.9454)" class="st1" width="577.4" height="6.2"/></g><g><line class="st1" x1="865.4" y1="-23.6" x2="288.4" y2="-1"/><rect x="288.2" y="-15.4" transform="matrix(-0.9992 3.919938e-02 -3.919938e-02 -0.9992 1152.9064 -47.2354)" class="st1" width="577.4" height="6.2"/></g><g><line class="st1" x1="877.2" y1="278" x2="300.3" y2="300.6"/><rect x="300" y="286.2" transform="matrix(-0.9992 3.919933e-02 -3.919933e-02 -0.9992 1188.3839 555.2894)" class="st1" width="577.4" height="6.2"/></g><g><line class="st1" x1="874.2" y1="199.3" x2="297.2" y2="221.9"/><rect x="296.9" y="207.5" transform="matrix(-0.9992 3.919910e-02 -3.919910e-02 -0.9992 1179.1289 398.1089)" class="st1" width="577.4" height="6.2"/></g><g><line class="st1" x1="871.1" y1="120.6" x2="294.1" y2="143.3"/><rect x="293.9" y="128.8" transform="matrix(-0.9992 3.919910e-02 -3.919910e-02 -0.9992 1169.8741 240.9288)" class="st1" width="577.4" height="6.2"/></g><g><line class="st1" x1="868" y1="41.9" x2="291" y2="64.6"/><rect x="290.8" y="50.2" transform="matrix(-0.9992 3.919877e-02 -3.919877e-02 -0.9992 1160.619 83.7487)" class="st1" width="577.4" height="6.2"/></g><g><line class="st1" x1="864.9" y1="-36.7" x2="287.9" y2="-14.1"/><rect x="287.7" y="-28.5" transform="matrix(-0.9992 3.919938e-02 -3.919938e-02 -0.9992 1151.3639 -73.4321)" class="st1" width="577.4" height="6.2"/></g><g><line class="st1" x1="876.7" y1="264.9" x2="299.7" y2="287.5"/><rect x="299.5" y="273.1" transform="matrix(-0.9992 3.919905e-02 -3.919905e-02 -0.9992 1186.8414 529.0927)" class="st1" width="577.4" height="6.2"/></g><g><line class="st1" x1="873.6" y1="186.2" x2="296.7" y2="208.8"/><rect x="296.4" y="194.4" transform="matrix(-0.9992 3.919938e-02 -3.919938e-02 -0.9992 1177.5864 371.9122)" class="st1" width="577.4" height="6.2"/></g><g><line class="st1" x1="870.6" y1="107.5" x2="293.6" y2="130.1"/><rect x="293.3" y="115.7" transform="matrix(-0.9992 3.919938e-02 -3.919938e-02 -0.9992 1168.3315 214.7321)" class="st1" width="577.4" height="6.2"/></g><g><line class="st1" x1="867.5" y1="28.8" x2="290.5" y2="51.5"/><rect x="290.3" y="37.1" transform="matrix(-0.9992 3.919877e-02 -3.919877e-02 -0.9992 1159.0765 57.5521)" class="st1" width="577.4" height="6.2"/></g><g><line class="st1" x1="864.4" y1="-49.9" x2="287.4" y2="-27.2"/><rect x="287.2" y="-41.6" transform="matrix(-0.9992 3.919938e-02 -3.919938e-02 -0.9992 1149.8214 -99.6287)" class="st1" width="577.4" height="6.2"/></g><g><line class="st1" x1="879.3" y1="330.4" x2="302.3" y2="353.1"/><rect x="302.1" y="338.7" transform="matrix(-0.9992 3.919966e-02 -3.919966e-02 -0.9992 1194.5542 660.076)" class="st1" width="577.4" height="6.2"/></g><g><line class="st1" x1="876.2" y1="251.8" x2="299.2" y2="274.4"/><rect x="299" y="260" transform="matrix(-0.9992 3.919933e-02 -3.919933e-02 -0.9992 1185.299 502.896)" class="st1" width="577.4" height="6.2"/></g><g><line class="st1" x1="873.1" y1="173.1" x2="296.1" y2="195.7"/><rect x="295.9" y="181.3" transform="matrix(-0.9992 3.919910e-02 -3.919910e-02 -0.9992 1176.0439 345.7155)" class="st1" width="577.4" height="6.2"/></g><g><line class="st1" x1="870" y1="94.4" x2="293" y2="117"/><rect x="292.8" y="102.6" transform="matrix(-0.9992 3.919910e-02 -3.919910e-02 -0.9992 1166.7892 188.5354)" class="st1" width="577.4" height="6.2"/></g><g><line class="st1" x1="867" y1="15.7" x2="290" y2="38.3"/><rect x="289.7" y="23.9" transform="matrix(-0.9992 3.919910e-02 -3.919910e-02 -0.9992 1157.5337 31.355)" class="st1" width="577.4" height="6.2"/></g><g><line class="st1" x1="863.9" y1="-63" x2="286.9" y2="-40.3"/><rect x="286.7" y="-54.7" transform="matrix(-0.9992 3.919938e-02 -3.919938e-02 -0.9992 1148.2789 -125.8254)" class="st1" width="577.4" height="6.2"/></g><g><line class="st1" x1="878.8" y1="317.3" x2="301.8" y2="340"/><rect x="301.6" y="325.5" transform="matrix(-0.9992 3.919938e-02 -3.919938e-02 -0.9992 1193.0117 633.8794)" class="st1" width="577.4" height="6.2"/></g><g><line class="st1" x1="875.7" y1="238.6" x2="298.7" y2="261.3"/><rect x="298.5" y="246.9" transform="matrix(-0.9992 3.919905e-02 -3.919905e-02 -0.9992 1183.7566 476.6993)" class="st1" width="577.4" height="6.2"/></g><g><line class="st1" x1="872.6" y1="160" x2="295.6" y2="182.6"/><rect x="295.4" y="168.2" transform="matrix(-0.9992 3.919938e-02 -3.919938e-02 -0.9992 1174.5015 319.5189)" class="st1" width="577.4" height="6.2"/></g><g><line class="st1" x1="869.5" y1="81.3" x2="292.5" y2="103.9"/><rect x="292.3" y="89.5" transform="matrix(-0.9992 3.919938e-02 -3.919938e-02 -0.9992 1165.2466 162.3388)" class="st1" width="577.4" height="6.2"/></g><g><line class="st1" x1="866.4" y1="2.6" x2="289.4" y2="25.2"/><rect x="289.2" y="10.8" transform="matrix(-0.9992 3.919938e-02 -3.919938e-02 -0.9992 1155.9913 5.158)" class="st1" width="577.4" height="6.2"/></g><g><line class="st1" x1="863.4" y1="-76.1" x2="286.4" y2="-53.5"/><rect x="286.1" y="-67.9" transform="matrix(-0.9992 3.919938e-02 -3.919938e-02 -0.9992 1146.7365 -152.0221)" class="st1" width="577.4" height="6.2"/></g><g><line class="st1" x1="878.3" y1="304.2" x2="301.3" y2="326.8"/><rect x="301.1" y="312.4" transform="matrix(-0.9992 3.919966e-02 -3.919966e-02 -0.9992 1191.4692 607.6827)" class="st1" width="577.4" height="6.2"/></g><g><line class="st1" x1="875.2" y1="225.5" x2="298.2" y2="248.2"/><rect x="298" y="233.8" transform="matrix(-0.9992 3.919910e-02 -3.919910e-02 -0.9992 1182.2139 450.5023)" class="st1" width="577.4" height="6.2"/></g><g><line class="st1" x1="872.1" y1="146.8" x2="295.1" y2="169.5"/><rect x="294.9" y="155.1" transform="matrix(-0.9992 3.919910e-02 -3.919910e-02 -0.9992 1172.959 293.3222)" class="st1" width="577.4" height="6.2"/></g><g><line class="st1" x1="869" y1="68.2" x2="292" y2="90.8"/><rect x="291.8" y="76.4" transform="matrix(-0.9992 3.919877e-02 -3.919877e-02 -0.9992 1163.7039 136.1421)" class="st1" width="577.4" height="6.2"/></g><g><line class="st1" x1="865.9" y1="-10.5" x2="288.9" y2="12.1"/><rect x="288.7" y="-2.3" transform="matrix(-0.9992 3.919938e-02 -3.919938e-02 -0.9992 1154.4489 -21.0387)" class="st1" width="577.4" height="6.2"/></g><g><line class="st1" x1="862.8" y1="-89.2" x2="285.8" y2="-66.6"/><rect x="285.6" y="-81" transform="matrix(-0.9992 3.919938e-02 -3.919938e-02 -0.9992 1145.194 -178.2188)" class="st1" width="577.4" height="6.2"/></g><g><line class="st1" x1="862.3" y1="-102.3" x2="285.3" y2="-79.7"/><rect x="285.1" y="-94.1" transform="matrix(-0.9992 3.919938e-02 -3.919938e-02 -0.9992 1143.6516 -204.4155)" class="st1" width="577.4" height="6.2"/></g><g><line class="st1" x1="861.8" y1="-115.4" x2="284.8" y2="-92.8"/><rect x="284.6" y="-107.2" transform="matrix(-0.9992 3.919938e-02 -3.919938e-02 -0.9992 1142.1091 -230.6122)" class="st1" width="577.4" height="6.2"/></g><g><line class="st1" x1="861.3" y1="-128.5" x2="284.3" y2="-105.9"/><rect x="284.1" y="-120.3" transform="matrix(-0.9992 3.919938e-02 -3.919938e-02 -0.9992 1140.5667 -256.8088)" class="st1" width="577.4" height="6.2"/></g><g><line class="st1" x1="860.8" y1="-141.7" x2="283.8" y2="-119"/><rect x="283.6" y="-133.4" transform="matrix(-0.9992 3.919905e-02 -3.919905e-02 -0.9992 1139.0238 -283.0055)" class="st1" width="577.4" height="6.2"/></g><g><line class="st1" x1="860.3" y1="-154.8" x2="283.3" y2="-132.1"/><rect x="283.1" y="-146.5" transform="matrix(-0.9992 3.919905e-02 -3.919905e-02 -0.9992 1137.4814 -309.2022)" class="st1" width="577.4" height="6.2"/></g><g><line class="st1" x1="859.8" y1="-167.9" x2="282.8" y2="-145.2"/><rect x="282.5" y="-159.6" transform="matrix(-0.9992 3.919905e-02 -3.919905e-02 -0.9992 1135.939 -335.3989)" class="st1" width="577.4" height="6.2"/></g><g><line class="st1" x1="859.2" y1="-181" x2="282.2" y2="-158.4"/><rect x="282" y="-172.8" transform="matrix(-0.9992 3.919905e-02 -3.919905e-02 -0.9992 1134.3965 -361.5956)" class="st1" width="577.4" height="6.2"/></g><g><line class="st1" x1="858.7" y1="-194.1" x2="281.7" y2="-171.5"/><rect x="281.5" y="-185.9" transform="matrix(-0.9992 3.919938e-02 -3.919938e-02 -0.9992 1132.8536 -387.7926)" class="st1" width="577.4" height="6.2"/></g><g><line class="st1" x1="858.2" y1="-207.2" x2="281.2" y2="-184.6"/><rect x="281" y="-199" transform="matrix(-0.9992 3.919938e-02 -3.919938e-02 -0.9992 1131.3112 -413.9893)" class="st1" width="577.4" height="6.2"/></g><g><line class="st1" x1="857.7" y1="-220.3" x2="280.7" y2="-197.7"/><rect x="280.5" y="-212.1" transform="matrix(-0.9992 3.919938e-02 -3.919938e-02 -0.9992 1129.7687 -440.1859)" class="st1" width="577.4" height="6.2"/></g><g><line class="st1" x1="857.2" y1="-233.4" x2="280.2" y2="-210.8"/><rect x="280" y="-225.2" transform="matrix(-0.9992 3.919938e-02 -3.919938e-02 -0.9992 1128.2262 -466.3826)" class="st1" width="577.4" height="6.2"/></g><g><line class="st1" x1="856.7" y1="-246.6" x2="279.7" y2="-223.9"/><rect x="279.5" y="-238.3" transform="matrix(-0.9992 3.919938e-02 -3.919938e-02 -0.9992 1126.6837 -492.5793)" class="st1" width="577.4" height="6.2"/></g></g></g><g><path id="XMLID_15_" class="st5" d="M408.7,1084.5c-13.9-111.3-20.9-223.3-19.8-335.7c-81.2,48.2-164,93.9-247.8,137.7 c6.8,8.1,13.7,16,20.8,23.7C230.2,984.6,315.4,1046.2,408.7,1084.5z"/></g><g><defs><path id="SVGID_21_" d="M392.2,644.2c4.5-82.3,13.4-163.9,25.8-245c-8.6-75.2-13.7-150.8-15.3-226.5c-10.5,0.7-21,1.8-31.5,3.2 c-168.5,23-325.7,150-357.3,317.1c-26.5,140.1,34.9,283.4,127.1,393.5c83.9-43.7,166.6-89.4,247.8-137.7 C389.2,714,390.3,679.1,392.2,644.2z"/></defs><clipPath id="SVGID_5_"><use xlink:href="#SVGID_21_" overflow="visible"/></clipPath><g class="st6"><g><line class="st1" x1="342.6" y1="71.9" x2="570.4" y2="806.6"/><rect x="455.8" y="54.6" transform="matrix(-0.955 0.2965 -0.2965 -0.955 1022.7584 723.3606)" class="st1" width="1.5" height="769.2"/></g><g><line class="st1" x1="267.4" y1="95.2" x2="495.2" y2="829.9"/><rect x="380.6" y="78" transform="matrix(-0.955 0.2965 -0.2965 -0.955 882.6592 791.2982)" class="st1" width="1.5" height="769.2"/></g><g><line class="st1" x1="405.3" y1="52.4" x2="633.1" y2="787.1"/><rect x="518.4" y="35.2" transform="matrix(-0.955 0.2965 -0.2965 -0.955 1139.5076 666.7463)" class="st1" width="1.5" height="769.2"/></g><g><line class="st1" x1="330.1" y1="75.8" x2="557.9" y2="810.5"/><rect x="443.2" y="58.5" transform="matrix(-0.955 0.2965 -0.2965 -0.955 999.4084 734.6838)" class="st1" width="1.5" height="769.2"/></g><g><line class="st1" x1="254.9" y1="99.1" x2="482.7" y2="833.8"/><rect x="368" y="81.8" transform="matrix(-0.955 0.2965 -0.2965 -0.955 859.3093 802.621)" class="st1" width="1.5" height="769.2"/></g><g><line class="st1" x1="392.8" y1="56.3" x2="620.6" y2="791"/><rect x="505.9" y="39" transform="matrix(-0.955 0.2965 -0.2965 -0.955 1116.1577 678.0692)" class="st1" width="1.5" height="769.2"/></g><g><line class="st1" x1="317.6" y1="79.6" x2="545.4" y2="814.4"/><rect x="430.7" y="62.4" transform="matrix(-0.955 0.2965 -0.2965 -0.955 976.0585 746.0067)" class="st1" width="1.5" height="769.2"/></g><g><line class="st1" x1="242.3" y1="103" x2="470.2" y2="837.7"/><rect x="355.5" y="85.7" transform="matrix(-0.955 0.2965 -0.2965 -0.955 835.9593 813.9438)" class="st1" width="1.5" height="769.2"/></g><g><line class="st1" x1="380.2" y1="60.2" x2="608" y2="794.9"/><rect x="493.4" y="42.9" transform="matrix(-0.955 0.2965 -0.2965 -0.955 1092.8079 689.392)" class="st1" width="1.5" height="769.2"/></g><g><line class="st1" x1="305" y1="83.5" x2="532.8" y2="818.3"/><rect x="418.2" y="66.3" transform="matrix(-0.955 0.2965 -0.2965 -0.955 952.7087 757.3295)" class="st1" width="1.5" height="769.2"/></g><g><line class="st1" x1="229.8" y1="106.9" x2="457.6" y2="841.6"/><rect x="343" y="89.6" transform="matrix(-0.955 0.2965 -0.2965 -0.955 812.6094 825.2667)" class="st1" width="1.5" height="769.2"/></g><g><line class="st1" x1="367.7" y1="64.1" x2="595.5" y2="798.8"/><rect x="480.8" y="46.8" transform="matrix(-0.955 0.2965 -0.2965 -0.955 1069.458 700.7149)" class="st1" width="1.5" height="769.2"/></g><g><line class="st1" x1="292.5" y1="87.4" x2="520.3" y2="822.2"/><rect x="405.6" y="70.2" transform="matrix(-0.955 0.2965 -0.2965 -0.955 929.3588 768.6524)" class="st1" width="1.5" height="769.2"/></g><g><line class="st1" x1="217.3" y1="110.8" x2="445.1" y2="845.5"/><rect x="330.4" y="93.5" transform="matrix(-0.955 0.2965 -0.2965 -0.955 789.2594 836.5895)" class="st1" width="1.5" height="769.2"/></g><g><line class="st1" x1="355.2" y1="68" x2="583" y2="802.7"/><rect x="468.3" y="50.7" transform="matrix(-0.955 0.2965 -0.2965 -0.955 1046.1082 712.0378)" class="st1" width="1.5" height="769.2"/></g><g><line class="st1" x1="279.9" y1="91.3" x2="507.8" y2="826.1"/><rect x="393.1" y="74.1" transform="matrix(-0.955 0.2965 -0.2965 -0.955 906.009 779.9753)" class="st1" width="1.5" height="769.2"/></g><g><line class="st1" x1="204.7" y1="114.7" x2="432.6" y2="849.4"/><rect x="317.9" y="97.4" transform="matrix(-0.955 0.2965 -0.2965 -0.955 765.9096 847.9123)" class="st1" width="1.5" height="769.2"/></g><g><line class="st1" x1="192.2" y1="118.6" x2="420" y2="853.3"/><rect x="305.4" y="101.3" transform="matrix(-0.955 0.2965 -0.2965 -0.955 742.5598 859.2352)" class="st1" width="1.5" height="769.2"/></g><g><line class="st1" x1="179.7" y1="122.4" x2="407.5" y2="857.2"/><rect x="292.8" y="105.2" transform="matrix(-0.955 0.2965 -0.2965 -0.955 719.2099 870.558)" class="st1" width="1.5" height="769.2"/></g><g><line class="st1" x1="167.1" y1="126.3" x2="395" y2="861.1"/><rect x="280.3" y="109.1" transform="matrix(-0.955 0.2965 -0.2965 -0.955 695.8599 881.8812)" class="st1" width="1.5" height="769.2"/></g><g><line class="st1" x1="154.6" y1="130.2" x2="382.4" y2="865"/><rect x="267.8" y="113" transform="matrix(-0.955 0.2965 -0.2965 -0.955 672.5101 893.2041)" class="st1" width="1.5" height="769.2"/></g><g><line class="st1" x1="142.1" y1="134.1" x2="369.9" y2="868.9"/><rect x="255.2" y="116.9" transform="matrix(-0.955 0.2965 -0.2965 -0.955 649.1602 904.527)" class="st1" width="1.5" height="769.2"/></g><g><line class="st1" x1="129.5" y1="138" x2="357.4" y2="872.7"/><rect x="242.7" y="120.8" transform="matrix(-0.955 0.2965 -0.2965 -0.955 625.8104 915.8499)" class="st1" width="1.5" height="769.2"/></g><g><line class="st1" x1="117" y1="141.9" x2="344.8" y2="876.6"/><rect x="230.2" y="124.6" transform="matrix(-0.955 0.2965 -0.2965 -0.955 602.4606 927.1727)" class="st1" width="1.5" height="769.2"/></g><g><line class="st1" x1="104.5" y1="145.8" x2="332.3" y2="880.5"/><rect x="217.6" y="128.5" transform="matrix(-0.955 0.2965 -0.2965 -0.955 579.1107 938.4955)" class="st1" width="1.5" height="769.2"/></g><g><line class="st1" x1="91.9" y1="149.7" x2="319.8" y2="884.4"/><rect x="205.1" y="132.4" transform="matrix(-0.955 0.2965 -0.2965 -0.955 555.7609 949.8184)" class="st1" width="1.5" height="769.2"/></g><g><line class="st1" x1="79.4" y1="153.6" x2="307.2" y2="888.3"/><rect x="192.6" y="136.3" transform="matrix(-0.955 0.2965 -0.2965 -0.955 532.411 961.1413)" class="st1" width="1.5" height="769.2"/></g><g><line class="st1" x1="66.9" y1="157.5" x2="294.7" y2="892.2"/><rect x="180" y="140.2" transform="matrix(-0.955 0.2965 -0.2965 -0.955 509.0612 972.4641)" class="st1" width="1.5" height="769.2"/></g><g><line class="st1" x1="54.3" y1="161.4" x2="282.2" y2="896.1"/><rect x="167.5" y="144.1" transform="matrix(-0.955 0.2965 -0.2965 -0.955 485.7112 983.7869)" class="st1" width="1.5" height="769.2"/></g><g><line class="st1" x1="41.8" y1="165.2" x2="269.6" y2="900"/><rect x="155" y="148" transform="matrix(-0.955 0.2965 -0.2965 -0.955 462.3613 995.1098)" class="st1" width="1.5" height="769.2"/></g><g><line class="st1" x1="29.3" y1="169.1" x2="257.1" y2="903.9"/><rect x="142.4" y="151.9" transform="matrix(-0.955 0.2965 -0.2965 -0.955 439.0115 1006.4327)" class="st1" width="1.5" height="769.2"/></g><g><line class="st1" x1="16.7" y1="173" x2="244.6" y2="907.8"/><rect x="129.9" y="155.8" transform="matrix(-0.955 0.2965 -0.2965 -0.955 415.6615 1017.7554)" class="st1" width="1.5" height="769.2"/></g><g><line class="st1" x1="4.2" y1="176.9" x2="232" y2="911.7"/><rect x="117.4" y="159.7" transform="matrix(-0.955 0.2965 -0.2965 -0.955 392.3116 1029.0784)" class="st1" width="1.5" height="769.2"/></g><g><line class="st1" x1="-8.3" y1="180.8" x2="219.5" y2="915.5"/><rect x="104.8" y="163.6" transform="matrix(-0.955 0.2965 -0.2965 -0.955 368.9618 1040.4011)" class="st1" width="1.5" height="769.2"/></g><g><line class="st1" x1="-20.9" y1="184.7" x2="207" y2="919.4"/><rect x="92.3" y="167.4" transform="matrix(-0.955 0.2965 -0.2965 -0.955 345.6119 1051.724)" class="st1" width="1.5" height="769.2"/></g><g><line class="st1" x1="-33.4" y1="188.6" x2="194.4" y2="923.3"/><rect x="79.8" y="171.3" transform="matrix(-0.955 0.2965 -0.2965 -0.955 322.2621 1063.0469)" class="st1" width="1.5" height="769.2"/></g><g><line class="st1" x1="-45.9" y1="192.5" x2="181.9" y2="927.2"/><rect x="67.2" y="175.2" transform="matrix(-0.955 0.2965 -0.2965 -0.955 298.9122 1074.3698)" class="st1" width="1.5" height="769.2"/></g><g><line class="st1" x1="-58.5" y1="196.4" x2="169.4" y2="931.1"/><rect x="54.7" y="179.1" transform="matrix(-0.955 0.2965 -0.2965 -0.955 275.5623 1085.693)" class="st1" width="1.5" height="769.2"/></g><g><line class="st1" x1="-71" y1="200.3" x2="156.8" y2="935"/><rect x="42.2" y="183" transform="matrix(-0.955 0.2965 -0.2965 -0.955 252.2124 1097.0159)" class="st1" width="1.5" height="769.2"/></g><g><line class="st1" x1="-83.5" y1="204.2" x2="144.3" y2="938.9"/><rect x="29.6" y="186.9" transform="matrix(-0.955 0.2965 -0.2965 -0.955 228.8626 1108.3387)" class="st1" width="1.5" height="769.2"/></g><g><line class="st1" x1="-96.1" y1="208" x2="131.8" y2="942.8"/><rect x="17.1" y="190.8" transform="matrix(-0.955 0.2965 -0.2965 -0.955 205.5127 1119.6616)" class="st1" width="1.5" height="769.2"/></g><g><line class="st1" x1="-108.6" y1="211.9" x2="119.2" y2="946.7"/><rect x="4.6" y="194.7" transform="matrix(-0.955 0.2965 -0.2965 -0.955 182.1629 1130.9844)" class="st1" width="1.5" height="769.2"/></g><g><line class="st1" x1="-121.1" y1="215.8" x2="106.7" y2="950.6"/><rect x="-8" y="198.6" transform="matrix(-0.955 0.2965 -0.2965 -0.955 158.8131 1142.3073)" class="st1" width="1.5" height="769.2"/></g><g><line class="st1" x1="-133.7" y1="219.7" x2="94.2" y2="954.5"/><rect x="-20.5" y="202.5" transform="matrix(-0.955 0.2965 -0.2965 -0.955 135.4632 1153.6301)" class="st1" width="1.5" height="769.2"/></g><g><line class="st1" x1="-146.2" y1="223.6" x2="81.6" y2="958.3"/><rect x="-33" y="206.4" transform="matrix(-0.955 0.2965 -0.2965 -0.955 112.1132 1164.953)" class="st1" width="1.5" height="769.2"/></g></g></g><g><defs><path id="SVGID_23_" d="M471.1,698.7c84.5-52.8,167-108.8,246.8-168.6c14.6-11,29.2-22.1,43.6-33.3c-1.3-74.4-1.5-148.8-1-223.1 c-89.9-58.5-193.6-96.4-299.1-101.6c-17.1,75.2-31.9,150.8-43.5,227C429.5,500,447.2,600.1,471.1,698.7z"/></defs><clipPath id="SVGID_6_"><use xlink:href="#SVGID_23_" overflow="visible"/></clipPath><g class="st7"><g><line class="st1" x1="930.5" y1="468.8" x2="442.1" y2="776.9"/><rect x="397.6" y="610.5" transform="matrix(-0.8458 0.5336 -0.5336 -0.8458 1599.0861 783.5022)" class="st1" width="577.4" height="24.7"/></g><g><line class="st1" x1="874.5" y1="380" x2="386.1" y2="688.1"/><rect x="341.6" y="521.7" transform="matrix(-0.8458 0.5336 -0.5336 -0.8458 1448.3125 649.4966)" class="st1" width="577.4" height="24.7"/></g><g><line class="st1" x1="958.5" y1="513.2" x2="470.1" y2="821.3"/><rect x="425.6" y="654.9" transform="matrix(-0.8458 0.5336 -0.5336 -0.8458 1674.4729 850.5046)" class="st1" width="577.4" height="24.7"/></g><g><line class="st1" x1="902.5" y1="424.4" x2="414.1" y2="732.5"/><rect x="369.6" y="566.1" transform="matrix(-0.8458 0.5336 -0.5336 -0.8458 1523.6993 716.4991)" class="st1" width="577.4" height="24.7"/></g><g><line class="st1" x1="846.5" y1="335.6" x2="358.1" y2="643.7"/><rect x="313.6" y="477.3" transform="matrix(-0.8458 0.5336 -0.5336 -0.8458 1372.9258 582.4941)" class="st1" width="577.4" height="24.7"/></g><g><line class="st1" x1="818.4" y1="291.2" x2="330.1" y2="599.3"/><rect x="285.5" y="432.9" transform="matrix(-0.8458 0.5336 -0.5336 -0.8458 1297.5389 515.4916)" class="st1" width="577.4" height="24.7"/></g><g><line class="st1" x1="790.4" y1="246.8" x2="302.1" y2="554.9"/><rect x="257.5" y="388.5" transform="matrix(-0.8458 0.5336 -0.5336 -0.8458 1222.1522 448.4886)" class="st1" width="577.4" height="24.7"/></g><g><line class="st1" x1="762.4" y1="202.4" x2="274.1" y2="510.5"/><rect x="229.5" y="344.1" transform="matrix(-0.8458 0.5336 -0.5336 -0.8458 1146.7654 381.486)" class="st1" width="577.4" height="24.7"/></g><g><line class="st1" x1="734.4" y1="158" x2="246" y2="466.1"/><rect x="201.5" y="299.8" transform="matrix(-0.8458 0.5336 -0.5336 -0.8458 1071.3785 314.4836)" class="st1" width="577.4" height="24.7"/></g><g><line class="st1" x1="706.4" y1="113.6" x2="218" y2="421.7"/><rect x="173.5" y="255.4" transform="matrix(-0.8458 0.5336 -0.5336 -0.8458 995.9918 247.4809)" class="st1" width="577.4" height="24.7"/></g><g><line class="st1" x1="678.4" y1="69.3" x2="190" y2="377.4"/><rect x="145.5" y="211" transform="matrix(-0.8458 0.5336 -0.5336 -0.8458 920.605 180.4784)" class="st1" width="577.4" height="24.7"/></g><g><line class="st1" x1="650.4" y1="24.9" x2="162" y2="333"/><rect x="117.5" y="166.6" transform="matrix(-0.8458 0.5336 -0.5336 -0.8458 845.2183 113.4755)" class="st1" width="577.4" height="24.7"/></g></g></g><g><path id="XMLID_13_" class="st5" d="M894.9,386.6c-17.4-18.4-35.6-36-54.8-52.7c-24.9-21.8-51.6-42-79.5-60.2 c-0.5,74.3-0.3,148.7,1,223.1C807,461.4,851.6,424.7,894.9,386.6z"/></g></g></g></svg>