<?xml version="1.0" encoding="utf-8"?>
<!-- Generator: Adobe Illustrator 19.0.0, SVG Export Plug-In . SVG Version: 6.00 Build 0)  -->
<svg version="1.1" id="Layer_1" xmlns="http://www.w3.org/2000/svg" xmlns:xlink="http://www.w3.org/1999/xlink" x="0px" y="0px"
	 viewBox="0 0 285.4 318.6" style="enable-background:new 0 0 285.4 318.6;" xml:space="preserve">
<style type="text/css">
	.st0{fill:#F5426C;}
	.st1{fill:#FEEB17;}
	.st2{fill:#00BCB4;}
	.st3{fill:#8C189B;}
	.st4{fill:#FFFFFF;}
</style>
<path id="XMLID_9_" class="st0" d="M57.2,304.6c-9.8,0-19.3-5.2-24.3-14.3c-7.4-13.4-2.5-30.3,10.9-37.6s30.3-2.5,37.6,10.9
	c0,0,0,0,0,0c7.4,13.4,2.5,30.3-10.9,37.6C66.3,303.5,61.7,304.6,57.2,304.6z M57.1,266.5c-1.7,0-3.4,0.4-5,1.3
	c-5,2.8-6.9,9.1-4.1,14.2c2.8,5,9.1,6.9,14.2,4.1c5-2.8,6.9-9.1,4.1-14.2l0,0C64.4,268.4,60.8,266.5,57.1,266.5z"/>
<path id="XMLID_8_" class="st0" d="M257.7,194.4c-2.6,0-5.2-0.4-7.8-1.1c-7.1-2.1-13-6.8-16.5-13.3c-3.6-6.5-4.4-14-2.3-21.1
	c2.1-7.1,6.8-13,13.3-16.5c6.5-3.6,14-4.4,21.1-2.3c7.1,2.1,13,6.8,16.5,13.3l0,0c3.6,6.5,4.4,14,2.3,21.1
	c-2.1,7.1-6.8,13-13.3,16.5C266.9,193.2,262.3,194.4,257.7,194.4z M257.7,156.2c-1.7,0-3.5,0.4-5,1.3c-2.4,1.3-4.2,3.6-5,6.2
	c-0.8,2.7-0.5,5.5,0.9,7.9c1.3,2.4,3.6,4.2,6.2,5c2.7,0.8,5.5,0.5,7.9-0.9c2.4-1.3,4.2-3.6,5-6.2s0.5-5.5-0.9-7.9c0,0,0,0,0,0
	c-1.3-2.4-3.6-4.2-6.2-5C259.6,156.3,258.6,156.2,257.7,156.2z"/>
<path id="XMLID_7_" class="st1" d="M64.1,167.9c-3,0-6-1.6-7.6-4.5c-5.4-9.8-11.9-12.3-20.1-15.4c-9.2-3.5-20.6-7.9-29-23.2
	c-8.5-15.4-6-27.3-4.1-36.9c1.7-8.6,3.1-15.4-2.3-25.2c-2.3-4.2-0.8-9.4,3.4-11.7c4.2-2.3,9.4-0.8,11.7,3.4
	c8.5,15.4,6,27.3,4.1,36.9c-1.7,8.6-3.1,15.4,2.3,25.2c5.4,9.8,11.9,12.3,20.1,15.4c9.2,3.5,20.6,7.9,29,23.2
	c2.3,4.2,0.8,9.4-3.4,11.7C66.9,167.6,65.5,167.9,64.1,167.9z"/>
<path id="XMLID_6_" class="st1" d="M105.3,135.5c-3,0-6-1.6-7.6-4.5c-5.4-9.8-11.9-12.3-20.1-15.4c-9.2-3.5-20.6-7.9-29-23.2
	c-8.5-15.4-6-27.3-4.1-36.9c1.7-8.6,3.1-15.4-2.3-25.2c-2.3-4.2-0.8-9.4,3.4-11.7c4.2-2.3,9.4-0.8,11.7,3.4
	c8.5,15.4,6,27.3,4.1,36.9c-1.7,8.6-3.1,15.4,2.3,25.2c5.4,9.8,11.9,12.3,20.1,15.4c9.2,3.5,20.6,7.9,29,23.2
	c2.3,4.2,0.8,9.4-3.4,11.7C108.1,135.2,106.7,135.5,105.3,135.5z"/>
<path id="XMLID_5_" class="st1" d="M154.7,118.1c-3,0-6-1.6-7.6-4.5c-5.4-9.8-11.9-12.3-20.1-15.4c-9.2-3.5-20.6-7.9-29-23.2
	C89.6,59.6,92,47.6,94,38c1.7-8.6,3.1-15.4-2.3-25.2c-2.3-4.2-0.8-9.4,3.4-11.7c4.2-2.3,9.4-0.8,11.7,3.4c8.5,15.4,6,27.3,4.1,36.9
	c-1.7,8.6-3.1,15.4,2.3,25.2c5.4,9.8,11.9,12.3,20.1,15.4c9.2,3.5,20.6,7.9,29,23.2c2.3,4.2,0.8,9.4-3.4,11.7
	C157.5,117.7,156.1,118.1,154.7,118.1z"/>
<path id="XMLID_4_" class="st2" d="M153.9,318.6c-36.6,0-72.1-19.4-90.9-53.7c-27.5-50-9.2-113.1,40.9-140.7s113.1-9.2,140.7,40.9
	c13.3,24.2,16.4,52.2,8.7,78.8c-7.7,26.6-25.3,48.5-49.6,61.9C187.8,314.5,170.7,318.6,153.9,318.6z M153.6,128.7
	c-14,0-28.3,3.4-41.4,10.7c-41.7,22.9-57,75.5-34.1,117.2c22.9,41.7,75.5,57,117.2,34.1c20.2-11.1,34.9-29.4,41.3-51.6
	s3.9-45.5-7.2-65.7l0,0C213.6,144.9,184,128.7,153.6,128.7z"/>
<path id="XMLID_3_" class="st3" d="M169.1,274.9c-3,0-6-0.4-9-1.3c-8.2-2.4-15-7.8-19.1-15.3c-2.3-4.2-0.8-9.4,3.4-11.7
	c4.2-2.3,9.4-0.8,11.7,3.4c1.9,3.4,5,6,8.8,7s7.8,0.7,11.2-1.2c7.1-3.9,9.7-12.9,5.8-20c-2.3-4.2-0.8-9.4,3.4-11.7
	c4.2-2.3,9.4-0.8,11.7,3.4c8.5,15.5,2.8,34.9-12.6,43.4C179.6,273.5,174.4,274.9,169.1,274.9z"/>
<path id="XMLID_2_" class="st4" d="M110.7,237.1c-9.8,0-19.3-5.2-24.3-14.3c-7.4-13.4-2.5-30.3,10.9-37.6
	c13.4-7.4,30.3-2.5,37.6,10.9l0,0c3.6,6.5,4.4,14,2.3,21.1c-2.1,7.1-6.8,13-13.3,16.5C119.7,236,115.2,237.1,110.7,237.1z
	 M110.6,199c-1.7,0-3.4,0.4-5,1.3c-5,2.8-6.9,9.1-4.1,14.2c2.8,5,9.1,6.9,14.2,4.1c2.4-1.3,4.2-3.6,5-6.2c0.8-2.7,0.5-5.5-0.9-7.9
	l0,0C117.9,201,114.3,199,110.6,199z"/>
<path id="XMLID_11_" class="st4" d="M172.1,203.3c-9.8,0-19.3-5.2-24.3-14.3c-7.4-13.4-2.5-30.3,10.9-37.6
	c13.4-7.4,30.3-2.5,37.6,10.9l0,0c3.6,6.5,4.4,14,2.3,21.1c-2.1,7.1-6.8,13-13.3,16.5C181.2,202.2,176.6,203.3,172.1,203.3z
	 M172.1,165.2c-1.7,0-3.4,0.4-5,1.3c-5,2.8-6.9,9.1-4.1,14.2c2.8,5,9.1,6.9,14.2,4.1c2.4-1.3,4.2-3.6,5-6.2c0.8-2.7,0.5-5.5-0.9-7.9
	C179.3,167.2,175.7,165.2,172.1,165.2z"/>
</svg>
