<?xml version="1.0" encoding="utf-8"?>
<!-- Generator: Adobe Illustrator 19.0.0, SVG Export Plug-In . SVG Version: 6.00 Build 0)  -->
<svg version="1.1" id="Layer_1" xmlns="http://www.w3.org/2000/svg" xmlns:xlink="http://www.w3.org/1999/xlink" x="0px" y="0px"
	 viewBox="0 0 28.4 29.2" style="enable-background:new 0 0 28.4 29.2;" xml:space="preserve">
<style type="text/css">
	.st0{fill:#F5426C;}
</style>
<path class="st0" d="M17.5,9.3l-1.6,0c-1.2,0-1.5,0.5-1.5,1.4l0,1.8l2.9,0L17,15.3l-2.5,0l0,7.2l-3,0l0-7.2l-2.5,0l0-2.8l2.5,0
	l0-2.1c0-2.4,1.6-3.7,3.8-3.7c1.1,0,2,0.1,2.3,0.1L17.5,9.3z M14.2,0.5c-7.5,0-13.7,6.2-13.7,14c0,7.8,6,14.1,13.6,14.1
	c7.5,0,13.7-6.2,13.7-14C27.9,6.9,21.8,0.6,14.2,0.5"/>
</svg>
