<svg version="1.1" id="Layer_1" xmlns="http://www.w3.org/2000/svg" xmlns:xlink="http://www.w3.org/1999/xlink" x="0" y="0" viewBox="0 0 458 276" xml:space="preserve" enable-background="new 0 0 458 276" width="458px" height="276px"><style type="text/css">.st0{clip-path:url(#SVGID_1_)}.st1{fill:#8f9091}.st2{clip-path:url(#SVGID_2_)}.st3{clip-path:url(#SVGID_3_)}.st4{clip-path:url(#SVGID_4_)}.st5{fill:#fff}.st6{clip-path:url(#SVGID_5_)}.st7{clip-path:url(#SVGID_6_)}</style><g id="XMLID_38_"><defs><rect id="SVGID_13_" x="-805.9" y="-67" width="1279" height="939"/></defs><clipPath id="SVGID_1_"><use xlink:href="#SVGID_13_" overflow="visible"/></clipPath><g id="XMLID_39_" class="st0"><g id="XMLID_515_"><path id="XMLID_21_" class="st1" d="M334.8,332.2c-12.4,81.1-21.3,162.8-25.8,245c-1.9,34.9-3,69.8-3.3,104.6 c27.6-16.4,55-33.1,82.3-50.1C364,533.1,346.3,433,334.8,332.2z"/></g><g id="XMLID_512_"><path id="XMLID_19_" class="st1" d="M406.2,702.5c-6.5-23.5-12.6-47.1-18.3-70.8c-27.2,17-54.6,33.7-82.3,50.1 c-1.1,112.4,5.9,224.4,19.8,335.7c73.8,30.3,152.5,45.9,231.9,41.6C488,951.6,440.2,826.1,406.2,702.5z"/></g><g id="XMLID_509_"><path id="XMLID_17_" class="st1" d="M582.8,1057c-8.5,0.9-17,1.6-25.5,2.1c54.3,84,121.8,157,206.3,209.5 c-17.7-81.5-32.1-164.1-43.6-247.4C676.4,1039.5,630.4,1051.9,582.8,1057z"/></g><g id="XMLID_372_"><defs><path id="SVGID_15_" d="M557.3,1059.1c8.5-0.5,17-1.1,25.5-2.1c47.6-5.2,93.6-17.6,137.3-35.9 c-26.8-194.2-38.2-392.6-41.7-591.4c-14.5,11.2-29,22.4-43.6,33.3C554.9,522.9,472.4,578.8,388,631.7 c5.7,23.7,11.8,47.3,18.3,70.8C440.2,826.1,488,951.6,557.3,1059.1z"/></defs><clipPath id="SVGID_2_"><use xlink:href="#SVGID_15_" overflow="visible"/></clipPath><g id="XMLID_373_" class="st2"><g id="XMLID_506_"><line id="XMLID_508_" class="st1" x1="1055.8" y1="562.1" x2="722.1" y2="1196.3"/><rect id="XMLID_507_" x="530.7" y="878.8" transform="matrix(-0.4657 0.885 -0.885 -0.4657 2080.9631 501.9243)" class="st1" width="716.6" height=".8"/></g><g id="XMLID_503_"><line id="XMLID_505_" class="st1" x1="1044.2" y1="556" x2="710.5" y2="1190.2"/><rect id="XMLID_504_" x="519" y="872.7" transform="matrix(-0.4657 0.885 -0.885 -0.4657 2058.533 503.245)" class="st1" width="716.6" height=".8"/></g><g id="XMLID_500_"><line id="XMLID_502_" class="st1" x1="1032.6" y1="549.9" x2="698.9" y2="1184"/><rect id="XMLID_501_" x="507.4" y="866.6" transform="matrix(-0.4657 0.885 -0.885 -0.4657 2036.1029 504.5658)" class="st1" width="716.6" height=".8"/></g><g id="XMLID_497_"><line id="XMLID_499_" class="st1" x1="1021" y1="543.8" x2="687.3" y2="1177.9"/><rect id="XMLID_498_" x="495.8" y="860.5" transform="matrix(-0.4657 0.885 -0.885 -0.4657 2013.6726 505.8865)" class="st1" width="716.6" height=".8"/></g><g id="XMLID_494_"><line id="XMLID_496_" class="st1" x1="1009.3" y1="537.7" x2="675.7" y2="1171.8"/><rect id="XMLID_495_" x="484.2" y="854.4" transform="matrix(-0.4657 0.885 -0.885 -0.4657 1991.2424 507.2072)" class="st1" width="716.6" height=".8"/></g><g id="XMLID_491_"><line id="XMLID_493_" class="st1" x1="997.7" y1="531.6" x2="664" y2="1165.7"/><rect id="XMLID_492_" x="472.6" y="848.3" transform="matrix(-0.4657 0.885 -0.885 -0.4657 1968.8123 508.528)" class="st1" width="716.6" height=".8"/></g><g id="XMLID_488_"><line id="XMLID_490_" class="st1" x1="986.1" y1="525.5" x2="652.4" y2="1159.6"/><rect id="XMLID_489_" x="461" y="842.1" transform="matrix(-0.4657 0.885 -0.885 -0.4657 1946.3821 509.8487)" class="st1" width="716.6" height=".8"/></g><g id="XMLID_485_"><line id="XMLID_487_" class="st1" x1="974.5" y1="519.3" x2="640.8" y2="1153.5"/><rect id="XMLID_486_" x="449.4" y="836" transform="matrix(-0.4657 0.885 -0.885 -0.4657 1923.9518 511.1694)" class="st1" width="716.6" height=".8"/></g><g id="XMLID_482_"><line id="XMLID_484_" class="st1" x1="962.9" y1="513.2" x2="629.2" y2="1147.4"/><rect id="XMLID_483_" x="437.8" y="829.9" transform="matrix(-0.4657 0.885 -0.885 -0.4657 1901.5217 512.4901)" class="st1" width="716.6" height=".8"/></g><g id="XMLID_479_"><line id="XMLID_481_" class="st1" x1="951.3" y1="507.1" x2="617.6" y2="1141.3"/><rect id="XMLID_480_" x="426.1" y="823.8" transform="matrix(-0.4657 0.885 -0.885 -0.4657 1879.0914 513.8109)" class="st1" width="716.6" height=".8"/></g><g id="XMLID_476_"><line id="XMLID_478_" class="st1" x1="939.7" y1="501" x2="606" y2="1135.2"/><rect id="XMLID_477_" x="414.5" y="817.7" transform="matrix(-0.4657 0.885 -0.885 -0.4657 1856.6611 515.1316)" class="st1" width="716.6" height=".8"/></g><g id="XMLID_473_"><line id="XMLID_475_" class="st1" x1="928" y1="494.9" x2="594.4" y2="1129"/><rect id="XMLID_474_" x="402.9" y="811.6" transform="matrix(-0.4657 0.885 -0.885 -0.4657 1834.2311 516.4523)" class="st1" width="716.6" height=".8"/></g><g id="XMLID_470_"><line id="XMLID_472_" class="st1" x1="916.4" y1="488.8" x2="582.7" y2="1122.9"/><rect id="XMLID_471_" x="391.3" y="805.5" transform="matrix(-0.4657 0.885 -0.885 -0.4657 1811.8008 517.7731)" class="st1" width="716.6" height=".8"/></g><g id="XMLID_467_"><line id="XMLID_469_" class="st1" x1="904.8" y1="482.7" x2="571.1" y2="1116.8"/><rect id="XMLID_468_" x="379.7" y="799.4" transform="matrix(-0.4657 0.885 -0.885 -0.4657 1789.3706 519.0938)" class="st1" width="716.6" height=".8"/></g><g id="XMLID_464_"><line id="XMLID_466_" class="st1" x1="893.2" y1="476.6" x2="559.5" y2="1110.7"/><rect id="XMLID_465_" x="368.1" y="793.3" transform="matrix(-0.4657 0.885 -0.885 -0.4657 1766.9404 520.4145)" class="st1" width="716.6" height=".8"/></g><g id="XMLID_461_"><line id="XMLID_463_" class="st1" x1="881.6" y1="470.5" x2="547.9" y2="1104.6"/><rect id="XMLID_462_" x="356.5" y="787.1" transform="matrix(-0.4657 0.885 -0.885 -0.4657 1744.5103 521.7352)" class="st1" width="716.6" height=".8"/></g><g id="XMLID_458_"><line id="XMLID_460_" class="st1" x1="870" y1="464.3" x2="536.3" y2="1098.5"/><rect id="XMLID_459_" x="344.8" y="781" transform="matrix(-0.4657 0.885 -0.885 -0.4657 1722.08 523.056)" class="st1" width="716.6" height=".8"/></g><g id="XMLID_455_"><line id="XMLID_457_" class="st1" x1="858.4" y1="458.2" x2="524.7" y2="1092.4"/><rect id="XMLID_456_" x="333.2" y="774.9" transform="matrix(-0.4657 0.885 -0.885 -0.4657 1699.6499 524.3767)" class="st1" width="716.6" height=".8"/></g><g id="XMLID_452_"><line id="XMLID_454_" class="st1" x1="846.7" y1="452.1" x2="513.1" y2="1086.3"/><rect id="XMLID_453_" x="321.6" y="768.8" transform="matrix(-0.4657 0.885 -0.885 -0.4657 1677.2196 525.6974)" class="st1" width="716.6" height=".8"/></g><g id="XMLID_449_"><line id="XMLID_451_" class="st1" x1="835.1" y1="446" x2="501.4" y2="1080.2"/><rect id="XMLID_450_" x="310" y="762.7" transform="matrix(-0.4657 0.885 -0.885 -0.4657 1654.7896 527.0181)" class="st1" width="716.6" height=".8"/></g><g id="XMLID_446_"><line id="XMLID_448_" class="st1" x1="823.5" y1="439.9" x2="489.8" y2="1074"/><rect id="XMLID_447_" x="298.4" y="756.6" transform="matrix(-0.4657 0.885 -0.885 -0.4657 1632.3593 528.3389)" class="st1" width="716.6" height=".8"/></g><g id="XMLID_443_"><line id="XMLID_445_" class="st1" x1="811.9" y1="433.8" x2="478.2" y2="1067.9"/><rect id="XMLID_444_" x="286.8" y="750.5" transform="matrix(-0.4657 0.885 -0.885 -0.4657 1609.9291 529.6596)" class="st1" width="716.6" height=".8"/></g><g id="XMLID_440_"><line id="XMLID_442_" class="st1" x1="800.3" y1="427.7" x2="466.6" y2="1061.8"/><rect id="XMLID_441_" x="275.2" y="744.4" transform="matrix(-0.4657 0.885 -0.885 -0.4657 1587.4989 530.9803)" class="st1" width="716.6" height=".8"/></g><g id="XMLID_437_"><line id="XMLID_439_" class="st1" x1="788.7" y1="421.6" x2="455" y2="1055.7"/><rect id="XMLID_438_" x="263.5" y="738.3" transform="matrix(-0.4657 0.885 -0.885 -0.4657 1565.0687 532.301)" class="st1" width="716.6" height=".8"/></g><g id="XMLID_434_"><line id="XMLID_436_" class="st1" x1="777.1" y1="415.5" x2="443.4" y2="1049.6"/><rect id="XMLID_435_" x="251.9" y="732.1" transform="matrix(-0.4657 0.885 -0.885 -0.4657 1542.6384 533.6218)" class="st1" width="716.6" height=".8"/></g><g id="XMLID_431_"><line id="XMLID_433_" class="st1" x1="765.5" y1="409.3" x2="431.8" y2="1043.5"/><rect id="XMLID_432_" x="240.3" y="726" transform="matrix(-0.4657 0.885 -0.885 -0.4657 1520.2084 534.9425)" class="st1" width="716.6" height=".8"/></g><g id="XMLID_428_"><line id="XMLID_430_" class="st1" x1="753.8" y1="403.2" x2="420.1" y2="1037.4"/><rect id="XMLID_429_" x="228.7" y="719.9" transform="matrix(-0.4657 0.885 -0.885 -0.4657 1497.7781 536.2632)" class="st1" width="716.6" height=".8"/></g><g id="XMLID_425_"><line id="XMLID_427_" class="st1" x1="742.2" y1="397.1" x2="408.5" y2="1031.3"/><rect id="XMLID_426_" x="217.1" y="713.8" transform="matrix(-0.4657 0.885 -0.885 -0.4657 1475.3479 537.584)" class="st1" width="716.6" height=".8"/></g><g id="XMLID_422_"><line id="XMLID_424_" class="st1" x1="730.6" y1="391" x2="396.9" y2="1025.2"/><rect id="XMLID_423_" x="205.5" y="707.7" transform="matrix(-0.4657 0.885 -0.885 -0.4657 1452.9177 538.9047)" class="st1" width="716.6" height=".8"/></g><g id="XMLID_419_"><line id="XMLID_421_" class="st1" x1="719" y1="384.9" x2="385.3" y2="1019"/><rect id="XMLID_420_" x="193.9" y="701.6" transform="matrix(-0.4657 0.885 -0.885 -0.4657 1430.4875 540.2254)" class="st1" width="716.6" height=".8"/></g><g id="XMLID_416_"><line id="XMLID_418_" class="st1" x1="707.4" y1="378.8" x2="373.7" y2="1012.9"/><rect id="XMLID_417_" x="182.2" y="695.5" transform="matrix(-0.4657 0.885 -0.885 -0.4657 1408.0573 541.5461)" class="st1" width="716.6" height=".8"/></g><g id="XMLID_413_"><line id="XMLID_415_" class="st1" x1="695.8" y1="372.7" x2="362.1" y2="1006.8"/><rect id="XMLID_414_" x="170.6" y="689.4" transform="matrix(-0.4657 0.885 -0.885 -0.4657 1385.6272 542.8669)" class="st1" width="716.6" height=".8"/></g><g id="XMLID_410_"><line id="XMLID_412_" class="st1" x1="684.2" y1="366.6" x2="350.5" y2="1000.7"/><rect id="XMLID_411_" x="159" y="683.3" transform="matrix(-0.4657 0.885 -0.885 -0.4657 1363.1969 544.1876)" class="st1" width="716.6" height=".8"/></g><g id="XMLID_407_"><line id="XMLID_409_" class="st1" x1="672.5" y1="360.5" x2="338.9" y2="994.6"/><rect id="XMLID_408_" x="147.4" y="677.1" transform="matrix(-0.4657 0.885 -0.885 -0.4657 1340.7668 545.5084)" class="st1" width="716.6" height=".8"/></g><g id="XMLID_404_"><line id="XMLID_406_" class="st1" x1="660.9" y1="354.3" x2="327.2" y2="988.5"/><rect id="XMLID_405_" x="135.8" y="671" transform="matrix(-0.4657 0.885 -0.885 -0.4657 1318.3365 546.829)" class="st1" width="716.6" height=".8"/></g><g id="XMLID_401_"><line id="XMLID_403_" class="st1" x1="649.3" y1="348.2" x2="315.6" y2="982.4"/><rect id="XMLID_402_" x="124.2" y="664.9" transform="matrix(-0.4657 0.885 -0.885 -0.4657 1295.9064 548.1498)" class="st1" width="716.6" height=".8"/></g><g id="XMLID_398_"><line id="XMLID_400_" class="st1" x1="637.7" y1="342.1" x2="304" y2="976.3"/><rect id="XMLID_399_" x="112.6" y="658.8" transform="matrix(-0.4657 0.885 -0.885 -0.4657 1273.4762 549.4705)" class="st1" width="716.6" height=".8"/></g><g id="XMLID_395_"><line id="XMLID_397_" class="st1" x1="626.1" y1="336" x2="292.4" y2="970.2"/><rect id="XMLID_396_" x="100.9" y="652.7" transform="matrix(-0.4657 0.885 -0.885 -0.4657 1251.046 550.7913)" class="st1" width="716.6" height=".8"/></g><g id="XMLID_392_"><line id="XMLID_394_" class="st1" x1="614.5" y1="329.9" x2="280.8" y2="964"/><rect id="XMLID_393_" x="89.3" y="646.6" transform="matrix(-0.4657 0.885 -0.885 -0.4657 1228.6157 552.112)" class="st1" width="716.6" height=".8"/></g><g id="XMLID_389_"><line id="XMLID_391_" class="st1" x1="602.9" y1="323.8" x2="269.2" y2="957.9"/><rect id="XMLID_390_" x="77.7" y="640.5" transform="matrix(-0.4657 0.885 -0.885 -0.4657 1206.1857 553.4327)" class="st1" width="716.6" height=".8"/></g><g id="XMLID_386_"><line id="XMLID_388_" class="st1" x1="591.2" y1="317.7" x2="257.6" y2="951.8"/><rect id="XMLID_387_" x="66.1" y="634.4" transform="matrix(-0.4657 0.885 -0.885 -0.4657 1183.7554 554.7534)" class="st1" width="716.6" height=".8"/></g><g id="XMLID_383_"><line id="XMLID_385_" class="st1" x1="579.6" y1="311.6" x2="245.9" y2="945.7"/><rect id="XMLID_384_" x="54.5" y="628.3" transform="matrix(-0.4657 0.885 -0.885 -0.4657 1161.3253 556.0742)" class="st1" width="716.6" height=".8"/></g><g id="XMLID_380_"><line id="XMLID_382_" class="st1" x1="568" y1="305.5" x2="234.3" y2="939.6"/><rect id="XMLID_381_" x="42.9" y="622.1" transform="matrix(-0.4657 0.885 -0.885 -0.4657 1138.8951 557.3949)" class="st1" width="716.6" height=".8"/></g><g id="XMLID_377_"><line id="XMLID_379_" class="st1" x1="556.4" y1="299.3" x2="222.7" y2="933.5"/><rect id="XMLID_378_" x="31.3" y="616" transform="matrix(-0.4657 0.885 -0.885 -0.4657 1116.4647 558.7156)" class="st1" width="716.6" height=".8"/></g><g id="XMLID_374_"><line id="XMLID_376_" class="st1" x1="544.8" y1="293.2" x2="211.1" y2="927.4"/><rect id="XMLID_375_" x="19.7" y="609.9" transform="matrix(-0.4657 0.885 -0.885 -0.4657 1094.0345 560.0364)" class="st1" width="716.6" height=".8"/></g></g></g><g id="XMLID_358_"><defs><path id="SVGID_17_" d="M757,266.9c19.1,16.7,37.4,34.4,54.8,52.7c47.6-41.9,93.8-85.4,138.2-130.5L679.5,46.8 c-1,53.2-1.7,106.5-2.1,159.9C705.4,224.9,732,245.1,757,266.9z"/></defs><clipPath id="SVGID_3_"><use xlink:href="#SVGID_17_" overflow="visible"/></clipPath><g id="XMLID_359_" class="st3"><g id="XMLID_369_"><line id="XMLID_371_" class="st1" x1="1342.1" y1="-184.6" x2="1366.8" y2="444.8"/><rect id="XMLID_370_" x="1305" y="-184.9" transform="matrix(-0.9992 3.919795e-02 -3.919795e-02 -0.9992 2712.9058 207.007)" class="st1" width="98.8" height="629.9"/></g><g id="XMLID_366_"><line id="XMLID_368_" class="st1" x1="1132.3" y1="-176.4" x2="1157" y2="453.1"/><rect id="XMLID_367_" x="1095.2" y="-176.6" transform="matrix(-0.9992 3.919795e-02 -3.919795e-02 -0.9992 2293.7588 231.6862)" class="st1" width="98.8" height="629.9"/></g><g id="XMLID_363_"><line id="XMLID_365_" class="st1" x1="922.4" y1="-168.2" x2="947.1" y2="461.3"/><rect id="XMLID_364_" x="885.4" y="-168.4" transform="matrix(-0.9992 3.919795e-02 -3.919795e-02 -0.9992 1874.6113 256.3668)" class="st1" width="98.8" height="629.9"/></g><g id="XMLID_360_"><line id="XMLID_362_" class="st1" x1="712.6" y1="-159.9" x2="737.3" y2="469.5"/><rect id="XMLID_361_" x="675.6" y="-160.2" transform="matrix(-0.9992 3.919795e-02 -3.919795e-02 -0.9992 1455.4644 281.046)" class="st1" width="98.8" height="629.9"/></g></g></g><g id="XMLID_221_"><defs><path id="SVGID_19_" d="M677.4,206.7c0.4-53.4,1.1-106.7,2.1-159.9l-252.7-133C409.3-22.8,392.9,41,378.3,105.1 C483.9,110.3,587.5,148.2,677.4,206.7z"/></defs><clipPath id="SVGID_4_"><use xlink:href="#SVGID_19_" overflow="visible"/></clipPath><g id="XMLID_222_" class="st4"><g id="XMLID_355_"><line id="XMLID_357_" class="st1" x1="794.6" y1="224.1" x2="217.6" y2="246.7"/><rect id="XMLID_356_" x="217.4" y="232.3" transform="matrix(-0.9992 3.919938e-02 -3.919938e-02 -0.9992 1021.0244 450.8417)" class="st1" width="577.4" height="6.2"/></g><g id="XMLID_352_"><line id="XMLID_354_" class="st1" x1="791.5" y1="145.4" x2="214.5" y2="168.1"/><rect id="XMLID_353_" x="214.3" y="153.7" transform="matrix(-0.9992 3.919938e-02 -3.919938e-02 -0.9992 1011.7689 293.6613)" class="st1" width="577.4" height="6.2"/></g><g id="XMLID_349_"><line id="XMLID_351_" class="st1" x1="788.4" y1="66.8" x2="211.4" y2="89.4"/><rect id="XMLID_350_" x="211.2" y="75" transform="matrix(-0.9992 3.919938e-02 -3.919938e-02 -0.9992 1002.5141 136.4812)" class="st1" width="577.4" height="6.2"/></g><g id="XMLID_346_"><line id="XMLID_348_" class="st1" x1="785.3" y1="-11.9" x2="208.3" y2="10.7"/><rect id="XMLID_347_" x="208.1" y="-3.7" transform="matrix(-0.9992 3.919877e-02 -3.919877e-02 -0.9992 993.259 -20.6989)" class="st1" width="577.4" height="6.2"/></g><g id="XMLID_343_"><line id="XMLID_345_" class="st1" x1="782.2" y1="-90.6" x2="205.2" y2="-68"/><rect id="XMLID_344_" x="205" y="-82.4" transform="matrix(-0.9992 3.919938e-02 -3.919938e-02 -0.9992 984.004 -177.8796)" class="st1" width="577.4" height="6.2"/></g><g id="XMLID_340_"><line id="XMLID_342_" class="st1" x1="794.1" y1="211" x2="217.1" y2="233.6"/><rect id="XMLID_341_" x="216.9" y="219.2" transform="matrix(-0.9992 3.919933e-02 -3.919933e-02 -0.9992 1019.4815 424.6451)" class="st1" width="577.4" height="6.2"/></g><g id="XMLID_337_"><line id="XMLID_339_" class="st1" x1="791" y1="132.3" x2="214" y2="155"/><rect id="XMLID_338_" x="213.8" y="140.5" transform="matrix(-0.9992 3.919910e-02 -3.919910e-02 -0.9992 1010.2265 267.4646)" class="st1" width="577.4" height="6.2"/></g><g id="XMLID_334_"><line id="XMLID_336_" class="st1" x1="787.9" y1="53.6" x2="210.9" y2="76.3"/><rect id="XMLID_335_" x="210.7" y="61.9" transform="matrix(-0.9992 3.919910e-02 -3.919910e-02 -0.9992 1000.9717 110.2845)" class="st1" width="577.4" height="6.2"/></g><g id="XMLID_331_"><line id="XMLID_333_" class="st1" x1="784.8" y1="-25" x2="207.8" y2="-2.4"/><rect id="XMLID_332_" x="207.6" y="-16.8" transform="matrix(-0.9992 3.919877e-02 -3.919877e-02 -0.9992 991.7166 -46.8956)" class="st1" width="577.4" height="6.2"/></g><g id="XMLID_328_"><line id="XMLID_330_" class="st1" x1="781.7" y1="-103.7" x2="204.7" y2="-81.1"/><rect id="XMLID_329_" x="204.5" y="-95.5" transform="matrix(-0.9992 3.919938e-02 -3.919938e-02 -0.9992 982.4615 -204.0763)" class="st1" width="577.4" height="6.2"/></g><g id="XMLID_325_"><line id="XMLID_327_" class="st1" x1="793.6" y1="197.9" x2="216.6" y2="220.5"/><rect id="XMLID_326_" x="216.3" y="206.1" transform="matrix(-0.9992 3.919905e-02 -3.919905e-02 -0.9992 1017.9391 398.4484)" class="st1" width="577.4" height="6.2"/></g><g id="XMLID_322_"><line id="XMLID_324_" class="st1" x1="790.5" y1="119.2" x2="213.5" y2="141.8"/><rect id="XMLID_323_" x="213.3" y="127.4" transform="matrix(-0.9992 3.919938e-02 -3.919938e-02 -0.9992 1008.684 241.2679)" class="st1" width="577.4" height="6.2"/></g><g id="XMLID_319_"><line id="XMLID_321_" class="st1" x1="787.4" y1="40.5" x2="210.4" y2="63.2"/><rect id="XMLID_320_" x="210.2" y="48.8" transform="matrix(-0.9992 3.919938e-02 -3.919938e-02 -0.9992 999.4291 84.0879)" class="st1" width="577.4" height="6.2"/></g><g id="XMLID_316_"><line id="XMLID_318_" class="st1" x1="784.3" y1="-38.2" x2="207.3" y2="-15.5"/><rect id="XMLID_317_" x="207.1" y="-29.9" transform="matrix(-0.9992 3.919877e-02 -3.919877e-02 -0.9992 990.1741 -73.0923)" class="st1" width="577.4" height="6.2"/></g><g id="XMLID_313_"><line id="XMLID_315_" class="st1" x1="781.2" y1="-116.8" x2="204.2" y2="-94.2"/><rect id="XMLID_314_" x="204" y="-108.6" transform="matrix(-0.9992 3.919938e-02 -3.919938e-02 -0.9992 980.919 -230.273)" class="st1" width="577.4" height="6.2"/></g><g id="XMLID_310_"><line id="XMLID_312_" class="st1" x1="796.1" y1="263.5" x2="219.1" y2="286.1"/><rect id="XMLID_311_" x="218.9" y="271.7" transform="matrix(-0.9992 3.919966e-02 -3.919966e-02 -0.9992 1025.6519 529.4318)" class="st1" width="577.4" height="6.2"/></g><g id="XMLID_307_"><line id="XMLID_309_" class="st1" x1="793" y1="184.8" x2="216.1" y2="207.4"/><rect id="XMLID_308_" x="215.8" y="193" transform="matrix(-0.9992 3.919933e-02 -3.919933e-02 -0.9992 1016.3965 372.2517)" class="st1" width="577.4" height="6.2"/></g><g id="XMLID_304_"><line id="XMLID_306_" class="st1" x1="790" y1="106.1" x2="213" y2="128.7"/><rect id="XMLID_305_" x="212.7" y="114.3" transform="matrix(-0.9992 3.919910e-02 -3.919910e-02 -0.9992 1007.1415 215.0712)" class="st1" width="577.4" height="6.2"/></g><g id="XMLID_301_"><line id="XMLID_303_" class="st1" x1="786.9" y1="27.4" x2="209.9" y2="50"/><rect id="XMLID_302_" x="209.7" y="35.6" transform="matrix(-0.9992 3.919910e-02 -3.919910e-02 -0.9992 997.8868 57.8911)" class="st1" width="577.4" height="6.2"/></g><g id="XMLID_298_"><line id="XMLID_300_" class="st1" x1="783.8" y1="-51.3" x2="206.8" y2="-28.6"/><rect id="XMLID_299_" x="206.6" y="-43" transform="matrix(-0.9992 3.919910e-02 -3.919910e-02 -0.9992 988.6313 -99.2893)" class="st1" width="577.4" height="6.2"/></g><g id="XMLID_295_"><line id="XMLID_297_" class="st1" x1="780.7" y1="-130" x2="203.7" y2="-107.3"/><rect id="XMLID_296_" x="203.5" y="-121.7" transform="matrix(-0.9992 3.919938e-02 -3.919938e-02 -0.9992 979.3765 -256.4697)" class="st1" width="577.4" height="6.2"/></g><g id="XMLID_292_"><line id="XMLID_294_" class="st1" x1="795.6" y1="250.3" x2="218.6" y2="273"/><rect id="XMLID_293_" x="218.4" y="258.6" transform="matrix(-0.9992 3.919938e-02 -3.919938e-02 -0.9992 1024.1094 503.2351)" class="st1" width="577.4" height="6.2"/></g><g id="XMLID_289_"><line id="XMLID_291_" class="st1" x1="792.5" y1="171.7" x2="215.5" y2="194.3"/><rect id="XMLID_290_" x="215.3" y="179.9" transform="matrix(-0.9992 3.919905e-02 -3.919905e-02 -0.9992 1014.8541 346.055)" class="st1" width="577.4" height="6.2"/></g><g id="XMLID_286_"><line id="XMLID_288_" class="st1" x1="789.4" y1="93" x2="212.5" y2="115.6"/><rect id="XMLID_287_" x="212.2" y="101.2" transform="matrix(-0.9992 3.919938e-02 -3.919938e-02 -0.9992 1005.5991 188.8746)" class="st1" width="577.4" height="6.2"/></g><g id="XMLID_283_"><line id="XMLID_285_" class="st1" x1="786.4" y1="14.3" x2="209.4" y2="36.9"/><rect id="XMLID_284_" x="209.1" y="22.5" transform="matrix(-0.9992 3.919938e-02 -3.919938e-02 -0.9992 996.3442 31.6945)" class="st1" width="577.4" height="6.2"/></g><g id="XMLID_280_"><line id="XMLID_282_" class="st1" x1="783.3" y1="-64.4" x2="206.3" y2="-41.7"/><rect id="XMLID_281_" x="206.1" y="-56.2" transform="matrix(-0.9992 3.919938e-02 -3.919938e-02 -0.9992 987.0889 -125.4863)" class="st1" width="577.4" height="6.2"/></g><g id="XMLID_277_"><line id="XMLID_279_" class="st1" x1="780.2" y1="-143.1" x2="203.2" y2="-120.4"/><rect id="XMLID_278_" x="203" y="-134.8" transform="matrix(-0.9992 3.919938e-02 -3.919938e-02 -0.9992 977.8341 -282.6664)" class="st1" width="577.4" height="6.2"/></g><g id="XMLID_274_"><line id="XMLID_276_" class="st1" x1="795.1" y1="237.2" x2="218.1" y2="259.9"/><rect id="XMLID_275_" x="217.9" y="245.5" transform="matrix(-0.9992 3.919966e-02 -3.919966e-02 -0.9992 1022.5668 477.0385)" class="st1" width="577.4" height="6.2"/></g><g id="XMLID_271_"><line id="XMLID_273_" class="st1" x1="792" y1="158.5" x2="215" y2="181.2"/><rect id="XMLID_272_" x="214.8" y="166.8" transform="matrix(-0.9992 3.919910e-02 -3.919910e-02 -0.9992 1013.3114 319.858)" class="st1" width="577.4" height="6.2"/></g><g id="XMLID_268_"><line id="XMLID_270_" class="st1" x1="788.9" y1="79.9" x2="211.9" y2="102.5"/><rect id="XMLID_269_" x="211.7" y="88.1" transform="matrix(-0.9992 3.919910e-02 -3.919910e-02 -0.9992 1004.0566 162.6779)" class="st1" width="577.4" height="6.2"/></g><g id="XMLID_265_"><line id="XMLID_267_" class="st1" x1="785.8" y1="1.2" x2="208.9" y2="23.8"/><rect id="XMLID_266_" x="208.6" y="9.4" transform="matrix(-0.9992 3.919877e-02 -3.919877e-02 -0.9992 994.8015 5.4978)" class="st1" width="577.4" height="6.2"/></g><g id="XMLID_262_"><line id="XMLID_264_" class="st1" x1="782.8" y1="-77.5" x2="205.8" y2="-54.9"/><rect id="XMLID_263_" x="205.5" y="-69.3" transform="matrix(-0.9992 3.919938e-02 -3.919938e-02 -0.9992 985.5464 -151.683)" class="st1" width="577.4" height="6.2"/></g><g id="XMLID_259_"><line id="XMLID_261_" class="st1" x1="779.7" y1="-156.2" x2="202.7" y2="-133.5"/><rect id="XMLID_260_" x="202.5" y="-147.9" transform="matrix(-0.9992 3.919938e-02 -3.919938e-02 -0.9992 976.2916 -308.8631)" class="st1" width="577.4" height="6.2"/></g><g id="XMLID_256_"><line id="XMLID_258_" class="st1" x1="779.2" y1="-169.3" x2="202.2" y2="-146.7"/><rect id="XMLID_257_" x="201.9" y="-161.1" transform="matrix(-0.9992 3.919938e-02 -3.919938e-02 -0.9992 974.7491 -335.0598)" class="st1" width="577.4" height="6.2"/></g><g id="XMLID_253_"><line id="XMLID_255_" class="st1" x1="778.6" y1="-182.4" x2="201.6" y2="-159.8"/><rect id="XMLID_254_" x="201.4" y="-174.2" transform="matrix(-0.9992 3.919938e-02 -3.919938e-02 -0.9992 973.2067 -361.2564)" class="st1" width="577.4" height="6.2"/></g><g id="XMLID_250_"><line id="XMLID_252_" class="st1" x1="778.1" y1="-195.5" x2="201.1" y2="-172.9"/><rect id="XMLID_251_" x="200.9" y="-187.3" transform="matrix(-0.9992 3.919938e-02 -3.919938e-02 -0.9992 971.6642 -387.4531)" class="st1" width="577.4" height="6.2"/></g><g id="XMLID_247_"><line id="XMLID_249_" class="st1" x1="777.6" y1="-208.6" x2="200.6" y2="-186"/><rect id="XMLID_248_" x="200.4" y="-200.4" transform="matrix(-0.9992 3.919905e-02 -3.919905e-02 -0.9992 970.1215 -413.6498)" class="st1" width="577.4" height="6.2"/></g><g id="XMLID_244_"><line id="XMLID_246_" class="st1" x1="777.1" y1="-221.7" x2="200.1" y2="-199.1"/><rect id="XMLID_245_" x="199.9" y="-213.5" transform="matrix(-0.9992 3.919905e-02 -3.919905e-02 -0.9992 968.579 -439.8465)" class="st1" width="577.4" height="6.2"/></g><g id="XMLID_241_"><line id="XMLID_243_" class="st1" x1="776.6" y1="-234.9" x2="199.6" y2="-212.2"/><rect id="XMLID_242_" x="199.4" y="-226.6" transform="matrix(-0.9992 3.919905e-02 -3.919905e-02 -0.9992 967.0366 -466.0432)" class="st1" width="577.4" height="6.2"/></g><g id="XMLID_238_"><line id="XMLID_240_" class="st1" x1="776.1" y1="-248" x2="199.1" y2="-225.3"/><rect id="XMLID_239_" x="198.9" y="-239.7" transform="matrix(-0.9992 3.919905e-02 -3.919905e-02 -0.9992 965.4941 -492.2398)" class="st1" width="577.4" height="6.2"/></g><g id="XMLID_235_"><line id="XMLID_237_" class="st1" x1="775.6" y1="-261.1" x2="198.6" y2="-238.5"/><rect id="XMLID_236_" x="198.3" y="-252.9" transform="matrix(-0.9992 3.919938e-02 -3.919938e-02 -0.9992 963.9512 -518.4368)" class="st1" width="577.4" height="6.2"/></g><g id="XMLID_232_"><line id="XMLID_234_" class="st1" x1="775" y1="-274.2" x2="198" y2="-251.6"/><rect id="XMLID_233_" x="197.8" y="-266" transform="matrix(-0.9992 3.919938e-02 -3.919938e-02 -0.9992 962.4087 -544.6335)" class="st1" width="577.4" height="6.2"/></g><g id="XMLID_229_"><line id="XMLID_231_" class="st1" x1="774.5" y1="-287.3" x2="197.5" y2="-264.7"/><rect id="XMLID_230_" x="197.3" y="-279.1" transform="matrix(-0.9992 3.919938e-02 -3.919938e-02 -0.9992 960.8662 -570.8302)" class="st1" width="577.4" height="6.2"/></g><g id="XMLID_226_"><line id="XMLID_228_" class="st1" x1="774" y1="-300.4" x2="197" y2="-277.8"/><rect id="XMLID_227_" x="196.8" y="-292.2" transform="matrix(-0.9992 3.919938e-02 -3.919938e-02 -0.9992 959.3238 -597.0269)" class="st1" width="577.4" height="6.2"/></g><g id="XMLID_223_"><line id="XMLID_225_" class="st1" x1="773.5" y1="-313.5" x2="196.5" y2="-290.9"/><rect id="XMLID_224_" x="196.3" y="-305.3" transform="matrix(-0.9992 3.919938e-02 -3.919938e-02 -0.9992 957.7813 -623.2236)" class="st1" width="577.4" height="6.2"/></g></g></g><g id="XMLID_218_"><path id="XMLID_15_" class="st5" d="M325.5,1017.5c-13.9-111.3-20.9-223.3-19.8-335.7c-81.2,48.2-164,93.9-247.8,137.7 c6.8,8.1,13.7,16,20.8,23.7C147,917.6,232.3,979.2,325.5,1017.5z"/></g><g id="XMLID_81_"><defs><path id="SVGID_21_" d="M309,577.2c4.5-82.3,13.4-163.9,25.8-245c-8.6-75.2-13.7-150.8-15.3-226.5c-10.5,0.7-21,1.8-31.5,3.2 c-168.5,23-325.7,150-357.3,317.1C-95.8,566.1-34.3,709.4,57.9,819.5c83.9-43.7,166.6-89.4,247.8-137.7 C306,647,307.1,612.1,309,577.2z"/></defs><clipPath id="SVGID_5_"><use xlink:href="#SVGID_21_" overflow="visible"/></clipPath><g id="XMLID_82_" class="st6"><g id="XMLID_215_"><line id="XMLID_217_" class="st1" x1="259.4" y1="4.9" x2="487.3" y2="739.6"/><rect id="XMLID_216_" x="372.6" y="-12.4" transform="matrix(-0.955 0.2965 -0.2965 -0.955 840.2991 617.0748)" class="st1" width="1.5" height="769.2"/></g><g id="XMLID_212_"><line id="XMLID_214_" class="st1" x1="184.2" y1="28.2" x2="412.1" y2="763"/><rect id="XMLID_213_" x="297.4" y="11" transform="matrix(-0.955 0.2965 -0.2965 -0.955 700.2 685.0123)" class="st1" width="1.5" height="769.2"/></g><g id="XMLID_209_"><line id="XMLID_211_" class="st1" x1="322.1" y1="-14.6" x2="549.9" y2="720.2"/><rect id="XMLID_210_" x="435.3" y="-31.8" transform="matrix(-0.955 0.2965 -0.2965 -0.955 957.0483 560.4604)" class="st1" width="1.5" height="769.2"/></g><g id="XMLID_206_"><line id="XMLID_208_" class="st1" x1="246.9" y1="8.8" x2="474.7" y2="743.5"/><rect id="XMLID_207_" x="360.1" y="-8.5" transform="matrix(-0.955 0.2965 -0.2965 -0.955 816.9492 628.398)" class="st1" width="1.5" height="769.2"/></g><g id="XMLID_203_"><line id="XMLID_205_" class="st1" x1="171.7" y1="32.1" x2="399.5" y2="766.9"/><rect id="XMLID_204_" x="284.9" y="14.9" transform="matrix(-0.955 0.2965 -0.2965 -0.955 676.8501 696.3351)" class="st1" width="1.5" height="769.2"/></g><g id="XMLID_200_"><line id="XMLID_202_" class="st1" x1="309.6" y1="-10.7" x2="537.4" y2="724.1"/><rect id="XMLID_201_" x="422.7" y="-27.9" transform="matrix(-0.955 0.2965 -0.2965 -0.955 933.6985 571.7833)" class="st1" width="1.5" height="769.2"/></g><g id="XMLID_197_"><line id="XMLID_199_" class="st1" x1="234.4" y1="12.7" x2="462.2" y2="747.4"/><rect id="XMLID_198_" x="347.5" y="-4.6" transform="matrix(-0.955 0.2965 -0.2965 -0.955 793.5993 639.7208)" class="st1" width="1.5" height="769.2"/></g><g id="XMLID_194_"><line id="XMLID_196_" class="st1" x1="159.2" y1="36" x2="387" y2="770.7"/><rect id="XMLID_195_" x="272.3" y="18.8" transform="matrix(-0.955 0.2965 -0.2965 -0.955 653.5001 707.658)" class="st1" width="1.5" height="769.2"/></g><g id="XMLID_191_"><line id="XMLID_193_" class="st1" x1="297" y1="-6.8" x2="524.9" y2="727.9"/><rect id="XMLID_192_" x="410.2" y="-24" transform="matrix(-0.955 0.2965 -0.2965 -0.955 910.3486 583.1062)" class="st1" width="1.5" height="769.2"/></g><g id="XMLID_188_"><line id="XMLID_190_" class="st1" x1="221.8" y1="16.6" x2="449.7" y2="751.3"/><rect id="XMLID_189_" x="335" y="-.7" transform="matrix(-0.955 0.2965 -0.2965 -0.955 770.2495 651.0437)" class="st1" width="1.5" height="769.2"/></g><g id="XMLID_185_"><line id="XMLID_187_" class="st1" x1="146.6" y1="39.9" x2="374.5" y2="774.6"/><rect id="XMLID_186_" x="259.8" y="22.6" transform="matrix(-0.955 0.2965 -0.2965 -0.955 630.1502 718.9808)" class="st1" width="1.5" height="769.2"/></g><g id="XMLID_182_"><line id="XMLID_184_" class="st1" x1="284.5" y1="-2.9" x2="512.3" y2="731.8"/><rect id="XMLID_183_" x="397.7" y="-20.2" transform="matrix(-0.955 0.2965 -0.2965 -0.955 886.9988 594.4291)" class="st1" width="1.5" height="769.2"/></g><g id="XMLID_179_"><line id="XMLID_181_" class="st1" x1="209.3" y1="20.4" x2="437.1" y2="755.2"/><rect id="XMLID_180_" x="322.5" y="3.2" transform="matrix(-0.955 0.2965 -0.2965 -0.955 746.8996 662.3666)" class="st1" width="1.5" height="769.2"/></g><g id="XMLID_176_"><line id="XMLID_178_" class="st1" x1="134.1" y1="43.8" x2="361.9" y2="778.5"/><rect id="XMLID_177_" x="247.3" y="26.5" transform="matrix(-0.955 0.2965 -0.2965 -0.955 606.8002 730.3036)" class="st1" width="1.5" height="769.2"/></g><g id="XMLID_173_"><line id="XMLID_175_" class="st1" x1="272" y1="1" x2="499.8" y2="735.7"/><rect id="XMLID_174_" x="385.1" y="-16.3" transform="matrix(-0.955 0.2965 -0.2965 -0.955 863.649 605.7519)" class="st1" width="1.5" height="769.2"/></g><g id="XMLID_170_"><line id="XMLID_172_" class="st1" x1="196.8" y1="24.3" x2="424.6" y2="759.1"/><rect id="XMLID_171_" x="309.9" y="7.1" transform="matrix(-0.955 0.2965 -0.2965 -0.955 723.5498 673.6895)" class="st1" width="1.5" height="769.2"/></g><g id="XMLID_167_"><line id="XMLID_169_" class="st1" x1="121.6" y1="47.7" x2="349.4" y2="782.4"/><rect id="XMLID_168_" x="234.7" y="30.4" transform="matrix(-0.955 0.2965 -0.2965 -0.955 583.4504 741.6265)" class="st1" width="1.5" height="769.2"/></g><g id="XMLID_164_"><line id="XMLID_166_" class="st1" x1="109" y1="51.6" x2="336.9" y2="786.3"/><rect id="XMLID_165_" x="222.2" y="34.3" transform="matrix(-0.955 0.2965 -0.2965 -0.955 560.1005 752.9493)" class="st1" width="1.5" height="769.2"/></g><g id="XMLID_161_"><line id="XMLID_163_" class="st1" x1="96.5" y1="55.5" x2="324.3" y2="790.2"/><rect id="XMLID_162_" x="209.7" y="38.2" transform="matrix(-0.955 0.2965 -0.2965 -0.955 536.7507 764.2722)" class="st1" width="1.5" height="769.2"/></g><g id="XMLID_158_"><line id="XMLID_160_" class="st1" x1="84" y1="59.4" x2="311.8" y2="794.1"/><rect id="XMLID_159_" x="197.1" y="42.1" transform="matrix(-0.955 0.2965 -0.2965 -0.955 513.4007 775.5954)" class="st1" width="1.5" height="769.2"/></g><g id="XMLID_155_"><line id="XMLID_157_" class="st1" x1="71.4" y1="63.2" x2="299.3" y2="798"/><rect id="XMLID_156_" x="184.6" y="46" transform="matrix(-0.955 0.2965 -0.2965 -0.955 490.0509 786.9183)" class="st1" width="1.5" height="769.2"/></g><g id="XMLID_152_"><line id="XMLID_154_" class="st1" x1="58.9" y1="67.1" x2="286.7" y2="801.9"/><rect id="XMLID_153_" x="172.1" y="49.9" transform="matrix(-0.955 0.2965 -0.2965 -0.955 466.701 798.2411)" class="st1" width="1.5" height="769.2"/></g><g id="XMLID_149_"><line id="XMLID_151_" class="st1" x1="46.4" y1="71" x2="274.2" y2="805.8"/><rect id="XMLID_150_" x="159.5" y="53.8" transform="matrix(-0.955 0.2965 -0.2965 -0.955 443.3512 809.564)" class="st1" width="1.5" height="769.2"/></g><g id="XMLID_146_"><line id="XMLID_148_" class="st1" x1="33.8" y1="74.9" x2="261.7" y2="809.7"/><rect id="XMLID_147_" x="147" y="57.7" transform="matrix(-0.955 0.2965 -0.2965 -0.955 420.0013 820.8868)" class="st1" width="1.5" height="769.2"/></g><g id="XMLID_143_"><line id="XMLID_145_" class="st1" x1="21.3" y1="78.8" x2="249.1" y2="813.5"/><rect id="XMLID_144_" x="134.5" y="61.6" transform="matrix(-0.955 0.2965 -0.2965 -0.955 396.6515 832.2097)" class="st1" width="1.5" height="769.2"/></g><g id="XMLID_140_"><line id="XMLID_142_" class="st1" x1="8.8" y1="82.7" x2="236.6" y2="817.4"/><rect id="XMLID_141_" x="121.9" y="65.4" transform="matrix(-0.955 0.2965 -0.2965 -0.955 373.3017 843.5326)" class="st1" width="1.5" height="769.2"/></g><g id="XMLID_137_"><line id="XMLID_139_" class="st1" x1="-3.8" y1="86.6" x2="224.1" y2="821.3"/><rect id="XMLID_138_" x="109.4" y="69.3" transform="matrix(-0.955 0.2965 -0.2965 -0.955 349.9518 854.8554)" class="st1" width="1.5" height="769.2"/></g><g id="XMLID_134_"><line id="XMLID_136_" class="st1" x1="-16.3" y1="90.5" x2="211.5" y2="825.2"/><rect id="XMLID_135_" x="96.9" y="73.2" transform="matrix(-0.955 0.2965 -0.2965 -0.955 326.602 866.1783)" class="st1" width="1.5" height="769.2"/></g><g id="XMLID_131_"><line id="XMLID_133_" class="st1" x1="-28.8" y1="94.4" x2="199" y2="829.1"/><rect id="XMLID_132_" x="84.3" y="77.1" transform="matrix(-0.955 0.2965 -0.2965 -0.955 303.252 877.5011)" class="st1" width="1.5" height="769.2"/></g><g id="XMLID_128_"><line id="XMLID_130_" class="st1" x1="-41.4" y1="98.3" x2="186.5" y2="833"/><rect id="XMLID_129_" x="71.8" y="81" transform="matrix(-0.955 0.2965 -0.2965 -0.955 279.9021 888.824)" class="st1" width="1.5" height="769.2"/></g><g id="XMLID_125_"><line id="XMLID_127_" class="st1" x1="-53.9" y1="102.2" x2="173.9" y2="836.9"/><rect id="XMLID_126_" x="59.3" y="84.9" transform="matrix(-0.955 0.2965 -0.2965 -0.955 256.5523 900.1468)" class="st1" width="1.5" height="769.2"/></g><g id="XMLID_122_"><line id="XMLID_124_" class="st1" x1="-66.4" y1="106.1" x2="161.4" y2="840.8"/><rect id="XMLID_123_" x="46.7" y="88.8" transform="matrix(-0.955 0.2965 -0.2965 -0.955 233.2023 911.4696)" class="st1" width="1.5" height="769.2"/></g><g id="XMLID_119_"><line id="XMLID_121_" class="st1" x1="-79" y1="109.9" x2="148.9" y2="844.7"/><rect id="XMLID_120_" x="34.2" y="92.7" transform="matrix(-0.955 0.2965 -0.2965 -0.955 209.8524 922.7925)" class="st1" width="1.5" height="769.2"/></g><g id="XMLID_116_"><line id="XMLID_118_" class="st1" x1="-91.5" y1="113.8" x2="136.3" y2="848.6"/><rect id="XMLID_117_" x="21.6" y="96.6" transform="matrix(-0.955 0.2965 -0.2965 -0.955 186.5026 934.1154)" class="st1" width="1.5" height="769.2"/></g><g id="XMLID_113_"><line id="XMLID_115_" class="st1" x1="-104" y1="117.7" x2="123.8" y2="852.5"/><rect id="XMLID_114_" x="9.1" y="100.5" transform="matrix(-0.955 0.2965 -0.2965 -0.955 163.1527 945.4382)" class="st1" width="1.5" height="769.2"/></g><g id="XMLID_110_"><line id="XMLID_112_" class="st1" x1="-116.6" y1="121.6" x2="111.3" y2="856.3"/><rect id="XMLID_111_" x="-3.4" y="104.4" transform="matrix(-0.955 0.2965 -0.2965 -0.955 139.8029 956.761)" class="st1" width="1.5" height="769.2"/></g><g id="XMLID_107_"><line id="XMLID_109_" class="st1" x1="-129.1" y1="125.5" x2="98.7" y2="860.2"/><rect id="XMLID_108_" x="-16" y="108.2" transform="matrix(-0.955 0.2965 -0.2965 -0.955 116.453 968.0839)" class="st1" width="1.5" height="769.2"/></g><g id="XMLID_104_"><line id="XMLID_106_" class="st1" x1="-141.6" y1="129.4" x2="86.2" y2="864.1"/><rect id="XMLID_105_" x="-28.5" y="112.1" transform="matrix(-0.955 0.2965 -0.2965 -0.955 93.1031 979.4071)" class="st1" width="1.5" height="769.2"/></g><g id="XMLID_101_"><line id="XMLID_103_" class="st1" x1="-154.2" y1="133.3" x2="73.7" y2="868"/><rect id="XMLID_102_" x="-41" y="116" transform="matrix(-0.955 0.2965 -0.2965 -0.955 69.7532 990.73)" class="st1" width="1.5" height="769.2"/></g><g id="XMLID_98_"><line id="XMLID_100_" class="st1" x1="-166.7" y1="137.2" x2="61.1" y2="871.9"/><rect id="XMLID_99_" x="-53.6" y="119.9" transform="matrix(-0.955 0.2965 -0.2965 -0.955 46.4034 1002.0529)" class="st1" width="1.5" height="769.2"/></g><g id="XMLID_95_"><line id="XMLID_97_" class="st1" x1="-179.2" y1="141.1" x2="48.6" y2="875.8"/><rect id="XMLID_96_" x="-66.1" y="123.8" transform="matrix(-0.955 0.2965 -0.2965 -0.955 23.0535 1013.3757)" class="st1" width="1.5" height="769.2"/></g><g id="XMLID_92_"><line id="XMLID_94_" class="st1" x1="-191.8" y1="145" x2="36.1" y2="879.7"/><rect id="XMLID_93_" x="-78.6" y="127.7" transform="matrix(-0.955 0.2965 -0.2965 -0.955 -0.2963 1024.6986)" class="st1" width="1.5" height="769.2"/></g><g id="XMLID_89_"><line id="XMLID_91_" class="st1" x1="-204.3" y1="148.9" x2="23.5" y2="883.6"/><rect id="XMLID_90_" x="-91.2" y="131.6" transform="matrix(-0.955 0.2965 -0.2965 -0.955 -23.6462 1036.0215)" class="st1" width="1.5" height="769.2"/></g><g id="XMLID_86_"><line id="XMLID_88_" class="st1" x1="-216.8" y1="152.7" x2="11" y2="887.5"/><rect id="XMLID_87_" x="-103.7" y="135.5" transform="matrix(-0.955 0.2965 -0.2965 -0.955 -46.996 1047.3442)" class="st1" width="1.5" height="769.2"/></g><g id="XMLID_83_"><line id="XMLID_85_" class="st1" x1="-229.4" y1="156.6" x2="-1.5" y2="891.4"/><rect id="XMLID_84_" x="-116.2" y="139.4" transform="matrix(-0.955 0.2965 -0.2965 -0.955 -70.346 1058.6671)" class="st1" width="1.5" height="769.2"/></g></g></g><g id="XMLID_43_"><defs><path id="SVGID_23_" d="M388,631.7c84.5-52.8,167-108.8,246.8-168.6c14.6-11,29.2-22.1,43.6-33.3c-1.3-74.4-1.5-148.8-1-223.1 c-89.9-58.5-193.6-96.4-299.1-101.6c-17.1,75.2-31.9,150.8-43.5,227C346.3,433,364,533.1,388,631.7z"/></defs><clipPath id="SVGID_6_"><use xlink:href="#SVGID_23_" overflow="visible"/></clipPath><g id="XMLID_44_" class="st7"><g id="XMLID_78_"><line id="XMLID_80_" class="st1" x1="847.3" y1="401.9" x2="358.9" y2="710"/><rect id="XMLID_79_" x="314.4" y="543.6" transform="matrix(-0.8458 0.5336 -0.5336 -0.8458 1409.8364 704.2536)" class="st1" width="577.4" height="24.7"/></g><g id="XMLID_75_"><line id="XMLID_77_" class="st1" x1="791.3" y1="313.1" x2="302.9" y2="621.2"/><rect id="XMLID_76_" x="258.4" y="454.8" transform="matrix(-0.8458 0.5336 -0.5336 -0.8458 1259.0629 570.248)" class="st1" width="577.4" height="24.7"/></g><g id="XMLID_72_"><line id="XMLID_74_" class="st1" x1="875.3" y1="446.2" x2="386.9" y2="754.3"/><rect id="XMLID_73_" x="342.4" y="588" transform="matrix(-0.8458 0.5336 -0.5336 -0.8458 1485.2233 771.256)" class="st1" width="577.4" height="24.7"/></g><g id="XMLID_69_"><line id="XMLID_71_" class="st1" x1="819.3" y1="357.5" x2="330.9" y2="665.6"/><rect id="XMLID_70_" x="286.4" y="499.2" transform="matrix(-0.8458 0.5336 -0.5336 -0.8458 1334.4497 637.2505)" class="st1" width="577.4" height="24.7"/></g><g id="XMLID_66_"><line id="XMLID_68_" class="st1" x1="763.3" y1="268.7" x2="274.9" y2="576.8"/><rect id="XMLID_67_" x="230.4" y="410.4" transform="matrix(-0.8458 0.5336 -0.5336 -0.8458 1183.676 503.2455)" class="st1" width="577.4" height="24.7"/></g><g id="XMLID_63_"><line id="XMLID_65_" class="st1" x1="735.3" y1="224.3" x2="246.9" y2="532.4"/><rect id="XMLID_64_" x="202.4" y="366" transform="matrix(-0.8458 0.5336 -0.5336 -0.8458 1108.2893 436.243)" class="st1" width="577.4" height="24.7"/></g><g id="XMLID_60_"><line id="XMLID_62_" class="st1" x1="707.3" y1="179.9" x2="218.9" y2="488"/><rect id="XMLID_61_" x="174.4" y="321.6" transform="matrix(-0.8458 0.5336 -0.5336 -0.8458 1032.9025 369.2401)" class="st1" width="577.4" height="24.7"/></g><g id="XMLID_57_"><line id="XMLID_59_" class="st1" x1="679.3" y1="135.5" x2="190.9" y2="443.6"/><rect id="XMLID_58_" x="146.4" y="277.2" transform="matrix(-0.8458 0.5336 -0.5336 -0.8458 957.5157 302.2374)" class="st1" width="577.4" height="24.7"/></g><g id="XMLID_54_"><line id="XMLID_56_" class="st1" x1="651.3" y1="91.1" x2="162.9" y2="399.2"/><rect id="XMLID_55_" x="118.3" y="232.8" transform="matrix(-0.8458 0.5336 -0.5336 -0.8458 882.1289 235.235)" class="st1" width="577.4" height="24.7"/></g><g id="XMLID_51_"><line id="XMLID_53_" class="st1" x1="623.2" y1="46.7" x2="134.9" y2="354.8"/><rect id="XMLID_52_" x="90.3" y="188.4" transform="matrix(-0.8458 0.5336 -0.5336 -0.8458 806.7421 168.2323)" class="st1" width="577.4" height="24.7"/></g><g id="XMLID_48_"><line id="XMLID_50_" class="st1" x1="595.2" y1="2.3" x2="106.9" y2="310.4"/><rect id="XMLID_49_" x="62.3" y="144" transform="matrix(-0.8458 0.5336 -0.5336 -0.8458 731.3553 101.2298)" class="st1" width="577.4" height="24.7"/></g><g id="XMLID_45_"><line id="XMLID_47_" class="st1" x1="567.2" y1="-42.1" x2="78.9" y2="266"/><rect id="XMLID_46_" x="34.3" y="99.6" transform="matrix(-0.8458 0.5336 -0.5336 -0.8458 655.9686 34.2269)" class="st1" width="577.4" height="24.7"/></g></g></g><g id="XMLID_40_"><path id="XMLID_13_" class="st5" d="M811.7,319.6c-17.4-18.4-35.6-36-54.8-52.7c-24.9-21.8-51.6-42-79.5-60.2 c-0.5,74.3-0.3,148.7,1,223.1C723.9,394.4,768.4,357.7,811.7,319.6z"/></g></g></g></svg>
