<?xml version="1.0" encoding="utf-8"?>
<!-- Generator: Adobe Illustrator 22.1.0, SVG Export Plug-In . SVG Version: 6.00 Build 0)  -->
<svg version="1.1" id="Layer_1" xmlns="http://www.w3.org/2000/svg" xmlns:xlink="http://www.w3.org/1999/xlink" x="0px" y="0px"
	 viewBox="0 0 24.6 24.6" style="enable-background:new 0 0 24.6 24.6;" xml:space="preserve">
<style type="text/css">
	.st0{fill:#ED5640;}
</style>
<g>
	<g>
		<path class="st0" d="M17.5,8.3C17.4,8,17.3,7.8,17,7.6c-0.2-0.2-0.5-0.4-0.8-0.5C16,7,15.7,6.9,15,6.8c-0.7,0-0.9,0-2.7,0
			s-2,0-2.7,0C9,6.9,8.6,7,8.4,7.1C8.1,7.2,7.8,7.3,7.6,7.6C7.4,7.8,7.2,8,7.1,8.3S6.9,8.9,6.9,9.6c0,0.7,0,0.9,0,2.7s0,2,0,2.7
			s0.1,1,0.2,1.2c0.1,0.3,0.3,0.5,0.5,0.8c0.2,0.2,0.5,0.4,0.8,0.5c0.2,0.1,0.6,0.2,1.2,0.2c0.7,0,0.9,0,2.7,0s2,0,2.7,0
			c0.6,0,1-0.1,1.2-0.2c0.3-0.1,0.5-0.3,0.8-0.5c0.2-0.2,0.4-0.5,0.5-0.8c0.1-0.2,0.2-0.6,0.2-1.2c0-0.7,0-0.9,0-2.7s0-2,0-2.7
			C17.7,8.9,17.6,8.6,17.5,8.3 M12.3,15.7c-1.9,0-3.4-1.5-3.4-3.4s1.5-3.4,3.4-3.4s3.4,1.5,3.4,3.4C15.7,14.2,14.2,15.7,12.3,15.7
			 M15.9,9.5c-0.4,0-0.8-0.4-0.8-0.8c0-0.4,0.4-0.8,0.8-0.8c0.4,0,0.8,0.4,0.8,0.8C16.7,9.1,16.3,9.5,15.9,9.5"/>
		<path class="st0" d="M12.3,10c-1.2,0-2.2,1-2.2,2.2s1,2.2,2.2,2.2s2.2-1,2.2-2.2S13.5,10,12.3,10"/>
		<path class="st0" d="M12.3,0.1C5.6,0.1,0.1,5.6,0.1,12.3s5.4,12.2,12.2,12.2c6.7,0,12.2-5.4,12.2-12.2C24.5,5.6,19,0.1,12.3,0.1
			 M18.9,15c0,0.7-0.1,1.2-0.3,1.6c-0.2,0.4-0.4,0.8-0.8,1.2s-0.7,0.6-1.2,0.8c-0.4,0.2-0.9,0.3-1.6,0.3c-0.7,0-0.9,0-2.8,0
			c-1.8,0-2,0-2.8,0c-0.7,0-1.2-0.1-1.6-0.3c-0.4-0.2-0.8-0.4-1.2-0.8S6.2,17.1,6,16.6c-0.2-0.4-0.3-0.9-0.3-1.6c0-0.7,0-0.9,0-2.8
			c0-1.8,0-2,0-2.8c0-0.7,0.1-1.2,0.3-1.6C6.2,7.4,6.4,7,6.8,6.6S7.5,6,8,5.8c0.4-0.2,0.9-0.3,1.6-0.3c0.7,0,0.9,0,2.8,0
			c1.8,0,2,0,2.8,0c0.7,0,1.2,0.1,1.6,0.3C17.2,6,17.6,6.2,18,6.6s0.6,0.7,0.8,1.2c0.2,0.4,0.3,0.9,0.3,1.6c0,0.7,0,0.9,0,2.8
			C19,14.1,19,14.3,18.9,15"/>
	</g>
</g>
</svg>
