<?xml version="1.0" encoding="utf-8"?>
<!-- Generator: Adobe Illustrator 19.0.0, SVG Export Plug-In . SVG Version: 6.00 Build 0)  -->
<svg version="1.1" id="Layer_1" xmlns="http://www.w3.org/2000/svg" xmlns:xlink="http://www.w3.org/1999/xlink" x="0px" y="0px"
	 viewBox="0 0 28.4 29.2" style="enable-background:new 0 0 28.4 29.2;" xml:space="preserve">
<style type="text/css">
	.st0{fill:#F5426C;}
</style>
<path class="st0" d="M0.5,14.5"/>
<g id="XMLID_28_">
	<path class="st0" d="M18.2,11.4c-0.5,0-0.9-0.4-0.9-0.9c0-0.5,0.4-0.9,0.9-0.9c0.5,0,0.9,0.4,0.9,0.9C19.1,11,18.7,11.4,18.2,11.4
		 M14.2,18.6c-2.1,0-3.8-1.8-3.8-4c0-2.2,1.7-4,3.9-4c2.1,0,3.8,1.8,3.8,4C18,16.8,16.3,18.6,14.2,18.6 M20.1,10
		c-0.1-0.4-0.3-0.6-0.6-0.9c-0.3-0.3-0.5-0.4-0.9-0.6c-0.3-0.1-0.7-0.2-1.4-0.3c-0.8,0-1,0-3-0.1c-2,0-2.2,0-3,0
		c-0.7,0-1.1,0.2-1.4,0.3C9.4,8.7,9.2,8.8,8.9,9.1C8.7,9.4,8.5,9.6,8.4,10c-0.1,0.3-0.2,0.7-0.3,1.4c0,0.8,0,1.1-0.1,3.1
		c0,2.1,0,2.3,0,3.1c0,0.8,0.1,1.2,0.3,1.4c0.1,0.4,0.3,0.6,0.6,0.9c0.3,0.3,0.5,0.4,0.9,0.6c0.3,0.1,0.7,0.2,1.4,0.3
		c0.8,0,1,0,3,0.1c2,0,2.2,0,3,0c0.7,0,1.1-0.2,1.4-0.3c0.4-0.1,0.6-0.3,0.9-0.6c0.3-0.3,0.4-0.5,0.6-0.9c0.1-0.3,0.2-0.7,0.3-1.4
		c0-0.8,0-1.1,0.1-3.1c0-2.1,0-2.3,0-3.1C20.3,10.7,20.2,10.3,20.1,10"/>
	<path id="XMLID_31_" class="st0" d="M14.2,12c-1.4,0-2.5,1.1-2.5,2.6c0,1.4,1.1,2.6,2.5,2.6c1.4,0,2.5-1.1,2.5-2.6
		C16.7,13.2,15.6,12,14.2,12"/>
	<path class="st0" d="M21.6,17.8c0,0.8-0.2,1.4-0.4,1.9c-0.2,0.5-0.5,0.9-0.9,1.4c-0.4,0.4-0.8,0.7-1.3,0.9c-0.5,0.2-1,0.3-1.8,0.4
		c-0.8,0-1.1,0-3.1,0c-2,0-2.3,0-3.1-0.1c-0.8,0-1.3-0.2-1.8-0.4c-0.5-0.2-0.9-0.5-1.3-0.9c-0.4-0.4-0.7-0.9-0.9-1.4
		c-0.2-0.5-0.3-1.1-0.3-1.9c0-0.8,0-1.1,0-3.2c0-2.1,0-2.4,0.1-3.2c0-0.8,0.2-1.4,0.4-1.9C7.3,9,7.6,8.5,8,8.1
		c0.4-0.4,0.8-0.7,1.3-0.9c0.5-0.2,1-0.3,1.8-0.4c0.8,0,1.1,0,3.1,0c2,0,2.3,0,3.1,0.1c0.8,0,1.3,0.2,1.8,0.4
		c0.5,0.2,0.9,0.5,1.3,0.9c0.4,0.4,0.7,0.9,0.9,1.4c0.2,0.5,0.3,1.1,0.3,1.9s0,1.1,0,3.2C21.7,16.7,21.7,17,21.6,17.8 M14.2,0.5
		c-7.5,0-13.7,6.2-13.7,14c0,7.8,6.1,14.1,13.6,14.1c7.5,0,13.7-6.2,13.7-14C27.9,6.9,21.8,0.6,14.2,0.5"/>
</g>
</svg>
