<?xml version="1.0" encoding="utf-8"?>
<!-- Generator: Adobe Illustrator 19.0.0, SVG Export Plug-In . SVG Version: 6.00 Build 0)  -->
<svg version="1.1" id="Layer_1" xmlns="http://www.w3.org/2000/svg" xmlns:xlink="http://www.w3.org/1999/xlink" x="0px" y="0px"
	 viewBox="0 0 148.3 59.5" style="enable-background:new 0 0 148.3 59.5;" xml:space="preserve">
<style type="text/css">
	.st0{clip-path:url(#SVGID_1_);fill:#FFFFFF;}
	.st1{fill:#FFFFFF;}
	.st2{clip-path:url(#SVGID_2_);fill:#FFFFFF;}
	.st3{clip-path:url(#SVGID_3_);fill:#FFFFFF;}
</style>
<g>
	<g>
		<defs>
			<rect id="SVGID_7_" x="0" y="0" width="148.3" height="59.5"/>
		</defs>
		<clipPath id="SVGID_1_">
			<use xlink:href="#SVGID_7_"  style="overflow:visible;"/>
		</clipPath>
		<path id="XMLID_16_" class="st0" d="M8.9,12.2c1.1,0,2-0.3,2.6-0.8c0.6-0.5,0.9-1.2,0.9-2.1c0-0.9-0.3-1.6-0.9-2.1
			C10.9,6.6,10,6.3,8.9,6.3H8v5.9H8.9z M12.7,27L8,16.9V27H0L0,0l10.2,0c2.2,0,4.1,0.4,5.6,1.1c1.5,0.7,2.7,1.8,3.5,3
			c0.8,1.3,1.2,2.8,1.2,4.4c0,1.7-0.4,3.2-1.2,4.5c-0.8,1.3-2,2.3-3.5,3L22,27H12.7z"/>
	</g>
	<rect id="XMLID_11_" x="24.2" y="0" class="st1" width="8" height="27"/>
	<polygon id="XMLID_10_" class="st1" points="43.6,27 53.1,27 62.1,0 53.4,0 48.3,17 43.2,0 34.5,0 	"/>
	<polygon id="XMLID_9_" class="st1" points="64.2,27 80.9,27 81.9,20 72.1,20 72.1,16.9 79.7,16.9 79.7,9.9 72.1,9.9 72.1,7 81.5,7 
		80.5,0 64.2,0 	"/>
	<g>
		<defs>
			<rect id="SVGID_9_" x="0" y="0" width="148.3" height="59.5"/>
		</defs>
		<clipPath id="SVGID_2_">
			<use xlink:href="#SVGID_9_"  style="overflow:visible;"/>
		</clipPath>
		<path id="XMLID_15_" class="st2" d="M93.7,12.2c1.1,0,2-0.3,2.6-0.8c0.6-0.5,0.9-1.2,0.9-2.1c0-0.9-0.3-1.6-0.9-2.1
			c-0.6-0.5-1.5-0.8-2.6-0.8h-0.9v5.9H93.7z M97.5,27l-4.7-10.1V27h-8V0L95,0c2.2,0,4.1,0.4,5.6,1.1c1.5,0.7,2.7,1.8,3.5,3
			c0.8,1.3,1.2,2.8,1.2,4.4c0,1.7-0.4,3.2-1.2,4.5c-0.8,1.3-2,2.3-3.5,3l6.2,11H97.5z"/>
	</g>
	<polygon id="XMLID_6_" class="st1" points="24.2,58.9 32.2,58.9 32.2,49 40.2,49 40.2,58.9 48.2,58.9 48.2,31.9 40.2,31.9 
		40.2,41.3 32.2,41.3 32.2,31.9 24.2,31.9 	"/>
	<g>
		<defs>
			<rect id="SVGID_11_" x="0" y="0" width="148.3" height="59.5"/>
		</defs>
		<clipPath id="SVGID_3_">
			<use xlink:href="#SVGID_11_"  style="overflow:visible;"/>
		</clipPath>
		<path id="XMLID_14_" class="st3" d="M68.6,51c1-0.6,1.7-1.3,2.3-2.3c0.6-1,0.8-2.1,0.8-3.3s-0.3-2.3-0.8-3.3
			c-0.6-1-1.3-1.8-2.3-2.3c-1-0.6-2-0.8-3.2-0.8c-1.2,0-2.3,0.3-3.2,0.8c-1,0.6-1.7,1.3-2.3,2.3c-0.6,1-0.8,2.1-0.8,3.3
			s0.3,2.3,0.8,3.3c0.6,1,1.3,1.8,2.3,2.3c1,0.6,2,0.8,3.2,0.8C66.5,51.8,67.6,51.6,68.6,51 M58,57.7c-2.2-1.2-4-3-5.3-5.1
			c-1.3-2.2-1.9-4.5-1.9-7.1c0-2.6,0.6-5,1.9-7.1c1.3-2.2,3-3.9,5.3-5.1c2.2-1.2,4.7-1.9,7.3-1.9c2.7,0,5.1,0.6,7.3,1.9
			c2.2,1.2,4,3,5.3,5.1c1.3,2.2,1.9,4.5,1.9,7.1c0,2.6-0.6,5-1.9,7.1c-1.3,2.2-3,3.9-5.3,5.1c-2.2,1.2-4.7,1.9-7.3,1.9
			C62.7,59.5,60.2,58.9,58,57.7"/>
		<path id="XMLID_3_" class="st3" d="M87.8,58c-1.8-0.9-3.1-2.2-4.1-3.9c-1-1.7-1.4-3.6-1.4-5.8V31.9h8V48c0,1.2,0.3,2.1,1,2.8
			c0.7,0.7,1.5,1,2.6,1s2-0.3,2.6-1c0.7-0.7,1-1.6,1-2.8V31.9h8v16.5c0,2.2-0.5,4.1-1.4,5.8c-1,1.7-2.3,3-4.1,3.9
			c-1.8,0.9-3.8,1.4-6.2,1.4C91.6,59.4,89.5,58.9,87.8,58"/>
		<path id="XMLID_2_" class="st3" d="M108.3,56.9l1-7.2c1.5,1,3,1.8,4.4,2.3c1.4,0.5,2.7,0.7,3.8,0.7c0.8,0,1.4-0.1,1.8-0.4
			c0.4-0.3,0.5-0.6,0.5-1.1c0-0.4-0.2-0.8-0.6-1.2c-0.4-0.3-1.1-0.7-2.2-1.1l-1.5-0.5c-2.2-0.7-3.9-1.8-5-3.3
			c-1.1-1.5-1.7-3.2-1.7-5.2c0-1.6,0.4-3.1,1.2-4.4c0.8-1.3,2-2.3,3.4-3.1c1.5-0.8,3.2-1.1,5.1-1.1c2.4,0,5.1,0.6,8,1.8l-1,7.1
			c-3-1.4-5.4-2.2-7.2-2.2c-0.7,0-1.2,0.1-1.5,0.4c-0.3,0.3-0.5,0.6-0.5,1.1s0.2,0.8,0.6,1.2c0.4,0.3,1,0.6,2,0.9l1.5,0.5
			c2.5,0.8,4.3,2,5.4,3.5c1.1,1.5,1.7,3.2,1.7,5c0,1.5-0.4,3-1.1,4.3c-0.7,1.4-1.8,2.5-3.3,3.3c-1.5,0.9-3.4,1.3-5.6,1.3
			C114.6,59.5,111.4,58.7,108.3,56.9"/>
	</g>
	<polygon id="XMLID_1_" class="st1" points="130.6,58.9 147.4,58.9 148.3,51.9 138.6,51.9 138.6,48.8 146.1,48.8 146.1,41.8 
		138.6,41.8 138.6,38.9 148,38.9 147,31.9 130.6,31.9 	"/>
</g>
</svg>
