<?xml version="1.0" encoding="utf-8"?>
<!-- Generator: Adobe Illustrator 22.1.0, SVG Export Plug-In . SVG Version: 6.00 Build 0)  -->
<svg version="1.1" id="Layer_1" xmlns="http://www.w3.org/2000/svg" xmlns:xlink="http://www.w3.org/1999/xlink" x="0px" y="0px"
	 viewBox="0 0 80 80" style="enable-background:new 0 0 80 80;" xml:space="preserve">
<style type="text/css">
	.st0{fill:#FFFFFF;}
</style>
<g>
	<g>
		<g>
			<path class="st0" d="M52.5,20.2h-25L40,7.9L52.5,20.2z M34.8,17.2h10.4L40,12.1L34.8,17.2z"/>
		</g>
		<g>
			<path class="st0" d="M25.2,58.7h-9.7V24h9.7V58.7z M18.5,55.7h3.7V27h-3.7V55.7z"/>
		</g>
		<g>
			<path class="st0" d="M38.3,58.7h-9.7V24h9.7V58.7z M31.6,55.7h3.7V27h-3.7V55.7z"/>
		</g>
		<g>
			<path class="st0" d="M51.4,58.7h-9.7V24h9.7V58.7z M44.7,55.7h3.7V27h-3.7V55.7z"/>
		</g>
		<g>
			<path class="st0" d="M64.5,58.7h-9.7V24h9.7V58.7z M57.8,55.7h3.7V27h-3.7V55.7z"/>
		</g>
		<g>
			<g>
				<rect x="38.5" y="1.7" class="st0" width="3" height="9.3"/>
			</g>
		</g>
		<g>
			<rect x="15.3" y="63.1" class="st0" width="49.4" height="3"/>
		</g>
		<g>
			<g>
				
					<rect x="38.5" y="44.7" transform="matrix(7.763056e-03 -1 1 7.763056e-03 -36.9197 116.0156)" class="st0" width="3" height="63.9"/>
			</g>
			<g>
				<rect x="11.6" y="69.4" class="st0" width="56.8" height="3"/>
			</g>
		</g>
	</g>
</g>
</svg>
