<svg version="1.1" id="Layer_1" xmlns="http://www.w3.org/2000/svg" xmlns:xlink="http://www.w3.org/1999/xlink" x="0" y="0" viewBox="0 0 285.4 363.1" xml:space="preserve" enable-background="new 0 0 285.4 363.1"><style type="text/css">.st0{clip-path:url(#SVGID_1_)}.st1{clip-path:url(#SVGID_2_)}.st2{fill:#8e9090}.st3{clip-path:url(#SVGID_3_)}.st4{clip-path:url(#SVGID_4_)}.st5{clip-path:url(#SVGID_5_)}.st6{clip-path:url(#SVGID_6_)}</style><g><defs><polygon id="SVGID_13_" points="994.9,561.2 0,755.2 0,-489.8 994.9,-454.8"/></defs><clipPath id="SVGID_1_"><use xlink:href="#SVGID_13_" overflow="visible"/></clipPath><g class="st0"><g><defs><path id="SVGID_15_" d="M28.4,23.5C21.6,28.1,14.8,32.8,8,37.4c-140.9,96-278.6,196.8-412.7,302c23-143.2,7.6-293.5-46.2-428.4 c-21.8-54.6-49.7-106.7-82.6-155.2c43.3-28.5,86.9-56.5,130.8-84.1C-252.8-219.1-108.7-101.6,28.4,23.5z"/></defs><clipPath id="SVGID_2_"><use xlink:href="#SVGID_15_" overflow="visible"/></clipPath><g class="st1"><g><g><line class="st2" x1="275.7" y1="30.2" x2="-277.8" y2="-583.8"/><rect x="-1.3" y="-690.1" transform="matrix(-0.7427 0.6696 -0.6696 -0.7427 -187.1484 -481.7072)" class="st2" width=".5" height="826.7"/></g><g><line class="st2" x1="269.3" y1="36" x2="-284.2" y2="-578"/><rect x="-7.7" y="-684.3" transform="matrix(-0.7427 0.6696 -0.6696 -0.7427 -194.4973 -467.251)" class="st2" width=".5" height="826.7"/></g><g><line class="st2" x1="262.8" y1="41.8" x2="-290.7" y2="-572.2"/><rect x="-14.2" y="-678.5" transform="matrix(-0.7427 0.6696 -0.6696 -0.7427 -201.8463 -452.7947)" class="st2" width=".5" height="826.7"/></g><g><line class="st2" x1="256.4" y1="47.6" x2="-297.1" y2="-566.4"/><rect x="-20.6" y="-672.7" transform="matrix(-0.7427 0.6696 -0.6696 -0.7427 -209.1953 -438.3385)" class="st2" width=".5" height="826.7"/></g><g><line class="st2" x1="249.9" y1="53.5" x2="-303.6" y2="-560.5"/><rect x="-27.1" y="-666.9" transform="matrix(-0.7427 0.6696 -0.6696 -0.7427 -216.5443 -423.8822)" class="st2" width=".5" height="826.7"/></g><g><line class="st2" x1="243.5" y1="59.3" x2="-310" y2="-554.7"/><rect x="-33.5" y="-661.1" transform="matrix(-0.7427 0.6696 -0.6696 -0.7427 -223.8932 -409.426)" class="st2" width=".5" height="826.7"/></g><g><line class="st2" x1="237" y1="65.1" x2="-316.5" y2="-548.9"/><rect x="-40" y="-655.2" transform="matrix(-0.7427 0.6696 -0.6696 -0.7427 -231.2421 -394.9698)" class="st2" width=".5" height="826.7"/></g><g><line class="st2" x1="230.6" y1="70.9" x2="-323" y2="-543.1"/><rect x="-46.5" y="-649.4" transform="matrix(-0.7428 0.6695 -0.6695 -0.7428 -238.5786 -380.5302)" class="st2" width=".5" height="826.7"/></g><g><line class="st2" x1="224.1" y1="76.7" x2="-329.4" y2="-537.3"/><rect x="-52.9" y="-643.6" transform="matrix(-0.7428 0.6695 -0.6695 -0.7428 -245.9283 -366.074)" class="st2" width=".5" height="826.7"/></g><g><line class="st2" x1="217.7" y1="82.5" x2="-335.9" y2="-531.5"/><rect x="-59.4" y="-637.8" transform="matrix(-0.7427 0.6696 -0.6696 -0.7427 -253.289 -351.601)" class="st2" width=".5" height="826.7"/></g><g><line class="st2" x1="211.2" y1="88.4" x2="-342.3" y2="-525.6"/><rect x="-65.8" y="-632" transform="matrix(-0.7427 0.6697 -0.6697 -0.7427 -260.6481 -337.128)" class="st2" width=".5" height="826.7"/></g><g><line class="st2" x1="204.8" y1="94.2" x2="-348.8" y2="-519.8"/><rect x="-72.3" y="-626.2" transform="matrix(-0.7427 0.6697 -0.6697 -0.7427 -267.9963 -322.6717)" class="st2" width=".5" height="826.7"/></g><g><line class="st2" x1="198.3" y1="100" x2="-355.2" y2="-514"/><rect x="-78.7" y="-620.3" transform="matrix(-0.7427 0.6696 -0.6696 -0.7427 -275.3359 -308.2324)" class="st2" width=".5" height="826.7"/></g><g><line class="st2" x1="191.9" y1="105.8" x2="-361.7" y2="-508.2"/><rect x="-85.2" y="-614.5" transform="matrix(-0.7427 0.6696 -0.6696 -0.7427 -282.6848 -293.7761)" class="st2" width=".5" height="826.7"/></g><g><line class="st2" x1="185.4" y1="111.6" x2="-368.1" y2="-502.4"/><rect x="-91.6" y="-608.7" transform="matrix(-0.7427 0.6696 -0.6696 -0.7427 -290.0338 -279.3199)" class="st2" width=".5" height="826.7"/></g><g><line class="st2" x1="178.9" y1="117.4" x2="-374.6" y2="-496.6"/><rect x="-98.1" y="-602.9" transform="matrix(-0.7427 0.6696 -0.6696 -0.7427 -297.3827 -264.8636)" class="st2" width=".5" height="826.7"/></g><g><line class="st2" x1="172.5" y1="123.2" x2="-381" y2="-490.7"/><rect x="-104.5" y="-597.1" transform="matrix(-0.7427 0.6696 -0.6696 -0.7427 -304.7317 -250.4074)" class="st2" width=".5" height="826.7"/></g><g><line class="st2" x1="166" y1="129.1" x2="-387.5" y2="-484.9"/><rect x="-111" y="-591.3" transform="matrix(-0.7427 0.6696 -0.6696 -0.7427 -312.0806 -235.9511)" class="st2" width=".5" height="826.7"/></g><g><line class="st2" x1="159.6" y1="134.9" x2="-393.9" y2="-479.1"/><rect x="-117.4" y="-585.4" transform="matrix(-0.7427 0.6696 -0.6696 -0.7427 -319.4297 -221.4949)" class="st2" width=".5" height="826.7"/></g><g><line class="st2" x1="153.1" y1="140.7" x2="-400.4" y2="-473.3"/><rect x="-123.9" y="-579.6" transform="matrix(-0.7427 0.6696 -0.6696 -0.7427 -326.7786 -207.0387)" class="st2" width=".5" height="826.7"/></g><g><line class="st2" x1="146.7" y1="146.5" x2="-406.8" y2="-467.5"/><rect x="-130.3" y="-573.8" transform="matrix(-0.7427 0.6696 -0.6696 -0.7427 -334.1276 -192.5824)" class="st2" width=".5" height="826.7"/></g><g><line class="st2" x1="140.2" y1="152.3" x2="-413.3" y2="-461.7"/><rect x="-136.8" y="-568" transform="matrix(-0.7427 0.6696 -0.6696 -0.7427 -341.4765 -178.1262)" class="st2" width=".5" height="826.7"/></g><g><line class="st2" x1="133.8" y1="158.1" x2="-419.7" y2="-455.8"/><rect x="-143.2" y="-562.2" transform="matrix(-0.7428 0.6695 -0.6695 -0.7428 -348.8242 -163.6877)" class="st2" width=".5" height="826.7"/></g><g><line class="st2" x1="127.3" y1="164" x2="-426.2" y2="-450"/><rect x="-149.7" y="-556.4" transform="matrix(-0.7428 0.6695 -0.6695 -0.7428 -356.1739 -149.2316)" class="st2" width=".5" height="826.7"/></g><g><line class="st2" x1="120.9" y1="169.8" x2="-432.6" y2="-444.2"/><rect x="-156.1" y="-550.5" transform="matrix(-0.7428 0.6695 -0.6695 -0.7428 -363.5236 -134.7754)" class="st2" width=".5" height="826.7"/></g><g><line class="st2" x1="114.4" y1="175.6" x2="-439.1" y2="-438.4"/><rect x="-162.6" y="-544.7" transform="matrix(-0.7428 0.6695 -0.6695 -0.7428 -370.8732 -120.3193)" class="st2" width=".5" height="826.7"/></g><g><line class="st2" x1="108" y1="181.4" x2="-445.5" y2="-432.6"/><rect x="-169" y="-538.9" transform="matrix(-0.7427 0.6696 -0.6696 -0.7427 -378.2212 -105.8451)" class="st2" width=".5" height="826.7"/></g><g><line class="st2" x1="101.5" y1="187.2" x2="-452" y2="-426.8"/><rect x="-175.5" y="-533.1" transform="matrix(-0.7427 0.6696 -0.6696 -0.7427 -385.5702 -91.3889)" class="st2" width=".5" height="826.7"/></g><g><line class="st2" x1="95.1" y1="193" x2="-458.4" y2="-420.9"/><rect x="-181.9" y="-527.3" transform="matrix(-0.7428 0.6695 -0.6695 -0.7428 -392.9225 -76.9507)" class="st2" width=".5" height="826.7"/></g><g><line class="st2" x1="88.6" y1="198.9" x2="-464.9" y2="-415.1"/><rect x="-188.4" y="-521.5" transform="matrix(-0.7428 0.6695 -0.6695 -0.7428 -400.2722 -62.4946)" class="st2" width=".5" height="826.7"/></g><g><line class="st2" x1="82.2" y1="204.7" x2="-471.3" y2="-409.3"/><rect x="-194.8" y="-515.6" transform="matrix(-0.7428 0.6695 -0.6695 -0.7428 -407.6218 -48.0384)" class="st2" width=".5" height="826.7"/></g><g><line class="st2" x1="75.7" y1="210.5" x2="-477.8" y2="-403.5"/><rect x="-201.3" y="-509.8" transform="matrix(-0.7428 0.6695 -0.6695 -0.7428 -414.9715 -33.5822)" class="st2" width=".5" height="826.7"/></g><g><line class="st2" x1="69.3" y1="216.3" x2="-484.2" y2="-397.7"/><rect x="-207.7" y="-504" transform="matrix(-0.7428 0.6695 -0.6695 -0.7428 -422.3212 -19.1261)" class="st2" width=".5" height="826.7"/></g><g><line class="st2" x1="62.8" y1="222.1" x2="-490.7" y2="-391.9"/><rect x="-214.2" y="-498.2" transform="matrix(-0.7428 0.6695 -0.6695 -0.7428 -429.671 -4.6699)" class="st2" width=".5" height="826.7"/></g><g><line class="st2" x1="56.4" y1="227.9" x2="-497.1" y2="-386"/><rect x="-220.6" y="-492.4" transform="matrix(-0.7428 0.6695 -0.6695 -0.7428 -437.0207 9.7862)" class="st2" width=".5" height="826.7"/></g><g><line class="st2" x1="49.9" y1="233.8" x2="-503.6" y2="-380.2"/><rect x="-227.1" y="-486.6" transform="matrix(-0.7428 0.6695 -0.6695 -0.7428 -444.3703 24.2424)" class="st2" width=".5" height="826.7"/></g><g><line class="st2" x1="43.5" y1="239.6" x2="-510" y2="-374.4"/><rect x="-233.5" y="-480.7" transform="matrix(-0.7428 0.6695 -0.6695 -0.7428 -451.72 38.6985)" class="st2" width=".5" height="826.7"/></g><g><line class="st2" x1="37" y1="245.4" x2="-516.5" y2="-368.6"/><rect x="-240" y="-474.9" transform="matrix(-0.7428 0.6695 -0.6695 -0.7428 -459.0697 53.1546)" class="st2" width=".5" height="826.7"/></g><g><line class="st2" x1="30.6" y1="251.2" x2="-523" y2="-362.8"/><rect x="-246.5" y="-469.1" transform="matrix(-0.7428 0.6695 -0.6695 -0.7428 -466.4194 67.6108)" class="st2" width=".5" height="826.7"/></g><g><line class="st2" x1="24.1" y1="257" x2="-529.4" y2="-357"/><rect x="-252.9" y="-463.3" transform="matrix(-0.7428 0.6695 -0.6695 -0.7428 -473.7692 82.067)" class="st2" width=".5" height="826.7"/></g><g><line class="st2" x1="17.7" y1="262.8" x2="-535.9" y2="-351.1"/><rect x="-259.4" y="-457.5" transform="matrix(-0.7428 0.6695 -0.6695 -0.7428 -481.1189 96.5232)" class="st2" width=".5" height="826.7"/></g><g><line class="st2" x1="11.2" y1="268.7" x2="-542.3" y2="-345.3"/><rect x="-265.8" y="-451.7" transform="matrix(-0.7428 0.6695 -0.6695 -0.7428 -488.4687 110.9793)" class="st2" width=".5" height="826.7"/></g><g><line class="st2" x1="4.8" y1="274.5" x2="-548.8" y2="-339.5"/><rect x="-272.3" y="-445.8" transform="matrix(-0.7428 0.6695 -0.6695 -0.7428 -495.8184 125.4355)" class="st2" width=".5" height="826.7"/></g><g><line class="st2" x1="-1.7" y1="280.3" x2="-555.2" y2="-333.7"/><rect x="-278.7" y="-440" transform="matrix(-0.7428 0.6695 -0.6695 -0.7428 -503.168 139.8916)" class="st2" width=".5" height="826.7"/></g><g><line class="st2" x1="-8.2" y1="286.1" x2="-561.7" y2="-327.9"/><rect x="-285.2" y="-434.2" transform="matrix(-0.7428 0.6695 -0.6695 -0.7428 -510.5177 154.3479)" class="st2" width=".5" height="826.7"/></g></g><g><line class="st2" x1="-14.6" y1="292" x2="-568.1" y2="-322"/><rect x="-291.6" y="-428.3" transform="matrix(-0.7427 0.6696 -0.6696 -0.7427 -517.8566 168.927)" class="st2" width=".5" height="826.7"/></g><g><line class="st2" x1="-21.1" y1="297.8" x2="-574.6" y2="-316.2"/><rect x="-298.1" y="-422.5" transform="matrix(-0.7427 0.6696 -0.6696 -0.7427 -525.2056 183.3833)" class="st2" width=".5" height="826.7"/></g><g><line class="st2" x1="-27.5" y1="303.6" x2="-581" y2="-310.4"/><rect x="-304.5" y="-416.7" transform="matrix(-0.7427 0.6696 -0.6696 -0.7427 -532.5545 197.8395)" class="st2" width=".5" height="826.7"/></g><g><line class="st2" x1="-34" y1="309.4" x2="-587.5" y2="-304.6"/><rect x="-311" y="-410.9" transform="matrix(-0.7427 0.6696 -0.6696 -0.7427 -539.9035 212.2957)" class="st2" width=".5" height="826.7"/></g><g><line class="st2" x1="-40.4" y1="315.2" x2="-593.9" y2="-298.8"/><rect x="-317.4" y="-405.1" transform="matrix(-0.7427 0.6696 -0.6696 -0.7427 -547.2524 226.7519)" class="st2" width=".5" height="826.7"/></g><g><line class="st2" x1="-46.9" y1="321.1" x2="-600.4" y2="-292.9"/><rect x="-323.9" y="-399.3" transform="matrix(-0.7427 0.6696 -0.6696 -0.7427 -554.6014 241.2081)" class="st2" width=".5" height="826.7"/></g><g><line class="st2" x1="-53.3" y1="326.9" x2="-606.8" y2="-287.1"/><rect x="-330.3" y="-393.5" transform="matrix(-0.7428 0.6695 -0.6695 -0.7428 -561.9706 255.6444)" class="st2" width=".5" height="826.7"/></g><g><line class="st2" x1="-59.8" y1="332.7" x2="-613.3" y2="-281.3"/><rect x="-336.8" y="-387.6" transform="matrix(-0.7428 0.6695 -0.6695 -0.7428 -569.3204 270.1006)" class="st2" width=".5" height="826.7"/></g><g><line class="st2" x1="-66.2" y1="338.5" x2="-619.8" y2="-275.5"/><rect x="-343.2" y="-381.8" transform="matrix(-0.7427 0.6696 -0.6696 -0.7427 -576.6482 284.5769)" class="st2" width=".5" height="826.7"/></g><g><line class="st2" x1="-72.7" y1="344.3" x2="-626.2" y2="-269.7"/><rect x="-349.7" y="-376" transform="matrix(-0.7427 0.6697 -0.6697 -0.7427 -583.9745 299.0534)" class="st2" width=".5" height="826.7"/></g><g><line class="st2" x1="-79.1" y1="350.1" x2="-632.7" y2="-263.9"/><rect x="-356.2" y="-370.2" transform="matrix(-0.7427 0.6697 -0.6697 -0.7427 -591.3228 313.5097)" class="st2" width=".5" height="826.7"/></g><g><line class="st2" x1="-85.6" y1="356" x2="-639.1" y2="-258"/><rect x="-362.6" y="-364.4" transform="matrix(-0.7427 0.6696 -0.6696 -0.7427 -598.6951 327.9456)" class="st2" width=".5" height="826.7"/></g><g><line class="st2" x1="-92" y1="361.8" x2="-645.6" y2="-252.2"/><rect x="-369.1" y="-358.6" transform="matrix(-0.7427 0.6696 -0.6696 -0.7427 -606.0441 342.4018)" class="st2" width=".5" height="826.7"/></g><g><line class="st2" x1="-98.5" y1="367.6" x2="-652" y2="-246.4"/><rect x="-375.5" y="-352.7" transform="matrix(-0.7427 0.6696 -0.6696 -0.7427 -613.393 356.858)" class="st2" width=".5" height="826.7"/></g><g><line class="st2" x1="-104.9" y1="373.4" x2="-658.5" y2="-240.6"/><rect x="-382" y="-346.9" transform="matrix(-0.7427 0.6696 -0.6696 -0.7427 -620.7419 371.3143)" class="st2" width=".5" height="826.7"/></g><g><line class="st2" x1="-111.4" y1="379.2" x2="-664.9" y2="-234.8"/><rect x="-388.4" y="-341.1" transform="matrix(-0.7427 0.6696 -0.6696 -0.7427 -628.0909 385.7705)" class="st2" width=".5" height="826.7"/></g><g><line class="st2" x1="-117.9" y1="385" x2="-671.4" y2="-229"/><rect x="-394.9" y="-335.3" transform="matrix(-0.7427 0.6696 -0.6696 -0.7427 -635.4398 400.2268)" class="st2" width=".5" height="826.7"/></g><g><line class="st2" x1="-124.3" y1="390.8" x2="-677.8" y2="-223.1"/><rect x="-401.3" y="-329.5" transform="matrix(-0.7427 0.6696 -0.6696 -0.7427 -642.7889 414.6831)" class="st2" width=".5" height="826.7"/></g><g><line class="st2" x1="-130.8" y1="396.7" x2="-684.3" y2="-217.3"/><rect x="-407.8" y="-323.7" transform="matrix(-0.7427 0.6696 -0.6696 -0.7427 -650.1378 429.1393)" class="st2" width=".5" height="826.7"/></g><g><line class="st2" x1="-137.2" y1="402.5" x2="-690.7" y2="-211.5"/><rect x="-414.2" y="-317.8" transform="matrix(-0.7427 0.6696 -0.6696 -0.7427 -657.4868 443.5955)" class="st2" width=".5" height="826.7"/></g><g><line class="st2" x1="-143.7" y1="408.3" x2="-697.2" y2="-205.7"/><rect x="-420.7" y="-312" transform="matrix(-0.7427 0.6696 -0.6696 -0.7427 -664.8358 458.0517)" class="st2" width=".5" height="826.7"/></g><g><line class="st2" x1="-150.1" y1="414.1" x2="-703.6" y2="-199.9"/><rect x="-427.1" y="-306.2" transform="matrix(-0.7428 0.6695 -0.6695 -0.7428 -672.2162 472.4868)" class="st2" width=".5" height="826.7"/></g><g><line class="st2" x1="-156.6" y1="419.9" x2="-710.1" y2="-194.1"/><rect x="-433.6" y="-300.4" transform="matrix(-0.7428 0.6695 -0.6695 -0.7428 -679.5659 486.943)" class="st2" width=".5" height="826.7"/></g><g><line class="st2" x1="-163" y1="425.7" x2="-716.5" y2="-188.2"/><rect x="-440" y="-294.6" transform="matrix(-0.7428 0.6695 -0.6695 -0.7428 -686.9156 501.3991)" class="st2" width=".5" height="826.7"/></g><g><line class="st2" x1="-169.5" y1="431.6" x2="-723" y2="-182.4"/><rect x="-446.5" y="-288.8" transform="matrix(-0.7428 0.6695 -0.6695 -0.7428 -694.2653 515.8552)" class="st2" width=".5" height="826.7"/></g><g><line class="st2" x1="-175.9" y1="437.4" x2="-729.4" y2="-176.6"/><rect x="-452.9" y="-282.9" transform="matrix(-0.7427 0.6696 -0.6696 -0.7427 -701.5804 530.3329)" class="st2" width=".5" height="826.7"/></g><g><line class="st2" x1="-182.4" y1="443.2" x2="-735.9" y2="-170.8"/><rect x="-459.4" y="-277.1" transform="matrix(-0.7427 0.6696 -0.6696 -0.7427 -708.9294 544.7891)" class="st2" width=".5" height="826.7"/></g><g><line class="st2" x1="-188.8" y1="449" x2="-742.3" y2="-165"/><rect x="-465.8" y="-271.3" transform="matrix(-0.7428 0.6695 -0.6695 -0.7428 -716.3145 559.2238)" class="st2" width=".5" height="826.7"/></g><g><line class="st2" x1="-195.3" y1="454.8" x2="-748.8" y2="-159.2"/><rect x="-472.3" y="-265.5" transform="matrix(-0.7428 0.6695 -0.6695 -0.7428 -723.6642 573.68)" class="st2" width=".5" height="826.7"/></g><g><line class="st2" x1="-201.7" y1="460.6" x2="-755.2" y2="-153.3"/><rect x="-478.7" y="-259.7" transform="matrix(-0.7428 0.6695 -0.6695 -0.7428 -731.0139 588.1362)" class="st2" width=".5" height="826.7"/></g><g><line class="st2" x1="-208.2" y1="466.5" x2="-761.7" y2="-147.5"/><rect x="-485.2" y="-253.9" transform="matrix(-0.7428 0.6695 -0.6695 -0.7428 -738.3636 602.5923)" class="st2" width=".5" height="826.7"/></g><g><line class="st2" x1="-214.6" y1="472.3" x2="-768.1" y2="-141.7"/><rect x="-491.6" y="-248" transform="matrix(-0.7428 0.6695 -0.6695 -0.7428 -745.7133 617.0485)" class="st2" width=".5" height="826.7"/></g><g><line class="st2" x1="-221.1" y1="478.1" x2="-774.6" y2="-135.9"/><rect x="-498.1" y="-242.2" transform="matrix(-0.7428 0.6695 -0.6695 -0.7428 -753.063 631.5046)" class="st2" width=".5" height="826.7"/></g><g><line class="st2" x1="-227.5" y1="483.9" x2="-781" y2="-130.1"/><rect x="-504.5" y="-236.4" transform="matrix(-0.7428 0.6695 -0.6695 -0.7428 -760.4127 645.9608)" class="st2" width=".5" height="826.7"/></g><g><line class="st2" x1="-234" y1="489.7" x2="-787.5" y2="-124.3"/><rect x="-511" y="-230.6" transform="matrix(-0.7428 0.6695 -0.6695 -0.7428 -767.7624 660.4169)" class="st2" width=".5" height="826.7"/></g><g><line class="st2" x1="-240.4" y1="495.5" x2="-793.9" y2="-118.4"/><rect x="-517.4" y="-224.8" transform="matrix(-0.7428 0.6695 -0.6695 -0.7428 -775.1121 674.873)" class="st2" width=".5" height="826.7"/></g><g><line class="st2" x1="-246.9" y1="501.4" x2="-800.4" y2="-112.6"/><rect x="-523.9" y="-219" transform="matrix(-0.7428 0.6695 -0.6695 -0.7428 -782.4618 689.3292)" class="st2" width=".5" height="826.7"/></g><g><line class="st2" x1="-253.3" y1="507.2" x2="-806.8" y2="-106.8"/><rect x="-530.3" y="-213.1" transform="matrix(-0.7428 0.6695 -0.6695 -0.7428 -789.8115 703.7854)" class="st2" width=".5" height="826.7"/></g><g><line class="st2" x1="-259.8" y1="513" x2="-813.3" y2="-101"/><rect x="-536.8" y="-207.3" transform="matrix(-0.7428 0.6695 -0.6695 -0.7428 -797.1613 718.2416)" class="st2" width=".5" height="826.7"/></g><g><line class="st2" x1="-266.2" y1="518.8" x2="-819.8" y2="-95.2"/><rect x="-543.3" y="-201.5" transform="matrix(-0.7428 0.6695 -0.6695 -0.7428 -804.511 732.6977)" class="st2" width=".5" height="826.7"/></g><g><line class="st2" x1="-272.7" y1="524.6" x2="-826.2" y2="-89.4"/><rect x="-549.7" y="-195.7" transform="matrix(-0.7428 0.6695 -0.6695 -0.7428 -811.8607 747.1539)" class="st2" width=".5" height="826.7"/></g><g><line class="st2" x1="-279.1" y1="530.4" x2="-832.7" y2="-83.5"/><rect x="-556.2" y="-189.9" transform="matrix(-0.7428 0.6695 -0.6695 -0.7428 -819.2104 761.61)" class="st2" width=".5" height="826.7"/></g><g><line class="st2" x1="-285.6" y1="536.3" x2="-839.1" y2="-77.7"/><rect x="-562.6" y="-184.1" transform="matrix(-0.7428 0.6695 -0.6695 -0.7428 -826.5601 776.0662)" class="st2" width=".5" height="826.7"/></g><g><line class="st2" x1="-292" y1="542.1" x2="-845.6" y2="-71.9"/><rect x="-569.1" y="-178.2" transform="matrix(-0.7428 0.6695 -0.6695 -0.7428 -833.9097 790.5224)" class="st2" width=".5" height="826.7"/></g></g></g><g><defs><path id="SVGID_17_" d="M-900.2-550.9c22.9,10.2,45.3,21.4,67.3,33.6c-46.4,44.2-100.3,82.9-155.6,115.8l4-76.8 C-954.4-499.2-924.7-523.6-900.2-550.9z"/></defs><clipPath id="SVGID_3_"><use xlink:href="#SVGID_17_" overflow="visible"/></clipPath><g class="st3"><g><line class="st2" x1="-767.1" y1="-259.7" x2="-854" y2="-667.5"/><rect x="-826.9" y="-672.1" transform="matrix(-0.978 0.2085 -0.2085 -0.978 -1699.9894 -747.9619)" class="st2" width="32.7" height="416.9"/></g><g><line class="st2" x1="-699.1" y1="-274.2" x2="-786.1" y2="-682"/><rect x="-758.9" y="-686.5" transform="matrix(-0.978 0.2085 -0.2085 -0.978 -1568.5763 -790.7976)" class="st2" width="32.7" height="416.9"/></g><g><line class="st2" x1="-835.1" y1="-245.2" x2="-922" y2="-653"/><rect x="-894.9" y="-657.6" transform="matrix(-0.978 0.2085 -0.2085 -0.978 -1831.4003 -705.1323)" class="st2" width="32.7" height="416.9"/></g><g><line class="st2" x1="-903" y1="-230.7" x2="-990" y2="-638.5"/><rect x="-962.8" y="-643.1" transform="matrix(-0.978 0.2085 -0.2085 -0.978 -1962.8131 -662.2952)" class="st2" width="32.7" height="416.9"/></g><g><line class="st2" x1="-971" y1="-216.2" x2="-1057.9" y2="-624"/><rect x="-1030.8" y="-628.6" transform="matrix(-0.978 0.2085 -0.2085 -0.978 -2094.2241 -619.466)" class="st2" width="32.7" height="416.9"/></g><g><line class="st2" x1="-1039" y1="-201.7" x2="-1125.9" y2="-609.5"/><rect x="-1098.8" y="-614.1" transform="matrix(-0.978 0.2085 -0.2085 -0.978 -2225.637 -576.6284)" class="st2" width="32.7" height="416.9"/></g><g><line class="st2" x1="-1106.9" y1="-187.2" x2="-1193.9" y2="-595"/><rect x="-1166.7" y="-599.6" transform="matrix(-0.978 0.2085 -0.2085 -0.978 -2357.0481 -533.7997)" class="st2" width="32.7" height="416.9"/></g></g></g><g><path id="XMLID_15_" class="st2" d="M-849.2-619.2c24.2,14,48.3,28.2,72.3,42.7c-17.6,20.7-36.3,40.4-56,59.2 c-21.9-12.2-44.4-23.4-67.3-33.6C-881.2-572.1-864.1-594.9-849.2-619.2z"/></g><g><path id="XMLID_13_" class="st2" d="M-407.2,419c65.3,35.2,133.4,64.8,203.4,88.7c-41.8,31.4-81.6,65.4-119,101.8l-173.9-9 c34.2-58.8,59.8-122.5,76.8-188.5C-415.7,414.4-411.4,416.7-407.2,419z"/></g><g><defs><path id="SVGID_19_" d="M129.6,118.6c40.7,39.3,80.8,79.2,120.1,119.8c12,12.4,23.9,24.8,35.7,37.3 c-35.7,9.3-71.2,19.8-106.2,31.8C165.9,243.8,149.3,180.7,129.6,118.6z"/></defs><clipPath id="SVGID_4_"><use xlink:href="#SVGID_19_" overflow="visible"/></clipPath><g class="st4"><g><line class="st2" x1="7.6" y1="70" x2="-12.2" y2="451.7"/><rect x="-2.6" y="69.7" transform="matrix(-0.9987 -5.171910e-02 5.171910e-02 -0.9987 -18.0766 521.1965)" class="st2" width=".5" height="382.2"/></g><g><line class="st2" x1="16.3" y1="70.4" x2="-3.5" y2="452.1"/><rect x="6.1" y="70.2" transform="matrix(-0.9987 -5.171910e-02 5.171910e-02 -0.9987 -0.762 522.5431)" class="st2" width=".5" height="382.2"/></g><g><line class="st2" x1="24.9" y1="70.9" x2="5.2" y2="452.6"/><rect x="14.8" y="70.6" transform="matrix(-0.9987 -5.171910e-02 5.171910e-02 -0.9987 16.5527 523.8896)" class="st2" width=".5" height="382.2"/></g><g><line class="st2" x1="33.6" y1="71.3" x2="13.8" y2="453"/><rect x="23.5" y="71.1" transform="matrix(-0.9987 -5.171910e-02 5.171910e-02 -0.9987 33.8673 525.2361)" class="st2" width=".5" height="382.2"/></g><g><line class="st2" x1="42.3" y1="71.8" x2="22.5" y2="453.5"/><rect x="32.1" y="71.5" transform="matrix(-0.9987 -5.171910e-02 5.171910e-02 -0.9987 51.1819 526.5827)" class="st2" width=".5" height="382.2"/></g><g><line class="st2" x1="51" y1="72.2" x2="31.2" y2="453.9"/><rect x="40.8" y="72" transform="matrix(-0.9987 -5.171910e-02 5.171910e-02 -0.9987 68.4965 527.9293)" class="st2" width=".5" height="382.2"/></g><g><line class="st2" x1="59.6" y1="72.7" x2="39.9" y2="454.4"/><rect x="49.5" y="72.4" transform="matrix(-0.9987 -5.171910e-02 5.171910e-02 -0.9987 85.8112 529.2758)" class="st2" width=".5" height="382.2"/></g><g><line class="st2" x1="68.3" y1="73.1" x2="48.5" y2="454.8"/><rect x="58.2" y="72.9" transform="matrix(-0.9987 -5.171910e-02 5.171910e-02 -0.9987 103.1258 530.6224)" class="st2" width=".5" height="382.2"/></g><g><line class="st2" x1="77" y1="73.6" x2="57.2" y2="455.3"/><rect x="66.8" y="73.3" transform="matrix(-0.9987 -5.171910e-02 5.171910e-02 -0.9987 120.4404 531.9689)" class="st2" width=".5" height="382.2"/></g><g><line class="st2" x1="85.7" y1="74" x2="65.9" y2="455.7"/><rect x="75.5" y="73.8" transform="matrix(-0.9987 -5.171910e-02 5.171910e-02 -0.9987 137.755 533.3155)" class="st2" width=".5" height="382.2"/></g><g><line class="st2" x1="94.3" y1="74.5" x2="74.6" y2="456.2"/><rect x="84.2" y="74.2" transform="matrix(-0.9987 -5.171910e-02 5.171910e-02 -0.9987 155.0707 534.6621)" class="st2" width=".5" height="382.2"/></g><g><line class="st2" x1="103" y1="74.9" x2="83.2" y2="456.6"/><rect x="92.9" y="74.7" transform="matrix(-0.9987 -5.171910e-02 5.171910e-02 -0.9987 172.3853 536.0087)" class="st2" width=".5" height="382.2"/></g><g><line class="st2" x1="111.7" y1="75.4" x2="91.9" y2="457.1"/><rect x="101.5" y="75.1" transform="matrix(-0.9987 -5.171910e-02 5.171910e-02 -0.9987 189.6999 537.3552)" class="st2" width=".5" height="382.2"/></g><g><line class="st2" x1="120.4" y1="75.8" x2="100.6" y2="457.5"/><rect x="110.2" y="75.6" transform="matrix(-0.9987 -5.171910e-02 5.171910e-02 -0.9987 207.0145 538.7017)" class="st2" width=".5" height="382.2"/></g><g><line class="st2" x1="129" y1="76.3" x2="109.3" y2="458"/><rect x="118.9" y="76" transform="matrix(-0.9987 -5.171910e-02 5.171910e-02 -0.9987 224.3292 540.0483)" class="st2" width=".5" height="382.2"/></g><g><line class="st2" x1="137.7" y1="76.7" x2="117.9" y2="458.4"/><rect x="127.6" y="76.5" transform="matrix(-0.9987 -5.171910e-02 5.171910e-02 -0.9987 241.6438 541.3948)" class="st2" width=".5" height="382.2"/></g><g><line class="st2" x1="146.4" y1="77.2" x2="126.6" y2="458.9"/><rect x="136.2" y="76.9" transform="matrix(-0.9987 -5.171910e-02 5.171910e-02 -0.9987 258.9584 542.7414)" class="st2" width=".5" height="382.2"/></g><g><line class="st2" x1="155.1" y1="77.6" x2="135.3" y2="459.3"/><rect x="144.9" y="77.4" transform="matrix(-0.9987 -5.171910e-02 5.171910e-02 -0.9987 276.273 544.088)" class="st2" width=".5" height="382.2"/></g><g><line class="st2" x1="163.7" y1="78.1" x2="144" y2="459.8"/><rect x="153.6" y="77.8" transform="matrix(-0.9987 -5.171910e-02 5.171910e-02 -0.9987 293.5876 545.4345)" class="st2" width=".5" height="382.2"/></g><g><line class="st2" x1="172.4" y1="78.5" x2="152.6" y2="460.2"/><rect x="162.3" y="78.3" transform="matrix(-0.9987 -5.171910e-02 5.171910e-02 -0.9987 310.9023 546.781)" class="st2" width=".5" height="382.2"/></g><g><line class="st2" x1="181.1" y1="79" x2="161.3" y2="460.7"/><rect x="170.9" y="78.7" transform="matrix(-0.9987 -5.171910e-02 5.171910e-02 -0.9987 328.2169 548.1276)" class="st2" width=".5" height="382.2"/></g><g><line class="st2" x1="189.8" y1="79.4" x2="170" y2="461.1"/><rect x="179.6" y="79.2" transform="matrix(-0.9987 -5.171910e-02 5.171910e-02 -0.9987 345.5315 549.4741)" class="st2" width=".5" height="382.2"/></g><g><line class="st2" x1="198.4" y1="79.9" x2="178.7" y2="461.6"/><rect x="188.3" y="79.6" transform="matrix(-0.9987 -5.171910e-02 5.171910e-02 -0.9987 362.8462 550.8207)" class="st2" width=".5" height="382.2"/></g><g><line class="st2" x1="207.1" y1="80.3" x2="187.3" y2="462"/><rect x="197" y="80.1" transform="matrix(-0.9987 -5.171910e-02 5.171910e-02 -0.9987 380.1608 552.1672)" class="st2" width=".5" height="382.2"/></g><g><line class="st2" x1="215.8" y1="80.8" x2="196" y2="462.5"/><rect x="205.6" y="80.5" transform="matrix(-0.9987 -5.171910e-02 5.171910e-02 -0.9987 397.4754 553.5138)" class="st2" width=".5" height="382.2"/></g><g><line class="st2" x1="224.5" y1="81.2" x2="204.7" y2="462.9"/><rect x="214.3" y="81" transform="matrix(-0.9987 -5.171910e-02 5.171910e-02 -0.9987 414.79 554.8604)" class="st2" width=".5" height="382.2"/></g><g><line class="st2" x1="233.1" y1="81.7" x2="213.4" y2="463.4"/><rect x="223" y="81.4" transform="matrix(-0.9987 -5.171910e-02 5.171910e-02 -0.9987 432.1057 556.207)" class="st2" width=".5" height="382.2"/></g><g><line class="st2" x1="241.8" y1="82.1" x2="222" y2="463.8"/><rect x="231.7" y="81.9" transform="matrix(-0.9987 -5.171910e-02 5.171910e-02 -0.9987 449.4203 557.5535)" class="st2" width=".5" height="382.2"/></g><g><line class="st2" x1="250.5" y1="82.6" x2="230.7" y2="464.3"/><rect x="240.3" y="82.3" transform="matrix(-0.9987 -5.171910e-02 5.171910e-02 -0.9987 466.7349 558.9001)" class="st2" width=".5" height="382.2"/></g><g><line class="st2" x1="259.2" y1="83" x2="239.4" y2="464.7"/><rect x="249" y="82.8" transform="matrix(-0.9987 -5.171910e-02 5.171910e-02 -0.9987 484.0495 560.2466)" class="st2" width=".5" height="382.2"/></g><g><line class="st2" x1="267.8" y1="83.5" x2="248.1" y2="465.2"/><rect x="257.7" y="83.2" transform="matrix(-0.9987 -5.171910e-02 5.171910e-02 -0.9987 501.3642 561.5931)" class="st2" width=".5" height="382.2"/></g><g><line class="st2" x1="276.5" y1="83.9" x2="256.7" y2="465.6"/><rect x="266.4" y="83.7" transform="matrix(-0.9987 -5.171910e-02 5.171910e-02 -0.9987 518.6788 562.9397)" class="st2" width=".5" height="382.2"/></g><g><line class="st2" x1="285.2" y1="84.4" x2="265.4" y2="466.1"/><rect x="275" y="84.1" transform="matrix(-0.9987 -5.171910e-02 5.171910e-02 -0.9987 535.9934 564.2863)" class="st2" width=".5" height="382.2"/></g><g><line class="st2" x1="293.9" y1="84.8" x2="274.1" y2="466.5"/><rect x="283.7" y="84.6" transform="matrix(-0.9987 -5.171910e-02 5.171910e-02 -0.9987 553.308 565.6328)" class="st2" width=".5" height="382.2"/></g><g><line class="st2" x1="302.5" y1="85.3" x2="282.8" y2="467"/><rect x="292.4" y="85" transform="matrix(-0.9987 -5.171910e-02 5.171910e-02 -0.9987 570.6227 566.9794)" class="st2" width=".5" height="382.2"/></g><g><line class="st2" x1="311.2" y1="85.7" x2="291.4" y2="467.4"/><rect x="301.1" y="85.5" transform="matrix(-0.9987 -5.171910e-02 5.171910e-02 -0.9987 587.9373 568.3259)" class="st2" width=".5" height="382.2"/></g><g><line class="st2" x1="319.9" y1="86.2" x2="300.1" y2="467.9"/><rect x="309.7" y="85.9" transform="matrix(-0.9987 -5.171910e-02 5.171910e-02 -0.9987 605.2519 569.6725)" class="st2" width=".5" height="382.2"/></g><g><line class="st2" x1="328.6" y1="86.6" x2="308.8" y2="468.3"/><rect x="318.4" y="86.4" transform="matrix(-0.9987 -5.171910e-02 5.171910e-02 -0.9987 622.5665 571.019)" class="st2" width=".5" height="382.2"/></g><g><line class="st2" x1="337.2" y1="87.1" x2="317.5" y2="468.7"/><rect x="327.1" y="86.8" transform="matrix(-0.9987 -5.171910e-02 5.171910e-02 -0.9987 639.8812 572.3655)" class="st2" width=".5" height="382.2"/></g><g><line class="st2" x1="345.9" y1="87.5" x2="326.1" y2="469.2"/><rect x="335.8" y="87.3" transform="matrix(-0.9987 -5.171910e-02 5.171910e-02 -0.9987 657.1958 573.7121)" class="st2" width=".5" height="382.2"/></g><g><line class="st2" x1="354.6" y1="88" x2="334.8" y2="469.6"/><rect x="344.4" y="87.7" transform="matrix(-0.9987 -5.171910e-02 5.171910e-02 -0.9987 674.5104 575.0587)" class="st2" width=".5" height="382.2"/></g><g><line class="st2" x1="363.3" y1="88.4" x2="343.5" y2="470.1"/><rect x="353.1" y="88.2" transform="matrix(-0.9987 -5.171910e-02 5.171910e-02 -0.9987 691.825 576.4052)" class="st2" width=".5" height="382.2"/></g><g><line class="st2" x1="371.9" y1="88.9" x2="352.2" y2="470.5"/><rect x="361.8" y="88.6" transform="matrix(-0.9987 -5.171910e-02 5.171910e-02 -0.9987 709.1406 577.7518)" class="st2" width=".5" height="382.2"/></g><g><line class="st2" x1="380.6" y1="89.3" x2="360.8" y2="471"/><rect x="370.5" y="89" transform="matrix(-0.9987 -5.171910e-02 5.171910e-02 -0.9987 726.4553 579.0984)" class="st2" width=".5" height="382.2"/></g><g><line class="st2" x1="389.3" y1="89.8" x2="369.5" y2="471.4"/><rect x="379.1" y="89.5" transform="matrix(-0.9987 -5.171910e-02 5.171910e-02 -0.9987 743.7699 580.4449)" class="st2" width=".5" height="382.2"/></g></g></g><g><defs><path id="SVGID_21_" d="M8,37.4c6.8-4.6,13.6-9.2,20.4-13.8c34.2,31.2,68,62.9,101.3,95c19.6,62.1,36.3,125.2,49.6,188.9 C42,354.2-88.6,421.3-203.8,507.7c-70-23.9-138.1-53.5-203.4-88.7c-4.3-2.3-8.5-4.6-12.7-7c6.2-23.9,11.2-48.2,15.2-72.6 C-270.6,234.2-132.9,133.4,8,37.4z"/></defs><clipPath id="SVGID_5_"><use xlink:href="#SVGID_21_" overflow="visible"/></clipPath><g class="st5"><g><line class="st2" x1="-93.6" y1="-64.3" x2="-320.4" y2="285.6"/><polygon class="st2" points="-399,466.4 -66.2,-46.5 -121,-82.1 -453.9,430.9"/></g><g><line class="st2" x1="23" y1="11.4" x2="-203.8" y2="361.2"/><polygon class="st2" points="-282.4,542.1 50.5,29.1 -4.4,-6.4 -337.3,506.5"/></g><g><line class="st2" x1="139.6" y1="87" x2="-87.2" y2="436.8"/><polygon class="st2" points="-165.8,617.7 167.1,104.8 112.2,69.2 -220.7,582.1"/></g><g><line class="st2" x1="256.2" y1="162.6" x2="29.4" y2="512.4"/><polygon class="st2" points="-49.2,693.3 283.7,180.4 228.8,144.8 -104.1,657.7"/></g></g></g><g><defs><path id="SVGID_23_" d="M-402.8-328.4c-43.9,27.6-87.5,55.6-130.8,84.1c-54.5-80.4-123-151.5-201.1-209.6 c12.6-24.3,26.5-48.1,41.5-71.2C-594.2-462.8-497.3-397.2-402.8-328.4z"/></defs><clipPath id="SVGID_6_"><use xlink:href="#SVGID_23_" overflow="visible"/></clipPath><g class="st6"><g><line class="st2" x1="-450.1" y1="-595.6" x2="-821.5" y2="-406"/><rect x="-844.3" y="-533.5" transform="matrix(-0.8907 0.4545 -0.4545 -0.8907 -1429.8202 -657.8484)" class="st2" width="416.9" height="65.4"/></g><g><line class="st2" x1="-387" y1="-471.8" x2="-758.4" y2="-282.2"/><rect x="-781.1" y="-409.7" transform="matrix(-0.8907 0.4545 -0.4545 -0.8907 -1254.1069 -452.5009)" class="st2" width="416.9" height="65.4"/></g><g><line class="st2" x1="-323.8" y1="-348" x2="-695.2" y2="-158.4"/><rect x="-718" y="-285.9" transform="matrix(-0.8907 0.4545 -0.4545 -0.8907 -1078.394 -247.1531)" class="st2" width="416.9" height="65.4"/></g><g><line class="st2" x1="-260.6" y1="-224.2" x2="-632" y2="-34.6"/><rect x="-654.8" y="-162.1" transform="matrix(-0.8907 0.4545 -0.4545 -0.8907 -902.6812 -41.8052)" class="st2" width="416.9" height="65.4"/></g></g></g></g></g></svg>