<?xml version="1.0" encoding="utf-8"?>
<!-- Generator: Adobe Illustrator 22.1.0, SVG Export Plug-In . SVG Version: 6.00 Build 0)  -->
<svg version="1.1" id="Layer_1" xmlns="http://www.w3.org/2000/svg" xmlns:xlink="http://www.w3.org/1999/xlink" x="0px" y="0px"
	 viewBox="0 0 864.4 403" style="enable-background:new 0 0 864.4 403;" xml:space="preserve">
<style type="text/css">
	.st0{clip-path:url(#SVGID_1_);fill:none;stroke:#8C9091;stroke-width:0.9462;stroke-miterlimit:10;}
	.st1{fill:#8C9091;}
</style>
<g>
	<g>
		<defs>
			<rect id="SVGID_3_" width="864.4" height="403"/>
		</defs>
		<clipPath id="SVGID_1_">
			<use xlink:href="#SVGID_3_"  style="overflow:visible;"/>
		</clipPath>
		<path class="st0" d="M442,395.3h-7.6 M545.5,395.3h-7.6 M649,395.3h-7.6 M752.4,395.3h-7.6 M744.3,111.5h7.9 M641,111.5h8
			 M537.8,111.5h7.7 M307.1,111.5h4.8 M385.3,242.7c-2.8,2.9-4.3,6.8-4.3,10.9 M381.1,253.6c0-4-1.6-7.9-4.3-10.9 M376.8,242.7
			l0.6,0.6 M385.4,242.7l-0.6,0.6 M365.5,253.7l0.6,0.6 M396.7,253.6l-0.5,0.6l-11.4-10.8 M396.7,253.6l-11.3-10.8 M365.5,253.7
			l11.3-10.9 M366,254.2l11.3-10.9 M863.8,109.2l-0.8,288 M403.9,106.5h398.8 M1.4,397.2L15,106.5h345.2 M641.4,389.3v6
			 M121.5,387.8v7.5 M133.1,389.8v5.5 M227.4,389.7v5.6 M234.9,389.7v5.6 M330.8,389.6v5.7 M338.6,389.5v5.8 M434.4,389.4v5.9
			 M442,389.4v5.9 M537.9,389.4v5.9 M545.5,389.4v5.9 M649,389.2v6.1 M744.7,389.1v6.2 M752.4,389.1v6.2 M840.5,28.3v13.3
			 M829.1,33.1l8.5,5.3l-1.3,6.4l10.3-8.2l-1.4,6.5l6.5,4 M840.5,52v1.8 M829.1,42.5l8.6,5.4l-1.4,6.4l10.3-8.2l-1.4,6.4l6.5,4.1
			 M348.2,183.6v-1.8 M337.4,164.4l8.1,5.5L344,176l10.2-7.5l-1.5,6.3l6.2,4.2 M337.5,150.1v33.6h21.3 M344.4,174.1h-6.9
			 M352.8,174.1h-6.2 M358.9,178.9h-21.3 M815.2,66.1V40.7 M815.2,33.1v7.6 M360.2,106.5V28.9h47.2v58.7h-3.6v1.9 M648.9,119.5v-8
			 M348.3,163.5v-13.1 M322.7,144.4l0.1,25.9 M337.4,154.9l8.1,5.5l-1.5,6.2l10.3-7.5l-1.5,6.2l6.1,4.2 M359.5,114v-1.4
			 M403.3,102.8h-1.1 M406.8,106.5h-2.9 M238.6,113.5H305 M350.4,126.2c2.9,2.7,6.6,4.2,10.5,4.2 M349.9,125.7l0.5,0.5l11.2-11
			l-0.5-0.6L349.9,125.7z M362.7,114.6h-3.2 M362.6,130.4h-3.3 M403.3,89.5h-1.1 M399.9,89.5h1.1 M399.9,106.6h1.1 M309.2,135.8
			h-2.2 M309.2,120h-2.2 M372.7,85.7v1 M375.6,83.3l-1.8,1l1.8,1 M391.8,85.4l1.8-1l-1.8-1 M394.5,86.9v-1.1 M393.5,84.4h-19.7
			 M394.5,85.7h-21.8 M372.7,86.8l21.8,0.1 M402.7,222.3h-0.7 M404.3,224.2l-0.6-1.2l-0.7,1.2 M402.9,235.4l0.7,1.3l0.7-1.3
			 M401.9,237.4h0.7 M403.6,236.7V223 M402.7,237.4v-15.2 M401.9,222.3v15.2 M402.6,179.7h-0.8 M404.2,181.6l-0.7-1.2l-0.6,1.2
			 M402.8,192.9l0.7,1.2l0.7-1.2 M401.9,194.9h0.7 M403.5,194.1l-0.1-13.7 M402.6,194.9v-15.2 M401.8,179.7l0.1,15.2 M402.5,137.4
			h-0.8 M404.1,139.4l-0.7-1.2l-0.6,1.2 M402.7,150.6l0.7,1.2l0.6-1.2 M401.7,152.6h0.8 M403.5,151.8l-0.1-13.7 M402.5,152.6v-15.2
			 M401.7,137.4v15.2 M398.5,222.3l-0.1-27.4 M398.3,119.9l0.1,17.6 M396.7,254.1v-1.4 M365.5,254.2v-1.4 M228.5,119.2v-6.6
			 M133,117.5v-4.9h-7.5 M125.5,117.4v-4.7 M307.1,113.5H305 M236.1,113.5h2.5 M309.2,135.8v0.6h2.7 M309.2,120v-0.6h2.6v-5.5v-2.4
			 M403.3,89.5v13.2 M402.7,89.5v13.2 M402.2,89.5v13.2 M401.7,152.6l-3.3,0.1 M398.4,137.5l3.3-0.1 M401.8,179.7h-3.3 M398.4,194.9
			h3.4 M401.9,222.3h-3.4 M398.5,237.4h3.4 M27.2,112.6h-5.6 M397.9,258.1h45v-7.6h-5.6L436.5,119 M440.1,118.9v-10.4 M436.5,119
			h3.6 M537.8,111.5v7.7l7.7,0.1v-7.8 M641,111.5v8h8 M744.3,111.5v8.3l7.9,0.1v-8.4 M856.8,164.8l-0.1,85h-9.2v7.5l9.1-0.1
			l-0.2,129.9h-8.8 M847.7,387.1v1.9 M752.4,389.1v-2h-7.6v2 M649,389.2v-1.9h-7.6v2 M545.5,389.4v-2l-7.6,0.1v1.9 M442,389.4v-1.9
			h-7.6v1.9 M338.6,389.5v-1.8h-7.8v1.9 M234.9,389.7v-1.6l-7.6,0.1v1.5 M133.1,389.8l-0.1-1.9h-11.5 M8.7,387.8l5.8-128.7l8.8,0.5
			l0.4-7.1 M538,257.2h8l-0.2-12.9h-8L538,257.2z M641.3,256.9l7.3,0.2l0.1-7.6l-7.3-0.2L641.3,256.9z M744.6,257l7.3,0.2l0.2-14.3
			l-7.4-0.2L744.6,257z M132.8,257.4l0.1-13.8l-7.3-0.1l-0.1,13.8L132.8,257.4z M125.5,117.4l-0.2,2h7.6v-1.8 M14.9,250.4l6-130.7
			 M358.6,208.8l-46.7,0.2 M228.5,119.9l0.2,138.1 M398.5,237.4l0.1,13.3 M398.4,152.6l0.1,27.1 M365.5,252.9h-1.8 M397.8,252.8
			h-1.1 M365.5,254.2h-1.8 M397.8,254.1h-1.1 M350.6,212.3l11.4-0.2 M362.7,114.6L362.7,114.6 M362,212.1l0.6-81.7 M362.7,114.6
			l3,0.1l0.1-25.2h6.9v-2.7 M394.5,86.9v2.7h5.3v17.1l-5.3,0.1v13l3.7,0.2 M397.8,250.7h0.8 M397.9,258.1l-0.1-3.9 M397.8,252.8
			v-2.1 M359.3,130.4l-0.7,78.4 M359.5,114v0.6 M337.5,150.1l21.7,0.2 M344.7,169.3l-7.2-0.1 M354,169.3h-1 M346.8,164.5h-2.2
			 M359,164.6H353 M359.1,159.9l-14.5-0.2 M359.1,155l-21.7-0.2 M312,208.9v-72.6 M312,144.4h21.6v33.6H312 M312,149.2h21.6
			 M312,154h21.6 M312,158.7h21.6 M312,163.6h21.6 M312,168.3h21.6 M312,173.1h21.6 M311.9,113.9l47.6,0.1 M857.2,119.9l-0.4,87.4
			 M851.8,61.4l-22.6,0.1l-0.2-33.1l22.8-0.1 M829.1,33.1l22.7-0.1 M846.4,37.8l5.4-0.1 M836.7,37.8h8.6 M845.5,42.5l6.4-0.1
			 M836.9,42.5h2.5 M845.3,47.2h1.1 M829.1,47.3h7.6 M839.3,52l6.1-0.1 M829.2,52h7.6 M829.2,56.8l22.6-0.1 M804,33.1l22.5-0.1
			l0.1,33.1L804,66.1 M804,37.8l22.5-0.1 M804,42.5l22.5-0.1 M804,47.3l22.5-0.1 M804,52l22.6-0.1 M804,56.8l22.6-0.2 M804,61.4
			l22.6-0.1 M230.7,236.2l-0.2-116.3 M236.3,255.8v-7.3H231v-10.8 M398.4,82.3l0.1-43.8l-26.1-0.1l-0.1,43.8L398.4,82.3z M408,246
			h18.2l-0.1-32.1l-18.2,0.1L408,246z M425.8,128.7l0.1,32.1h-18.2l-0.1-32L425.8,128.7z M426,171.4l0.1,32.1h-18.2l-0.1-32
			L426,171.4z M306.3,181.2v30.5h42.2 M307.1,135.8l0.1,42.9 M307.1,111.5v8.5 M230.9,136.8v-18.1h5.2v-5.2 M305,113.5h2.1
			 M236.1,113.5h2.5"/>
		<path class="st0" d="M245.2,148v0.4 M245.2,147.3v0.5 M245.2,146.6v0.5 M245.2,145.9v0.5 M245.2,145.2v0.5 M245.2,144.4v0.5
			 M245.2,143.7v0.5 M245.2,143.1v0.4 M245.2,142.3v0.5 M245.2,141.6v0.5 M245.2,140.9v0.5 M245.2,140.2v0.5 M244.7,139.6h0.5v0.3
			 M244,139.6h0.5 M243.3,139.6h0.5 M242.6,139.9v-0.3h0.5 M242.6,140.7v-0.5 M242.6,141.4v-0.5 M242.6,142.1v-0.5 M242.6,142.8
			v-0.5 M242.6,143.5v-0.4 M242.6,144.2v-0.5 M242.6,144.9v-0.5 M242.6,145.6v-0.5 M242.6,146.4v-0.5 M242.6,147.1v-0.5
			 M242.6,147.8v-0.5 M242.6,148.5V148 M243,149.1h-0.5v-0.4 M243.8,149.1h-0.5 M244.5,149.1H244 M245.2,149.1h-0.5 M245.2,145.6
			v1.8 M245.2,141.1v2.1 M244.9,147.6c0.2,0,0.3-0.1,0.3-0.3 M251.3,143.8c0-0.2-0.2-0.4-0.4-0.4 M242.8,140.7
			c-0.1,0-0.2,0.1-0.2,0.2 M250.9,145.2c0.2,0,0.4-0.2,0.4-0.4 M242.6,147.4c0,0.1,0.1,0.2,0.2,0.2 M245.2,141
			c0-0.2-0.1-0.3-0.3-0.3 M247.5,142.6c-0.1,0-0.1,0.1-0.1,0.1s0.1,0.1,0.1,0.1s0.1-0.1,0.1-0.1S247.5,142.6,247.5,142.6
			 M247.5,145.6c-0.1,0-0.1,0.1-0.1,0.1c0,0.1,0.1,0.1,0.1,0.1s0.1-0.1,0.1-0.1C247.6,145.6,247.5,145.6,247.5,145.6 M243.4,148.3
			V148 M243,140.2h0.4 M243,148v0.3h0.4 M242.6,141v6.5 M243.5,147.8H243 M244.9,140.8h-2.2 M243.4,140.2v0.3 M243,147.8v0.2
			 M250.9,143.3h-1.1 M251.4,144.8v-1 M243,148h0.6 M243.5,140.5v0.2H243 M245.2,143.1v2.4 M245.8,146.8v-5.1 M243,140.5h0.6
			 M249.8,145.2h1.1 M243.5,148v-0.2 M243,140.5v-0.3 M242.8,147.6h2.2 M243,140.7v-0.2 M242.6,152.9h40.2 M242.6,154.8h40.2
			 M282.8,215.3h-40.2 M286.2,215.3h-1.9 M284,217.1h-41.5 M245.8,196.3v19 M245.8,154.8v19 M245.8,136.4v16.5 M245.8,113.6v21.3
			 M282.8,114.1v-0.6 M282.8,197.1v-0.9 M282.8,215.3v-0.9 M284,217.8v-0.7 M284.3,115v-1.4 M284.3,136.3v-5.5 M284.3,156.4v-4.7
			 M284.3,177.2v-5.5 M284.3,198.1v-5.5 M284.3,215.3v-0.9 M285.9,236.1v-1.3 M284,234.8v21.1 M231.2,237.8h11.4V195 M242.6,214
			V113.6 M853.3,397.7h1v3h-1V397.7z M816.5,4.8h35.4 M799.3,113.3h9.4 M799.3,106.6h2.4v1.9h2.3 M813.5,108.5v29.8 M851.1,142.3
			l-0.1-4.1 M808.7,142.5v-29.2 M816.5,0.5h40.7 M798.7,0.5h19.1 M816.5,1.4h39.7 M799.6,1.4h18.2 M857.2,0.5v108.8 M856.2,1.4
			v107.8 M798.7,0.5v109.7 M799.6,1.4v105.2 M804,25.5h-4.4 M851.8,4.8V120 M804,83.9V4.8h15.5 M851.8,64.9h4.4 M853.1,25.5v39.4
			 M856.2,25.5h-4.4 M833.9,107.4h-0.4v1h0.4V107.4z M833.5,108.4h-1v-1.9h1V108.4z M850.3,107.4h0.4v1h-0.4V107.4z M851.6,108.4h-1
			v-1.9h1V108.4z M850.5,106.5h-0.9V90.3h0.9V106.5z M849.6,90.2c-8.9,0-16.1,7.3-16.1,16.3 M804,83.9h-5.3 M804.9,91.3h-2.2
			l-0.1-7.3 M804,108.5l27.3-0.1l-0.1-17.2h-0.8 M805.7,89.9H804v-5.9 M813.5,109.8h19.2l-0.1-19.9l-2.2,0.1 M853.1,83.9v25.3
			 M856.2,64.9v19h-4.4 M851.8,6.5h4.4v19 M852.8,1.4v5.1 M804,64.9h-4.4v19h4.4 M802.6,25.5v39.4 M804,6.5h-4.4v19 M803,1.4v5.1
			 M814.5,1.4h38.3 M803,1.4h15 M851.1,142.3h6 M808.7,142.4l23.4-0.1 M863.8,109.2l-0.1,10.8 M851.8,109.2h11.9 M851.8,120h5.3
			l-0.1,18.2 M317.7,258.2h46 M228.8,258l88.9,0.2h31.2 M240.7,253.1h1.8 M240.8,251.8h1v0.4h-1V251.8z M240.8,239.1h1v-0.4h-1
			V239.1z M240.7,238.7h1.8v-1h-1.8V238.7z M254.9,238.9h-12.3v0.9h12.3V238.9z M242.5,252.2c6.8,0,12.3-5.6,12.3-12.4 M240.7,253.1
			h1.8v-0.9h-1.8V253.1z M240.7,253.1v2.8 M242.6,253.1v2.8 M234.5,243.6c0.3,0,0.5-0.2,0.5-0.5c0-0.3-0.2-0.5-0.5-0.5
			c-0.3,0-0.5,0.2-0.5,0.5C234,243.4,234.2,243.6,234.5,243.6 M237.2,247.8h-3.6v-9.3h3.6 M237.2,247.8c0.7,0,1.3-0.6,1.3-1.3
			 M238.5,239.9v6.7 M238.5,239.8c0-0.7-0.6-1.3-1.3-1.3 M237.2,248.4h-6.1v-10.4h6.1 M237.2,248.4c1,0,1.9-0.8,1.9-1.9
			 M239.1,239.9v6.7 M239.1,239.8c0-1-0.8-1.9-1.9-1.9 M232.4,243.5c0.2,0,0.4-0.2,0.4-0.4c0-0.2-0.2-0.4-0.4-0.4
			c-0.2,0-0.4,0.2-0.4,0.4C232,243.3,232.2,243.5,232.4,243.5 M231.2,247v-7.6 M348.9,258.2h14.8v-3.9 M240.2,113.6l0.2,122.8h-9.6
			 M284,255.9h-47.6 M231.2,237.8h11.4v-41.9 M242.6,214V113.6 M48.6,111.9l-21.3-1.1 M27.3,111.9l21.3-1.1 M359.6,111.7v-5.1
			 M799.3,113.3v-6.7 M130.4,111.7v-5.1v3.2 M26.4,111.7v-5.1 M130.4,111.7v-5.1 M440.2,111.7v-5.1 M568.1,111.1v-0.9 M567.3,111.1
			v-0.9 M851.5,120l5.7-0.1 M23.9,252.6l-8.8-2.1 M862.9,400.6L862.9,400.6 M401.1,106.6v-3.8h2.9v3.8 M401.1,89.6h2.9 M852,400.6
			h10.9 M854.2,402.6L854.2,402.6l-0.1-1.8h-1.8v1.8h-0.1 M854.2,402.6v-1.9h-1.9v1.9 M751,402.6L751,402.6l-0.1-1.8h-1.7v1.8h-0.2
			 M751,402.6v-1.9h-1.9v1.9 M852.3,397.7h1v3h-1V397.7z M853.3,397.4v3.2 M852.3,397.7v3 M826.4,400.6H851 M826.4,400.6v-3V400.6z
			 M825.4,400.6v-3V400.6z M825.4,397.7h1 M800.7,400.6v-3V400.6z M799.8,400.6v-3V400.6z M799.8,397.7h1 M750,397.7v3 M775.1,400.6
			v-3V400.6z M774.1,400.6v-3V400.6z M750,397.7h1v3h-1V397.7z M750,400.6h1v-3h-1V400.6z M774.1,397.7h1 M1.5,400.6h773.6
			 M306.4,181.3l0.9-2.6 M348.6,211.8l2.1,0.6 M133.2,395.5h-11.5 M235.1,395.5h-7.6 M338.5,395.5h-7.6"/>
		<path class="st0" d="M271.7,126c0-1-0.8-1.9-1.9-1.9 M263.3,124.2h6.6 M263.3,124.1c-1,0-1.9,0.8-1.9,1.9 M266.9,130.9
			c0-0.2-0.2-0.4-0.4-0.4c-0.2,0-0.4,0.2-0.4,0.4c0,0.2,0.2,0.4,0.4,0.4C266.8,131.3,266.9,131.1,266.9,130.9 M270.4,132.1h-7.7
			 M267.1,149.5c0-0.3-0.2-0.5-0.5-0.5c-0.3,0-0.5,0.2-0.5,0.5c0,0.3,0.2,0.5,0.5,0.5C266.8,150,267.1,149.8,267.1,149.5
			 M271.2,146.9v3.6h-9.3v-3.6 M271.2,146.8c0-0.7-0.6-1.3-1.3-1.3 M263.3,145.5h6.7 M263.3,145.5c-0.7,0-1.3,0.6-1.3,1.3
			 M271.8,146.9v6h-10.4v-6 M271.8,146.8c0-1-0.8-1.9-1.9-1.9 M263.3,145h6.7 M263.3,145c-1,0-1.9,0.8-1.9,1.9 M266.9,151.7
			c0-0.2-0.2-0.4-0.4-0.4c-0.2,0-0.4,0.2-0.4,0.4s0.2,0.4,0.4,0.4C266.8,152,266.9,151.9,266.9,151.7 M270.4,152.9h-7.7
			 M267.1,170.4c0-0.3-0.2-0.5-0.5-0.5c-0.3,0-0.5,0.2-0.5,0.5c0,0.3,0.2,0.5,0.5,0.5C266.8,170.9,267.1,170.6,267.1,170.4
			 M271.2,167.7v3.6h-9.3v-3.6 M271.2,167.6c0-0.7-0.6-1.3-1.3-1.3 M263.3,166.4h6.7 M263.3,166.3c-0.7,0-1.3,0.6-1.3,1.3
			 M271.8,167.7v6.1h-10.4v-6.1 M271.8,167.6c0-1-0.8-1.9-1.9-1.9 M263.3,165.7h6.7 M263.3,165.7c-1,0-1.9,0.8-1.9,1.9 M266.9,172.4
			c0-0.2-0.2-0.4-0.4-0.4c-0.2,0-0.4,0.2-0.4,0.4c0,0.2,0.2,0.4,0.4,0.4C266.8,172.8,266.9,172.6,266.9,172.4 M270.4,173.8h-7.7
			 M285.9,235h-1.8h2.1 M284.1,233.9h2.1v1h-2.1V233.9z M284.1,233.9h2.1v1h-2.1V233.9z M284.1,218.9h2.2v-1h-2.2V218.9z
			 M300.7,233.2c-0.4-8-6.9-14.2-14.8-14.2 M285.9,233.9h14.9v-0.7h-14.9 M285.9,233.9v-0.7 M249.6,120.1v1.9 M253,123.5h-4.6
			 M252.9,123.5c1.3,0,2.3-1,2.3-2.3 M255.2,120.9v0.3 M255.2,120.8c0-1.3-1-2.3-2.3-2.3 M248.4,123.5v-5h4.6 M253,124.4h-7.4
			 M252.9,124.4c1.8,0,3.2-1.5,3.2-3.3 M256.2,120.9v0.3 M256.2,120.8c0-1.8-1.5-3.3-3.2-3.3 M245.6,124.4v-6.8h7.4 M245,125.5v0.3
			 M245,124.8v0.5 M245,124.1v0.5 M245,123.4v0.5 M245,122.6v0.5 M245,121.9v0.5 M245,121.2v0.5 M245,120.6v0.5 M245,119.8v0.5
			 M245,119.1v0.5 M245,118.4v0.5 M245,117.7v0.5 M245,116.9v0.5 M244.5,116.4h0.5v0.3 M243.8,116.4h0.5 M243,116.4h0.5
			 M242.3,116.7v-0.3h0.5 M242.3,117.4v-0.5 M242.3,118.1v-0.5 M242.3,118.9v-0.5 M242.3,119.6v-0.5 M242.3,120.3v-0.5 M242.3,121
			v-0.5 M242.3,121.7v-0.5 M242.3,122.4v-0.5 M242.3,123.1v-0.5 M242.3,123.9v-0.5 M242.3,124.6v-0.5 M242.3,125.3v-0.5
			 M242.8,125.9h-0.5v-0.3 M243.5,125.9H243 M244.2,125.9h-0.5 M245,125.9h-0.5 M245,122.3v1.9 M245,117.9v2 M244.7,124.4
			c0.2,0,0.3-0.1,0.3-0.3 M251.1,120.5c0-0.2-0.2-0.4-0.4-0.4 M242.5,117.5c-0.1,0-0.2,0.1-0.2,0.2 M250.7,121.9
			c0.2,0,0.4-0.2,0.4-0.4 M242.3,124.2c0,0.1,0.1,0.2,0.2,0.2 M245,117.9c0-0.2-0.1-0.3-0.3-0.3 M247.2,119.4
			c-0.1,0-0.1,0.1-0.1,0.1c0,0.1,0.1,0.1,0.1,0.1c0.1,0,0.1-0.1,0.1-0.1C247.4,119.5,247.3,119.4,247.2,119.4 M247.2,122.3
			c-0.1,0-0.1,0.1-0.1,0.1c0,0.1,0.1,0.1,0.1,0.1c0.1,0,0.1-0.1,0.1-0.1C247.4,122.4,247.3,122.3,247.2,122.3 M243.2,125.1v-0.4
			 M242.8,116.9h0.4 M242.8,124.7v0.4h0.4 M242.3,117.7v6.5 M243.3,124.6h-0.6 M244.7,117.6h-2.2 M243.2,116.9v0.4 M242.7,124.6v0.2
			 M250.7,120.1h-1.1 M251.2,121.5v-1 M242.7,124.7h0.6 M243.3,117.3v0.2h-0.6 M245,119.9v2.4 M245.6,123.6v-5.2 M242.7,117.3h0.6
			 M249.6,122h1.1 M243.3,124.7v-0.2 M242.8,117.3v-0.4 M242.6,124.5h2.2 M242.7,117.5v-0.2 M242.2,132.1h40.5 M242.2,133.9h40.5
			 M242.3,175.5h40.5 M242.3,173.8h40.5 M242.3,194.6h40.5 M242.3,196.3h40.5 M249.6,164.1v1.9 M253,167.6h-4.6 M252.9,167.6
			c1.3,0,2.3-1,2.3-2.3 M255.2,164.9v0.4 M255.2,164.9c0-1.3-1-2.3-2.3-2.3 M248.4,167.6v-4.9h4.6 M253,168.5h-7.4 M252.9,168.5
			c1.8,0,3.2-1.5,3.2-3.3 M256.2,164.9v0.4 M256.2,164.9c0-1.8-1.5-3.3-3.2-3.3 M245.6,168.5v-6.8h7.4 M245,169.6v0.3 M245,168.9
			v0.5 M245,168.1v0.5 M245,167.4v0.5 M245,166.8v0.4 M245,166v0.5 M245,165.3v0.5 M245,164.6v0.5 M245,163.9v0.5 M245,163.1v0.5
			 M245,162.4v0.5 M245,161.8v0.4 M245,161.1v0.5 M244.5,160.4h0.5v0.4 M243.8,160.4h0.5 M243,160.4h0.5 M242.3,160.8v-0.4h0.5
			 M242.3,161.5v-0.5 M242.3,162.2v-0.4 M242.3,162.9v-0.5 M242.3,163.6v-0.5 M242.3,164.4v-0.5 M242.3,165.1v-0.5 M242.3,165.8
			v-0.5 M242.3,166.5V166 M242.3,167.2v-0.4 M242.3,167.9v-0.5 M242.3,168.6v-0.5 M242.3,169.3v-0.5 M242.8,169.9h-0.5v-0.3
			 M243.5,169.9H243 M244.2,169.9h-0.5 M245,169.9h-0.5 M245,166.4v1.8 M245,161.9v2 M244.7,168.5c0.2,0,0.3-0.1,0.3-0.3
			 M251.1,164.6c0-0.2-0.2-0.4-0.4-0.4 M242.5,161.6c-0.1,0-0.2,0.1-0.2,0.2 M250.7,166c0.2,0,0.4-0.2,0.4-0.4 M242.3,168.3
			c0,0.1,0.1,0.2,0.2,0.2 M245,161.9c0-0.2-0.1-0.3-0.3-0.3 M247.2,163.5c-0.1,0-0.1,0.1-0.1,0.1c0,0.1,0.1,0.1,0.1,0.1
			c0.1,0,0.1-0.1,0.1-0.1C247.4,163.5,247.3,163.5,247.2,163.5 M247.2,166.4c-0.1,0-0.1,0.1-0.1,0.1c0,0.1,0.1,0.1,0.1,0.1
			c0.1,0,0.1-0.1,0.1-0.1C247.4,166.5,247.3,166.4,247.2,166.4 M243.2,169.2v-0.3 M242.8,161.1h0.4 M242.8,168.9v0.3h0.4
			 M242.3,161.9v6.5 M243.3,168.6h-0.6 M244.7,161.6h-2.2 M243.2,161.1v0.3 M242.7,168.6v0.2 M250.7,164.1h-1.1 M251.2,165.6v-1
			 M242.7,168.9h0.6 M243.3,161.4v0.2h-0.6 M245,164v2.5 M245.6,167.7v-5.2 M242.7,161.4h0.6 M249.6,166h1.1 M243.3,168.9v-0.2
			 M242.8,161.4v-0.3 M242.6,168.5h2.2 M242.7,161.5v-0.2 M249.6,143.3v1.9 M253,146.6h-4.6 M252.9,146.6c1.3,0,2.3-1,2.3-2.3
			 M255.2,144v0.4 M255.2,143.9c0-1.3-1-2.3-2.3-2.3 M248.4,146.6v-4.9h4.6 M253,147.6h-7.4 M252.9,147.6c1.8,0,3.2-1.5,3.2-3.3
			 M256.2,144v0.4 M256.2,143.9c0-1.8-1.5-3.3-3.2-3.3 M245.6,147.6v-6.8h7.4 M245,148.7v0.4"/>
		<path class="st0" d="M248.6,225h0.2 M248.6,225.4c0.2-0.2,0.3-0.5,0.3-0.8 M248.9,228.7c0-0.3-0.1-0.6-0.3-0.8 M248.4,224.8h0.2
			v3.9h-0.2 M248.1,229.9c0.1-0.1,0.2-0.2,0.2-0.3 M248.3,223.9c0-0.2-0.1-0.3-0.2-0.3 M248.3,223.7l3.1-0.7 M248.4,229.7l3,0.7
			 M248.4,229.6v-5.6 M249.8,226.6c0,1.3,1.2,2.3,2.6,2.3c1.4,0,2.6-1,2.6-2.3c0-1.3-1.2-2.3-2.6-2.3
			C251,224.3,249.8,225.4,249.8,226.6 M247.4,217.5c0,0.4,0.2,0.8,0.4,1.1c0.3,0.3,0.7,0.5,1.1,0.5 M249,219.1h7.6 M246.3,217.2v0.3
			h1.5v-0.3 M246.7,217.5c0,1.2,1,2.2,2.1,2.2 M259.5,221.5c0.7,1,1.8,1.7,3.1,1.7 M259.2,220c0,0.5,0.1,1,0.4,1.4 M259.3,220.1
			l0.2-2.9 M262.6,223.2c1.2,0,2.4-0.7,3.1-1.7 M266.2,220.1l-0.2-2.9 M265.7,221.5c0.3-0.4,0.4-0.9,0.4-1.4 M245.6,175.5v19
			 M286.3,217.9h-2.2v-0.7 M286.3,217.9v-2.5 M267.1,191.1c0-0.3-0.2-0.5-0.5-0.5c-0.3,0-0.5,0.2-0.5,0.5c0,0.3,0.2,0.5,0.5,0.5
			C266.9,191.6,267.1,191.4,267.1,191.1 M271.3,188.4v3.6H262v-3.6 M271.3,188.4c0-0.7-0.6-1.3-1.3-1.3 M263.4,187.1h6.7
			 M263.3,187.1c-0.7,0-1.3,0.6-1.3,1.3 M271.9,188.4v6.1h-10.4v-6.1 M271.9,188.4c0-1-0.8-1.9-1.9-1.9 M263.4,186.6h6.7
			 M263.3,186.5c-1,0-1.9,0.8-1.9,1.9 M267,193.3c0-0.2-0.2-0.4-0.4-0.4c-0.2,0-0.4,0.2-0.4,0.4c0,0.2,0.2,0.4,0.4,0.4
			C266.8,193.7,267,193.5,267,193.3 M270.5,194.5h-7.7 M249.6,185v1.9 M253,188.3h-4.6 M253,188.3c1.3,0,2.3-1,2.3-2.3 M255.2,185.7
			v0.4 M255.2,185.6c0-1.3-1-2.3-2.3-2.3 M248.4,188.3v-4.9h4.6 M253,189.3h-7.4 M253,189.3c1.8,0,3.3-1.5,3.3-3.3 M256.2,185.7v0.4
			 M256.2,185.6c0-1.8-1.5-3.3-3.3-3.3 M245.6,189.3v-6.8h7.4 M245,190.4v0.4 M245,189.6v0.5 M245,189v0.5 M245,188.3v0.5
			 M245,187.5v0.5 M245,186.8v0.5 M245,186.1v0.5 M245,185.4v0.5 M245,184.6v0.5 M245,184v0.5 M245,183.3v0.5 M245,182.5v0.5
			 M245,181.8v0.5 M244.5,181.3h0.5v0.3 M243.8,181.3h0.5 M243,181.3h0.5 M242.3,181.6v-0.3h0.5 M242.3,182.3v-0.5 M242.3,183v-0.5
			 M242.3,183.8v-0.5 M242.3,184.5V184 M242.3,185.1v-0.5 M242.3,185.8v-0.5 M242.3,186.6v-0.5 M242.3,187.3v-0.5 M242.3,188v-0.5
			 M242.3,188.7v-0.5 M242.3,189.5V189 M242.3,190.1v-0.5 M242.8,190.8h-0.5v-0.4 M243.5,190.8H243 M244.2,190.8h-0.5 M245,190.8
			h-0.5 M245,187.2v1.9 M245,182.7v2 M244.7,189.3c0.2,0,0.3-0.1,0.3-0.3 M251.2,185.4c0-0.2-0.2-0.4-0.4-0.4 M242.5,182.4
			c-0.1,0-0.2,0.1-0.2,0.2 M250.7,186.7c0.2,0,0.4-0.2,0.4-0.4 M242.3,189.1c0,0.1,0.1,0.2,0.2,0.2 M245,182.7
			c0-0.2-0.1-0.3-0.3-0.3 M247.3,184.2c-0.1,0-0.1,0.1-0.1,0.1c0,0.1,0.1,0.1,0.1,0.1c0.1,0,0.1-0.1,0.1-0.1
			C247.4,184.3,247.3,184.2,247.3,184.2 M247.3,187.2c-0.1,0-0.1,0.1-0.1,0.1c0,0.1,0.1,0.1,0.1,0.1c0.1,0,0.1-0.1,0.1-0.1
			C247.4,187.3,247.3,187.2,247.3,187.2 M243.2,190v-0.3 M242.8,181.8h0.4 M242.8,189.6v0.3h0.4 M242.3,182.6v6.5 M243.3,189.5h-0.6
			 M244.7,182.5h-2.2 M243.2,181.8v0.3 M242.7,189.5v0.2 M250.8,185h-1.1 M251.2,186.3v-0.9 M242.7,189.6h0.6 M243.3,182.1v0.2h-0.6
			 M245,184.7v2.5 M245.6,188.4v-5.1 M242.7,182.1h0.6 M249.6,186.8h1.1 M243.3,189.6v-0.2 M242.8,182.1v-0.3 M242.6,189.3h2.2
			 M242.7,182.4v-0.2 M267.1,212c0-0.3-0.2-0.5-0.5-0.5c-0.3,0-0.5,0.2-0.5,0.5c0,0.3,0.2,0.5,0.5,0.5
			C266.9,212.5,267.1,212.3,267.1,212 M271.3,209.3v3.6H262v-3.6 M271.3,209.2c0-0.7-0.6-1.3-1.3-1.3 M263.4,208h6.7 M263.3,207.9
			c-0.7,0-1.3,0.6-1.3,1.3 M271.9,209.3v6.1h-10.4v-6.1 M271.9,209.2c0-1-0.8-1.9-1.9-1.9 M263.4,207.4h6.7 M263.3,207.4
			c-1,0-1.9,0.8-1.9,1.9 M267,214.1c0-0.2-0.2-0.4-0.4-0.4c-0.2,0-0.4,0.2-0.4,0.4c0,0.2,0.2,0.4,0.4,0.4
			C266.8,214.4,267,214.3,267,214.1 M270.5,215.4h-7.7 M249.6,205.3v1.9 M253,208.8h-4.6 M253,208.7c1.3,0,2.3-1,2.3-2.3
			 M255.2,206.1v0.3 M255.2,206.1c0-1.3-1-2.3-2.3-2.3 M248.4,208.8v-5h4.6 M253,209.8h-7.4 M253,209.7c1.8,0,3.3-1.5,3.3-3.3
			 M256.2,206.1v0.3 M256.2,206.1c0-1.8-1.5-3.3-3.3-3.3 M245.6,209.8v-6.8h7.4 M245,210.8v0.3 M245,210.1v0.5 M245,209.4v0.5
			 M245,208.6v0.5 M245,207.9v0.5 M245,207.3v0.4 M245,206.5v0.5 M245,205.8v0.5 M245,205.1v0.5 M245,204.4v0.5 M245,203.6v0.5
			 M245,202.9v0.5 M245,202.3v0.4 M244.5,201.6h0.5v0.4 M243.8,201.6h0.5 M243,201.6h0.5 M242.3,202v-0.4h0.5 M242.3,202.7v-0.4
			 M242.3,203.4v-0.5 M242.3,204.1v-0.5 M242.3,204.9v-0.5 M242.3,205.6v-0.5 M242.3,206.3v-0.5 M242.3,207v-0.5 M242.3,207.7v-0.4
			 M242.3,208.4v-0.5 M242.3,209.1v-0.5 M242.3,209.9v-0.5 M242.3,210.6v-0.5 M242.8,211.1h-0.5v-0.3 M243.5,211.1H243 M244.2,211.1
			h-0.5 M245,211.1h-0.5 M245,207.6v1.9 M245,203.2v2 M244.7,209.7c0.2,0,0.3-0.1,0.3-0.3 M251.2,205.8c0-0.2-0.2-0.4-0.4-0.4
			 M242.5,202.8c-0.1,0-0.2,0.1-0.2,0.2 M250.7,207.2c0.2,0,0.4-0.2,0.4-0.4 M242.3,209.5c0,0.1,0.1,0.2,0.2,0.2 M245,203.1
			c0-0.2-0.1-0.3-0.3-0.3 M247.3,204.7c-0.1,0-0.1,0.1-0.1,0.1s0.1,0.1,0.1,0.1c0.1,0,0.1-0.1,0.1-0.1S247.3,204.7,247.3,204.7
			 M247.3,207.6c-0.1,0-0.1,0.1-0.1,0.1c0,0.1,0.1,0.1,0.1,0.1c0.1,0,0.1-0.1,0.1-0.1C247.4,207.6,247.3,207.6,247.3,207.6
			 M243.2,210.4V210 M242.8,202.3h0.4 M242.8,210v0.4h0.4 M242.3,203.1v6.4 M243.3,209.9h-0.6 M244.7,202.8h-2.2 M243.2,202.3v0.3
			 M242.7,209.9v0.2 M250.8,205.3h-1.1 M251.2,206.8v-1 M242.7,210h0.6 M243.3,202.6v0.2h-0.6 M245,205.2v2.4 M245.6,208.9v-5.2
			 M242.7,202.6h0.6 M249.6,207.3h1.1 M243.3,210v-0.2 M242.8,202.6v-0.3 M242.6,209.8h2.2 M242.7,202.8v-0.2 M267.1,128.7
			c0-0.3-0.2-0.5-0.5-0.5c-0.3,0-0.5,0.2-0.5,0.5c0,0.3,0.2,0.5,0.5,0.5C266.9,129.2,267.1,129,267.1,128.7 M271.3,126v3.6H262V126
			 M271.2,126c0-0.7-0.6-1.3-1.3-1.3 M263.4,124.7h6.6 M263.3,124.6c-0.7,0-1.3,0.6-1.3,1.3 M271.9,126v6.1h-10.4V126"/>
		<path class="st0" d="M205.6,400.6v-3V400.6z M204.6,400.6v-3V400.6z M204.6,397.7h1 M179.9,400.6v-3V400.6z M179.1,400.6v-3V400.6
			z M179.1,397.7h0.9 M130.4,397.7v3 M154.4,400.6v-3V400.6z M153.4,400.6v-3V400.6z M130.4,397.7h1v3h-1V397.7z M130.4,400.6h1v-3
			h-1V400.6z M153.4,397.7h1 M232.7,397.7h1v3h-1V397.7z M234.6,402.6h-0.2v-1.8h-1.7v1.8h-0.1 M234.6,402.6v-1.9h-1.9v1.9
			 M309.1,400.6v-3V400.6z M308.1,400.6v-3V400.6z M308.1,397.7h1 M283.4,400.6v-3V400.6z M282.5,400.6v-3V400.6z M282.5,397.7h1
			 M233.7,397.7v3 M257.8,400.6v-3V400.6z M256.8,400.6v-3V400.6z M233.7,397.7h1v3h-1V397.7z M233.7,400.6h1v-3h-1V400.6z
			 M256.8,397.7h1 M336,397.7h1v3h-1V397.7z M337.9,402.6h-0.2v-1.8H336v1.8H336 M337.9,402.6v-1.9H336v1.9 M412.5,400.6v-3V400.6z
			 M411.5,400.6v-3V400.6z M411.5,397.7h1 M386.8,400.6v-3V400.6z M385.9,400.6v-3V400.6z M385.9,397.7h1 M336.9,397.7v3
			 M361.2,400.6v-3V400.6z M360.2,400.6v-3V400.6z M336.9,397.7h1v3h-1V397.7z M336.9,400.6h1v-3h-1V400.6z M360.2,397.7h1
			 M439.2,397.7h1v3h-1V397.7z M441,402.6L441,402.6l-0.1-1.8h-1.7v1.8h-0.1 M441,402.6v-1.9h-1.8v1.9 M515.9,400.6v-3V400.6z
			 M514.9,400.6v-3V400.6z M514.9,397.7h1 M490.2,400.6v-3V400.6z M489.3,400.6v-3V400.6z M489.3,397.7h1 M440.2,397.7v3
			 M464.6,400.6v-3V400.6z M463.7,400.6v-3V400.6z M440.2,397.7h0.9v3h-0.9V397.7z M440.2,400.6h0.9v-3h-0.9V400.6z M463.7,397.7h1
			 M619.3,400.6v-3V400.6z M618.3,400.6v-3V400.6z M618.3,397.7h1 M593.7,400.6v-3V400.6z M592.8,400.6v-3V400.6z M592.8,397.7h0.9
			 M568,400.6v-3V400.6z M567.1,400.6v-3V400.6z M567.1,397.7h0.9 M645.6,397.7h1v3h-1V397.7z M647.5,402.6L647.5,402.6l-0.1-1.8
			h-1.7v1.8h-0.2 M647.5,402.6v-1.9h-1.9v1.9 M722.7,400.6v-3V400.6z M721.8,400.6v-3V400.6z M721.8,397.7h0.9 M697.1,400.6v-3
			V400.6z M696.2,400.6v-3V400.6z M696.2,397.7h1 M646.6,397.7v3 M671.5,400.6v-3V400.6z M670.6,400.6v-3V400.6z M646.6,397.7h1v3
			h-1V397.7z M646.6,400.6h1v-3h-1V400.6z M670.6,397.7h1 M748.9,397.7h1v3h-1V397.7z M125.6,118.1h-76 M228.6,118.1h-95.4
			 M27.3,111.6v1 M21,119.6h9.1v-5.9H18.4v-1.1h8.9 M8.9,388h8.8v5.7H13v3.6h4.7 M847.5,393.2h11.3v4.1 M847.5,387.3v5.9
			 M856.3,387.3h-8.8v5.9 M847.5,387.3v1.9 M862.8,397.7H1.6 M861.9,399.9H2.5 M862.8,400.6H1.5 M817.8,89.8h10.8v0.9h-10.8V89.8z
			 M830.2,91.2h-1v-1.4h1V91.2z M804.7,91.2h0.9v-1.4h-0.9V91.2z M817,89.8h-10.8v0.9H817V89.8z M803.2,94.7h26.3v12.2h-26.3V94.7z
			 M363.7,252.9l-0.1-17.4h-6.3 M282.7,214.4h1.5 M282.7,197.1h1.5 M282.7,156.3h1.5 M257.3,219.4
			C257.3,219.4,257.3,219.4,257.3,219.4 M256.7,218.3c0,0.2,0.1,0.3,0.3,0.3 M258.3,219.5h-0.9 M259.3,219.5h-0.5 M257.6,218.5H257
			 M259.4,218.5h-0.6 M257.1,218.9v-0.3 M256.8,218.3V217 M246.6,230.5h0.4v-0.6 M246.7,223.1L246.7,223.1 M246.7,230L246.7,230
			 M248.3,223.3c0-0.1,0-0.1,0-0.2c0,0-0.1-0.1-0.2-0.1 M248.1,229.9c0.1,0,0.1,0,0.2-0.1c0,0,0.1-0.1,0-0.2 M248.3,223.3
			c-0.4,2.1-0.4,4.3,0,6.4 M246,224.6h0.6 M246,228.4h0.6 M248.2,223.1h-1.5 M248.2,229.9h-1.5 M244.7,230.7h-1.9 M244.7,229.9h-1.9
			 M244.7,230.6c1.1,0,2-0.9,2-2 M244.7,229.9c0.7,0,1.3-0.6,1.3-1.3 M246.6,223.1v6.8 M244.7,222.4h-1.9 M244.7,223h-1.9
			 M242.5,231.1h0.3v-1.5h-0.3 M242.5,223.4h0.3V222h-0.3 M246.6,224.4c0-1.1-0.9-2-2-2 M246,224.4c0-0.7-0.6-1.3-1.3-1.3
			 M246,228.7v-4.3 M244.4,232h-1.5v1.3h1.5 M242.9,231.6v1.9 M244.4,231.6h-1.9v1.9h1.9V231.6z M257,232.8c0.2,0,0.3-0.1,0.3-0.3
			c0-0.2-0.1-0.3-0.3-0.3 M244.4,232.3H257 M244.4,232.9H257 M262.2,218.9h-1.3 M264.6,218.9h-1.4 M263.6,218.3c-0.1,0-0.2,0-0.3,0
			 M264.2,218.4c-0.2-0.1-0.4-0.1-0.6-0.1 M264.2,218.5h-0.9 M262.7,220.4c0.2,0,0.4-0.2,0.4-0.4 M263.3,218.7l-0.2,1.4 M263.3,218
			c0-0.3-0.3-0.6-0.6-0.6s-0.6,0.3-0.6,0.6 M263.3,218.2c-0.1-0.3-0.3-0.4-0.6-0.4c-0.3,0-0.5,0.2-0.6,0.4 M263.3,218.1v0.2
			 M262.2,218.1v0.2 M262.3,220c0,0.2,0.2,0.4,0.4,0.4 M262.2,218.7l0.2,1.4 M263.3,218.4c0-0.3-0.3-0.6-0.6-0.6s-0.6,0.3-0.6,0.6
			c0,0.3,0.3,0.6,0.6,0.6S263.3,218.7,263.3,218.4 M264,217.7c-0.2,0-0.4,0.2-0.5,0.4 M263.6,218.1l-0.2,0.2 M260.1,219.3
			c-0.1,0.1-0.1,0.1-0.2,0.2 M260.8,218.8c-0.3,0.1-0.6,0.3-0.7,0.5 M265.5,219.5c0-0.1-0.1-0.1-0.2-0.2 M265.3,219.3
			c-0.1-0.3-0.4-0.5-0.7-0.5 M261.9,218.1l0.2,0.4 M261.8,218c-0.1-0.2-0.3-0.3-0.5-0.4 M260.6,217.7l0.8,0.1 M260,219.6v-1.4
			 M260.6,217.7c-0.1,0-0.3,0-0.4,0.1c-0.1,0.1-0.2,0.2-0.2,0.4 M265.4,218.2c0-0.1-0.1-0.3-0.2-0.4c-0.1-0.1-0.2-0.2-0.4-0.1
			 M264.9,217.7l-0.8,0.1 M265.4,219.6v-1.4 M260.3,220.7c0.5,0.9,1.5,1.4,2.5,1.4 M259.9,219.5c0,0.4,0.1,0.8,0.3,1.2 M265.1,220.7
			c0.2-0.4,0.3-0.8,0.3-1.2 M262.7,222.1c1,0,1.9-0.6,2.5-1.4 M262.2,219.3c-0.3,0.3-0.2,0.7,0,1c0.3,0.3,0.7,0.3,0.9,0
			c0.3-0.3,0.3-0.7,0-1 M269.1,217v0.3 M269.5,219.3c0,0.2,0.1,0.3,0.3,0.3c0.2,0,0.3-0.1,0.3-0.3 M269.5,217.3v2 M270.1,217.4v1.9
			 M270.6,217v0.3h-1.5 M249.1,219.6h7.6 M256.6,218.9c0.4,0,0.8-0.2,1.1-0.5c0.3-0.3,0.5-0.7,0.4-1.1 M257.8,217v0.3 M256.6,219.5
			c0.6,0,1.1-0.3,1.5-0.7 M258.2,219.3c0,0.2,0.1,0.3,0.3,0.3s0.3-0.1,0.3-0.3 M258.2,217.3v2 M258.8,217.3v2 M259.3,217v0.3h-1.5
			 M248.9,224.7l0.4-0.6l0.5-0.5l0.5-0.3l0.6-0.3l0.6-0.2l0.6-0.1h0.6l0.6,0.1l0.6,0.2l0.6,0.3l0.5,0.3l0.6,0.5l0.4,0.5l0.2,0.6
			l0.2,0.6l0.1,0.6l-0.1,0.7l-0.2,0.6l-0.2,0.6l-0.4,0.6l-0.6,0.4l-0.5,0.4L254,230l-0.6,0.2l-0.6,0.1h-0.6l-0.6-0.2l-0.6-0.2
			l-0.6-0.3l-0.5-0.4l-0.5-0.5l-0.4-0.6 M242.9,236.2h-0.4 M242.9,235.8h2 M242.5,234.7h0.4 M242.9,235.2h2 M242.9,234.7v1.5
			 M244.9,235.7c0.2,0,0.3-0.1,0.3-0.3c0-0.2-0.1-0.3-0.3-0.3 M246.1,231.6C246.1,231.6,246.1,231.6,246.1,231.6
			c0.1,0.1,0.1,0.1,0.1,0.1 M246.6,231.7c0.1,0,0.1,0,0.1-0.1 M246.7,231.7l0.2-1.2 M246.2,231.8h0.4 M246.2,230.9l-0.2,0.7
			 M245.7,230.9c0.2,0,0.5-0.1,0.7-0.3c0.2-0.2,0.3-0.4,0.3-0.7 M245.8,231h-2.9 M246.6,223c0-0.5-0.4-0.9-0.9-0.9 M245.8,222.1
			h-2.9 M248.7,228.3h0.2"/>
		<path class="st0" d="M284.1,136.1h-1v-0.3h1V136.1z M284.2,135.7h-1.9v-1h1.9V135.7z M268,136.7c0,7.9,6.4,14.3,14.2,14.3
			 M268.1,135.9h14.2v0.9h-14.2V135.9z M282.6,152.1h1.5 M284.2,134.8h-1.5v-0.9 M282.6,152.9v-0.8 M284.1,171.5h-1v0.3h1V171.5z
			 M284.2,172.8h-1.9v-1h1.9V172.8z M284.1,156.9h-1v-0.4h1V156.9z M284.2,156.5h-1.9v-1h1.9V156.5z M268,157.5
			c0,7.9,6.4,14.3,14.2,14.3 M268.1,156.6h14.2v0.9h-14.2V156.6z M282.6,172.8h1.5 M284.2,155.5h-1.5v-0.9 M282.6,173.7v-0.9
			 M284.1,192.2h-1v0.4h1V192.2z M284.2,193.6h-1.9v-1h1.9V193.6z M284.1,177.6h-1v-0.4h1V177.6z M284.2,177.2h-1.9v-0.9h1.9V177.2z
			 M268,178.2c0,7.9,6.4,14.3,14.2,14.3 M268.1,177.5h14.2v0.8h-14.2V177.5z M282.6,193.6h1.5 M284.2,176.3h-1.5v-0.9 M282.6,194.4
			v-0.8 M284.1,213.1h-1v0.4h1V213.1z M284.2,214.3h-1.9v-0.9h1.9V214.3z M284.1,198.4h-1V198h1V198.4z M284.2,198h-1.9v-1h1.9V198z
			 M268,199c0,7.9,6.4,14.3,14.2,14.3 M268.1,198.3h14.2v0.8h-14.2V198.3z M767.2,112h32.1 M765.4,113.4h33.9 M765.4,111.8h1.8
			 M799.3,117.2h8.9 M767.2,111.8v0.2 M765.4,111.2v2.2 M799.3,111.9v5.3 M832.1,142.7v5.3h-23.9 M832.1,142.7h-18.6 M808.2,117.2
			V148 M813.5,113.6v29 M851,142.7v5.3h6.1 M851,142.7h6.1 M833.4,143.5H833v1h0.3V143.5z M833,144.6h-1v-1.8h1V144.6z M849.8,143.5
			h0.4v1h-0.4V143.5z M851,144.6h-0.9v-1.8h0.9V144.6z M849.9,142.7h-0.8v-16.3h0.8V142.7z M849.1,126.4c-8.9,0-16.1,7.3-16.1,16.3
			 M853.8,109.5l-28.8,0.2 M381.4,246l-0.6-0.6 M381.4,241.5v4.5l0.6-0.7 M398.6,238l-34.9,0.2 M131.2,246.7c0-1-0.8-1.9-1.9-1.9
			s-1.9,0.8-1.9,1.9c0,1,0.8,1.9,1.9,1.9S131.2,247.7,131.2,246.7 M544,246.7c0-1-0.8-1.9-1.9-1.9c-1,0-1.9,0.8-1.9,1.9
			c0,1,0.8,1.9,1.9,1.9C543.2,248.6,544,247.7,544,246.7 M750.9,246.7c0-1-0.8-1.9-1.9-1.9c-1,0-1.9,0.8-1.9,1.9
			c0,1,0.8,1.9,1.9,1.9C750.1,248.6,750.9,247.7,750.9,246.7 M311.8,136.3l0.1-16.9 M307.1,135.4v-15.8 M349.2,233.1l6.9,2.1
			l-0.3,0.7l-6.9-2L349.2,233.1z M311.7,237.1v-1.7 M327.7,229.7l15.2,5.5l-0.3,0.7l-15.1-5.5L327.7,229.7z M313.1,236h-0.4v1h0.4
			V236z M311.7,237.1h1v-1.8h-1V237.1z M326.4,229.7l-13.5,5.5l0.2,0.7l13.6-5.5L326.4,229.7z M310.4,237.1h1.4 M346.4,232.1v23.5
			 M346.3,231.6h-1.2v0.5h1.2V231.6z M346.3,215.9h-1.2v-0.5h1.2V215.9z M346.4,215.5H344v-1.2h2.3V215.5z M328.8,215.7H344v1h-15.2
			V215.7z M328.8,216.7c0,8.5,6.8,15.4,15.3,15.4 M346.4,233.3H344v-1.2h2.3V233.3z M344,232.1v23.5 M344,233.3h2.1v-1h-1v0.2H344
			V233.3z M358.1,235.4h-8.9v5.7h8.9V235.4z M357.3,237.1h1.9 M346.4,237.1h2.8 M349.1,235.6h-2.8 M357.3,237.1v-1.5 M304.2,237.1
			v-1.7 M286.8,237.1v-1.7 M355.9,236h0.4v1h-0.4V236z M356.3,237.1h1v-1.8h-1V237.1z M302.9,236h0.4v1h-0.4V236z M296.2,233.1
			l6.9,2.1l-0.3,0.7l-6.9-2L296.2,233.1z M304.2,237.1h-1v-1.8h1V237.1z M288.1,236h-0.3v1h0.3V236z M286.8,237.1h1v-1.8h-1V237.1z
			 M295.4,233.1l-7.5,2.1l0.2,0.7l7.6-2.1L295.4,233.1z M304.2,237.1h1.2 M285.7,237.1h1 M286.8,235.4h-1 M311.7,235.2h-7.5
			 M311.7,235.4h-7.5 M305.4,237.1v18.1h-19.7v-20.5 M359.2,237.1v18.1h-48.8v-18.1 M542.5,397.6h0.9v3h-0.9V397.6z M544.3,402.6
			L544.3,402.6l-0.1-1.8h-1.7v1.8h-0.1 M544.3,402.6v-1.9h-1.8v1.9 M543.4,397.6v3 M543.4,397.6h1v3h-1V397.6z M543.4,400.6h1v-3h-1
			V400.6z M40.1,123.7h1.3 M38.9,149.5h1.3 M19.4,150.2l20.6,1 M40.8,137L40.2,148l-0.8-0.1l0.5-10.9L40.8,137z M38.9,149.5v-1
			l1.4,0.1l-0.1,0.9H38.9z M40.1,123.7l-0.1,1h1.4v-1H40.1z M40.8,136.1l0.6-10.9h-0.9L40,136.1H40.8z M35.1,122l-1.3,26.5L21.7,148
			l1.3-26.6L35.1,122z M19.4,148.9l19.4,1v-0.5 M40.1,124.7l0.3-7.9h7.6l0.3-5.1 M41.3,124.7l0.3-6.6h7.6l0.3-6.3 M40.1,151.3
			l0.1-1.8 M256.9,252.5c0-0.3-0.2-0.5-0.5-0.5c-0.3,0-0.5,0.2-0.5,0.5c0,0.3,0.2,0.5,0.5,0.5C256.7,253,256.9,252.8,256.9,252.5
			 M261.1,249.8v3.6h-9.2v-3.6 M261,249.7c0-0.7-0.6-1.3-1.3-1.3 M253.1,248.5h6.6 M253.1,248.4c-0.7,0-1.3,0.6-1.3,1.3
			 M261.6,249.8v6.1h-10.4v-6.1 M261.5,249.7c0-1-0.8-1.9-1.9-1.9 M253.1,247.9h6.6 M253.1,247.9c-1,0-1.9,0.8-1.9,1.9 M256.8,254.6
			c0-0.2-0.2-0.4-0.4-0.4c-0.2,0-0.4,0.2-0.4,0.4c0,0.2,0.2,0.4,0.4,0.4C256.6,255,256.8,254.8,256.8,254.6 M260.3,255.9h-7.6
			 M752.2,118.1h56.5 M648.9,118.1h95.4 M545.5,118.1H641 M440.1,118.1h97.7 M856.5,387.3H8.8 M750,111.2h1v-1.1h-1V111.2z
			 M749,111.2h1v-1.1h-1V111.2z M646.7,111.2h1v-1.1h-1V111.2z M798.3,111.2h1v-1.1h-1V111.2z M765.4,111.2h1v-1.1h-1V111.2z
			 M721.9,111.2h0.9v-1.1h-0.9V111.2z M696.3,111.2h1v-1.1h-1V111.2z M670.7,111.2h1v-1.1h-1V111.2z M645.7,111.2h1v-1.1h-1V111.2z
			 M618.4,111.2h1v-1.1h-1V111.2z M592.8,111.2h0.9v-1.1h-0.9V111.2z M567.2,111.2h1v-1.1h-1V111.2z M543.4,111.2h1v-1.1h-1V111.2z
			 M542.5,111.2h0.9v-1.1h-0.9V111.2z M515,111.2h1v-1.1h-1V111.2z M489.3,111.2h1v-1.1h-1V111.2z M489.3,110.1h1v1.1h-1V110.1z
			 M463.7,111.2h1v-1.1h-1V111.2z M440.1,111.2h1v-1.1h-1V111.2z M463.7,111.2h1v-1.1h-1V111.2z M359.5,111.8H26.2 M204.5,111.8h1
			v-1.1h-1V111.8z M204.5,110.7h1v1.1h-1V110.7z M153.3,111.8h1v-1.1h-1V111.8z M130.3,111.8h1v-1.1h-1V111.8z M129.3,111.8h1v-1.1
			h-1V111.8z M358.5,111.8h1v-1.1h-1V111.8z M335.2,111.8h1v-1.1h-1V111.8z M311.9,111.8h1v-1.1h-1V111.8z M306.1,111.8h1v-1.1h-1
			V111.8z M282.4,111.8h1v-1.1h-1V111.8z M256.8,111.8h1v-1.1h-1V111.8z M233.6,111.8h1v-1.1h-1V111.8z M232.6,111.8h1v-1.1h-1
			V111.8z M204.5,111.8h1v-1.1h-1V111.8z M179,111.8h0.9v-1.1H179V111.8z M153.3,111.8h1v-1.1h-1V111.8z M130.3,111.8h1v-1.1h-1
			V111.8z M129.3,111.8h1v-1.1h-1V111.8z M103.3,111.8h1v-1.1h-1V111.8z M74.5,111.8h0.9v-1.1h-0.9V111.8z M48.4,111.8h1v-1.1h-1
			V111.8z M26.2,111.8h1v-1.1h-1V111.8z M799.3,111.2H440.1 M359.5,110.7H26.2 M799.3,110.1H440.1 M863.7,397.8v-7.6H863 M863,397.7
			v-7.6 M0.7,397.6L1,390l0.7,0.1 M1.4,397.6l0.3-7.6 M863,397.6h1v3h-1V397.6z M862,397.6h1v3h-1V397.6z M0.5,397.6h1v3h-1V397.6z
			 M1.4,397.6h0.9v3H1.4V397.6z M1.4,400.6h0.9v-3H1.4V400.6z M26,397.6h1v3h-1V397.6z M28,402.6L28,402.6l-0.1-1.8h-1.8v1.8H26
			 M28,402.6v-1.9H26v1.9 M102,400.6v-3V400.6z M101.1,400.6v-3V400.6z M101.1,397.6h1 M76.4,400.6v-3V400.6z M75.4,400.6v-3V400.6z
			 M75.4,397.6h1 M27,397.6v3 M50.7,400.6v-3V400.6z M49.9,400.6v-3V400.6z M27,397.6h1v3h-1V397.6z M27,400.6h1v-3h-1V400.6z
			 M49.9,397.6h0.9 M129.3,397.6h1v3h-1V397.6z M131.2,402.6L131.2,402.6l-0.1-1.8h-1.8v1.8h-0.1 M131.2,402.6v-1.9h-1.9v1.9"/>
		<path class="st0" d="M385.3,242.7c-2.8,2.9-4.3,6.8-4.3,10.9 M381.1,253.6c0-4-1.6-7.9-4.3-10.9 M376.8,242.7l0.6,0.6
			 M385.4,242.7l-0.6,0.6 M365.5,253.7l0.6,0.6 M396.7,253.6l-0.5,0.6l-11.4-10.8 M396.7,253.6l-11.3-10.8 M365.5,253.7l11.3-10.9
			 M366,254.2l11.3-10.9 M863.8,109.2l-0.8,288 M403.9,106.5h398.8 M1.4,397.2L15,106.5h345.2 M641.4,389.3v6 M121.5,387.8v7.5
			 M133.1,389.8v5.5 M227.4,389.7v5.6 M234.9,389.7v5.6 M330.8,389.6v5.7 M338.6,389.5v5.8 M434.4,389.4v5.9 M442,389.4v5.9
			 M537.9,389.4v5.9 M545.5,389.4v5.9 M649,389.2v6.1 M744.7,389.1v6.2 M752.4,389.1v6.2 M829.1,33.1l8.5,5.3l-1.3,6.4l10.3-8.2
			l-1.4,6.5l6.5,4 M840.5,52v9.4 M829.1,42.5l8.6,5.4l-1.4,6.4l10.3-8.2l-1.4,6.4l6.5,4.1 M348.2,183.6v-10.5 M337.4,164.4l8.1,5.5
			L344,176l10.2-7.5l-1.5,6.3l6.2,4.2 M337.5,150.1v33.6h21.3 M344.4,174.1h-6.9 M352.8,174.1h-6.2 M358.9,178.9h-21.3 M815.2,66.1
			V40.7 M360.2,106.5V28.9h47.2v58.7h-3.6v1.9 M648.9,119.5v-7.9 M322.7,144.4l0.1,33.6 M337.4,154.9l8.1,5.5l-1.5,6.2l10.3-7.5
			l-1.5,6.2l6.1,4.2 M359.5,114v-1.4 M403.3,102.8h-1.1 M406.8,106.5h-2.9 M238.6,113.5H305 M350.4,126.2c2.9,2.7,6.6,4.2,10.5,4.2
			 M349.9,125.7l0.5,0.5l11.2-11l-0.5-0.6L349.9,125.7z M362.7,114.6h-3.2 M362.6,130.4h-3.3 M403.3,89.5h-1.1 M399.9,89.5h1.1
			 M399.9,106.6h1.1 M309.2,135.8h-2.1 M309.2,120h-2.1 M372.7,85.7v1 M375.6,83.3l-1.8,1l1.8,1 M391.8,85.4l1.8-1l-1.8-1
			 M394.5,86.9v-1.1 M393.5,84.4h-19.7 M394.5,85.7h-21.8 M372.7,86.8l21.8,0.1 M402.7,222.3h-0.7 M404.3,224.2l-0.6-1.2l-0.7,1.2
			 M402.9,235.4l0.7,1.3l0.7-1.3 M401.9,237.4h0.7 M403.6,236.7V223 M402.7,237.4v-15.2 M401.9,222.3v15.2 M402.6,179.7h-0.8
			 M404.2,181.6l-0.7-1.2l-0.6,1.2 M402.8,192.9l0.7,1.2l0.7-1.2 M401.9,194.9h0.7 M403.5,194.1l-0.1-13.7 M402.6,194.9v-15.2
			 M401.8,179.7l0.1,15.2 M402.5,137.4h-0.8 M404.1,139.4l-0.7-1.2l-0.6,1.2 M402.7,150.6l0.7,1.2l0.6-1.2 M401.7,152.6h0.8
			 M403.5,151.8l-0.1-13.7 M402.5,152.6v-15.2 M401.7,137.4v15.2 M398.5,222.3l-0.1-27.4 M398.3,119.9l0.1,17.6 M396.7,254.1v-1.4
			 M365.5,254.2v-1.4 M228.5,119.2v-6.6 M133,117.5v-4.9h-7.5 M125.5,117.4v-4.7 M307.1,113.5H305 M236.1,113.5h2.5 M309.2,135.8
			v0.6h2.7 M309.2,120v-0.6h2.6v-5.5v-2.4 M403.3,89.5v13.2 M402.7,89.5v13.2 M402.2,89.5v13.2 M401.7,152.6l-3.3,0.1 M398.4,137.5
			l3.3-0.1 M401.8,179.7h-3.3 M398.4,194.9h3.4 M401.9,222.3h-3.4 M398.5,237.4h3.4 M27.2,112.6h-5.6 M397.9,258.1h45v-7.5h-5.6
			L436.5,119 M440.1,118.9v-10.4 M436.5,119h3.6 M537.8,111.5v7.7l7.7,0.1v-7.8 M641,111.5v7.9h8 M744.3,111.5v8.3l7.9,0.1v-8.4
			 M856.8,164.8l-0.1,85h-9.2v7.5l9.1-0.1l-0.2,129.9h-8.8 M847.7,387.1v1.9 M752.4,389.1v-2h-7.6v2 M649,389.2v-1.9h-7.6v2
			 M545.5,389.4v-2l-7.6,0.1v1.9 M442,389.4v-1.9h-7.6v1.9 M338.6,389.5v-1.8h-7.8v1.9 M234.9,389.7v-1.6l-7.6,0.1v1.5 M133.1,389.8
			l-0.1-1.9h-11.5 M8.7,387.8l5.8-128.7l8.8,0.5l0.4-7.1 M538,257.2h8l-0.2-12.9h-8L538,257.2z M641.4,256.9l7.3,0.2l0.1-7.6
			l-7.3-0.2L641.4,256.9z M744.6,257l7.3,0.2l0.2-14.3l-7.4-0.2L744.6,257z M132.8,257.4l0.1-13.8l-7.3-0.1l-0.1,13.8L132.8,257.4z
			 M125.5,117.4l-0.2,2h7.6v-1.8 M14.9,250.4l6-130.7 M358.6,208.8l-46.7,0.2 M228.5,119.9l0.2,138.1 M398.5,237.4l0.1,13.2
			 M398.4,152.6l0.1,27.1 M365.5,252.8h-1.8 M397.8,252.8h-1.1 M365.5,254.2h-1.8 M397.8,254.1h-1.1 M350.6,212.3l11.4-0.2
			 M362.7,114.6L362.7,114.6 M362,212.1l0.6-81.7 M362.7,114.6l3,0.1l0.1-25.2h6.9v-2.7 M394.5,86.9v2.7h5.3v17.1l-5.3,0.1v13
			l3.7,0.2 M397.8,250.7h0.8 M397.9,258.1l-0.1-3.9 M397.8,252.8v-2.1 M359.3,130.4l-0.7,78.4 M359.5,114v0.6 M336.8,150.1l22.3,0.2
			 M344.7,169.3l-7.2-0.1 M354,169.3h-1 M346.8,164.5h-2.2 M359,164.6H353 M359.1,159.9l-14.5-0.2 M359.1,155l-21.7-0.2 M312,208.9
			v-72.6 M312,144.4h21.6v33.6H312 M312,149.2h21.6 M312,154h21.6 M312,158.7h21.6 M312,163.6h21.6 M312,168.3h21.6 M312,173.1h21.6
			 M311.9,113.9l47.6,0.1 M857.2,119.9l-0.4,87.4 M851.8,61.4l-22.6,0.1l-0.2-33.1l22.8-0.1 M829.1,33.1l22.7-0.1 M846.4,37.8
			l5.4-0.1 M836.7,37.8h8.6 M845.5,42.5l6.4-0.1 M836.9,42.5h2.5 M845.3,47.2h1.1 M829.1,47.3h7.6 M839.3,52l6.1-0.1 M829.2,52h7.6
			 M829.2,56.8l22.6-0.1 M804,33.1l22.5-0.1l0.1,33.1L804,66.1 M804,37.8l22.5-0.1 M804,42.5l22.5-0.1 M804,47.3l22.5-0.1 M804,52
			l22.6-0.1 M804,56.8l22.6-0.2 M804,61.4l22.6-0.1 M230.7,236.2l-0.2-116.3 M236.3,255.8v-7.3H231v-10.8 M398.4,82.3l0.1-43.8
			l-26.1-0.1l-0.1,43.8L398.4,82.3z M408,246h18.2l-0.1-32.1l-18.2,0.1L408,246z M425.8,128.7l0.1,32.1h-18.2l-0.1-32L425.8,128.7z
			 M426,171.4l0.1,32.1h-18.2l-0.1-32L426,171.4z M306.3,181.2v30.5h42.2 M307.1,135.8l0.1,42.9 M307.1,111.5v8.5 M230.9,136.8
			v-18.1h5.2v-5.2 M305,113.5h2.1 M236.1,113.5h2.5 M282.4,130h0.9v0.4h-0.9V130z M282.2,131.4h1.9v-1h-1.9V131.4z M282.4,115.4h0.9
			V115h-0.9V115.4z M282.2,115h1.9v-0.9h-1.9V115z M284.1,130.3c7.9,0,14.2-6.4,14.2-14.3 M298.4,115.2h-14.3v0.8h14.3V115.2z
			 M282.6,131.4h1.5 M284.2,114.1h-1.5v-0.9 M282.6,132.2v-0.8 M284.1,150.7h-1v0.4h1V150.7z M284.2,152.1h-1.9v-1h1.9V152.1z"/>
		<path class="st0" d="M852.3,397.7h1v3h-1V397.7z M853.3,397.4v3.2 M852.3,397.7v3 M826.4,400.6h24.7 M826.4,400.6v-3V400.6z
			 M825.4,400.6v-3V400.6z M825.4,397.7h1 M800.7,400.6v-3V400.6z M799.8,400.6v-3V400.6z M799.8,397.7h1 M750,397.7v3 M775.1,400.6
			v-3V400.6z M774.1,400.6v-3V400.6z M750,397.7h1v3h-1V397.7z M750,400.6h1v-3h-1V400.6z M774.1,397.7h1 M1.5,400.6h773.6
			 M306.4,181.2l0.9-2.6 M348.6,211.8l2.1,0.6 M133.2,395.5h-11.5 M235.1,395.5h-7.6 M338.5,395.5h-7.6 M442.1,395.5h-7.6
			 M545.6,395.5H538 M649,395.5h-7.6 M752.4,395.5h-7.6 M744.4,111.5h7.9 M641,111.5h8 M537.9,111.5h7.7 M307.2,111.5h4.8"/>
	</g>
	<polygon class="st1" points="322.8,212.8 319.1,204.9 326.6,204.9 	"/>
	<polygon class="st1" points="348.4,218.5 344.6,211 352.1,211 	"/>
	<polygon class="st1" points="348.2,184.3 352,191.7 344.5,191.7 	"/>
	<polygon class="st1" points="840.4,97 836.7,89.5 844.2,89.5 	"/>
	<polygon class="st1" points="840.3,2.8 844,10.1 836.5,10.1 	"/>
</g>
</svg>
