<?xml version="1.0" encoding="utf-8"?>
<!-- Generator: Adobe Illustrator 22.1.0, SVG Export Plug-In . SVG Version: 6.00 Build 0)  -->
<svg version="1.1" xmlns="http://www.w3.org/2000/svg" xmlns:xlink="http://www.w3.org/1999/xlink" x="0px" y="0px"
	 viewBox="0 0 202.2 129.8" style="enable-background:new 0 0 202.2 129.8;" xml:space="preserve">
<style type="text/css">
	.st0{fill:#73C3D5;}
	.st1{display:none;}
	.st2{display:inline;}
	.st3{clip-path:url(#SVGID_1_);fill:#73C3D5;}
	.st4{clip-path:url(#SVGID_2_);fill:#73C3D5;}
</style>
<g id="Layer_1">
	<g>
		<path class="st0" d="M46.8,78l46.3-18.5l3-1.2V55V17.5l5-5l5,5V55v3.2l3,1.2l46.2,18.7v0.5L112,70l-5.8-1.2v5.9v35.7v1.6l0.9,1.3
			l4.3,6H91l4.3-6l0.9-1.3v-1.6V75v-5.9l-5.8,1.1l-43.6,8.6V78z M101.2,5.7l-9.9,9.9V55L42,74.8v9.9L91.4,75v35.6l-9.8,13.6h39.3
			l-9.8-13.6V74.8l49.2,9.9V75L111,55V15.5L101.2,5.7z"/>
	</g>
</g>
<g id="Layer_2" class="st1">
	<g class="st2">
		<g>
			<defs>
				<rect id="SVGID_5_" x="-197.1" y="227.8" width="142.2" height="98.1"/>
			</defs>
			<clipPath id="SVGID_1_">
				<use xlink:href="#SVGID_5_"  style="overflow:visible;"/>
			</clipPath>
			<path class="st3" d="M-170,277.6c11.7,0,21.2,9.5,21.2,21.2s-9.5,21.2-21.2,21.2s-21.2-9.5-21.2-21.2S-181.7,277.6-170,277.6
				 M-170,271.8c-14.9,0-27.1,12.1-27.1,27.1c0,14.9,12.1,27.1,27.1,27.1c14.9,0,27.1-12.1,27.1-27.1
				C-143,283.9-155.1,271.8-170,271.8"/>
			<path class="st3" d="M-82.7,276c12.2,0,22.1,9.9,22.1,22.1c0,12.2-9.9,22.1-22.1,22.1s-22.1-9.9-22.1-22.1
				C-104.8,285.9-94.9,276-82.7,276 M-82.7,270.2c-15.4,0-27.9,12.5-27.9,27.9c0,15.4,12.5,27.9,27.9,27.9s27.9-12.5,27.9-27.9
				C-54.8,282.7-67.3,270.2-82.7,270.2"/>
			<polygon class="st3" points="-85,298.9 -104.4,233.7 -114.1,233.7 -114.1,227.8 -100.1,227.8 -79.4,297.2 			"/>
			<path class="st3" d="M-169.9,301l-2.5-4.6l32.2-43.5l2.3-1.2h42l2.4,4.6l-30.2,41.8l-2.2,1.2L-169.9,301z M-136.4,257.4
				l-27.7,37.5l36.6-1.5l26-36H-136.4z"/>
			
				<rect x="-136.6" y="241.6" transform="matrix(0.9612 -0.2757 0.2757 0.9612 -79.4829 -26.4078)" class="st3" width="5.8" height="55.8"/>
			<rect x="-149.7" y="239.7" class="st3" width="23.7" height="5.8"/>
		</g>
	</g>
	<g class="st2">
		<polygon class="st0" points="327.7,320.3 304,296.5 280.3,320.3 256.6,296.5 232.6,320.6 232.6,324.2 232.9,324.4 237,324.4 
			256.6,304.8 276.2,324.4 284.4,324.4 304,304.8 323.6,324.4 331.8,324.4 351.4,304.8 371,324.4 375.1,324.4 375.4,324.2 
			375.4,320.6 351.4,296.5 		"/>
		<polygon class="st0" points="252.4,274.9 277,324.4 280.3,324.4 282.9,323.1 260.8,278.8 304,267.9 347.2,278.8 325.1,323.1 
			327.7,324.4 330.9,324.4 355.6,274.9 304,261.9 		"/>
		<rect x="301.1" y="264.9" class="st0" width="5.8" height="35.7"/>
		<polygon class="st0" points="342.5,272.9 336.6,272.9 336.6,236.5 332.4,232.2 275.6,232.2 271.3,236.5 271.3,272.9 265.5,272.9 
			265.5,234.1 273.1,226.3 334.8,226.3 342.5,234.1 		"/>
		<g>
			<defs>
				<rect id="SVGID_7_" x="232.6" y="214.4" width="142.8" height="110"/>
			</defs>
			<clipPath id="SVGID_2_">
				<use xlink:href="#SVGID_7_"  style="overflow:visible;"/>
			</clipPath>
			<path class="st4" d="M295,229.3l-5.8,0c0-5.1,3.1-14.8,14.8-14.8c11.7,0,14.8,9.7,14.8,14.8h-5.8c0-1.5-0.5-9-8.9-9
				C295.3,220.3,295,228.3,295,229.3"/>
		</g>
	</g>
</g>
</svg>
