<?xml version="1.0" encoding="utf-8"?>
<!-- Generator: Adobe Illustrator 19.0.0, SVG Export Plug-In . SVG Version: 6.00 Build 0)  -->
<svg version="1.1" id="Layer_1" xmlns="http://www.w3.org/2000/svg" xmlns:xlink="http://www.w3.org/1999/xlink" x="0px" y="0px"
	 viewBox="0 0 48 48" style="enable-background:new 0 0 48 48;" xml:space="preserve">
<style type="text/css">
	.st0{fill:#8E9090;}
</style>
<rect id="XMLID_1_" width="48" height="48"/>
<g id="XMLID_28_">
	<path id="XMLID_42_" class="st0" d="M18.2,22.8l-2.4-5.1v5.1h-4V9.2H17c1.1,0,2,0.2,2.8,0.6c0.8,0.4,1.4,0.9,1.8,1.5
		c0.4,0.7,0.6,1.4,0.6,2.2c0,0.8-0.2,1.6-0.6,2.2c-0.4,0.7-1,1.2-1.7,1.5l3.1,5.5H18.2z M16.3,15.3c0.6,0,1-0.1,1.3-0.4
		c0.3-0.3,0.5-0.6,0.5-1.1c0-0.5-0.2-0.8-0.5-1.1c-0.3-0.3-0.8-0.4-1.3-0.4h-0.5v3H16.3z"/>
	<polygon id="XMLID_35_" class="st0" points="36.1,25.2 36.1,38.8 32.1,38.8 32.1,33.8 28.1,33.8 28.1,38.8 24,38.8 24,25.2 
		28.1,25.2 28.1,30 32.1,30 32.1,25.2 	"/>
</g>
</svg>
