<?xml version="1.0" encoding="utf-8"?>
<!-- Generator: Adobe Illustrator 19.0.0, SVG Export Plug-In . SVG Version: 6.00 Build 0)  -->
<svg version="1.1" id="Layer_1" xmlns="http://www.w3.org/2000/svg" xmlns:xlink="http://www.w3.org/1999/xlink" x="0px" y="0px"
	 viewBox="0 0 28.4 29.2" style="enable-background:new 0 0 28.4 29.2;" xml:space="preserve">
<style type="text/css">
	.st0{fill:#F5426C;}
</style>
<path class="st0" d="M0.5,14.5"/>
<path class="st0" d="M20.6,11.8c0,0.1,0,0.3,0,0.4c0,4.1-3,8.7-8.5,8.7c-1.7,0-3.3-0.5-4.6-1.4c0.2,0,0.5,0,0.7,0
	c1.4,0,2.7-0.5,3.7-1.3c-1.3,0-2.4-0.9-2.8-2.2c0.2,0,0.4,0.1,0.6,0.1c0.3,0,0.5,0,0.8-0.1c-1.4-0.3-2.4-1.5-2.4-3c0,0,0,0,0,0
	c0.4,0.2,0.9,0.4,1.3,0.4c-0.8-0.6-1.3-1.5-1.3-2.6c0-0.6,0.2-1.1,0.4-1.5c1.5,1.9,3.7,3.1,6.1,3.2c-0.1-0.2-0.1-0.5-0.1-0.7
	c0-1.7,1.4-3.1,3-3.1c0.9,0,1.6,0.4,2.2,1c0.7-0.1,1.3-0.4,1.9-0.7c-0.2,0.7-0.7,1.3-1.3,1.7c0.6-0.1,1.2-0.2,1.7-0.5
	C21.7,10.8,21.2,11.3,20.6,11.8 M14.2,0.5c-7.6,0-13.7,6.2-13.7,14c0,7.8,6,14.1,13.6,14.1c7.5,0,13.7-6.2,13.7-14
	C27.9,6.9,21.8,0.6,14.2,0.5"/>
</svg>
