<?xml version="1.0" encoding="utf-8"?>
<!-- Generator: Adobe Illustrator 19.0.0, SVG Export Plug-In . SVG Version: 6.00 Build 0)  -->
<svg version="1.1" id="Layer_1" xmlns="http://www.w3.org/2000/svg" xmlns:xlink="http://www.w3.org/1999/xlink" x="0px" y="0px"
	 viewBox="0 0 87.7 76.7" style="enable-background:new 0 0 87.7 76.7;" xml:space="preserve">
<style type="text/css">
	.st0{fill:#8E9090;}
</style>
<g id="XMLID_3_">
	<g id="XMLID_6_">
		<g id="XMLID_17_">
			<path id="XMLID_18_" class="st0" d="M82,70.6H5.7V48l16-26.6L43.9,6.1L66,21.5L82,48V70.6z M8.7,67.6H79V48.9L63.8,23.5L43.9,9.7
				L24,23.5L8.7,48.9V67.6z"/>
		</g>
		<g id="XMLID_15_">
			<polygon id="XMLID_16_" class="st0" points="20.6,69.1 17.7,69.1 17.7,48.1 29.5,21.7 42.8,6.9 45,8.9 32.1,23.3 20.6,48.8 			
				"/>
		</g>
		<g id="XMLID_13_">
			<polygon id="XMLID_14_" class="st0" points="70.1,69.1 67.1,69.1 67.1,48.8 55.7,23.3 42.8,8.9 45,6.9 58.2,21.7 70.1,48.1 			
				"/>
		</g>
		<g id="XMLID_9_">
			<rect id="XMLID_11_" x="42.4" y="7.9" class="st0" width="3" height="61.1"/>
		</g>
		<g id="XMLID_7_">
			<rect id="XMLID_8_" x="7.2" y="47" class="st0" width="73.3" height="3"/>
		</g>
	</g>
	<g id="XMLID_4_">
		<rect id="XMLID_5_" x="18.2" y="29.9" class="st0" width="51.2" height="3"/>
	</g>
</g>
</svg>
