<?xml version="1.0" encoding="utf-8"?>
<!-- Generator: Adobe Illustrator 22.1.0, SVG Export Plug-In . SVG Version: 6.00 Build 0)  -->
<svg version="1.1" id="Layer_1" xmlns="http://www.w3.org/2000/svg" xmlns:xlink="http://www.w3.org/1999/xlink" x="0px" y="0px"
	 viewBox="0 0 80 80" style="enable-background:new 0 0 80 80;" xml:space="preserve">
<style type="text/css">
	.st0{fill:#FFFFFF;}
</style>
<g>
	<g>
		<g>
			<g>
				<path class="st0" d="M78.1,72.2H1.9V49.7l16-26.6L40,7.8l22.1,15.3l16,26.6V72.2z M4.8,69.2h70.3V50.5L59.9,25.2L40,11.4
					L20.1,25.2L4.8,50.5V69.2z"/>
			</g>
			<g>
				<polygon class="st0" points="16.8,70.7 13.8,70.7 13.8,49.8 25.7,23.3 38.9,8.6 41.1,10.6 28.2,25 16.8,50.4 				"/>
			</g>
			<g>
				<polygon class="st0" points="66.2,70.7 63.2,70.7 63.2,50.4 51.8,25 38.9,10.6 41.1,8.6 54.3,23.3 66.2,49.8 				"/>
			</g>
			<g>
				<rect x="38.5" y="9.6" class="st0" width="3" height="61.1"/>
			</g>
			<g>
				<rect x="3.4" y="48.6" class="st0" width="73.3" height="3"/>
			</g>
		</g>
		<g>
			<rect x="14.4" y="31.5" class="st0" width="51.2" height="3"/>
		</g>
	</g>
</g>
</svg>
