<?xml version="1.0" encoding="utf-8"?>
<!-- Generator: Adobe Illustrator 19.0.0, SVG Export Plug-In . SVG Version: 6.00 Build 0)  -->
<svg version="1.1" id="Layer_1" xmlns="http://www.w3.org/2000/svg" xmlns:xlink="http://www.w3.org/1999/xlink" x="0px" y="0px"
	 viewBox="0 0 203.5 107.5" style="enable-background:new 0 0 203.5 107.5;" xml:space="preserve">
<style type="text/css">
	.st0{fill:#40B4E5;}
</style>
<path id="XMLID_29_" class="st0" d="M144.9,107.5c-2.8,0-5.9-0.3-9.3-1.1c-13.7-3.3-19.5-11.2-24.2-17.5
	c-4.2-5.7-7.5-10.2-16.2-12.2c-8.8-2.1-13.7,0.4-20,3.6c-7,3.6-15.8,8-29.5,4.7C32,81.6,26.2,73.7,21.5,67.4
	c-4.2-5.7-7.5-10.2-16.2-12.2c-3.7-0.9-6-4.6-5.1-8.3c0.9-3.7,4.6-6,8.3-5.1C22.2,44.9,28,52.8,32.7,59.2
	c4.2,5.7,7.5,10.1,16.2,12.2c8.8,2.1,13.7-0.4,20-3.6c7-3.6,15.8-8,29.5-4.7c13.7,3.3,19.5,11.2,24.2,17.5
	c4.2,5.7,7.5,10.1,16.2,12.2c8.8,2.1,13.7-0.4,20-3.6c7-3.6,15.8-8,29.5-4.7c3.7,0.9,6,4.6,5.1,8.3c-0.9,3.7-4.6,6-8.3,5.1
	c-8.8-2.1-13.7,0.4-20,3.6C159.8,104.3,153.5,107.5,144.9,107.5z"/>
<path id="XMLID_30_" class="st0" d="M154.8,66c-2.8,0-5.9-0.3-9.3-1.1c-13.7-3.3-19.5-11.2-24.2-17.5c-4.2-5.7-7.5-10.1-16.2-12.2
	c-8.8-2.1-13.7,0.4-20,3.6c-7,3.6-15.8,8-29.5,4.7c-13.7-3.3-19.5-11.2-24.2-17.5c-4.2-5.7-7.5-10.2-16.2-12.2
	c-3.7-0.9-6-4.6-5.1-8.3c0.9-3.7,4.6-6,8.3-5.1c13.7,3.3,19.5,11.2,24.2,17.5c4.2,5.7,7.5,10.1,16.2,12.2c8.8,2.1,13.7-0.4,20-3.6
	c7-3.6,15.8-8,29.5-4.7c13.7,3.3,19.5,11.2,24.2,17.5c4.2,5.7,7.5,10.1,16.2,12.2c8.8,2.1,13.7-0.4,20-3.6c7-3.6,15.8-8,29.5-4.7
	c3.7,0.9,6,4.6,5.1,8.3c-0.9,3.7-4.6,6-8.3,5.1c-8.8-2.1-13.7,0.4-20,3.6C169.7,62.9,163.4,66,154.8,66z"/>
</svg>
