<?xml version="1.0" encoding="utf-8"?>
<!-- Generator: Adobe Illustrator 19.0.0, SVG Export Plug-In . SVG Version: 6.00 Build 0)  -->
<svg version="1.1" id="Layer_1" xmlns="http://www.w3.org/2000/svg" xmlns:xlink="http://www.w3.org/1999/xlink" x="0px" y="0px"
	 viewBox="0 0 156 287.9" style="enable-background:new 0 0 156 287.9;" xml:space="preserve">
<style type="text/css">
	.st0{fill:#F5426C;}
	.st1{fill:#8C189B;}
	.st2{fill:#00BCB4;}
	.st3{fill:#FEEB17;}
	.st4{fill:#40B4E5;}
</style>
<path id="XMLID_9_" class="st0" d="M36.2,239.6c-0.9,0-1.9-0.2-2.7-0.7L2.7,221.2c-2.6-1.5-3.5-4.8-2-7.4s4.8-3.5,7.4-2l26,15l15-26
	c0.7-1.2,1.9-2.2,3.3-2.5c1.4-0.4,2.9-0.2,4.1,0.5l26,15l15-26c0.7-1.2,1.9-2.2,3.3-2.5c1.4-0.4,2.9-0.2,4.1,0.5l30.7,17.7
	c2.6,1.5,3.5,4.8,2,7.4c-1.5,2.6-4.8,3.5-7.4,2l-26-15l-15,26c-0.7,1.2-1.9,2.2-3.3,2.5c-1.4,0.4-2.9,0.2-4.1-0.5l-26-15l-15,26
	c-0.7,1.2-1.9,2.2-3.3,2.5C37.1,239.6,36.6,239.6,36.2,239.6z"/>
<path id="XMLID_8_" class="st0" d="M49.2,287.9c-0.9,0-1.8-0.2-2.7-0.7l-30.7-17.7c-2.6-1.5-3.5-4.8-2-7.4c1.5-2.6,4.8-3.5,7.4-2
	l26,15l15-26c0.7-1.2,1.9-2.2,3.3-2.5c1.4-0.4,2.9-0.2,4.1,0.5l26,15l15-26c0.7-1.2,1.9-2.2,3.3-2.5c1.4-0.4,2.9-0.2,4.1,0.5
	l30.7,17.7c2.6,1.5,3.5,4.8,2,7.4c-1.5,2.6-4.8,3.5-7.4,2l-26-15l-15,26c-0.7,1.2-1.9,2.2-3.3,2.5c-1.4,0.4-2.9,0.2-4.1-0.5l-26-15
	l-15,26C52.9,286.9,51,287.9,49.2,287.9z"/>
<path id="XMLID_7_" class="st0" d="M46.6,123.5c-0.7,0-1.5-0.2-2.2-0.5c-2.7-1.2-3.9-4.4-2.6-7c0.5-1.1,1-2.2,1.4-3.2
	c4.3-9.9,9.2-21,24.2-25.5c15-4.5,25.2,2.2,34.2,8.1c8.1,5.3,15.1,9.9,25.4,6.8c10.3-3.1,13.7-10.7,17.5-19.6c0.4-1,0.8-1.9,1.3-2.9
	c1.2-2.7,4.3-3.9,7-2.7c2.7,1.2,3.9,4.3,2.7,7c-0.4,0.9-0.8,1.9-1.2,2.8c-4.3,9.9-9.2,21-24.2,25.5c-15,4.5-25.2-2.2-34.2-8.1
	c-8.1-5.3-15.1-9.9-25.4-6.8C60.2,100.5,56.8,108.2,53,117c-0.5,1.1-1,2.3-1.5,3.4C50.6,122.4,48.6,123.5,46.6,123.5z"/>
<path id="XMLID_6_" class="st0" d="M112.2,32.1c-1.4,0-2.8-0.5-3.8-1.6c-2-2.1-2-5.5,0.1-7.5l3.4-3.3l-3.6-3.1
	c-1.1-1-1.8-2.4-1.8-3.9c0-1.5,0.5-2.9,1.6-4l7.5-7.3c2.1-2,5.5-2,7.5,0.1c2,2.1,2,5.5-0.1,7.5l-3.4,3.3l3.6,3.1
	c1.1,1,1.8,2.4,1.8,3.9c0,1.5-0.5,2.9-1.6,4l-7.5,7.3C114.8,31.6,113.5,32.1,112.2,32.1z"/>
<path id="XMLID_5_" class="st1" d="M95.4,131.8c-0.3,0-0.7,0-1-0.1c-2.9-0.5-4.8-3.3-4.2-6.2l9.2-48.7c0.5-2.9,3.3-4.8,6.2-4.2
	c2.9,0.5,4.8,3.3,4.2,6.2l-9.2,48.7C100.2,130.1,97.9,131.8,95.4,131.8z"/>
<path id="XMLID_4_" class="st2" d="M103.8,167.7c-0.9,0-1.8-0.2-2.6-0.7c-2.5-1.5-3.4-4.7-2-7.2l12.7-22.2l-17.2-5.5l-43.2,21.9
	c-2.6,1.3-5.8,0.3-7.1-2.3c-1.3-2.6-0.3-5.8,2.3-7.1l45.1-22.9c1.2-0.6,2.7-0.7,4-0.3l25.6,8.1c1.5,0.5,2.8,1.6,3.3,3.1
	c0.6,1.5,0.5,3.2-0.3,4.6l-15.9,27.9C107.4,166.8,105.7,167.7,103.8,167.7z"/>
<path id="XMLID_3_" class="st3" d="M109.1,183c-3,0-5.9-1.1-8.3-3c-2.6-2.2-4.3-5.3-4.6-8.8c-0.6-7.1,4.7-13.4,11.7-14l9.4-0.8
	c3.4-0.3,6.8,0.8,9.4,3c2.6,2.2,4.3,5.3,4.6,8.8c0.6,7.1-4.7,13.4-11.7,14h0l-9.4,0.8C109.8,183,109.4,183,109.1,183z M118.5,167
	c-0.1,0-0.1,0-0.2,0l-9.4,0.8c-1.2,0.1-2.2,1.2-2.1,2.5c0.1,0.8,0.5,1.3,0.8,1.5c0.3,0.2,0.9,0.6,1.7,0.5l9.4-0.8c0,0,0,0,0,0
	c1.2-0.1,2.2-1.2,2.1-2.5c-0.1-0.8-0.5-1.3-0.8-1.5C119.7,167.3,119.2,167,118.5,167z"/>
<path id="XMLID_2_" class="st3" d="M51.2,179.8c-0.3,0-0.7,0-1,0c-3.5-0.3-6.6-1.9-8.9-4.5c-2.3-2.7-3.4-6-3.1-9.5l0.8-9.6
	c0.6-7.2,6.9-12.5,14-12c7.2,0.6,12.5,6.9,12,14l-0.8,9.6c-0.3,3.5-1.9,6.6-4.5,8.9C57.2,178.7,54.3,179.8,51.2,179.8z M51.9,154.7
	c-1.2,0-2.3,1-2.4,2.2l-0.8,9.6v0c-0.1,0.9,0.3,1.5,0.6,1.8c0.2,0.3,0.8,0.8,1.6,0.8c1.3,0.1,2.5-0.9,2.6-2.2l0.8-9.6
	c0.1-1.3-0.9-2.5-2.2-2.6C52,154.7,52,154.7,51.9,154.7z"/>
<path id="XMLID_11_" class="st4" d="M110.1,83.4c-1.9,0-3.9-0.2-5.8-0.6C88.3,79.6,77.9,64,81.1,48c1.5-7.7,6-14.4,12.6-18.8
	c6.6-4.4,14.4-5.9,22.2-4.4c7.7,1.5,14.4,6,18.8,12.6c4.4,6.6,5.9,14.4,4.4,22.2c0,0,0,0,0,0C136.3,73.7,123.9,83.4,110.1,83.4z
	 M110.1,34.9c-3.7,0-7.3,1.1-10.5,3.2c-4.2,2.8-7.1,7.1-8.1,12c-2,10.2,4.6,20.2,14.8,22.3c10.2,2,20.2-4.6,22.3-14.8v0
	c1-5,0-10-2.8-14.2c-2.8-4.2-7.1-7.1-12-8.1C112.6,35,111.3,34.9,110.1,34.9z"/>
</svg>
