<?xml version="1.0" encoding="utf-8"?>
<!-- Generator: Adobe Illustrator 22.1.0, SVG Export Plug-In . SVG Version: 6.00 Build 0)  -->
<svg version="1.1" id="Layer_1" xmlns="http://www.w3.org/2000/svg" xmlns:xlink="http://www.w3.org/1999/xlink" x="0px" y="0px"
	 viewBox="0 0 360.3 494.6" style="enable-background:new 0 0 360.3 494.6;" xml:space="preserve">
<style type="text/css">
	.st0{fill:#FF5233;}
</style>
<g>
	<g>
		<path class="st0" d="M98.3,403.7v5.5l-78.4,28l-1.9-5.4l70.8-25.3l-86.9-31l1.9-5.4L98.3,403.7z M98.3,455.4v5.5L3.9,494.6
			l-1.9-5.5l86.9-31l-46.6-16.5l1.9-5.5L98.3,455.4z"/>
		<path class="st0" d="M96.4,325.6c-2.5,6.1-6.2,11.4-10.9,16c-4.5,4.5-9.9,8.3-15.8,10.7c-6.2,2.6-12.8,4-19.6,4s-13.4-1.4-19.6-4
			c-5.9-2.5-11.3-6.2-16-10.7c-4.5-4.5-8.1-9.9-10.6-16c-2.6-6.2-4-12.7-4-19.4c0-6.9,1.4-13.4,4-19.6c2.5-6.1,6.1-11.4,10.6-16
			c4.7-4.5,10.1-8.3,16-10.7c6.2-2.6,12.8-4,19.6-4s13.4,1.4,19.6,4c5.9,2.5,11.3,6.2,15.8,10.7c4.7,4.5,8.4,9.9,10.9,16
			c2.6,6.2,3.7,12.7,3.7,19.6C100.1,312.9,99,319.4,96.4,325.6z M18.7,337.5c8.4,8.4,19.6,12.9,31.4,12.9s23-4.5,31.4-12.9
			c8.3-8.3,12.9-19.4,12.9-31.3c0-12-4.7-23.1-12.9-31.4c-8.4-8.4-19.6-12.9-31.4-12.9s-23,4.5-31.4,12.9
			c-8.4,8.3-12.9,19.4-12.9,31.4C5.8,318,10.3,329.2,18.7,337.5z"/>
		<path class="st0" d="M29.5,168.2c8.5,0,16.4,3.7,21.5,10.1l-4.5,3.7c-4-5.1-10.2-8-16.9-8c-5.9,0-11.3,2.2-15.3,6.3
			c-4.3,4.3-6.5,10.3-6.5,17.2v26.9h90.6v5.8H1.9v-32.6c0-4.3,0.7-8.3,2.2-12c1.4-3.6,3.3-6.6,5.9-9.4
			C15.2,171.1,22,168.2,29.5,168.2z M51.7,189.9l44.1-22.3l2.6,5.1l-40.9,20.8v22.3h-5.8V189.9z"/>
		<path class="st0" d="M98.3,135.8v5.8H1.9v-5.8H98.3z M98.3,80.9L50,129.1L16.9,92.4l4.4-3.9l28.9,32.2l43.9-44.1L98.3,80.9z"/>
		<path class="st0" d="M90.9,53.7c-6.2,5.8-14.6,9.2-24,9.2V57c7.9,0,15-2.6,20-7.4c5-4.7,7.6-11,7.6-17.9c0-4.4-0.7-8.4-1.9-12
			c-1.2-3.3-3-6.2-5.2-8.4c-3.9-3.7-9.1-5.4-15-5.4h-0.1c-6.6,0-11.7,2.8-15.4,8.7c-3.3,5.2-4.7,11.3-5.6,15.4
			c-0.1,0.6-0.3,1.1-0.4,1.5c-2.1,8.3-4.7,14.3-8,18.9c-4.4,5.8-9.9,9.1-16.8,9.2c-7,0.3-13.1-2.1-17.6-6.6
			c-2.8-2.6-4.8-5.9-6.2-9.8C0.7,39.5,0,35.3,0,30.6v-0.1c0-7.7,3-14.9,8.5-20.2c5.6-5.4,13.5-8.3,22-8.3v5.8c-7,0-13.5,2.3-18,6.7
			c-4.4,4.1-6.8,9.9-6.8,16v0.1c0,7.7,2.3,14.3,6.5,18.3c3.4,3.3,8.1,5.1,13.5,5c5-0.1,9.1-2.3,12.4-6.9c2.8-3.9,4.8-9.2,6.9-16.8
			c0.1-0.4,0.3-1,0.4-1.5c1-4.1,2.6-11.2,6.5-17.2c2.1-3.3,4.7-6.1,7.9-8C63.4,1.2,67.5,0,72.2,0c7.6-0.1,14.2,2.3,19.1,7.2
			c2.9,2.9,5.4,6.3,6.7,10.6c1.4,4.1,2.1,8.8,2.1,13.9C100.1,40.2,97,47.9,90.9,53.7z"/>
	</g>
	<g>
		<g>
			<path class="st0" d="M176.3,451.2L132.9,429l2.6-5.2l43.5,22.3L176.3,451.2z M136.1,494.6l-3.2-4.8l58.1-37.2l38.3,19.8l-2.6,5.2
				l-35.4-18.3L136.1,494.6z"/>
			<path class="st0" d="M227.4,385c-2.5,6.1-6.2,11.4-10.9,16c-4.5,4.5-9.9,8.3-15.8,10.7c-6.2,2.6-12.8,4-19.6,4
				c-6.7,0-13.4-1.4-19.6-4c-5.9-2.5-11.3-6.2-16-10.7c-4.5-4.5-8.1-9.9-10.6-16c-2.6-6.2-4-12.7-4-19.4c0-6.9,1.4-13.4,4-19.6
				c2.5-6.1,6.1-11.4,10.6-16c4.7-4.5,10.1-8.3,16-10.7c6.2-2.6,12.8-4,19.6-4c6.7,0,13.4,1.4,19.6,4c5.9,2.5,11.3,6.2,15.8,10.7
				c4.7,4.5,8.4,9.9,10.9,16c2.6,6.2,3.7,12.7,3.7,19.6C231.1,372.3,230,378.8,227.4,385z M149.7,396.8c8.4,8.4,19.6,12.9,31.4,12.9
				c11.8,0,23-4.5,31.4-12.9c8.3-8.3,12.9-19.4,12.9-31.3c0-12-4.7-23.1-12.9-31.4c-8.4-8.4-19.6-12.9-31.4-12.9
				c-11.8,0-23,4.5-31.4,12.9c-8.4,8.3-12.9,19.4-12.9,31.4C136.8,377.4,141.3,388.6,149.7,396.8z"/>
			<path class="st0" d="M222.5,281.1c-2.9,2.9-6.3,5.1-10.2,6.6c-4.1,1.5-8.5,2.3-13.2,2.3h-66.1v-5.8H199c7.7,0,14.3-2.6,19.3-7.3
				c4.5-4.5,7.2-10.6,7.2-17.2c0-6.7-2.5-12.9-7.2-17.5c-4.8-4.8-11.6-7.3-19.3-7.3h-66.1v-5.8H199c4.7,0,9.1,0.8,13.2,2.5
				c3.9,1.5,7.3,3.7,10.2,6.6c5.6,5.5,8.7,13.2,8.7,21.5C231.1,268,228.1,275.6,222.5,281.1z"/>
			<path class="st0" d="M160.5,140.1c8.5,0,16.4,3.7,21.5,10.1l-4.5,3.7c-4-5.1-10.2-8-16.9-8c-5.9,0-11.3,2.2-15.3,6.3
				c-4.3,4.3-6.5,10.3-6.5,17.2v26.9h90.6v5.8h-96.4v-32.6c0-4.3,0.7-8.3,2.2-12c1.4-3.6,3.3-6.6,5.9-9.4
				C146.1,143,153,140.1,160.5,140.1z M182.6,161.8l44.1-22.3l2.6,5.1l-40.9,20.8v22.3h-5.8V161.8z"/>
		</g>
		<g>
			<path class="st0" d="M360.3,403.7v5.5l-78.4,28l-1.9-5.4l70.8-25.3l-86.9-31l1.9-5.4L360.3,403.7z M360.3,455.4v5.5l-94.5,33.7
				l-1.9-5.5l86.9-31l-46.6-16.5l1.9-5.5L360.3,455.4z"/>
			<path class="st0" d="M263.9,341.7v-6.1l94.6-32l1.8,5.5L273,338.7l40.1,13.5l-1.9,5.5L263.9,341.7z M358.5,373.7l-35.5-12
				l0.1-27.5h5.6v23.4l31.5,10.6L358.5,373.7z"/>
			<path class="st0" d="M307.3,253.2L263.9,231l2.6-5.2l43.5,22.3L307.3,253.2z M267.1,296.5l-3.2-4.8l58.1-37.2l38.3,19.8l-2.6,5.2
				l-35.4-18.3L267.1,296.5z"/>
		</g>
	</g>
</g>
</svg>
