<svg version="1.1" id="Layer_1" xmlns="http://www.w3.org/2000/svg" xmlns:xlink="http://www.w3.org/1999/xlink" x="0" y="0" viewBox="0 0 1003.6 728.1" xml:space="preserve" enable-background="new 0 0 1003.6 728.1"><style type="text/css">.st0{clip-path:url(#SVGID_1_)}.st1{fill:#8e9090}.st2{clip-path:url(#SVGID_2_)}.st3{clip-path:url(#SVGID_3_)}.st4{clip-path:url(#SVGID_4_)}.st5{clip-path:url(#SVGID_5_)}</style><g><defs><rect id="SVGID_11_" x="-283.1" y="-308.7" width="1286.8" height="1036.8"/></defs><clipPath id="SVGID_1_"><use xlink:href="#SVGID_11_" overflow="visible"/></clipPath><g class="st0"><g><path id="XMLID_15_" class="st1" d="M323.3,401.9c0.8,3.4,1.7,6.7,2.4,10.1c19.2,81.8,26.2,168.1,13.1,250.7 c57.7-42.3,117.7-81.7,179.2-118.8C461.5,486.2,395.3,438.4,323.3,401.9z"/></g><g><defs><path id="SVGID_13_" d="M118.1,851.3c68.5-69,142.6-131.4,220.8-188.6c13-82.6,6.1-168.9-13.1-250.7c-0.8-3.4-1.6-6.7-2.4-10.1 c-3.1-1.5-6.1-3.1-9.2-4.6C162.4,526,26.7,673.8-90.1,835.4c43.3,34.3,89.8,65,138.5,91.4C70.8,900.7,94,875.5,118.1,851.3z"/></defs><clipPath id="SVGID_2_"><use xlink:href="#SVGID_13_" overflow="visible"/></clipPath><g class="st2"><g><line class="st1" x1="6.6" y1="421.7" x2="432.3" y2="708.5"/><rect x="-37.2" y="554.1" transform="matrix(0.8293 0.5588 -0.5588 0.8293 353.2199 -26.1451)" class="st1" width="513.3" height="22"/></g><g><line class="st1" x1="-45.6" y1="499.1" x2="380.1" y2="785.9"/><rect x="-89.4" y="631.5" transform="matrix(0.8293 0.5588 -0.5588 0.8293 387.5676 16.2056)" class="st1" width="513.3" height="22"/></g><g><line class="st1" x1="32.6" y1="383" x2="458.3" y2="669.8"/><rect x="-11.2" y="515.4" transform="matrix(0.8293 0.5588 -0.5588 0.8293 336.0456 -47.3203)" class="st1" width="513.3" height="22"/></g><g><line class="st1" x1="-19.5" y1="460.4" x2="406.2" y2="747.2"/><rect x="-63.3" y="592.8" transform="matrix(0.8293 0.5588 -0.5588 0.8293 370.3939 -4.9698)" class="st1" width="513.3" height="22"/></g><g><line class="st1" x1="-71.7" y1="537.8" x2="354" y2="824.6"/><rect x="-115.5" y="670.2" transform="matrix(0.8293 0.5588 -0.5588 0.8293 404.7421 37.3808)" class="st1" width="513.3" height="22"/></g><g><line class="st1" x1="110.9" y1="266.9" x2="536.6" y2="553.7"/><rect x="67.1" y="399.3" transform="matrix(0.8293 0.5588 -0.5588 0.8293 284.5235 -110.8463)" class="st1" width="513.3" height="22"/></g><g><line class="st1" x1="58.7" y1="344.3" x2="484.4" y2="631.1"/><rect x="14.9" y="476.7" transform="matrix(0.8293 0.5588 -0.5588 0.8293 318.8712 -68.4956)" class="st1" width="513.3" height="22"/></g><g><line class="st1" x1="136.9" y1="228.2" x2="562.6" y2="515"/><rect x="93.1" y="360.6" transform="matrix(0.8293 0.5588 -0.5588 0.8293 267.3492 -132.0215)" class="st1" width="513.3" height="22"/></g><g><line class="st1" x1="84.8" y1="305.6" x2="510.5" y2="592.4"/><rect x="41" y="438" transform="matrix(0.8293 0.5588 -0.5588 0.8293 301.6974 -89.6709)" class="st1" width="513.3" height="22"/></g><g><line class="st1" x1="-97.7" y1="576.5" x2="328" y2="863.3"/><rect x="-141.5" y="708.9" transform="matrix(0.8293 0.5588 -0.5588 0.8293 421.9164 58.5561)" class="st1" width="513.3" height="22"/></g><g><line class="st1" x1="-123.8" y1="615.2" x2="301.9" y2="902"/><rect x="-167.6" y="747.6" transform="matrix(0.8293 0.5588 -0.5588 0.8293 439.0903 79.7314)" class="st1" width="513.3" height="22"/></g><g><line class="st1" x1="-149.9" y1="653.9" x2="275.8" y2="940.7"/><rect x="-193.7" y="786.3" transform="matrix(0.8293 0.5588 -0.5588 0.8293 456.2643 100.9068)" class="st1" width="513.3" height="22"/></g><g><line class="st1" x1="-176" y1="692.6" x2="249.7" y2="979.4"/><rect x="-219.8" y="825" transform="matrix(0.8293 0.5588 -0.5588 0.8293 473.438 122.082)" class="st1" width="513.3" height="22"/></g><g><line class="st1" x1="-202" y1="731.3" x2="223.7" y2="1018.1"/><rect x="-245.8" y="863.7" transform="matrix(0.8293 0.5588 -0.5588 0.8293 490.6125 143.2574)" class="st1" width="513.3" height="22"/></g><g><line class="st1" x1="-228.1" y1="770" x2="197.6" y2="1056.8"/><rect x="-271.9" y="902.4" transform="matrix(0.8293 0.5588 -0.5588 0.8293 507.7868 164.4326)" class="st1" width="513.3" height="22"/></g><g><line class="st1" x1="-254.2" y1="808.7" x2="171.5" y2="1095.5"/><rect x="-298" y="941.1" transform="matrix(0.8293 0.5588 -0.5588 0.8293 524.9608 185.608)" class="st1" width="513.3" height="22"/></g></g></g><g><defs><path id="SVGID_15_" d="M931.1,329.7c-53.6-80-113.6-155.6-179.3-226c-2.7,1.4-5.4,2.8-8.2,4.2c-13.3,6.9-26.5,13.9-39.6,21.1 c21.2,91.3,50.6,180.7,87.6,266.8C837.9,373.1,884.5,351.1,931.1,329.7z"/></defs><clipPath id="SVGID_3_"><use xlink:href="#SVGID_15_" overflow="visible"/></clipPath><g class="st3"><g><line class="st1" x1="454.6" y1="187.9" x2="915.8" y2="-37.3"/><rect x="428.5" y="73.9" transform="matrix(0.8986 -0.4388 0.4388 0.8986 36.4518 308.3154)" class="st1" width="513.3" height="2.7"/></g><g><line class="st1" x1="510.9" y1="303.2" x2="972.1" y2="78"/><rect x="484.8" y="189.2" transform="matrix(0.8986 -0.4388 0.4388 0.8986 -8.4386 344.7227)" class="st1" width="513.3" height="2.7"/></g><g><line class="st1" x1="459.7" y1="198.4" x2="920.9" y2="-26.8"/><rect x="433.6" y="84.4" transform="matrix(0.8986 -0.4388 0.4388 0.8986 32.3708 311.625)" class="st1" width="513.3" height="2.7"/></g><g><line class="st1" x1="516" y1="313.7" x2="977.2" y2="88.5"/><rect x="490" y="199.7" transform="matrix(0.8986 -0.4388 0.4388 0.8986 -12.5195 348.0328)" class="st1" width="513.3" height="2.7"/></g><g><line class="st1" x1="413.6" y1="104.1" x2="874.9" y2="-121.2"/><rect x="387.6" y="-9.9" transform="matrix(0.8986 -0.4388 0.4388 0.8986 69.0991 281.8368)" class="st1" width="513.3" height="2.7"/></g><g><line class="st1" x1="464.8" y1="208.9" x2="926" y2="-16.4"/><rect x="438.8" y="94.9" transform="matrix(0.8986 -0.4388 0.4388 0.8986 28.29 314.9353)" class="st1" width="513.3" height="2.7"/></g><g><line class="st1" x1="521.1" y1="324.2" x2="982.4" y2="99"/><rect x="495.1" y="210.2" transform="matrix(0.8986 -0.4388 0.4388 0.8986 -16.6004 351.343)" class="st1" width="513.3" height="2.7"/></g><g><line class="st1" x1="418.7" y1="114.6" x2="880" y2="-110.7"/><rect x="392.7" y=".6" transform="matrix(0.8986 -0.4388 0.4388 0.8986 65.0182 285.1464)" class="st1" width="513.3" height="2.7"/></g><g><line class="st1" x1="469.9" y1="219.4" x2="931.2" y2="-5.9"/><rect x="443.9" y="105.4" transform="matrix(0.8986 -0.4388 0.4388 0.8986 24.2089 318.2445)" class="st1" width="513.3" height="2.7"/></g><g><line class="st1" x1="526.2" y1="334.7" x2="987.5" y2="109.4"/><rect x="500.2" y="220.7" transform="matrix(0.8986 -0.4388 0.4388 0.8986 -20.6813 354.6526)" class="st1" width="513.3" height="2.7"/></g><g><line class="st1" x1="423.8" y1="125" x2="885.1" y2="-100.2"/><rect x="397.8" y="11" transform="matrix(0.8986 -0.4388 0.4388 0.8986 60.9375 288.4568)" class="st1" width="513.3" height="2.7"/></g><g><line class="st1" x1="475" y1="229.9" x2="936.3" y2="4.6"/><rect x="449" y="115.9" transform="matrix(0.8986 -0.4388 0.4388 0.8986 20.1279 321.5544)" class="st1" width="513.3" height="2.7"/></g><g><line class="st1" x1="531.4" y1="345.2" x2="992.6" y2="119.9"/><rect x="505.3" y="231.2" transform="matrix(0.8986 -0.4388 0.4388 0.8986 -24.7623 357.9622)" class="st1" width="513.3" height="2.7"/></g><g><line class="st1" x1="429" y1="135.5" x2="890.2" y2="-89.7"/><rect x="402.9" y="21.5" transform="matrix(0.8986 -0.4388 0.4388 0.8986 56.8563 291.7661)" class="st1" width="513.3" height="2.7"/></g><g><line class="st1" x1="480.2" y1="240.3" x2="941.4" y2="15.1"/><rect x="454.1" y="126.3" transform="matrix(0.8986 -0.4388 0.4388 0.8986 16.0471 324.8645)" class="st1" width="513.3" height="2.7"/></g><g><line class="st1" x1="536.5" y1="355.7" x2="997.7" y2="130.4"/><rect x="510.4" y="241.7" transform="matrix(0.8986 -0.4388 0.4388 0.8986 -28.8432 361.2717)" class="st1" width="513.3" height="2.7"/></g><g><line class="st1" x1="434.1" y1="146" x2="895.3" y2="-79.3"/><rect x="408.1" y="32" transform="matrix(0.8986 -0.4388 0.4388 0.8986 52.7754 295.076)" class="st1" width="513.3" height="2.7"/></g><g><line class="st1" x1="485.3" y1="250.8" x2="946.5" y2="25.6"/><rect x="459.2" y="136.8" transform="matrix(0.8986 -0.4388 0.4388 0.8986 11.9661 328.1741)" class="st1" width="513.3" height="2.7"/></g><g><line class="st1" x1="541.6" y1="366.1" x2="1002.8" y2="140.9"/><rect x="515.6" y="252.1" transform="matrix(0.8986 -0.4388 0.4388 0.8986 -32.924 364.5823)" class="st1" width="513.3" height="2.7"/></g><g><line class="st1" x1="439.2" y1="156.5" x2="900.5" y2="-68.8"/><rect x="413.2" y="42.5" transform="matrix(0.8986 -0.4388 0.4388 0.8986 48.6946 298.386)" class="st1" width="513.3" height="2.7"/></g><g><line class="st1" x1="490.4" y1="261.3" x2="951.6" y2="36.1"/><rect x="464.4" y="147.3" transform="matrix(0.8986 -0.4388 0.4388 0.8986 7.8852 331.4837)" class="st1" width="513.3" height="2.7"/></g><g><line class="st1" x1="546.7" y1="376.6" x2="1008" y2="151.4"/><rect x="520.7" y="262.6" transform="matrix(0.8986 -0.4388 0.4388 0.8986 -37.005 367.8921)" class="st1" width="513.3" height="2.7"/></g><g><line class="st1" x1="444.3" y1="167" x2="905.6" y2="-58.3"/><rect x="418.3" y="53" transform="matrix(0.8986 -0.4388 0.4388 0.8986 44.6137 301.6958)" class="st1" width="513.3" height="2.7"/></g><g><line class="st1" x1="495.5" y1="271.8" x2="956.8" y2="46.5"/><rect x="469.5" y="157.8" transform="matrix(0.8986 -0.4388 0.4388 0.8986 3.8042 334.7933)" class="st1" width="513.3" height="2.7"/></g><g><line class="st1" x1="551.8" y1="387.1" x2="1013.1" y2="161.9"/><rect x="525.8" y="273.1" transform="matrix(0.8986 -0.4388 0.4388 0.8986 -41.0861 371.2011)" class="st1" width="513.3" height="2.7"/></g><g><line class="st1" x1="449.4" y1="177.4" x2="910.7" y2="-47.8"/><rect x="423.4" y="63.4" transform="matrix(0.8986 -0.4388 0.4388 0.8986 40.5327 305.0055)" class="st1" width="513.3" height="2.7"/></g><g><line class="st1" x1="500.6" y1="282.3" x2="961.9" y2="57"/><rect x="474.6" y="168.3" transform="matrix(0.8986 -0.4388 0.4388 0.8986 -0.2767 338.1035)" class="st1" width="513.3" height="2.7"/></g><g><line class="st1" x1="556.9" y1="397.6" x2="1018.2" y2="172.3"/><rect x="530.9" y="283.6" transform="matrix(0.8986 -0.4388 0.4388 0.8986 -45.1669 374.5112)" class="st1" width="513.3" height="2.7"/></g><g><line class="st1" x1="505.8" y1="292.8" x2="967" y2="67.5"/><rect x="479.7" y="178.8" transform="matrix(0.8986 -0.4388 0.4388 0.8986 -4.3576 341.4136)" class="st1" width="513.3" height="2.7"/></g><g><line class="st1" x1="562.1" y1="408.1" x2="1023.3" y2="182.8"/><rect x="536" y="294.1" transform="matrix(0.8986 -0.4388 0.4388 0.8986 -49.2478 377.8213)" class="st1" width="513.3" height="2.7"/></g><g><line class="st1" x1="567.2" y1="418.6" x2="1028.4" y2="193.3"/><rect x="541.2" y="304.6" transform="matrix(0.8986 -0.4388 0.4388 0.8986 -53.3287 381.1314)" class="st1" width="513.3" height="2.7"/></g><g><line class="st1" x1="572.3" y1="429" x2="1033.6" y2="203.8"/><rect x="546.3" y="315" transform="matrix(0.8986 -0.4388 0.4388 0.8986 -57.4098 384.4406)" class="st1" width="513.3" height="2.7"/></g><g><line class="st1" x1="577.4" y1="439.5" x2="1038.7" y2="214.3"/><rect x="551.4" y="325.5" transform="matrix(0.8986 -0.4388 0.4388 0.8986 -61.4907 387.7501)" class="st1" width="513.3" height="2.7"/></g><g><line class="st1" x1="582.5" y1="450" x2="1043.8" y2="224.7"/><rect x="556.5" y="336" transform="matrix(0.8986 -0.4388 0.4388 0.8986 -65.5715 391.0609)" class="st1" width="513.3" height="2.7"/></g><g><line class="st1" x1="587.7" y1="460.5" x2="1048.9" y2="235.2"/><rect x="561.6" y="346.5" transform="matrix(0.8986 -0.4388 0.4388 0.8986 -69.6524 394.3703)" class="st1" width="513.3" height="2.7"/></g><g><line class="st1" x1="592.8" y1="471" x2="1054" y2="245.7"/><rect x="566.8" y="357" transform="matrix(0.8986 -0.4388 0.4388 0.8986 -73.7335 397.6796)" class="st1" width="513.3" height="2.7"/></g><g><line class="st1" x1="597.9" y1="481.5" x2="1059.2" y2="256.2"/><rect x="571.9" y="367.5" transform="matrix(0.8986 -0.4388 0.4388 0.8986 -77.8144 400.9897)" class="st1" width="513.3" height="2.7"/></g><g><line class="st1" x1="603" y1="491.9" x2="1064.3" y2="266.7"/><rect x="577" y="377.9" transform="matrix(0.8986 -0.4388 0.4388 0.8986 -81.8953 404.2998)" class="st1" width="513.3" height="2.7"/></g><g><line class="st1" x1="608.1" y1="502.4" x2="1069.4" y2="277.2"/><rect x="582.1" y="388.4" transform="matrix(0.8986 -0.4388 0.4388 0.8986 -85.9762 407.6099)" class="st1" width="513.3" height="2.7"/></g><g><line class="st1" x1="613.3" y1="512.9" x2="1074.5" y2="287.6"/><rect x="587.2" y="398.9" transform="matrix(0.8986 -0.4388 0.4388 0.8986 -90.0571 410.9189)" class="st1" width="513.3" height="2.7"/></g><g><line class="st1" x1="618.4" y1="523.4" x2="1079.6" y2="298.1"/><rect x="592.4" y="409.4" transform="matrix(0.8986 -0.4388 0.4388 0.8986 -94.1381 414.2285)" class="st1" width="513.3" height="2.7"/></g><g><line class="st1" x1="623.5" y1="533.9" x2="1084.8" y2="308.6"/><rect x="597.5" y="419.9" transform="matrix(0.8986 -0.4388 0.4388 0.8986 -98.219 417.5393)" class="st1" width="513.3" height="2.7"/></g><g><line class="st1" x1="628.6" y1="544.4" x2="1089.9" y2="319.1"/><rect x="602.6" y="430.4" transform="matrix(0.8986 -0.4388 0.4388 0.8986 -102.2999 420.8488)" class="st1" width="513.3" height="2.7"/></g><g><line class="st1" x1="633.7" y1="554.8" x2="1095" y2="329.6"/><rect x="607.7" y="440.8" transform="matrix(0.8986 -0.4388 0.4388 0.8986 -106.3808 424.1584)" class="st1" width="513.3" height="2.7"/></g><g><line class="st1" x1="638.9" y1="565.3" x2="1100.1" y2="340.1"/><rect x="612.8" y="451.3" transform="matrix(0.8986 -0.4388 0.4388 0.8986 -110.4618 427.4681)" class="st1" width="513.3" height="2.7"/></g></g></g><g><defs><path id="SVGID_17_" d="M931.1,329.7c3.7-1.7,7.3-3.4,11-5c134.4-61.6,273.9-122,385.9-216.6c-0.7-1.5-1.4-2.9-2.2-4.4 c-31.8-63.6-68.4-125.4-109.4-183.9c-160.1,46.9-315.8,107.5-464.5,184C817.5,174,877.5,249.7,931.1,329.7z"/></defs><clipPath id="SVGID_4_"><use xlink:href="#SVGID_17_" overflow="visible"/></clipPath><g class="st4"><g><line class="st1" x1="780.4" y1="268.6" x2="947.3" y2="-230.8"/><polygon class="st1" points="790.8,272.3 770,265 936.9,-234.5 957.7,-227.1"/></g><g><line class="st1" x1="868.7" y1="299.8" x2="1035.5" y2="-199.6"/><polygon class="st1" points="879,303.5 858.3,296.2 1025.2,-203.2 1045.9,-195.9"/></g><g><line class="st1" x1="736.3" y1="253" x2="903.2" y2="-246.4"/><polygon class="st1" points="746.7,256.7 725.9,249.3 892.8,-250.1 913.5,-242.7"/></g><g><line class="st1" x1="824.5" y1="284.2" x2="991.4" y2="-215.2"/><polygon class="st1" points="834.9,287.9 814.2,280.6 981,-218.9 1001.8,-211.5"/></g><g><line class="st1" x1="912.8" y1="315.4" x2="1079.7" y2="-184"/><polygon class="st1" points="923.2,319.1 902.4,311.8 1069.3,-187.6 1090,-180.3"/></g><g><line class="st1" x1="956.9" y1="331.1" x2="1123.8" y2="-168.4"/><polygon class="st1" points="967.3,334.7 946.6,327.4 1113.4,-172 1134.2,-164.7"/></g><g><line class="st1" x1="1001.1" y1="346.7" x2="1167.9" y2="-152.8"/><polygon class="st1" points="1011.4,350.3 990.7,343 1157.6,-156.4 1178.3,-149.1"/></g><g><line class="st1" x1="1045.2" y1="362.3" x2="1212.1" y2="-137.1"/><polygon class="st1" points="1055.6,365.9 1034.8,358.6 1201.7,-140.8 1222.4,-133.5"/></g><g><line class="st1" x1="1089.3" y1="377.9" x2="1256.2" y2="-121.5"/><polygon class="st1" points="1099.7,381.5 1078.9,374.2 1245.8,-125.2 1266.6,-117.9"/></g><g><line class="st1" x1="1133.4" y1="393.5" x2="1300.3" y2="-105.9"/><polygon class="st1" points="1143.8,397.2 1123.1,389.8 1289.9,-109.6 1310.7,-102.3"/></g><g><line class="st1" x1="1177.6" y1="409.1" x2="1344.5" y2="-90.3"/><polygon class="st1" points="1188,412.8 1167.2,405.4 1334.1,-94 1354.8,-86.7"/></g><g><line class="st1" x1="1221.7" y1="424.7" x2="1388.6" y2="-74.7"/><polygon class="st1" points="1232.1,428.4 1211.3,421 1378.2,-78.4 1399,-71"/></g></g></g><g><path id="XMLID_13_" class="st1" d="M791.7,395.8c-37.1-86.1-66.4-175.5-87.6-266.8c-50.7,27.6-100.2,57.2-148.5,88.5 c55.1,71.3,110.1,142.6,165.2,213.9C744.3,419.3,768,407.5,791.7,395.8z"/></g><g><defs><path id="SVGID_19_" d="M518.1,543.8c66-39.9,133.8-77.1,202.7-112.4c-55.1-71.3-110.1-142.6-165.2-213.9 c-81.9,53.1-160.3,111.4-234.9,174.2c0.9,3.4,1.7,6.8,2.6,10.2C395.3,438.4,461.5,486.2,518.1,543.8z"/></defs><clipPath id="SVGID_5_"><use xlink:href="#SVGID_19_" overflow="visible"/></clipPath><g class="st5"><g><line class="st1" x1="355" y1="598.1" x2="390.5" y2="86"/><rect x="371.4" y="85.4" transform="matrix(0.9976 6.925108e-02 -6.925108e-02 0.9976 24.5846 -24.9938)" class="st1" width="2.7" height="513.3"/></g><g><line class="st1" x1="483" y1="607" x2="518.6" y2="94.9"/><rect x="499.4" y="94.3" transform="matrix(0.9976 6.925108e-02 -6.925108e-02 0.9976 25.5073 -33.838)" class="st1" width="2.7" height="513.3"/></g><g><line class="st1" x1="366.6" y1="598.9" x2="402.2" y2="86.9"/><rect x="383" y="86.2" transform="matrix(0.9976 6.925108e-02 -6.925108e-02 0.9976 24.6684 -25.7979)" class="st1" width="2.7" height="513.3"/></g><g><line class="st1" x1="494.7" y1="607.8" x2="530.2" y2="95.7"/><rect x="511.1" y="95.1" transform="matrix(0.9976 6.925108e-02 -6.925108e-02 0.9976 25.5912 -34.6421)" class="st1" width="2.7" height="513.3"/></g><g><line class="st1" x1="261.9" y1="591.7" x2="297.4" y2="79.6"/><rect x="278.3" y="79" transform="matrix(0.9976 6.925108e-02 -6.925108e-02 0.9976 23.9135 -18.5617)" class="st1" width="2.7" height="513.3"/></g><g><line class="st1" x1="378.3" y1="599.7" x2="413.8" y2="87.7"/><rect x="394.7" y="87" transform="matrix(0.9976 6.925108e-02 -6.925108e-02 0.9976 24.7523 -26.6019)" class="st1" width="2.7" height="513.3"/></g><g><line class="st1" x1="506.3" y1="608.6" x2="541.8" y2="96.5"/><rect x="522.7" y="95.9" transform="matrix(0.9976 6.925108e-02 -6.925108e-02 0.9976 25.6751 -35.4461)" class="st1" width="2.7" height="513.3"/></g><g><line class="st1" x1="273.5" y1="592.5" x2="309.1" y2="80.4"/><rect x="289.9" y="79.8" transform="matrix(0.9976 6.925108e-02 -6.925108e-02 0.9976 23.9973 -19.3657)" class="st1" width="2.7" height="513.3"/></g><g><line class="st1" x1="389.9" y1="600.5" x2="425.5" y2="88.5"/><rect x="406.3" y="87.9" transform="matrix(0.9976 6.925108e-02 -6.925108e-02 0.9976 24.8362 -27.4059)" class="st1" width="2.7" height="513.3"/></g><g><line class="st1" x1="517.9" y1="609.4" x2="553.5" y2="97.4"/><rect x="534.3" y="96.7" transform="matrix(0.9976 6.925108e-02 -6.925108e-02 0.9976 25.759 -36.2501)" class="st1" width="2.7" height="513.3"/></g><g><line class="st1" x1="285.2" y1="593.3" x2="320.7" y2="81.2"/><rect x="301.6" y="80.6" transform="matrix(0.9976 6.925108e-02 -6.925108e-02 0.9976 24.0812 -20.1697)" class="st1" width="2.7" height="513.3"/></g><g><line class="st1" x1="401.6" y1="601.4" x2="437.1" y2="89.3"/><rect x="418" y="88.7" transform="matrix(0.9976 6.925108e-02 -6.925108e-02 0.9976 24.9201 -28.2099)" class="st1" width="2.7" height="513.3"/></g><g><line class="st1" x1="529.6" y1="610.2" x2="565.1" y2="98.2"/><rect x="546" y="97.5" transform="matrix(0.9976 6.925108e-02 -6.925108e-02 0.9976 25.8429 -37.0541)" class="st1" width="2.7" height="513.3"/></g><g><line class="st1" x1="296.8" y1="594.1" x2="332.4" y2="82"/><rect x="313.2" y="81.4" transform="matrix(0.9976 6.925108e-02 -6.925108e-02 0.9976 24.1651 -20.9737)" class="st1" width="2.7" height="513.3"/></g><g><line class="st1" x1="413.2" y1="602.2" x2="448.7" y2="90.1"/><rect x="429.6" y="89.5" transform="matrix(0.9976 6.925108e-02 -6.925108e-02 0.9976 25.004 -29.0139)" class="st1" width="2.7" height="513.3"/></g><g><line class="st1" x1="541.2" y1="611" x2="576.8" y2="99"/><rect x="557.6" y="98.4" transform="matrix(0.9976 6.925108e-02 -6.925108e-02 0.9976 25.9268 -37.8581)" class="st1" width="2.7" height="513.3"/></g><g><line class="st1" x1="308.4" y1="594.9" x2="344" y2="82.8"/><rect x="324.9" y="82.2" transform="matrix(0.9976 6.925108e-02 -6.925108e-02 0.9976 24.249 -21.7778)" class="st1" width="2.7" height="513.3"/></g><g><line class="st1" x1="424.8" y1="603" x2="460.4" y2="90.9"/><rect x="441.2" y="90.3" transform="matrix(0.9976 6.925108e-02 -6.925108e-02 0.9976 25.0879 -29.8179)" class="st1" width="2.7" height="513.3"/></g><g><line class="st1" x1="552.9" y1="611.9" x2="588.4" y2="99.8"/><rect x="569.3" y="99.2" transform="matrix(0.9976 6.925108e-02 -6.925108e-02 0.9976 26.0107 -38.6621)" class="st1" width="2.7" height="513.3"/></g><g><line class="st1" x1="320.1" y1="595.7" x2="355.6" y2="83.6"/><rect x="336.5" y="83" transform="matrix(0.9976 6.925108e-02 -6.925108e-02 0.9976 24.3329 -22.5818)" class="st1" width="2.7" height="513.3"/></g><g><line class="st1" x1="436.5" y1="603.8" x2="472" y2="91.7"/><rect x="452.9" y="91.1" transform="matrix(0.9976 6.925108e-02 -6.925108e-02 0.9976 25.1718 -30.622)" class="st1" width="2.7" height="513.3"/></g><g><line class="st1" x1="564.5" y1="612.7" x2="600" y2="100.6"/><rect x="580.9" y="100" transform="matrix(0.9976 6.925108e-02 -6.925108e-02 0.9976 26.0945 -39.4662)" class="st1" width="2.7" height="513.3"/></g><g><line class="st1" x1="331.7" y1="596.5" x2="367.3" y2="84.4"/><rect x="348.1" y="83.8" transform="matrix(0.9976 6.925108e-02 -6.925108e-02 0.9976 24.4168 -23.3858)" class="st1" width="2.7" height="513.3"/></g><g><line class="st1" x1="448.1" y1="604.6" x2="483.7" y2="92.5"/><rect x="464.5" y="91.9" transform="matrix(0.9976 6.925108e-02 -6.925108e-02 0.9976 25.2557 -31.426)" class="st1" width="2.7" height="513.3"/></g><g><line class="st1" x1="576.1" y1="613.5" x2="611.7" y2="101.4"/><rect x="592.5" y="100.8" transform="matrix(0.9976 6.925108e-02 -6.925108e-02 0.9976 26.1784 -40.2702)" class="st1" width="2.7" height="513.3"/></g><g><line class="st1" x1="343.4" y1="597.3" x2="378.9" y2="85.2"/><rect x="359.8" y="84.6" transform="matrix(0.9976 6.925108e-02 -6.925108e-02 0.9976 24.5007 -24.1898)" class="st1" width="2.7" height="513.3"/></g><g><line class="st1" x1="459.7" y1="605.4" x2="495.3" y2="93.3"/><rect x="476.1" y="92.7" transform="matrix(0.9976 6.925108e-02 -6.925108e-02 0.9976 25.3396 -32.23)" class="st1" width="2.7" height="513.3"/></g><g><line class="st1" x1="587.8" y1="614.3" x2="623.3" y2="102.2"/><rect x="604.2" y="101.6" transform="matrix(0.9976 6.925108e-02 -6.925108e-02 0.9976 26.2623 -41.0742)" class="st1" width="2.7" height="513.3"/></g><g><line class="st1" x1="471.4" y1="606.2" x2="506.9" y2="94.1"/><rect x="487.8" y="93.5" transform="matrix(0.9976 6.925108e-02 -6.925108e-02 0.9976 25.4234 -33.034)" class="st1" width="2.7" height="513.3"/></g><g><line class="st1" x1="599.4" y1="615.1" x2="635" y2="103"/><rect x="615.8" y="102.4" transform="matrix(0.9976 6.925108e-02 -6.925108e-02 0.9976 26.3462 -41.8782)" class="st1" width="2.7" height="513.3"/></g><g><line class="st1" x1="611" y1="615.9" x2="646.6" y2="103.8"/><rect x="627.4" y="103.2" transform="matrix(0.9976 6.925108e-02 -6.925108e-02 0.9976 26.4301 -42.6822)" class="st1" width="2.7" height="513.3"/></g><g><line class="st1" x1="622.7" y1="616.7" x2="658.2" y2="104.6"/><rect x="639.1" y="104" transform="matrix(0.9976 6.925108e-02 -6.925108e-02 0.9976 26.514 -43.4863)" class="st1" width="2.7" height="513.3"/></g><g><line class="st1" x1="634.3" y1="617.5" x2="669.9" y2="105.4"/><rect x="650.7" y="104.8" transform="matrix(0.9976 6.925108e-02 -6.925108e-02 0.9976 26.5979 -44.2903)" class="st1" width="2.7" height="513.3"/></g><g><line class="st1" x1="646" y1="618.3" x2="681.5" y2="106.2"/><rect x="662.4" y="105.6" transform="matrix(0.9976 6.925108e-02 -6.925108e-02 0.9976 26.6818 -45.0943)" class="st1" width="2.7" height="513.3"/></g><g><line class="st1" x1="657.6" y1="619.1" x2="693.1" y2="107"/><rect x="674" y="106.4" transform="matrix(0.9976 6.925108e-02 -6.925108e-02 0.9976 26.7656 -45.8983)" class="st1" width="2.7" height="513.3"/></g><g><line class="st1" x1="669.2" y1="619.9" x2="704.8" y2="107.9"/><rect x="685.6" y="107.2" transform="matrix(0.9976 6.925108e-02 -6.925108e-02 0.9976 26.8495 -46.7023)" class="st1" width="2.7" height="513.3"/></g><g><line class="st1" x1="680.9" y1="620.7" x2="716.4" y2="108.7"/><rect x="697.3" y="108" transform="matrix(0.9976 6.925108e-02 -6.925108e-02 0.9976 26.9334 -47.5064)" class="st1" width="2.7" height="513.3"/></g><g><line class="st1" x1="692.5" y1="621.6" x2="728.1" y2="109.5"/><rect x="708.9" y="108.9" transform="matrix(0.9976 6.925108e-02 -6.925108e-02 0.9976 27.0173 -48.3104)" class="st1" width="2.7" height="513.3"/></g><g><line class="st1" x1="704.1" y1="622.4" x2="739.7" y2="110.3"/><rect x="720.5" y="109.7" transform="matrix(0.9976 6.925108e-02 -6.925108e-02 0.9976 27.1012 -49.1144)" class="st1" width="2.7" height="513.3"/></g><g><line class="st1" x1="715.8" y1="623.2" x2="751.3" y2="111.1"/><rect x="732.2" y="110.5" transform="matrix(0.9976 6.925108e-02 -6.925108e-02 0.9976 27.1851 -49.9184)" class="st1" width="2.7" height="513.3"/></g><g><line class="st1" x1="727.4" y1="624" x2="763" y2="111.9"/><rect x="743.8" y="111.3" transform="matrix(0.9976 6.925108e-02 -6.925108e-02 0.9976 27.269 -50.7224)" class="st1" width="2.7" height="513.3"/></g><g><line class="st1" x1="739.1" y1="624.8" x2="774.6" y2="112.7"/><rect x="755.5" y="112.1" transform="matrix(0.9976 6.925108e-02 -6.925108e-02 0.9976 27.3529 -51.5264)" class="st1" width="2.7" height="513.3"/></g><g><line class="st1" x1="750.7" y1="625.6" x2="786.2" y2="113.5"/><rect x="767.1" y="112.9" transform="matrix(0.9976 6.925108e-02 -6.925108e-02 0.9976 27.4368 -52.3305)" class="st1" width="2.7" height="513.3"/></g><g><line class="st1" x1="762.3" y1="626.4" x2="797.9" y2="114.3"/><rect x="778.7" y="113.7" transform="matrix(0.9976 6.925108e-02 -6.925108e-02 0.9976 27.5206 -53.1345)" class="st1" width="2.7" height="513.3"/></g><g><line class="st1" x1="774" y1="627.2" x2="809.5" y2="115.1"/><rect x="790.4" y="114.5" transform="matrix(0.9976 6.925108e-02 -6.925108e-02 0.9976 27.6045 -53.9385)" class="st1" width="2.7" height="513.3"/></g></g></g></g></g></svg>