<?xml version="1.0" encoding="utf-8"?>
<!-- Generator: Adobe Illustrator 19.0.0, SVG Export Plug-In . SVG Version: 6.00 Build 0)  -->
<svg version="1.1" id="Layer_1" xmlns="http://www.w3.org/2000/svg" xmlns:xlink="http://www.w3.org/1999/xlink" x="0px" y="0px"
	 viewBox="0 0 268 86.4" style="enable-background:new 0 0 268 86.4;" xml:space="preserve">
<style type="text/css">
	.st0{fill:#FFFFFF;}
</style>
<polygon class="st0" points="51.6,36 51.6,28.7 44.4,32.4 "/>
<g>
	<path class="st0" d="M37.1,72.1V21.5l-7.2,3.6v7.2L22.7,36v-7.2l-7.2,3.6v7.2l-7.2,3.6c0-16,12.9-28.9,28.9-28.9
		c13.6,0,25,9.4,28.1,22.1l-6.4,3.2l7.2,3.6C66,59.2,53.1,72.1,37.1,72.1 M37.2,9C18.3,9,3,24.3,3,43.2c0,18.9,15.3,34.2,34.2,34.2
		c18.9,0,34.2-15.3,34.2-34.2C71.5,24.3,56.2,9,37.2,9"/>
</g>
<g>
	<path class="st0" d="M87.8,54.2h-2.2v7.4h2.2c1.9,0,2.3-1.5,2.3-3.7C90.1,55.7,89.6,54.2,87.8,54.2 M87.7,63.9h-2.1v8.4h-2.4V52
		h4.5c3.1,0,4.8,1.4,4.8,5.9C92.5,62.1,91,63.9,87.7,63.9"/>
</g>
<path class="st0" d="M110.8,56l-1.9,9.3h3.8L110.8,56z M114.1,72.3l-1-4.8h-4.7l-1,4.8H105l4.7-20.2h2.4l4.7,20.2H114.1z"/>
<g>
	<path class="st0" d="M135.8,54.2h-2.2v7.2h2.2c1.9,0,2.3-1.5,2.3-3.6C138.1,55.7,137.7,54.2,135.8,54.2 M138.6,72.3l-2.8-8.7h-2.2
		v8.7h-2.4V52h4.6c3.1,0,4.8,1.3,4.8,5.8c0,2.8-0.7,4.5-2.4,5.3l3.1,9.2H138.6z"/>
</g>
<polygon class="st0" points="160.7,54.2 160.7,72.3 158.3,72.3 158.3,54.2 154.9,54.2 154.9,52 164.1,52 164.1,54.2 "/>
<polygon class="st0" points="186.7,72.3 181.5,58.4 181.5,72.3 179,72.3 179,52 181.3,52 186.5,65.9 186.5,52 188.9,52 188.9,72.3 
	"/>
<polygon class="st0" points="205.1,72.3 205.1,52 212.9,52 212.9,54.2 207.5,54.2 207.5,61 212.1,61 212.1,63.2 207.5,63.2 
	207.5,70.1 212.9,70.1 212.9,72.3 "/>
<g>
	<path class="st0" d="M233,54.2h-2.2v7.2h2.2c1.9,0,2.3-1.5,2.3-3.6C235.3,55.7,234.8,54.2,233,54.2 M235.8,72.3l-2.8-8.7h-2.2v8.7
		h-2.4V52h4.6c3.1,0,4.8,1.3,4.8,5.8c0,2.8-0.7,4.5-2.4,5.3l3.1,9.2H235.8z"/>
	<path class="st0" d="M261.4,71.2c-0.8,0.7-2,1.2-3.6,1.2c-1.6,0-2.8-0.4-3.5-1.2c-0.9-0.9-1.3-2.1-1.3-4.3h2.4
		c0,1.3,0.1,2.1,0.7,2.6c0.3,0.4,0.9,0.6,1.7,0.6c0.8,0,1.4-0.3,1.7-0.7c0.5-0.6,0.7-1.4,0.7-2.7c0-2.3-0.3-3-2-3.7l-2.3-0.9
		c-2.1-0.9-2.8-2-2.8-5.1c0-1.8,0.5-3.2,1.5-4.1c0.8-0.7,1.9-1.2,3.2-1.2c1.5,0,2.6,0.4,3.4,1.2c1,1,1.3,2.3,1.3,4.1h-2.4
		c0-1.1-0.1-1.8-0.6-2.4c-0.3-0.4-0.9-0.7-1.6-0.7c-0.7,0-1.2,0.3-1.6,0.6c-0.5,0.5-0.7,1.4-0.7,2.4c0,2,0.3,2.6,1.9,3.3l2.3,0.9
		c2.3,0.9,2.8,2.4,2.8,5.5C262.7,68.9,262.4,70.3,261.4,71.2"/>
</g>
<path class="st0" d="M96.8,37.1c0,0.9-0.2,1.8-0.5,2.6c-0.3,0.8-0.8,1.6-1.4,2.2c-0.6,0.6-1.3,1.1-2.1,1.5s-1.7,0.6-2.6,0.6
	c-0.8,0-1.6-0.1-2.4-0.3c-0.8-0.2-1.6-0.6-2.2-1.1c-0.7-0.5-1.2-1.2-1.6-2.1c-0.4-0.9-0.6-2-0.6-3.3V20.7c0-1,0.2-1.9,0.5-2.7
	c0.3-0.8,0.8-1.5,1.4-2.1c0.6-0.6,1.3-1.1,2.2-1.4c0.8-0.3,1.8-0.5,2.8-0.5c1,0,1.9,0.2,2.7,0.5c0.8,0.3,1.5,0.8,2.2,1.5
	c0.6,0.6,1.1,1.4,1.4,2.2c0.3,0.9,0.5,1.8,0.5,2.8v1.7h-4.2v-1.4c0-0.8-0.2-1.5-0.7-2.2c-0.5-0.6-1.1-0.9-1.9-0.9
	c-1,0-1.7,0.3-2.1,1c-0.3,0.6-0.5,1.5-0.5,2.5v15.1c0,0.9,0.2,1.6,0.6,2.2c0.4,0.6,1,0.9,2,0.9c0.3,0,0.6,0,0.9-0.1
	c0.3-0.1,0.6-0.3,0.9-0.5c0.3-0.2,0.5-0.5,0.6-0.9c0.2-0.4,0.3-0.9,0.3-1.4v-1.4h4.2V37.1z"/>
<path class="st0" d="M107.8,22.7L107.8,22.7l-2.2,10.7h4.2L107.8,22.7z M106,14.2h3.5l6.6,29.5h-4.2l-1.2-6.3h-5.8l-1.2,6.3h-4.2
	L106,14.2z"/>
<g>
	<path class="st0" d="M131.8,22.7h-4.2v-1c0-1-0.2-1.8-0.7-2.5c-0.5-0.7-1.2-1.1-2.3-1.1c-0.6,0-1.1,0.1-1.4,0.3
		c-0.4,0.2-0.7,0.5-0.9,0.9c-0.2,0.3-0.4,0.7-0.4,1.2c-0.1,0.5-0.1,0.9-0.1,1.4c0,0.6,0,1.1,0.1,1.5c0,0.4,0.1,0.7,0.3,1
		c0.2,0.3,0.4,0.5,0.7,0.8c0.3,0.2,0.7,0.4,1.3,0.7l3.2,1.3c0.9,0.4,1.7,0.8,2.3,1.3c0.6,0.5,1,1,1.3,1.7c0.3,0.6,0.5,1.4,0.6,2.2
		c0.1,0.8,0.2,1.8,0.2,2.9c0,1.2-0.1,2.4-0.4,3.5c-0.2,1.1-0.7,2-1.2,2.7c-0.6,0.8-1.3,1.4-2.3,1.8c-0.9,0.4-2.1,0.7-3.4,0.7
		c-1,0-2-0.2-2.9-0.5c-0.9-0.4-1.6-0.8-2.3-1.5c-0.6-0.6-1.1-1.4-1.5-2.2c-0.4-0.9-0.6-1.8-0.6-2.8v-1.6h4.2v1.3
		c0,0.8,0.2,1.5,0.7,2.1c0.5,0.6,1.2,0.9,2.3,0.9c0.7,0,1.3-0.1,1.7-0.3c0.4-0.2,0.7-0.5,0.9-0.9c0.2-0.4,0.3-0.8,0.4-1.4
		c0.1-0.6,0.1-1.2,0.1-1.8c0-0.8,0-1.4-0.1-1.9c-0.1-0.5-0.2-0.9-0.4-1.2c-0.2-0.3-0.4-0.6-0.7-0.7c-0.3-0.2-0.7-0.4-1.3-0.6l-3-1.2
		c-1.8-0.7-3-1.7-3.7-3c-0.6-1.2-0.9-2.8-0.9-4.6c0-1.1,0.2-2.1,0.5-3.1c0.3-1,0.8-1.9,1.3-2.6c0.6-0.7,1.3-1.3,2.3-1.7
		c0.9-0.4,2-0.6,3.2-0.6c1,0,2,0.2,2.9,0.6c0.9,0.4,1.6,0.9,2.2,1.5c0.6,0.6,1.1,1.3,1.4,2.1c0.3,0.8,0.5,1.6,0.5,2.4V22.7z"/>
</g>
<polygon class="st0" points="138.7,18.2 133.9,18.2 133.9,14.2 147.8,14.2 147.8,18.2 143,18.2 143,43.6 138.7,43.6 "/>
<polygon class="st0" points="150.7,14.2 154.9,14.2 154.9,39.4 163.3,39.4 163.3,43.6 150.7,43.6 "/>
<polygon class="st0" points="166,14.2 178.6,14.2 178.6,18.2 170.2,18.2 170.2,26.8 177.5,26.8 177.5,30.8 170.2,30.8 170.2,39.4 
	178.6,39.4 178.6,43.6 166,43.6 "/>
<polygon class="st0" points="181.8,14.2 194.4,14.2 194.4,18.2 186,18.2 186,27.1 193.3,27.1 193.3,31.1 186,31.1 186,43.6 
	181.8,43.6 "/>
<g>
	<path class="st0" d="M201.1,36.7c0,1,0.3,1.8,0.8,2.3c0.6,0.5,1.2,0.7,2,0.7c0.8,0,1.4-0.2,2-0.7c0.6-0.5,0.8-1.2,0.8-2.3V21.1
		c0-1-0.3-1.8-0.8-2.3c-0.6-0.5-1.2-0.7-2-0.7c-0.8,0-1.4,0.2-2,0.7c-0.6,0.5-0.8,1.2-0.8,2.3V36.7z M196.9,21.1
		c0-1.2,0.2-2.2,0.6-3.1c0.4-0.9,1-1.7,1.6-2.3c0.7-0.6,1.4-1,2.3-1.3c0.8-0.3,1.7-0.5,2.5-0.5c0.9,0,1.7,0.2,2.5,0.5
		c0.8,0.3,1.6,0.8,2.3,1.3c0.7,0.6,1.2,1.3,1.6,2.3c0.4,0.9,0.6,2,0.6,3.1v15.6c0,1.2-0.2,2.3-0.6,3.2c-0.4,0.9-1,1.6-1.6,2.2
		c-0.7,0.6-1.4,1-2.3,1.3c-0.8,0.3-1.7,0.5-2.5,0.5c-0.9,0-1.7-0.2-2.5-0.5c-0.8-0.3-1.6-0.8-2.3-1.3c-0.7-0.6-1.2-1.3-1.6-2.2
		c-0.4-0.9-0.6-2-0.6-3.2V21.1z"/>
	<path class="st0" d="M218.9,27.3h2.4c0.7,0,1.3-0.1,1.8-0.3c0.4-0.2,0.8-0.5,1-0.9c0.2-0.4,0.4-0.9,0.5-1.4c0.1-0.6,0.1-1.2,0.1-2
		c0-0.7,0-1.4-0.1-2c-0.1-0.6-0.3-1.1-0.5-1.5c-0.3-0.4-0.6-0.7-1.1-0.9c-0.5-0.2-1.1-0.3-1.9-0.3h-2.2V27.3z M214.7,14.2h6.8
		c5,0,7.4,2.9,7.4,8.6c0,1.7-0.3,3.2-0.8,4.4c-0.5,1.2-1.5,2.2-2.8,3l4.6,13.4h-4.5l-3.9-12.6h-2.5v12.6h-4.2V14.2z"/>
	<path class="st0" d="M232.1,21.1c0-1.2,0.2-2.2,0.6-3.1c0.4-0.9,1-1.7,1.6-2.3c0.7-0.6,1.4-1,2.3-1.3c0.8-0.3,1.7-0.5,2.5-0.5
		c0.9,0,1.7,0.2,2.5,0.5c0.8,0.3,1.6,0.8,2.3,1.3c0.7,0.6,1.2,1.3,1.6,2.3c0.4,0.9,0.6,2,0.6,3.1v1.5H242v-1.5c0-1-0.3-1.8-0.8-2.3
		c-0.6-0.5-1.2-0.7-2-0.7c-0.8,0-1.4,0.2-2,0.7c-0.6,0.5-0.8,1.2-0.8,2.3v15.6c0,1,0.3,1.8,0.8,2.3c0.6,0.5,1.2,0.7,2,0.7
		c0.8,0,1.4-0.2,2-0.7c0.6-0.5,0.8-1.2,0.8-2.3v-5.5h-3.3v-3.7h7.6v9.3c0,1.2-0.2,2.3-0.6,3.2c-0.4,0.9-1,1.6-1.6,2.2
		c-0.7,0.6-1.4,1-2.3,1.3c-0.8,0.3-1.7,0.5-2.5,0.5c-0.9,0-1.7-0.2-2.5-0.5c-0.8-0.3-1.6-0.8-2.3-1.3c-0.7-0.6-1.2-1.3-1.6-2.2
		c-0.4-0.9-0.6-2-0.6-3.2V21.1z"/>
</g>
<polygon class="st0" points="250,14.2 262.6,14.2 262.6,18.2 254.2,18.2 254.2,26.8 261.5,26.8 261.5,30.8 254.2,30.8 254.2,39.4 
	262.6,39.4 262.6,43.6 250,43.6 "/>
</svg>
