<?xml version="1.0" encoding="utf-8"?>
<!-- Generator: Adobe Illustrator 19.0.0, SVG Export Plug-In . SVG Version: 6.00 Build 0)  -->
<svg version="1.1" id="Layer_1" xmlns="http://www.w3.org/2000/svg" xmlns:xlink="http://www.w3.org/1999/xlink" x="0px" y="0px"
	 viewBox="-545 486.9 92.7 28.3" style="enable-background:new -545 486.9 92.7 28.3;" xml:space="preserve">
<style type="text/css">
	.st0{fill:#FFFFFF;}
</style>
<g>
	<g>
		<path class="st0" d="M-502.9,500.6c2.9-1,3.5-3.4,3.5-5.4c0-3.1-2.2-5.7-8.6-5.7h-11.9c0,0,0,22.3,0,23c0.7,0,11.9,0,11.9,0
			c6.4,0,8.8-3.3,8.8-6.6C-499.2,501.8-502.9,500.6-502.9,500.6z M-514.2,494.5h8l0,0l0,0c0.9,0.2,1.6,0.9,1.6,1.8
			c0,0.9-0.7,1.8-1.6,1.9h-8V494.5z M-506.6,507.1h-7.6v-3.8h7.8l0,0l0,0c1,0.1,1.7,0.9,1.7,1.9S-505.6,507.1-506.6,507.1z"/>
	</g>
	<path class="st0" d="M-472.5,489.5h20.2v5h-14.6v3.7h13.1v5h-13.1v4h14.5v5.3c0,0-19.5,0-20.2,0
		C-472.5,511.8-472.5,489.5-472.5,489.5z"/>
	<path class="st0" d="M-484.2,489.5h-12.2v23c0,0,5,0,5.6,0c0-0.6,0-9.3,0-9.3h6.2c1.8,0,3.1,1.5,3.1,3.3v6h5.5v-7.4
		c0-3.4-3.3-4.5-3.3-4.5s3.4-1,3.4-5.1C-476,490.5-480.3,489.5-484.2,489.5z M-481.2,496.6c-0.1,0.8-0.9,1.6-1.8,1.6h-7.9v-3.7h7.9
		c0.9,0,1.7,0.7,1.8,1.6V496.6z"/>
	<path id="XMLID_14_" class="st0" d="M-523.5,506.9c-0.1,0-7.7,0.1-10.3-0.1c-4.2-0.4-5.7-3.5-5.7-6.1c0-3.2,2.2-5.5,5.5-5.9
		c1.6-0.2,10.3-0.1,10.4-0.1h0.2v-5.2h-0.2h-9.9c-1.1,0.1-2.9,0.2-4.8,0.9c-1.7,0.9-3.3,2.1-4.4,3.7c-1.5,2-2.3,4.4-2.3,6.9
		c0,0.8,0.1,1.6,0.2,2.3c0.7,3.5,3,6.4,6.3,7.9c1.1,0.5,2.8,1.1,6.3,1.3h1.9h6.9h0.2V507L-523.5,506.9z"/>
</g>
</svg>
