<?xml version="1.0" encoding="utf-8"?>
<!-- Generator: Adobe Illustrator 22.1.0, SVG Export Plug-In . SVG Version: 6.00 Build 0)  -->
<svg version="1.1" id="Layer_1" xmlns="http://www.w3.org/2000/svg" xmlns:xlink="http://www.w3.org/1999/xlink" x="0px" y="0px"
	 viewBox="0 0 583.2 72.3" style="enable-background:new 0 0 583.2 72.3;" xml:space="preserve">
<style type="text/css">
	.st0{fill:#F05539;stroke:#FFFFFF;stroke-width:0.3625;stroke-miterlimit:10;}
</style>
<g>
	<g>
		<rect x="452.3" y="1.9" class="st0" width="10.3" height="68.4"/>
		<path class="st0" d="M245.8,72.1c-19.8,0-35.9-16.1-35.9-35.9S226,0.2,245.8,0.2c12,0,23.1,5.9,29.8,15.8l-8.5,5.7
			c-4.8-7.1-12.7-11.3-21.3-11.3c-14.1,0-25.7,11.5-25.7,25.7s11.5,25.7,25.7,25.7c8.7,0,16.7-4.3,21.4-11.6l8.6,5.6
			C269.1,66,257.9,72.1,245.8,72.1z"/>
		<path class="st0" d="M36.1,72.1C16.3,72.1,0.2,56,0.2,36.2S16.3,0.2,36.1,0.2c12,0,23.1,5.9,29.8,15.8l-8.5,5.7
			c-4.8-7.1-12.7-11.3-21.3-11.3C22,10.5,10.4,22,10.4,36.2S22,61.8,36.1,61.8c8.7,0,16.7-4.3,21.4-11.6l8.6,5.6
			C59.4,66,48.2,72.1,36.1,72.1z"/>
		<path class="st0" d="M162.2,72.1c-19.8,0-35.9-16.1-35.9-35.9s16.1-35.9,35.9-35.9s35.9,16.1,35.9,35.9S182,72.1,162.2,72.1z
			 M162.2,10.5c-14.1,0-25.7,11.5-25.7,25.7s11.5,25.7,25.7,25.7c14.1,0,25.7-11.5,25.7-25.7S176.3,10.5,162.2,10.5z"/>
		<polygon class="st0" points="90.4,36.1 90.4,1.9 80.2,1.9 80.2,46.4 112.7,46.4 112.7,36.1 		"/>
		<path class="st0" d="M502.4,72C502.4,72,502.4,72,502.4,72c-6.4,0-12.4-2.5-16.7-7.1c-4.4-4.6-6.8-11-6.8-17.9h10.3
			c0,4.4,1.4,8.1,4,10.8c2.4,2.5,5.7,3.9,9.3,3.9c0,0,0,0,0,0c4.7,0,8.6-1.3,11-3.7c1.8-1.9,2.7-4.4,2.6-7.4l0-0.1
			c0-3.2-1.3-5.5-4.2-7.3c-2.9-1.8-6.6-2.7-9-3.3c-0.4-0.1-0.7-0.2-1.1-0.3c-5.8-1.4-10.2-3.3-13.4-5.7c-4.6-3.4-7.1-8.1-7.3-13.5
			c-0.1-5.4,1.6-10.2,5.2-13.8c4-4.1,10-6.3,17-6.3c0,0,0,0,0,0c5.9,0,11.5,2.3,15.5,6.6c4.1,4.3,6.4,10.2,6.4,16.6h-10.3
			c0-3.9-1.2-7.2-3.5-9.5c-2.1-2.2-5-3.4-8.1-3.4c0,0,0,0,0,0c-4.2,0-7.6,1.2-9.7,3.2c-1.6,1.6-2.3,3.8-2.3,6.4
			c0.1,3,1.6,6.8,12.9,9.6c0.3,0.1,0.6,0.1,1,0.2c2.9,0.7,7.8,1.8,12.2,4.6c5.9,3.7,9,9.2,9,16c0.1,5.8-1.8,10.9-5.6,14.8
			C516.4,69.7,510.1,72,502.4,72z"/>
		<rect x="291.2" y="1.9" class="st0" width="10.3" height="68.4"/>
		<polygon class="st0" points="321,36 337,21.7 330.1,14.1 306.6,35.3 338.5,70.8 346.2,63.9 		"/>
		<polygon class="st0" points="381.6,29.5 376,49.5 360.1,1.9 350.3,5.2 372.2,70.3 372.3,70.3 380.9,70.3 391.5,32.3 391.5,32.3 		
			"/>
		<polygon class="st0" points="427.2,1.9 411.3,49.5 400.7,11.6 390.8,14.4 406.4,70.3 415,70.3 415.1,70.3 437,5.2 		"/>
		<polygon class="st0" points="583.1,12.2 583.1,1.9 541.4,1.9 541.4,37.2 541.4,37.2 541.4,70.4 583.1,70.4 583.1,60.1 551.7,60.1 
			551.7,41.3 568.1,41.3 568.1,31 551.7,31 551.7,12.2 		"/>
	</g>
</g>
</svg>
