<?xml version="1.0" encoding="utf-8"?>
<!-- Generator: Adobe Illustrator 22.1.0, SVG Export Plug-In . SVG Version: 6.00 Build 0)  -->
<svg version="1.1" id="Layer_1" xmlns="http://www.w3.org/2000/svg" xmlns:xlink="http://www.w3.org/1999/xlink" x="0px" y="0px"
	 viewBox="0 0 80 80" style="enable-background:new 0 0 80 80;" xml:space="preserve">
<style type="text/css">
	.st0{fill:#FFFFFF;}
</style>
<g>
	<g>
		<g>
			<path class="st0" d="M14.9,41.7h49.6L52.8,65H26.6L14.9,41.7z M8.8,37.9L24,68.4h31.4l15.3-30.5H8.8z"/>
		</g>
		<g>
			<g>
				
					<rect x="18.8" y="13.7" transform="matrix(0.8951 -0.4458 0.4458 0.8951 -7.8363 11.4243)" class="st0" width="3.2" height="17.3"/>
			</g>
			<g>
				
					<rect x="34.3" y="13.7" transform="matrix(0.8951 -0.4458 0.4458 0.8951 -6.2138 18.3212)" class="st0" width="3.2" height="17.3"/>
			</g>
			<g>
				
					<rect x="49.7" y="13.7" transform="matrix(0.8951 -0.4458 0.4458 0.8951 -4.5913 25.218)" class="st0" width="3.2" height="17.3"/>
			</g>
			<g>
				<polygon class="st0" points="72.2,55 61.9,55 61.9,51.8 69.1,51.8 69.1,47.2 64.4,47.2 64.4,44 72.2,44 				"/>
			</g>
		</g>
	</g>
</g>
</svg>
