<?xml version="1.0" encoding="utf-8"?>
<!-- Generator: Adobe Illustrator 19.0.0, SVG Export Plug-In . SVG Version: 6.00 Build 0)  -->
<svg version="1.1" id="Layer_1" xmlns="http://www.w3.org/2000/svg" xmlns:xlink="http://www.w3.org/1999/xlink" x="0px" y="0px"
	 viewBox="0 0 1295.9 941" style="enable-background:new 0 0 1295.9 941;" xml:space="preserve">
<style type="text/css">
	.st0{clip-path:url(#SVGID_1_);}
	.st1{fill:#8E9090;}
	.st2{clip-path:url(#SVGID_2_);}
	.st3{clip-path:url(#SVGID_3_);}
	.st4{clip-path:url(#SVGID_4_);}
	.st5{clip-path:url(#SVGID_5_);}
	.st6{fill:#000100;}
</style>
<g>
	<defs>
		<rect id="SVGID_11_" width="1295.9" height="941"/>
	</defs>
	<clipPath id="SVGID_1_">
		<use xlink:href="#SVGID_11_"  style="overflow:visible;"/>
	</clipPath>
	<g class="st0">
		<g>
			<path id="XMLID_54_" class="st1" d="M756.2,422.1c105.3-75,209.1-152.7,308.9-234.6c102.5,152,228,290.2,366.1,408.8
				c16.7,14.4,33.6,28.5,50.7,42.4c-51.2,47.1-98.4,98.7-140.1,154.1c-27.8-17.3-55.9-34.3-84.2-50.8
				C1086.7,642.1,901.8,552.5,756.2,422.1z"/>
		</g>
		<g>
			<defs>
				<path id="SVGID_13_" d="M1482,638.5c-17.1-13.9-34-28-50.7-42.4c-138.1-118.6-263.6-256.8-366.1-408.7
					c243.2-199.8,462.1-424.7,617.5-696.6c12.5-21.9,24.6-44.3,36.1-66.9c71.7-5.5,143.3-19,213.1-39.2
					c-4.2,126.6,3,253.5,21.3,378.2c28.1,191.1,80.5,376.9,152.4,555.6c-165.7,43-324.7,106.7-468.3,199.8
					C1582.6,553.6,1530.5,594,1482,638.5z"/>
			</defs>
			<clipPath id="SVGID_2_">
				<use xlink:href="#SVGID_13_"  style="overflow:visible;"/>
			</clipPath>
			<g class="st2">
				<g>
					<line class="st1" x1="1644.4" y1="-870" x2="1211.7" y2="737.4"/>
					<polygon class="st1" points="1213.9,738 1646.6,-869.4 1642.2,-870.5 1209.5,736.8 					"/>
				</g>
				<g>
					<line class="st1" x1="1847.7" y1="-815.5" x2="1414.9" y2="791.8"/>
					<polygon class="st1" points="1417.1,792.4 1849.8,-814.9 1845.5,-816.1 1412.8,791.3 					"/>
				</g>
				<g>
					<line class="st1" x1="1662.9" y1="-865" x2="1230.2" y2="742.3"/>
					<polygon class="st1" points="1232.3,742.9 1665.1,-864.4 1660.7,-865.6 1228,741.8 					"/>
				</g>
				<g>
					<line class="st1" x1="1866.1" y1="-810.5" x2="1433.4" y2="796.8"/>
					<polygon class="st1" points="1435.6,797.4 1868.3,-810 1864,-811.1 1431.2,796.2 					"/>
				</g>
				<g>
					<line class="st1" x1="1496.6" y1="-909.6" x2="1063.9" y2="697.8"/>
					<polygon class="st1" points="1066,698.4 1498.8,-909 1494.4,-910.2 1061.7,697.2 					"/>
				</g>
				<g>
					<line class="st1" x1="1681.4" y1="-860.1" x2="1248.6" y2="747.3"/>
					<polygon class="st1" points="1250.8,747.9 1683.5,-859.5 1679.2,-860.6 1246.5,746.7 					"/>
				</g>
				<g>
					<line class="st1" x1="1884.6" y1="-805.6" x2="1451.9" y2="801.8"/>
					<polygon class="st1" points="1454.1,802.3 1886.8,-805 1882.5,-806.2 1449.7,801.2 					"/>
				</g>
				<g>
					<line class="st1" x1="1515.1" y1="-904.6" x2="1082.3" y2="702.7"/>
					<polygon class="st1" points="1084.5,703.3 1517.2,-904 1512.9,-905.2 1080.2,702.1 					"/>
				</g>
				<g>
					<line class="st1" x1="1699.9" y1="-855.1" x2="1267.1" y2="752.2"/>
					<polygon class="st1" points="1269.3,752.8 1702,-854.5 1697.7,-855.7 1264.9,751.7 					"/>
				</g>
				<g>
					<line class="st1" x1="1903.1" y1="-800.6" x2="1470.4" y2="806.7"/>
					<polygon class="st1" points="1472.5,807.3 1905.3,-800.1 1900.9,-801.2 1468.2,806.1 					"/>
				</g>
				<g>
					<line class="st1" x1="1533.6" y1="-899.7" x2="1100.8" y2="707.7"/>
					<polygon class="st1" points="1103,708.3 1535.7,-899.1 1531.4,-900.3 1098.6,707.1 					"/>
				</g>
				<g>
					<line class="st1" x1="1718.3" y1="-850.2" x2="1285.6" y2="757.2"/>
					<polygon class="st1" points="1287.8,757.8 1720.5,-849.6 1716.2,-850.7 1283.4,756.6 					"/>
				</g>
				<g>
					<line class="st1" x1="1921.6" y1="-795.7" x2="1488.8" y2="811.7"/>
					<polygon class="st1" points="1491,812.2 1923.8,-795.1 1919.4,-796.3 1486.7,811.1 					"/>
				</g>
				<g>
					<line class="st1" x1="1552" y1="-894.7" x2="1119.3" y2="712.6"/>
					<polygon class="st1" points="1121.5,713.2 1554.2,-894.1 1549.9,-895.3 1117.1,712.1 					"/>
				</g>
				<g>
					<line class="st1" x1="1736.8" y1="-845.2" x2="1304.1" y2="762.1"/>
					<polygon class="st1" points="1306.2,762.7 1739,-844.6 1734.6,-845.8 1301.9,761.6 					"/>
				</g>
				<g>
					<line class="st1" x1="1940.1" y1="-790.7" x2="1507.3" y2="816.6"/>
					<polygon class="st1" points="1509.5,817.2 1942.2,-790.2 1937.9,-791.3 1505.2,816 					"/>
				</g>
				<g>
					<line class="st1" x1="1570.5" y1="-889.8" x2="1137.8" y2="717.6"/>
					<polygon class="st1" points="1139.9,718.2 1572.7,-889.2 1568.3,-890.3 1135.6,717 					"/>
				</g>
				<g>
					<line class="st1" x1="1755.3" y1="-840.3" x2="1322.6" y2="767.1"/>
					<polygon class="st1" points="1324.7,767.7 1757.5,-839.7 1753.1,-840.8 1320.4,766.5 					"/>
				</g>
				<g>
					<line class="st1" x1="1958.5" y1="-785.8" x2="1525.8" y2="821.6"/>
					<polygon class="st1" points="1528,822.1 1960.7,-785.2 1956.4,-786.4 1523.6,821 					"/>
				</g>
				<g>
					<line class="st1" x1="1589" y1="-884.8" x2="1156.3" y2="722.5"/>
					<polygon class="st1" points="1158.4,723.1 1591.2,-884.2 1586.8,-885.4 1154.1,722 					"/>
				</g>
				<g>
					<line class="st1" x1="1773.8" y1="-835.3" x2="1341" y2="772"/>
					<polygon class="st1" points="1343.2,772.6 1775.9,-834.7 1771.6,-835.9 1338.9,771.5 					"/>
				</g>
				<g>
					<line class="st1" x1="1977" y1="-780.8" x2="1544.3" y2="826.5"/>
					<polygon class="st1" points="1546.5,827.1 1979.2,-780.3 1974.8,-781.4 1542.1,825.9 					"/>
				</g>
				<g>
					<line class="st1" x1="1607.5" y1="-879.9" x2="1174.7" y2="727.5"/>
					<polygon class="st1" points="1176.9,728.1 1609.6,-879.3 1605.3,-880.4 1172.6,726.9 					"/>
				</g>
				<g>
					<line class="st1" x1="1792.2" y1="-830.4" x2="1359.5" y2="777"/>
					<polygon class="st1" points="1361.7,777.6 1794.4,-829.8 1790.1,-830.9 1357.3,776.4 					"/>
				</g>
				<g>
					<line class="st1" x1="1995.5" y1="-775.9" x2="1562.8" y2="831.5"/>
					<polygon class="st1" points="1564.9,832 1997.7,-775.3 1993.3,-776.5 1560.6,830.9 					"/>
				</g>
				<g>
					<line class="st1" x1="1625.9" y1="-874.9" x2="1193.2" y2="732.4"/>
					<polygon class="st1" points="1195.4,733 1628.1,-874.3 1623.8,-875.5 1191,731.9 					"/>
				</g>
				<g>
					<line class="st1" x1="1367.3" y1="-944.2" x2="934.5" y2="663.2"/>
					<polygon class="st1" points="936.7,663.8 1369.4,-943.6 1365.1,-944.7 932.4,662.6 					"/>
				</g>
				<g>
					<line class="st1" x1="1385.7" y1="-939.2" x2="953" y2="668.1"/>
					<polygon class="st1" points="955.2,668.7 1387.9,-938.6 1383.6,-939.8 950.8,667.6 					"/>
				</g>
				<g>
					<line class="st1" x1="1404.2" y1="-934.3" x2="971.5" y2="673.1"/>
					<polygon class="st1" points="973.7,673.7 1406.4,-933.7 1402,-934.8 969.3,672.5 					"/>
				</g>
				<g>
					<line class="st1" x1="1422.7" y1="-929.3" x2="990" y2="678"/>
					<polygon class="st1" points="992.1,678.6 1424.9,-928.7 1420.5,-929.9 987.8,677.5 					"/>
				</g>
				<g>
					<line class="st1" x1="1441.2" y1="-924.4" x2="1008.4" y2="683"/>
					<polygon class="st1" points="1010.6,683.6 1443.3,-923.8 1439,-924.9 1006.3,682.4 					"/>
				</g>
				<g>
					<line class="st1" x1="1459.6" y1="-919.4" x2="1026.9" y2="687.9"/>
					<polygon class="st1" points="1029.1,688.5 1461.8,-918.8 1457.5,-920 1024.7,687.4 					"/>
				</g>
				<g>
					<line class="st1" x1="1478.1" y1="-914.5" x2="1045.4" y2="692.9"/>
					<polygon class="st1" points="1047.6,693.5 1480.3,-913.9 1475.9,-915 1043.2,692.3 					"/>
				</g>
				<g>
					<line class="st1" x1="1810.7" y1="-825.4" x2="1378" y2="781.9"/>
					<polygon class="st1" points="1380.2,782.5 1812.9,-824.8 1808.5,-826 1375.8,781.4 					"/>
				</g>
				<g>
					<line class="st1" x1="2014" y1="-770.9" x2="1581.2" y2="836.4"/>
					<polygon class="st1" points="1583.4,837 2016.1,-770.4 2011.8,-771.5 1579.1,835.8 					"/>
				</g>
				<g>
					<line class="st1" x1="1829.2" y1="-820.5" x2="1396.5" y2="786.9"/>
					<polygon class="st1" points="1398.6,787.5 1831.4,-819.9 1827,-821 1394.3,786.3 					"/>
				</g>
				<g>
					<line class="st1" x1="2032.4" y1="-766" x2="1599.7" y2="841.4"/>
					<polygon class="st1" points="1601.9,841.9 2034.6,-765.4 2030.3,-766.6 1597.5,840.8 					"/>
				</g>
				<g>
					<line class="st1" x1="2050.9" y1="-761" x2="1618.2" y2="846.3"/>
					<polygon class="st1" points="1620.4,846.9 2053.1,-760.5 2048.8,-761.6 1616,845.7 					"/>
				</g>
				<g>
					<line class="st1" x1="2069.4" y1="-756.1" x2="1636.7" y2="851.3"/>
					<polygon class="st1" points="1638.8,851.8 2071.6,-755.5 2067.2,-756.7 1634.5,850.7 					"/>
				</g>
				<g>
					<line class="st1" x1="2087.9" y1="-751.1" x2="1655.1" y2="856.2"/>
					<polygon class="st1" points="1657.3,856.8 2090.1,-750.6 2085.7,-751.7 1653,855.6 					"/>
				</g>
				<g>
					<line class="st1" x1="2106.4" y1="-746.2" x2="1673.6" y2="861.2"/>
					<polygon class="st1" points="1675.8,861.7 2108.5,-745.6 2104.2,-746.8 1671.5,860.6 					"/>
				</g>
				<g>
					<line class="st1" x1="2124.8" y1="-741.2" x2="1692.1" y2="866.1"/>
					<polygon class="st1" points="1694.3,866.7 2127,-740.7 2122.7,-741.8 1689.9,865.5 					"/>
				</g>
				<g>
					<line class="st1" x1="2143.3" y1="-736.3" x2="1710.6" y2="871.1"/>
					<polygon class="st1" points="1712.8,871.6 2145.5,-735.7 2141.1,-736.9 1708.4,870.5 					"/>
				</g>
				<g>
					<line class="st1" x1="2161.8" y1="-731.3" x2="1729.1" y2="876"/>
					<polygon class="st1" points="1731.2,876.6 2164,-730.8 2159.6,-731.9 1726.9,875.4 					"/>
				</g>
				<g>
					<line class="st1" x1="2180.3" y1="-726.4" x2="1747.5" y2="881"/>
					<polygon class="st1" points="1749.7,881.6 2182.4,-725.8 2178.1,-727 1745.4,880.4 					"/>
				</g>
				<g>
					<line class="st1" x1="2198.7" y1="-721.4" x2="1766" y2="885.9"/>
					<polygon class="st1" points="1768.2,886.5 2200.9,-720.8 2196.6,-722 1763.8,885.3 					"/>
				</g>
				<g>
					<line class="st1" x1="2217.2" y1="-716.5" x2="1784.5" y2="890.9"/>
					<polygon class="st1" points="1786.7,891.5 2219.4,-715.9 2215,-717.1 1782.3,890.3 					"/>
				</g>
				<g>
					<line class="st1" x1="2235.7" y1="-711.5" x2="1803" y2="895.8"/>
					<polygon class="st1" points="1805.1,896.4 2237.9,-710.9 2233.5,-712.1 1800.8,895.2 					"/>
				</g>
				<g>
					<line class="st1" x1="2254.2" y1="-706.6" x2="1821.4" y2="900.8"/>
					<polygon class="st1" points="1823.6,901.4 2256.3,-706 2252,-707.2 1819.3,900.2 					"/>
				</g>
				<g>
					<line class="st1" x1="2272.7" y1="-701.6" x2="1839.9" y2="905.7"/>
					<polygon class="st1" points="1842.1,906.3 2274.8,-701 2270.5,-702.2 1837.7,905.1 					"/>
				</g>
				<g>
					<line class="st1" x1="2291.1" y1="-696.7" x2="1858.4" y2="910.7"/>
					<polygon class="st1" points="1860.6,911.3 2293.3,-696.1 2289,-697.3 1856.2,910.1 					"/>
				</g>
				<g>
					<line class="st1" x1="2309.6" y1="-691.7" x2="1876.9" y2="915.6"/>
					<polygon class="st1" points="1879,916.2 2311.8,-691.1 2307.4,-692.3 1874.7,915 					"/>
				</g>
				<g>
					<line class="st1" x1="2328.1" y1="-686.7" x2="1895.4" y2="920.7"/>
					<polygon class="st1" points="1897.5,921.3 2330.3,-686.1 2325.9,-687.2 1893.2,920.1 					"/>
				</g>
				<g>
					<line class="st1" x1="2346.6" y1="-681.7" x2="1913.8" y2="925.7"/>
					<polygon class="st1" points="1916,926.2 2348.7,-681.1 2344.4,-682.3 1911.7,925.1 					"/>
				</g>
				<g>
					<line class="st1" x1="2365" y1="-676.7" x2="1932.3" y2="930.6"/>
					<polygon class="st1" points="1934.5,931.2 2367.2,-676.2 2362.9,-677.3 1930.1,930 					"/>
				</g>
				<g>
					<line class="st1" x1="2383.5" y1="-671.8" x2="1950.8" y2="935.6"/>
					<polygon class="st1" points="1953,936.1 2385.7,-671.2 2381.3,-672.4 1948.6,935 					"/>
				</g>
				<g>
					<line class="st1" x1="2402" y1="-666.8" x2="1969.3" y2="940.5"/>
					<polygon class="st1" points="1971.4,941.1 2404.2,-666.3 2399.8,-667.4 1967.1,939.9 					"/>
				</g>
			</g>
		</g>
		<g>
			<defs>
				<path id="SVGID_15_" d="M2.4,946.3c149.9-111.9,305.7-217.1,460.7-322.2c183.9,290.3,414.3,539.2,674,759.1
					c-173.7,89.7-344.3,186.2-512,287.6C397.3,1448.5,190.1,1203.1,2.4,946.3z"/>
			</defs>
			<clipPath id="SVGID_3_">
				<use xlink:href="#SVGID_15_"  style="overflow:visible;"/>
			</clipPath>
			<g class="st3">
				<g>
					<g>
						<line class="st1" x1="868.8" y1="828.2" x2="139.9" y2="1249"/>
						
							<rect x="83.5" y="1038.1" transform="matrix(-0.866 0.5 -0.5 -0.866 1460.4352 1685.9189)" class="st1" width="841.7" height="1.1"/>
					</g>
					<g>
						<line class="st1" x1="878.4" y1="844.8" x2="149.4" y2="1265.6"/>
						
							<rect x="93.1" y="1054.6" transform="matrix(-0.866 0.5 -0.5 -0.866 1486.5671 1712.0497)" class="st1" width="841.7" height="1.1"/>
					</g>
					<g>
						<line class="st1" x1="887.9" y1="861.3" x2="159" y2="1282.2"/>
						
							<rect x="102.6" y="1071.2" transform="matrix(-0.866 0.5 -0.5 -0.866 1512.6982 1738.1809)" class="st1" width="841.7" height="1.1"/>
					</g>
					<g>
						<line class="st1" x1="897.5" y1="877.9" x2="168.6" y2="1298.7"/>
						
							<rect x="112.2" y="1087.8" transform="matrix(-0.866 0.5 -0.5 -0.866 1538.8293 1764.312)" class="st1" width="841.7" height="1.1"/>
					</g>
					<g>
						<line class="st1" x1="907.1" y1="894.5" x2="178.1" y2="1315.3"/>
						
							<rect x="121.8" y="1104.3" transform="matrix(-0.866 0.5 -0.5 -0.866 1564.9604 1790.4431)" class="st1" width="841.7" height="1.1"/>
					</g>
					<g>
						<line class="st1" x1="916.6" y1="911" x2="187.7" y2="1331.9"/>
						
							<rect x="131.3" y="1120.9" transform="matrix(-0.866 0.5 -0.5 -0.866 1591.0916 1816.5743)" class="st1" width="841.7" height="1.1"/>
					</g>
					<g>
						<line class="st1" x1="926.2" y1="927.6" x2="197.3" y2="1348.4"/>
						
							<rect x="140.9" y="1137.5" transform="matrix(-0.866 0.5 -0.5 -0.866 1617.2225 1842.7054)" class="st1" width="841.7" height="1.1"/>
					</g>
					<g>
						<line class="st1" x1="935.8" y1="944.2" x2="206.8" y2="1365"/>
						
							<rect x="150.5" y="1154" transform="matrix(-0.866 0.5 -0.5 -0.866 1643.3536 1868.8367)" class="st1" width="841.7" height="1.1"/>
					</g>
					<g>
						<line class="st1" x1="945.3" y1="960.7" x2="216.4" y2="1381.6"/>
						
							<rect x="160" y="1170.6" transform="matrix(-0.866 0.5 -0.5 -0.866 1669.4847 1894.9678)" class="st1" width="841.7" height="1.1"/>
					</g>
					<g>
						<line class="st1" x1="954.9" y1="977.3" x2="226" y2="1398.1"/>
						
							<rect x="169.6" y="1187.2" transform="matrix(-0.866 0.5 -0.5 -0.866 1695.616 1921.0991)" class="st1" width="841.7" height="1.1"/>
					</g>
					<g>
						<line class="st1" x1="964.5" y1="993.9" x2="235.5" y2="1414.7"/>
						
							<rect x="179.1" y="1203.7" transform="matrix(-0.866 0.5 -0.5 -0.866 1721.7471 1947.2302)" class="st1" width="841.7" height="1.1"/>
					</g>
					<g>
						<line class="st1" x1="974" y1="1010.4" x2="245.1" y2="1431.3"/>
						
							<rect x="188.7" y="1220.3" transform="matrix(-0.866 0.5 -0.5 -0.866 1747.8782 1973.3615)" class="st1" width="841.7" height="1.1"/>
					</g>
					<g>
						<line class="st1" x1="983.6" y1="1027" x2="254.7" y2="1447.8"/>
						
							<rect x="198.3" y="1236.9" transform="matrix(-0.866 0.5 -0.5 -0.866 1774.0092 1999.4926)" class="st1" width="841.7" height="1.1"/>
					</g>
					<g>
						<line class="st1" x1="993.2" y1="1043.6" x2="264.2" y2="1464.4"/>
						
							<rect x="207.8" y="1253.4" transform="matrix(-0.866 0.5 -0.5 -0.866 1800.1403 2025.6238)" class="st1" width="841.7" height="1.1"/>
					</g>
					<g>
						<line class="st1" x1="1002.7" y1="1060.1" x2="273.8" y2="1481"/>
						
							<rect x="217.4" y="1270" transform="matrix(-0.866 0.5 -0.5 -0.866 1826.2714 2051.7549)" class="st1" width="841.7" height="1.1"/>
					</g>
					<g>
						<line class="st1" x1="1012.3" y1="1076.7" x2="283.4" y2="1497.5"/>
						
							<rect x="227" y="1286.6" transform="matrix(-0.866 0.5 -0.5 -0.866 1852.4025 2077.886)" class="st1" width="841.7" height="1.1"/>
					</g>
					<g>
						<line class="st1" x1="1021.8" y1="1093.3" x2="292.9" y2="1514.1"/>
						
							<rect x="236.5" y="1303.1" transform="matrix(-0.866 0.5 -0.5 -0.866 1878.5337 2104.0173)" class="st1" width="841.7" height="1.1"/>
					</g>
					<g>
						<line class="st1" x1="1031.4" y1="1109.8" x2="302.5" y2="1530.7"/>
						
							<rect x="246.1" y="1319.7" transform="matrix(-0.866 0.5 -0.5 -0.866 1904.6655 2130.1479)" class="st1" width="841.7" height="1.1"/>
					</g>
					<g>
						<line class="st1" x1="1041" y1="1126.4" x2="312" y2="1547.2"/>
						
							<rect x="255.7" y="1336.3" transform="matrix(-0.866 0.5 -0.5 -0.866 1930.7966 2156.2791)" class="st1" width="841.7" height="1.1"/>
					</g>
					<g>
						<line class="st1" x1="1050.5" y1="1143" x2="321.6" y2="1563.8"/>
						
							<rect x="265.2" y="1352.8" transform="matrix(-0.866 0.5 -0.5 -0.866 1956.9276 2182.4104)" class="st1" width="841.7" height="1.1"/>
					</g>
					<g>
						<line class="st1" x1="1060.1" y1="1159.5" x2="331.2" y2="1580.4"/>
						
							<rect x="274.8" y="1369.4" transform="matrix(-0.866 0.5 -0.5 -0.866 1983.0587 2208.5415)" class="st1" width="841.7" height="1.1"/>
					</g>
					<g>
						<line class="st1" x1="1069.7" y1="1176.1" x2="340.7" y2="1596.9"/>
						
							<rect x="284.4" y="1386" transform="matrix(-0.866 0.5 -0.5 -0.866 2009.1898 2234.6726)" class="st1" width="841.7" height="1.1"/>
					</g>
					<g>
						<line class="st1" x1="1079.2" y1="1192.7" x2="350.3" y2="1613.5"/>
						
							<rect x="293.9" y="1402.5" transform="matrix(-0.866 0.5 -0.5 -0.866 2035.3209 2260.8037)" class="st1" width="841.7" height="1.1"/>
					</g>
					<g>
						<line class="st1" x1="1088.8" y1="1209.2" x2="359.9" y2="1630.1"/>
						
							<rect x="303.5" y="1419.1" transform="matrix(-0.866 0.5 -0.5 -0.866 2061.4519 2286.9351)" class="st1" width="841.7" height="1.1"/>
					</g>
					<g>
						<line class="st1" x1="1098.4" y1="1225.8" x2="369.4" y2="1646.6"/>
						
							<rect x="313.1" y="1435.7" transform="matrix(-0.866 0.5 -0.5 -0.866 2087.5833 2313.0662)" class="st1" width="841.7" height="1.1"/>
					</g>
					<g>
						<line class="st1" x1="1107.9" y1="1242.4" x2="379" y2="1663.2"/>
						
							<rect x="322.6" y="1452.2" transform="matrix(-0.866 0.5 -0.5 -0.866 2113.7144 2339.1975)" class="st1" width="841.7" height="1.1"/>
					</g>
					<g>
						<line class="st1" x1="1117.5" y1="1258.9" x2="388.6" y2="1679.8"/>
						
							<rect x="332.2" y="1468.8" transform="matrix(-0.866 0.5 -0.5 -0.866 2139.8455 2365.3286)" class="st1" width="841.7" height="1.1"/>
					</g>
					<g>
						<line class="st1" x1="1127.1" y1="1275.5" x2="398.1" y2="1696.3"/>
						
							<rect x="341.7" y="1485.4" transform="matrix(-0.866 0.5 -0.5 -0.866 2165.9763 2391.4597)" class="st1" width="841.7" height="1.1"/>
					</g>
					<g>
						<line class="st1" x1="1136.6" y1="1292.1" x2="407.7" y2="1712.9"/>
						
							<rect x="351.3" y="1501.9" transform="matrix(-0.866 0.5 -0.5 -0.866 2192.1074 2417.5908)" class="st1" width="841.7" height="1.1"/>
					</g>
					<g>
						<line class="st1" x1="1146.2" y1="1308.6" x2="417.3" y2="1729.5"/>
						
							<rect x="360.9" y="1518.5" transform="matrix(-0.866 0.5 -0.5 -0.866 2218.2385 2443.7222)" class="st1" width="841.7" height="1.1"/>
					</g>
					<g>
						<line class="st1" x1="1155.8" y1="1325.2" x2="426.8" y2="1746"/>
						
							<rect x="370.4" y="1535.1" transform="matrix(-0.866 0.5 -0.5 -0.866 2244.3699 2469.8533)" class="st1" width="841.7" height="1.1"/>
					</g>
					<g>
						<line class="st1" x1="1165.3" y1="1341.8" x2="436.4" y2="1762.6"/>
						
							<rect x="380" y="1551.6" transform="matrix(-0.866 0.5 -0.5 -0.866 2270.501 2495.9844)" class="st1" width="841.7" height="1.1"/>
					</g>
					<g>
						<line class="st1" x1="1174.9" y1="1358.3" x2="446" y2="1779.2"/>
						
							<rect x="389.6" y="1568.2" transform="matrix(-0.866 0.5 -0.5 -0.866 2296.6321 2522.1157)" class="st1" width="841.7" height="1.1"/>
					</g>
					<g>
						<line class="st1" x1="1184.4" y1="1374.9" x2="455.5" y2="1795.7"/>
						
							<rect x="399.1" y="1584.8" transform="matrix(-0.866 0.5 -0.5 -0.866 2322.7639 2548.2461)" class="st1" width="841.7" height="1.1"/>
					</g>
					<g>
						<line class="st1" x1="1194" y1="1391.5" x2="465.1" y2="1812.3"/>
						
							<rect x="408.7" y="1601.3" transform="matrix(-0.866 0.5 -0.5 -0.866 2348.895 2574.3774)" class="st1" width="841.7" height="1.1"/>
					</g>
					<g>
						<line class="st1" x1="1203.6" y1="1408" x2="474.6" y2="1828.9"/>
						
							<rect x="418.3" y="1617.9" transform="matrix(-0.866 0.5 -0.5 -0.866 2375.0261 2600.5085)" class="st1" width="841.7" height="1.1"/>
					</g>
					<g>
						<line class="st1" x1="1213.1" y1="1424.6" x2="484.2" y2="1845.4"/>
						
							<rect x="427.8" y="1634.5" transform="matrix(-0.866 0.5 -0.5 -0.866 2401.1572 2626.6401)" class="st1" width="841.7" height="1.1"/>
					</g>
					<g>
						<line class="st1" x1="1222.7" y1="1441.2" x2="493.8" y2="1862"/>
						
							<rect x="437.4" y="1651" transform="matrix(-0.866 0.5 -0.5 -0.866 2427.2883 2652.7712)" class="st1" width="841.7" height="1.1"/>
					</g>
					<g>
						<line class="st1" x1="1232.3" y1="1457.7" x2="503.3" y2="1878.6"/>
						
							<rect x="447" y="1667.6" transform="matrix(-0.866 0.5 -0.5 -0.866 2453.4192 2678.9023)" class="st1" width="841.7" height="1.1"/>
					</g>
					<g>
						<line class="st1" x1="1241.8" y1="1474.3" x2="512.9" y2="1895.1"/>
						
							<rect x="456.5" y="1684.2" transform="matrix(-0.866 0.5 -0.5 -0.866 2479.5503 2705.0334)" class="st1" width="841.7" height="1.1"/>
					</g>
					<g>
						<line class="st1" x1="1251.4" y1="1490.9" x2="522.5" y2="1911.7"/>
						
							<rect x="466.1" y="1700.7" transform="matrix(-0.866 0.5 -0.5 -0.866 2505.6816 2731.1648)" class="st1" width="841.7" height="1.1"/>
					</g>
					<g>
						<line class="st1" x1="1261" y1="1507.4" x2="532" y2="1928.3"/>
						
							<rect x="475.7" y="1717.3" transform="matrix(-0.866 0.5 -0.5 -0.866 2531.8127 2757.2961)" class="st1" width="841.7" height="1.1"/>
					</g>
					<g>
						<line class="st1" x1="1270.5" y1="1524" x2="541.6" y2="1944.8"/>
						
							<rect x="485.2" y="1733.9" transform="matrix(-0.866 0.5 -0.5 -0.866 2557.9436 2783.4272)" class="st1" width="841.7" height="1.1"/>
					</g>
					<g>
						<line class="st1" x1="1280.1" y1="1540.6" x2="551.2" y2="1961.4"/>
						
							<rect x="494.8" y="1750.4" transform="matrix(-0.866 0.5 -0.5 -0.866 2584.075 2809.5581)" class="st1" width="841.7" height="1.1"/>
					</g>
					<g>
						<line class="st1" x1="1289.7" y1="1557.1" x2="560.7" y2="1978"/>
						
							<rect x="504.3" y="1767" transform="matrix(-0.866 0.5 -0.5 -0.866 2610.2061 2835.6892)" class="st1" width="841.7" height="1.1"/>
					</g>
				</g>
				<g>
					<g>
						<line class="st1" x1="448" y1="99.3" x2="-281" y2="520.1"/>
						
							<rect x="-337.4" y="309.1" transform="matrix(-0.866 0.5 -0.5 -0.866 310.6575 536.1751)" class="st1" width="841.7" height="1.1"/>
					</g>
					<g>
						<line class="st1" x1="457.5" y1="115.9" x2="-271.4" y2="536.7"/>
						
							<rect x="-327.8" y="325.7" transform="matrix(-0.866 0.5 -0.5 -0.866 336.7894 562.306)" class="st1" width="841.7" height="1.1"/>
					</g>
					<g>
						<line class="st1" x1="467.1" y1="132.4" x2="-261.8" y2="553.3"/>
						
							<rect x="-318.2" y="342.3" transform="matrix(-0.866 0.5 -0.5 -0.866 362.9205 588.4372)" class="st1" width="841.7" height="1.1"/>
					</g>
					<g>
						<line class="st1" x1="476.7" y1="149" x2="-252.3" y2="569.8"/>
						
							<rect x="-308.7" y="358.8" transform="matrix(-0.866 0.5 -0.5 -0.866 389.0516 614.5684)" class="st1" width="841.7" height="1.1"/>
					</g>
					<g>
						<line class="st1" x1="486.2" y1="165.6" x2="-242.7" y2="586.4"/>
						
							<rect x="-299.1" y="375.4" transform="matrix(-0.866 0.5 -0.5 -0.866 415.1827 640.6995)" class="st1" width="841.7" height="1.1"/>
					</g>
					<g>
						<line class="st1" x1="495.8" y1="182.1" x2="-233.1" y2="603"/>
						
							<rect x="-289.5" y="392" transform="matrix(-0.866 0.5 -0.5 -0.866 441.3138 666.8307)" class="st1" width="841.7" height="1.1"/>
					</g>
					<g>
						<line class="st1" x1="505.3" y1="198.7" x2="-223.6" y2="619.5"/>
						
							<rect x="-280" y="408.5" transform="matrix(-0.866 0.5 -0.5 -0.866 467.4448 692.9619)" class="st1" width="841.7" height="1.1"/>
					</g>
					<g>
						<line class="st1" x1="514.9" y1="215.3" x2="-214" y2="636.1"/>
						
							<rect x="-270.4" y="425.1" transform="matrix(-0.866 0.5 -0.5 -0.866 493.5759 719.093)" class="st1" width="841.7" height="1.1"/>
					</g>
					<g>
						<line class="st1" x1="524.5" y1="231.8" x2="-204.5" y2="652.7"/>
						
							<rect x="-260.8" y="441.7" transform="matrix(-0.866 0.5 -0.5 -0.866 519.707 745.2242)" class="st1" width="841.7" height="1.1"/>
					</g>
					<g>
						<line class="st1" x1="534" y1="248.4" x2="-194.9" y2="669.2"/>
						
							<rect x="-251.3" y="458.2" transform="matrix(-0.866 0.5 -0.5 -0.866 545.8383 771.3553)" class="st1" width="841.7" height="1.1"/>
					</g>
					<g>
						<line class="st1" x1="543.6" y1="264.9" x2="-185.3" y2="685.8"/>
						
							<rect x="-241.7" y="474.8" transform="matrix(-0.866 0.5 -0.5 -0.866 571.9694 797.4865)" class="st1" width="841.7" height="1.1"/>
					</g>
					<g>
						<line class="st1" x1="553.2" y1="281.5" x2="-175.8" y2="702.4"/>
						
							<rect x="-232.1" y="491.4" transform="matrix(-0.866 0.5 -0.5 -0.866 598.1005 823.6177)" class="st1" width="841.7" height="1.1"/>
					</g>
					<g>
						<line class="st1" x1="562.7" y1="298.1" x2="-166.2" y2="718.9"/>
						
							<rect x="-222.6" y="507.9" transform="matrix(-0.866 0.5 -0.5 -0.866 624.2315 849.7488)" class="st1" width="841.7" height="1.1"/>
					</g>
					<g>
						<line class="st1" x1="572.3" y1="314.6" x2="-156.6" y2="735.5"/>
						
							<rect x="-213" y="524.5" transform="matrix(-0.866 0.5 -0.5 -0.866 650.3626 875.88)" class="st1" width="841.7" height="1.1"/>
					</g>
					<g>
						<line class="st1" x1="581.9" y1="331.2" x2="-147.1" y2="752.1"/>
						
							<rect x="-203.4" y="541.1" transform="matrix(-0.866 0.5 -0.5 -0.866 676.4937 902.0112)" class="st1" width="841.7" height="1.1"/>
					</g>
					<g>
						<line class="st1" x1="591.4" y1="347.8" x2="-137.5" y2="768.6"/>
						
							<rect x="-193.9" y="557.6" transform="matrix(-0.866 0.5 -0.5 -0.866 702.6248 928.1423)" class="st1" width="841.7" height="1.1"/>
					</g>
					<g>
						<line class="st1" x1="601" y1="364.3" x2="-127.9" y2="785.2"/>
						
							<rect x="-184.3" y="574.2" transform="matrix(-0.866 0.5 -0.5 -0.866 728.756 954.2735)" class="st1" width="841.7" height="1.1"/>
					</g>
					<g>
						<line class="st1" x1="610.6" y1="380.9" x2="-118.4" y2="801.8"/>
						
							<rect x="-174.8" y="590.8" transform="matrix(-0.866 0.5 -0.5 -0.866 754.8878 980.4044)" class="st1" width="841.7" height="1.1"/>
					</g>
					<g>
						<line class="st1" x1="620.1" y1="397.5" x2="-108.8" y2="818.3"/>
						
							<rect x="-165.2" y="607.3" transform="matrix(-0.866 0.5 -0.5 -0.866 781.0189 1006.5355)" class="st1" width="841.7" height="1.1"/>
					</g>
					<g>
						<line class="st1" x1="629.7" y1="414" x2="-99.2" y2="834.9"/>
						
							<rect x="-155.6" y="623.9" transform="matrix(-0.866 0.5 -0.5 -0.866 807.1499 1032.6666)" class="st1" width="841.7" height="1.1"/>
					</g>
					<g>
						<line class="st1" x1="639.3" y1="430.6" x2="-89.7" y2="851.5"/>
						
							<rect x="-146.1" y="640.5" transform="matrix(-0.866 0.5 -0.5 -0.866 833.281 1058.7979)" class="st1" width="841.7" height="1.1"/>
					</g>
					<g>
						<line class="st1" x1="648.8" y1="447.2" x2="-80.1" y2="868"/>
						
							<rect x="-136.5" y="657" transform="matrix(-0.866 0.5 -0.5 -0.866 859.4121 1084.929)" class="st1" width="841.7" height="1.1"/>
					</g>
					<g>
						<line class="st1" x1="658.4" y1="463.7" x2="-70.5" y2="884.6"/>
						
							<rect x="-126.9" y="673.6" transform="matrix(-0.866 0.5 -0.5 -0.866 885.5432 1111.0602)" class="st1" width="841.7" height="1.1"/>
					</g>
					<g>
						<line class="st1" x1="667.9" y1="480.3" x2="-61" y2="901.2"/>
						
							<rect x="-117.4" y="690.2" transform="matrix(-0.866 0.5 -0.5 -0.866 911.6743 1137.1913)" class="st1" width="841.7" height="1.1"/>
					</g>
					<g>
						<line class="st1" x1="677.5" y1="496.9" x2="-51.4" y2="917.7"/>
						
							<rect x="-107.8" y="706.7" transform="matrix(-0.866 0.5 -0.5 -0.866 937.8055 1163.3225)" class="st1" width="841.7" height="1.1"/>
					</g>
					<g>
						<line class="st1" x1="687.1" y1="513.4" x2="-41.9" y2="934.3"/>
						
							<rect x="-98.2" y="723.3" transform="matrix(-0.866 0.5 -0.5 -0.866 963.9366 1189.4536)" class="st1" width="841.7" height="1.1"/>
					</g>
					<g>
						<line class="st1" x1="696.6" y1="530" x2="-32.3" y2="950.9"/>
						
							<rect x="-88.7" y="739.9" transform="matrix(-0.866 0.5 -0.5 -0.866 990.0677 1215.5848)" class="st1" width="841.7" height="1.1"/>
					</g>
					<g>
						<line class="st1" x1="706.2" y1="546.6" x2="-22.7" y2="967.4"/>
						
							<rect x="-79.1" y="756.4" transform="matrix(-0.866 0.5 -0.5 -0.866 1016.1987 1241.7159)" class="st1" width="841.7" height="1.1"/>
					</g>
					<g>
						<line class="st1" x1="715.8" y1="563.1" x2="-13.2" y2="984"/>
						
							<rect x="-69.5" y="773" transform="matrix(-0.866 0.5 -0.5 -0.866 1042.3298 1267.8472)" class="st1" width="841.7" height="1.1"/>
					</g>
					<g>
						<line class="st1" x1="725.3" y1="579.7" x2="-3.6" y2="1000.6"/>
						
							<rect x="-60" y="789.6" transform="matrix(-0.866 0.5 -0.5 -0.866 1068.4609 1293.9783)" class="st1" width="841.7" height="1.1"/>
					</g>
					<g>
						<line class="st1" x1="734.9" y1="596.3" x2="6" y2="1017.1"/>
						
							<rect x="-50.4" y="806.1" transform="matrix(-0.866 0.5 -0.5 -0.866 1094.592 1320.1095)" class="st1" width="841.7" height="1.1"/>
					</g>
					<g>
						<line class="st1" x1="744.5" y1="612.8" x2="15.5" y2="1033.7"/>
						
							<rect x="-40.8" y="822.7" transform="matrix(-0.866 0.5 -0.5 -0.866 1120.7231 1346.2407)" class="st1" width="841.7" height="1.1"/>
					</g>
					<g>
						<line class="st1" x1="754" y1="629.4" x2="25.1" y2="1050.3"/>
						
							<rect x="-31.3" y="839.3" transform="matrix(-0.866 0.5 -0.5 -0.866 1146.8545 1372.3718)" class="st1" width="841.7" height="1.1"/>
					</g>
					<g>
						<line class="st1" x1="763.6" y1="646" x2="34.7" y2="1066.8"/>
						
							<rect x="-21.7" y="855.8" transform="matrix(-0.866 0.5 -0.5 -0.866 1172.9862 1398.5027)" class="st1" width="841.7" height="1.1"/>
					</g>
					<g>
						<line class="st1" x1="773.2" y1="662.5" x2="44.2" y2="1083.4"/>
						
							<rect x="-12.2" y="872.4" transform="matrix(-0.866 0.5 -0.5 -0.866 1199.1173 1424.6338)" class="st1" width="841.7" height="1.1"/>
					</g>
					<g>
						<line class="st1" x1="782.7" y1="679.1" x2="53.8" y2="1100"/>
						
							<rect x="-2.6" y="889" transform="matrix(-0.866 0.5 -0.5 -0.866 1225.2484 1450.765)" class="st1" width="841.7" height="1.1"/>
					</g>
					<g>
						<line class="st1" x1="792.3" y1="695.7" x2="63.4" y2="1116.5"/>
						
							<rect x="7" y="905.5" transform="matrix(-0.866 0.5 -0.5 -0.866 1251.3794 1476.8964)" class="st1" width="841.7" height="1.1"/>
					</g>
					<g>
						<line class="st1" x1="801.9" y1="712.2" x2="72.9" y2="1133.1"/>
						
							<rect x="16.5" y="922.1" transform="matrix(-0.866 0.5 -0.5 -0.866 1277.5105 1503.0276)" class="st1" width="841.7" height="1.1"/>
					</g>
					<g>
						<line class="st1" x1="811.4" y1="728.8" x2="82.5" y2="1149.7"/>
						
							<rect x="26.1" y="938.7" transform="matrix(-0.866 0.5 -0.5 -0.866 1303.6416 1529.1587)" class="st1" width="841.7" height="1.1"/>
					</g>
					<g>
						<line class="st1" x1="821" y1="745.4" x2="92.1" y2="1166.2"/>
						
							<rect x="35.7" y="955.2" transform="matrix(-0.866 0.5 -0.5 -0.866 1329.7727 1555.2899)" class="st1" width="841.7" height="1.1"/>
					</g>
					<g>
						<line class="st1" x1="830.5" y1="761.9" x2="101.6" y2="1182.8"/>
						
							<rect x="45.2" y="971.8" transform="matrix(-0.866 0.5 -0.5 -0.866 1355.9039 1581.4211)" class="st1" width="841.7" height="1.1"/>
					</g>
					<g>
						<line class="st1" x1="840.1" y1="778.5" x2="111.2" y2="1199.4"/>
						
							<rect x="54.8" y="988.4" transform="matrix(-0.866 0.5 -0.5 -0.866 1382.0349 1607.5522)" class="st1" width="841.7" height="1.1"/>
					</g>
					<g>
						<line class="st1" x1="849.7" y1="795.1" x2="120.7" y2="1215.9"/>
						
							<rect x="64.4" y="1004.9" transform="matrix(-0.866 0.5 -0.5 -0.866 1408.166 1633.6835)" class="st1" width="841.7" height="1.1"/>
					</g>
					<g>
						<line class="st1" x1="859.2" y1="811.6" x2="130.3" y2="1232.5"/>
						
							<rect x="73.9" y="1021.5" transform="matrix(-0.866 0.5 -0.5 -0.866 1434.2972 1659.8145)" class="st1" width="841.7" height="1.1"/>
					</g>
					<g>
						<line class="st1" x1="868.8" y1="828.2" x2="139.9" y2="1249.1"/>
						
							<rect x="83.5" y="1038.1" transform="matrix(-0.866 0.5 -0.5 -0.866 1460.4283 1685.9456)" class="st1" width="841.7" height="1.1"/>
					</g>
				</g>
			</g>
		</g>
		<g>
			<defs>
				<path id="SVGID_17_" d="M463.1,624.1C506,595,548.9,566,591.5,536.8c55.1-37.7,110.2-75.9,164.9-114.8
					c145.5,130.4,330.4,220,501.4,319.8c28.3,16.5,56.3,33.5,84.2,50.8c-122.3,162.3-198,356.2-194.4,558.3
					c0.2,8.8,0.5,17.7,0.9,26.4c-3.8,2-7.6,3.9-11.4,5.9C877.4,1163.4,647,914.4,463.1,624.1z"/>
			</defs>
			<clipPath id="SVGID_4_">
				<use xlink:href="#SVGID_17_"  style="overflow:visible;"/>
			</clipPath>
			<g class="st4">
				<g>
					<line class="st1" x1="1506.1" y1="783.6" x2="643.3" y2="286.6"/>
					<polygon class="st1" points="1501.6,791.4 1510.6,775.8 647.8,278.9 638.8,294.4 					"/>
				</g>
				<g>
					<line class="st1" x1="1429.6" y1="916.2" x2="566.8" y2="419.2"/>
					<polygon class="st1" points="1425.1,924 1434.1,908.4 571.3,411.4 562.3,427 					"/>
				</g>
				<g>
					<line class="st1" x1="1391.3" y1="982.4" x2="528.5" y2="485.4"/>
					<polygon class="st1" points="1386.8,990.2 1395.8,974.6 533,477.7 524,493.2 					"/>
				</g>
				<g>
					<line class="st1" x1="1333.9" y1="1081.8" x2="471.1" y2="584.8"/>
					<polygon class="st1" points="1329.4,1089.6 1338.4,1074 475.6,577 466.6,592.6 					"/>
				</g>
				<g>
					<line class="st1" x1="1276.5" y1="1181.2" x2="413.7" y2="684.2"/>
					<polygon class="st1" points="1272,1189 1281,1173.4 418.2,676.4 409.2,692 					"/>
				</g>
				<g>
					<line class="st1" x1="1200" y1="1313.8" x2="337.2" y2="816.8"/>
					<polygon class="st1" points="1195.5,1321.6 1204.5,1306 341.7,809 332.7,824.6 					"/>
				</g>
				<g>
					<line class="st1" x1="1161.8" y1="1380" x2="298.9" y2="883"/>
					<polygon class="st1" points="1157.3,1387.8 1166.3,1372.2 303.4,875.2 294.4,890.8 					"/>
				</g>
				<g>
					<line class="st1" x1="1544.4" y1="717.4" x2="681.5" y2="220.4"/>
					<polygon class="st1" points="1539.9,725.2 1548.9,709.6 686,212.6 677,228.2 					"/>
				</g>
				<g>
					<line class="st1" x1="1487" y1="816.8" x2="624.1" y2="319.8"/>
					<polygon class="st1" points="1482.5,824.6 1491.5,809 628.6,312 619.6,327.6 					"/>
				</g>
				<g>
					<line class="st1" x1="1410.5" y1="949.3" x2="547.6" y2="452.3"/>
					<polygon class="st1" points="1406,957.1 1415,941.5 552.1,444.5 543.1,460.1 					"/>
				</g>
				<g>
					<line class="st1" x1="1372.2" y1="1015.6" x2="509.4" y2="518.6"/>
					<polygon class="st1" points="1367.7,1023.4 1376.7,1007.8 513.9,510.8 504.9,526.4 					"/>
				</g>
				<g>
					<line class="st1" x1="1314.8" y1="1115" x2="452" y2="618"/>
					<polygon class="st1" points="1310.3,1122.8 1319.3,1107.2 456.5,610.2 447.5,625.8 					"/>
				</g>
				<g>
					<line class="st1" x1="1257.4" y1="1214.4" x2="394.6" y2="717.4"/>
					<polygon class="st1" points="1252.9,1222.2 1261.9,1206.6 399.1,709.6 390.1,725.2 					"/>
				</g>
				<g>
					<line class="st1" x1="1180.9" y1="1346.9" x2="318.1" y2="849.9"/>
					<polygon class="st1" points="1176.4,1354.7 1185.4,1339.1 322.6,842.1 313.6,857.7 					"/>
				</g>
				<g>
					<line class="st1" x1="1142.6" y1="1413.2" x2="279.8" y2="916.2"/>
					<polygon class="st1" points="1138.1,1421 1147.1,1405.4 284.3,908.4 275.3,924 					"/>
				</g>
				<g>
					<line class="st1" x1="1525.2" y1="750.5" x2="662.4" y2="253.5"/>
					<polygon class="st1" points="1520.7,758.3 1529.7,742.7 666.9,245.7 657.9,261.3 					"/>
				</g>
				<g>
					<line class="st1" x1="1467.8" y1="849.9" x2="605" y2="352.9"/>
					<polygon class="st1" points="1463.3,857.7 1472.3,842.1 609.5,345.1 600.5,360.7 					"/>
				</g>
				<g>
					<line class="st1" x1="1448.7" y1="883" x2="585.9" y2="386"/>
					<polygon class="st1" points="1444.2,890.8 1453.2,875.2 590.4,378.3 581.4,393.8 					"/>
				</g>
				<g>
					<line class="st1" x1="1353.1" y1="1048.7" x2="490.2" y2="551.7"/>
					<polygon class="st1" points="1348.6,1056.5 1357.6,1040.9 494.7,543.9 485.7,559.5 					"/>
				</g>
				<g>
					<line class="st1" x1="1295.7" y1="1148.1" x2="432.8" y2="651.1"/>
					<polygon class="st1" points="1291.2,1155.9 1300.2,1140.3 437.3,643.3 428.3,658.9 					"/>
				</g>
				<g>
					<line class="st1" x1="1238.3" y1="1247.5" x2="375.5" y2="750.5"/>
					<polygon class="st1" points="1233.8,1255.3 1242.8,1239.7 380,742.7 371,758.3 					"/>
				</g>
				<g>
					<line class="st1" x1="1219.2" y1="1280.6" x2="356.3" y2="783.6"/>
					<polygon class="st1" points="1214.7,1288.4 1223.7,1272.8 360.8,775.8 351.8,791.4 					"/>
				</g>
				<g>
					<line class="st1" x1="1123.5" y1="1446.3" x2="260.7" y2="949.3"/>
					<polygon class="st1" points="1119,1454.1 1128,1438.5 265.2,941.5 256.2,957.1 					"/>
				</g>
			</g>
		</g>
		<g>
			<path id="XMLID_52_" class="st1" d="M1341.9,792.6c146.3,91.2,285.7,193.7,415.5,306.9c-207.5,82.1-410.3,175.6-609,277.8
				c-0.4-8.8-0.8-17.6-0.9-26.4C1143.9,1148.8,1219.6,954.9,1341.9,792.6z"/>
		</g>
		<g>
			<defs>
				<path id="SVGID_19_" d="M-217.9,1120.4c71.4-60.3,145.1-118.1,220.3-174.2c187.7,256.9,394.9,502.2,622.7,724.5
					c-76.1,46-151.6,93-226.6,140.9C211.4,1566.5,4,1336-217.9,1120.4z"/>
			</defs>
			<clipPath id="SVGID_5_">
				<use xlink:href="#SVGID_19_"  style="overflow:visible;"/>
			</clipPath>
			<g class="st5">
				<g>
					<line class="st1" x1="748.6" y1="1687.1" x2="128.9" y2="609.4"/>
					<polygon class="st1" points="740.8,1691.6 756.4,1682.6 136.7,604.9 121.2,613.9 					"/>
				</g>
				<g>
					<line class="st1" x1="616.1" y1="1763.6" x2="-3.6" y2="685.9"/>
					<polygon class="st1" points="608.3,1768.1 623.8,1759.1 4.2,681.4 -11.4,690.4 					"/>
				</g>
				<g>
					<line class="st1" x1="549.8" y1="1801.9" x2="-69.9" y2="724.1"/>
					<polygon class="st1" points="542,1806.4 557.6,1797.4 -62.1,719.6 -77.6,728.6 					"/>
				</g>
				<g>
					<line class="st1" x1="450.4" y1="1859.3" x2="-169.3" y2="781.5"/>
					<polygon class="st1" points="442.6,1863.8 458.2,1854.8 -161.5,777 -177,786 					"/>
				</g>
				<g>
					<line class="st1" x1="351" y1="1916.7" x2="-268.7" y2="838.9"/>
					<polygon class="st1" points="343.2,1921.2 358.8,1912.2 -260.9,834.4 -276.4,843.4 					"/>
				</g>
				<g>
					<line class="st1" x1="218.5" y1="1993.2" x2="-401.2" y2="915.4"/>
					<polygon class="st1" points="210.7,1997.7 226.3,1988.7 -393.4,910.9 -409,919.9 					"/>
				</g>
				<g>
					<line class="st1" x1="152.2" y1="2031.4" x2="-467.4" y2="953.7"/>
					<polygon class="st1" points="144.4,2035.9 160,2026.9 -459.7,949.2 -475.2,958.2 					"/>
				</g>
				<g>
					<line class="st1" x1="814.9" y1="1648.9" x2="195.2" y2="571.1"/>
					<polygon class="st1" points="807.1,1653.3 822.6,1644.4 203,566.6 187.4,575.6 					"/>
				</g>
				<g>
					<line class="st1" x1="715.5" y1="1706.2" x2="95.8" y2="628.5"/>
					<polygon class="st1" points="707.7,1710.7 723.2,1701.7 103.6,624 88,633 					"/>
				</g>
				<g>
					<line class="st1" x1="582.9" y1="1782.8" x2="-36.7" y2="705"/>
					<polygon class="st1" points="575.1,1787.3 590.7,1778.3 -28.9,700.5 -44.5,709.5 					"/>
				</g>
				<g>
					<line class="st1" x1="516.7" y1="1821" x2="-103" y2="743.3"/>
					<polygon class="st1" points="508.9,1825.5 524.4,1816.5 -95.2,738.8 -110.8,747.8 					"/>
				</g>
				<g>
					<line class="st1" x1="417.3" y1="1878.4" x2="-202.4" y2="800.7"/>
					<polygon class="st1" points="409.5,1882.9 425,1873.9 -194.6,796.2 -210.2,805.1 					"/>
				</g>
				<g>
					<line class="st1" x1="317.9" y1="1935.8" x2="-301.8" y2="858"/>
					<polygon class="st1" points="310.1,1940.3 325.7,1931.3 -294,853.5 -309.6,862.5 					"/>
				</g>
				<g>
					<line class="st1" x1="185.3" y1="2012.3" x2="-434.3" y2="934.6"/>
					<polygon class="st1" points="177.5,2016.8 193.1,2007.8 -426.5,930.1 -442.1,939.1 					"/>
				</g>
				<g>
					<line class="st1" x1="119.1" y1="2050.6" x2="-500.6" y2="972.8"/>
					<polygon class="st1" points="111.3,2055.1 126.9,2046.1 -492.8,968.3 -508.4,977.3 					"/>
				</g>
				<g>
					<line class="st1" x1="781.7" y1="1668" x2="162.1" y2="590.2"/>
					<polygon class="st1" points="773.9,1672.5 789.5,1663.5 169.9,585.7 154.3,594.7 					"/>
				</g>
				<g>
					<line class="st1" x1="682.3" y1="1725.4" x2="62.7" y2="647.6"/>
					<polygon class="st1" points="674.5,1729.9 690.1,1720.9 70.5,643.1 54.9,652.1 					"/>
				</g>
				<g>
					<line class="st1" x1="649.2" y1="1744.5" x2="29.5" y2="666.7"/>
					<polygon class="st1" points="641.4,1749 657,1740 37.3,662.2 21.8,671.2 					"/>
				</g>
				<g>
					<line class="st1" x1="483.5" y1="1840.1" x2="-136.1" y2="762.4"/>
					<polygon class="st1" points="475.7,1844.6 491.3,1835.6 -128.3,757.9 -143.9,766.9 					"/>
				</g>
				<g>
					<line class="st1" x1="384.1" y1="1897.5" x2="-235.5" y2="819.8"/>
					<polygon class="st1" points="376.3,1902 391.9,1893 -227.7,815.3 -243.3,824.3 					"/>
				</g>
				<g>
					<line class="st1" x1="284.7" y1="1954.9" x2="-334.9" y2="877.2"/>
					<polygon class="st1" points="276.9,1959.4 292.5,1950.4 -327.1,872.7 -342.7,881.7 					"/>
				</g>
				<g>
					<line class="st1" x1="251.6" y1="1974" x2="-368.1" y2="896.3"/>
					<polygon class="st1" points="243.8,1978.5 259.4,1969.6 -360.3,891.8 -375.8,900.8 					"/>
				</g>
				<g>
					<line class="st1" x1="85.9" y1="2069.7" x2="-533.7" y2="991.9"/>
					<polygon class="st1" points="78.1,2074.2 93.7,2065.2 -525.9,987.4 -541.5,996.4 					"/>
				</g>
			</g>
		</g>
	</g>
	<g class="st0">
		<path class="st6" d="M2.5,946.8c0,0,1160.7-616.7,1354.2-1050.1L584.3-174H42.9L-65.4,69.2L2.5,946.8z"/>
	</g>
</g>
</svg>
