<?xml version="1.0" encoding="utf-8"?>
<!-- Generator: Adobe Illustrator 19.0.0, SVG Export Plug-In . SVG Version: 6.00 Build 0)  -->
<svg version="1.1" id="Layer_1" xmlns="http://www.w3.org/2000/svg" xmlns:xlink="http://www.w3.org/1999/xlink" x="0px" y="0px"
	 viewBox="0 0 1234.6 1167" style="enable-background:new 0 0 1234.6 1167;" xml:space="preserve">
<style type="text/css">
	.st0{clip-path:url(#SVGID_2_);}
	.st1{fill:#8E9090;}
	.st2{clip-path:url(#SVGID_3_);}
	.st3{clip-path:url(#SVGID_4_);}
	.st4{clip-path:url(#SVGID_5_);}
	.st5{clip-path:url(#SVGID_6_);}
	.st6{clip-path:url(#SVGID_2_);fill:#000100;}
</style>
<g>
	<defs>
		<path id="SVGID_1_" d="M1234.6,0l-1,929l-157,13c-217,24-387.5,50.5-422.6,56l-715.4,169"/>
	</defs>
	<clipPath id="SVGID_2_">
		<use xlink:href="#SVGID_1_"  style="overflow:visible;"/>
	</clipPath>
	<g class="st0">
		<path id="XMLID_28_" class="st1" d="M661,381.1c105.3-75,209.1-152.7,308.9-234.6c102.5,152,228,290.2,366.1,408.8
			c16.7,14.4,33.6,28.5,50.7,42.4c-51.2,47.1-98.4,98.7-140.1,154.1c-27.8-17.3-55.9-34.3-84.2-50.8
			C991.4,601.1,806.5,511.5,661,381.1z"/>
	</g>
	<g class="st0">
		<defs>
			<path id="SVGID_13_" d="M1386.8,597.5c-17.1-13.9-34-28-50.7-42.4C1198,436.6,1072.5,298.4,970,146.4
				c243.2-199.8,462.1-424.7,617.5-696.6c12.5-21.9,24.6-44.3,36.1-66.9c71.7-5.5,143.3-19,213.1-39.2
				c-4.2,126.6,3,253.5,21.3,378.2c28.1,191.1,80.5,376.9,152.4,555.6c-165.7,43-324.7,106.7-468.3,199.8
				C1487.3,512.6,1435.2,553,1386.8,597.5z"/>
		</defs>
		<clipPath id="SVGID_3_">
			<use xlink:href="#SVGID_13_"  style="overflow:visible;"/>
		</clipPath>
		<g class="st2">
			<line class="st1" x1="1549.2" y1="-911" x2="1116.4" y2="696.4"/>
			<polygon class="st1" points="1118.6,697 1551.3,-910.4 1547,-911.5 1114.3,695.8 			"/>
		</g>
		<g class="st2">
			<line class="st1" x1="1752.4" y1="-856.5" x2="1319.7" y2="750.8"/>
			<polygon class="st1" points="1321.9,751.4 1754.6,-855.9 1750.2,-857.1 1317.5,750.3 			"/>
		</g>
		<g class="st2">
			<line class="st1" x1="1567.6" y1="-906" x2="1134.9" y2="701.3"/>
			<polygon class="st1" points="1137.1,701.9 1569.8,-905.4 1565.5,-906.6 1132.7,700.8 			"/>
		</g>
		<g class="st2">
			<line class="st1" x1="1770.9" y1="-851.5" x2="1338.2" y2="755.8"/>
			<polygon class="st1" points="1340.3,756.4 1773.1,-851 1768.7,-852.1 1336,755.2 			"/>
		</g>
		<g class="st2">
			<line class="st1" x1="1401.3" y1="-950.6" x2="968.6" y2="656.8"/>
			<polygon class="st1" points="970.8,657.4 1403.5,-950 1399.2,-951.2 966.4,656.2 			"/>
		</g>
		<g class="st2">
			<line class="st1" x1="1586.1" y1="-901.1" x2="1153.4" y2="706.3"/>
			<polygon class="st1" points="1155.6,706.9 1588.3,-900.5 1583.9,-901.6 1151.2,705.7 			"/>
		</g>
		<g class="st2">
			<line class="st1" x1="1789.4" y1="-846.6" x2="1356.6" y2="760.8"/>
			<polygon class="st1" points="1358.8,761.3 1791.5,-846 1787.2,-847.2 1354.5,760.2 			"/>
		</g>
		<g class="st2">
			<line class="st1" x1="1419.8" y1="-945.6" x2="987.1" y2="661.7"/>
			<polygon class="st1" points="989.3,662.3 1422,-945 1417.6,-946.2 984.9,661.1 			"/>
		</g>
		<g class="st2">
			<line class="st1" x1="1604.6" y1="-896.1" x2="1171.9" y2="711.2"/>
			<polygon class="st1" points="1174,711.8 1606.8,-895.5 1602.4,-896.7 1169.7,710.7 			"/>
		</g>
		<g class="st2">
			<line class="st1" x1="1807.8" y1="-841.6" x2="1375.1" y2="765.7"/>
			<polygon class="st1" points="1377.3,766.3 1810,-841.1 1805.7,-842.2 1372.9,765.1 			"/>
		</g>
		<g class="st2">
			<line class="st1" x1="1438.3" y1="-940.7" x2="1005.6" y2="666.7"/>
			<polygon class="st1" points="1007.7,667.3 1440.5,-940.1 1436.1,-941.3 1003.4,666.1 			"/>
		</g>
		<g class="st2">
			<line class="st1" x1="1623.1" y1="-891.2" x2="1190.3" y2="716.2"/>
			<polygon class="st1" points="1192.5,716.8 1625.2,-890.6 1620.9,-891.7 1188.2,715.6 			"/>
		</g>
		<g class="st2">
			<line class="st1" x1="1826.3" y1="-836.7" x2="1393.6" y2="770.7"/>
			<polygon class="st1" points="1395.8,771.2 1828.5,-836.1 1824.2,-837.3 1391.4,770.1 			"/>
		</g>
		<g class="st2">
			<line class="st1" x1="1456.8" y1="-935.7" x2="1024" y2="671.6"/>
			<polygon class="st1" points="1026.2,672.2 1458.9,-935.1 1454.6,-936.3 1021.9,671.1 			"/>
		</g>
		<g class="st2">
			<line class="st1" x1="1641.6" y1="-886.2" x2="1208.8" y2="721.1"/>
			<polygon class="st1" points="1211,721.7 1643.7,-885.6 1639.4,-886.8 1206.6,720.6 			"/>
		</g>
		<g class="st2">
			<line class="st1" x1="1844.8" y1="-831.7" x2="1412.1" y2="775.6"/>
			<polygon class="st1" points="1414.2,776.2 1847,-831.2 1842.6,-832.3 1409.9,775 			"/>
		</g>
		<g class="st2">
			<line class="st1" x1="1475.3" y1="-930.8" x2="1042.5" y2="676.6"/>
			<polygon class="st1" points="1044.7,677.2 1477.4,-930.2 1473.1,-931.3 1040.3,676 			"/>
		</g>
		<g class="st2">
			<line class="st1" x1="1660" y1="-881.3" x2="1227.3" y2="726.1"/>
			<polygon class="st1" points="1229.5,726.7 1662.2,-880.7 1657.9,-881.8 1225.1,725.5 			"/>
		</g>
		<g class="st2">
			<line class="st1" x1="1863.3" y1="-826.8" x2="1430.5" y2="780.6"/>
			<polygon class="st1" points="1432.7,781.1 1865.5,-826.2 1861.1,-827.4 1428.4,780 			"/>
		</g>
		<g class="st2">
			<line class="st1" x1="1493.7" y1="-925.8" x2="1061" y2="681.5"/>
			<polygon class="st1" points="1063.2,682.1 1495.9,-925.2 1491.6,-926.4 1058.8,681 			"/>
		</g>
		<g class="st2">
			<line class="st1" x1="1678.5" y1="-876.3" x2="1245.8" y2="731"/>
			<polygon class="st1" points="1247.9,731.6 1680.7,-875.7 1676.3,-876.9 1243.6,730.5 			"/>
		</g>
		<g class="st2">
			<line class="st1" x1="1881.8" y1="-821.8" x2="1449" y2="785.5"/>
			<polygon class="st1" points="1451.2,786.1 1883.9,-821.3 1879.6,-822.4 1446.9,784.9 			"/>
		</g>
		<g class="st2">
			<line class="st1" x1="1512.2" y1="-920.9" x2="1079.5" y2="686.5"/>
			<polygon class="st1" points="1081.6,687.1 1514.4,-920.3 1510,-921.4 1077.3,685.9 			"/>
		</g>
		<g class="st2">
			<line class="st1" x1="1697" y1="-871.4" x2="1264.3" y2="736"/>
			<polygon class="st1" points="1266.4,736.6 1699.2,-870.8 1694.8,-871.9 1262.1,735.4 			"/>
		</g>
		<g class="st2">
			<line class="st1" x1="1900.2" y1="-816.9" x2="1467.5" y2="790.5"/>
			<polygon class="st1" points="1469.7,791 1902.4,-816.3 1898.1,-817.5 1465.3,789.9 			"/>
		</g>
		<g class="st2">
			<line class="st1" x1="1530.7" y1="-915.9" x2="1098" y2="691.4"/>
			<polygon class="st1" points="1100.1,692 1532.9,-915.3 1528.5,-916.5 1095.8,690.9 			"/>
		</g>
		<g class="st2">
			<line class="st1" x1="1272" y1="-985.2" x2="839.3" y2="622.2"/>
			<polygon class="st1" points="841.4,622.8 1274.2,-984.6 1269.8,-985.7 837.1,621.6 			"/>
		</g>
		<g class="st2">
			<line class="st1" x1="1290.5" y1="-980.2" x2="857.7" y2="627.1"/>
			<polygon class="st1" points="859.9,627.7 1292.7,-979.6 1288.3,-980.8 855.6,626.6 			"/>
		</g>
		<g class="st2">
			<line class="st1" x1="1309" y1="-975.3" x2="876.2" y2="632.1"/>
			<polygon class="st1" points="878.4,632.7 1311.1,-974.7 1306.8,-975.8 874.1,631.5 			"/>
		</g>
		<g class="st2">
			<line class="st1" x1="1327.4" y1="-970.3" x2="894.7" y2="637"/>
			<polygon class="st1" points="896.9,637.6 1329.6,-969.7 1325.3,-970.9 892.5,636.5 			"/>
		</g>
		<g class="st2">
			<line class="st1" x1="1345.9" y1="-965.4" x2="913.2" y2="642"/>
			<polygon class="st1" points="915.4,642.6 1348.1,-964.8 1343.7,-965.9 911,641.4 			"/>
		</g>
		<g class="st2">
			<line class="st1" x1="1364.4" y1="-960.4" x2="931.7" y2="646.9"/>
			<polygon class="st1" points="933.8,647.5 1366.6,-959.8 1362.2,-961 929.5,646.4 			"/>
		</g>
		<g class="st2">
			<line class="st1" x1="1382.9" y1="-955.5" x2="950.1" y2="651.9"/>
			<polygon class="st1" points="952.3,652.5 1385,-954.9 1380.7,-956 948,651.3 			"/>
		</g>
		<g class="st2">
			<line class="st1" x1="1715.5" y1="-866.4" x2="1282.7" y2="740.9"/>
			<polygon class="st1" points="1284.9,741.5 1717.6,-865.8 1713.3,-867 1280.6,740.4 			"/>
		</g>
		<g class="st2">
			<line class="st1" x1="1918.7" y1="-811.9" x2="1486" y2="795.4"/>
			<polygon class="st1" points="1488.2,796 1920.9,-811.4 1916.5,-812.5 1483.8,794.8 			"/>
		</g>
		<g class="st2">
			<line class="st1" x1="1733.9" y1="-861.5" x2="1301.2" y2="745.9"/>
			<polygon class="st1" points="1303.4,746.5 1736.1,-860.9 1731.8,-862 1299,745.3 			"/>
		</g>
		<g class="st2">
			<line class="st1" x1="1937.2" y1="-807" x2="1504.5" y2="800.4"/>
			<polygon class="st1" points="1506.6,800.9 1939.4,-806.4 1935,-807.6 1502.3,799.8 			"/>
		</g>
		<g class="st2">
			<line class="st1" x1="1955.7" y1="-802" x2="1522.9" y2="805.3"/>
			<polygon class="st1" points="1525.1,805.9 1957.8,-801.5 1953.5,-802.6 1520.8,804.7 			"/>
		</g>
		<g class="st2">
			<line class="st1" x1="1974.1" y1="-797.1" x2="1541.4" y2="810.3"/>
			<polygon class="st1" points="1543.6,810.8 1976.3,-796.5 1972,-797.7 1539.2,809.7 			"/>
		</g>
		<g class="st2">
			<line class="st1" x1="1992.6" y1="-792.1" x2="1559.9" y2="815.2"/>
			<polygon class="st1" points="1562.1,815.8 1994.8,-791.6 1990.5,-792.7 1557.7,814.6 			"/>
		</g>
		<g class="st2">
			<line class="st1" x1="2011.1" y1="-787.2" x2="1578.4" y2="820.2"/>
			<polygon class="st1" points="1580.5,820.7 2013.3,-786.6 2008.9,-787.8 1576.2,819.6 			"/>
		</g>
		<g class="st2">
			<line class="st1" x1="2029.6" y1="-782.2" x2="1596.8" y2="825.1"/>
			<polygon class="st1" points="1599,825.7 2031.8,-781.7 2027.4,-782.8 1594.7,824.5 			"/>
		</g>
		<g class="st2">
			<line class="st1" x1="2048.1" y1="-777.3" x2="1615.3" y2="830.1"/>
			<polygon class="st1" points="1617.5,830.6 2050.2,-776.7 2045.9,-777.9 1613.2,829.5 			"/>
		</g>
		<g class="st2">
			<line class="st1" x1="2066.5" y1="-772.3" x2="1633.8" y2="835"/>
			<polygon class="st1" points="1636,835.6 2068.7,-771.8 2064.4,-772.9 1631.6,834.4 			"/>
		</g>
		<g class="st2">
			<line class="st1" x1="2085" y1="-767.4" x2="1652.3" y2="840"/>
			<polygon class="st1" points="1654.5,840.6 2087.2,-766.8 2082.8,-768 1650.1,839.4 			"/>
		</g>
		<g class="st2">
			<line class="st1" x1="2103.5" y1="-762.4" x2="1670.8" y2="844.9"/>
			<polygon class="st1" points="1672.9,845.5 2105.7,-761.8 2101.3,-763 1668.6,844.3 			"/>
		</g>
		<g class="st2">
			<line class="st1" x1="2122" y1="-757.5" x2="1689.2" y2="849.9"/>
			<polygon class="st1" points="1691.4,850.5 2124.1,-756.9 2119.8,-758.1 1687.1,849.3 			"/>
		</g>
		<g class="st2">
			<line class="st1" x1="2140.4" y1="-752.5" x2="1707.7" y2="854.8"/>
			<polygon class="st1" points="1709.9,855.4 2142.6,-751.9 2138.3,-753.1 1705.5,854.2 			"/>
		</g>
		<g class="st2">
			<line class="st1" x1="2158.9" y1="-747.6" x2="1726.2" y2="859.8"/>
			<polygon class="st1" points="1728.4,860.4 2161.1,-747 2156.7,-748.2 1724,859.2 			"/>
		</g>
		<g class="st2">
			<line class="st1" x1="2177.4" y1="-742.6" x2="1744.7" y2="864.7"/>
			<polygon class="st1" points="1746.8,865.3 2179.6,-742 2175.2,-743.2 1742.5,864.1 			"/>
		</g>
		<g class="st2">
			<line class="st1" x1="2195.9" y1="-737.7" x2="1763.1" y2="869.7"/>
			<polygon class="st1" points="1765.3,870.3 2198,-737.1 2193.7,-738.3 1761,869.1 			"/>
		</g>
		<g class="st2">
			<line class="st1" x1="2214.4" y1="-732.7" x2="1781.6" y2="874.6"/>
			<polygon class="st1" points="1783.8,875.2 2216.5,-732.1 2212.2,-733.3 1779.4,874 			"/>
		</g>
		<g class="st2">
			<line class="st1" x1="2232.8" y1="-727.7" x2="1800.1" y2="879.7"/>
			<polygon class="st1" points="1802.3,880.3 2235,-727.1 2230.7,-728.2 1797.9,879.1 			"/>
		</g>
		<g class="st2">
			<line class="st1" x1="2251.3" y1="-722.7" x2="1818.6" y2="884.7"/>
			<polygon class="st1" points="1820.7,885.2 2253.5,-722.1 2249.1,-723.3 1816.4,884.1 			"/>
		</g>
		<g class="st2">
			<line class="st1" x1="2269.8" y1="-717.7" x2="1837.1" y2="889.6"/>
			<polygon class="st1" points="1839.2,890.2 2272,-717.2 2267.6,-718.3 1834.9,889 			"/>
		</g>
		<g class="st2">
			<line class="st1" x1="2288.3" y1="-712.8" x2="1855.5" y2="894.6"/>
			<polygon class="st1" points="1857.7,895.1 2290.4,-712.2 2286.1,-713.4 1853.4,894 			"/>
		</g>
		<g class="st2">
			<line class="st1" x1="2306.7" y1="-707.8" x2="1874" y2="899.5"/>
			<polygon class="st1" points="1876.2,900.1 2308.9,-707.3 2304.6,-708.4 1871.8,898.9 			"/>
		</g>
	</g>
	<g class="st0">
		<defs>
			<path id="SVGID_15_" d="M-92.8,905.3C57,793.4,212.8,688.1,367.9,583.1c183.9,290.3,414.3,539.2,674,759.1
				c-173.7,89.7-344.3,186.2-512,287.6C302,1407.5,94.8,1162.1-92.8,905.3z"/>
		</defs>
		<clipPath id="SVGID_4_">
			<use xlink:href="#SVGID_15_"  style="overflow:visible;"/>
		</clipPath>
		<g class="st3">
			<g>
				<line class="st1" x1="773.6" y1="787.2" x2="44.6" y2="1208"/>
				
					<rect x="-11.8" y="997.1" transform="matrix(-0.866 0.5 -0.5 -0.866 1262.1868 1657.0393)" class="st1" width="841.7" height="1.1"/>
			</g>
			<g>
				<line class="st1" x1="783.1" y1="803.8" x2="54.2" y2="1224.6"/>
				
					<rect x="-2.2" y="1013.6" transform="matrix(-0.866 0.5 -0.5 -0.866 1288.3187 1683.1702)" class="st1" width="841.7" height="1.1"/>
			</g>
			<g>
				<line class="st1" x1="792.7" y1="820.3" x2="63.8" y2="1241.2"/>
				
					<rect x="7.4" y="1030.2" transform="matrix(-0.866 0.5 -0.5 -0.866 1314.4498 1709.3013)" class="st1" width="841.7" height="1.1"/>
			</g>
			<g>
				<line class="st1" x1="802.2" y1="836.9" x2="73.3" y2="1257.7"/>
				
					<rect x="16.9" y="1046.8" transform="matrix(-0.866 0.5 -0.5 -0.866 1340.5809 1735.4325)" class="st1" width="841.7" height="1.1"/>
			</g>
			<g>
				<line class="st1" x1="811.8" y1="853.5" x2="82.9" y2="1274.3"/>
				
					<rect x="26.5" y="1063.3" transform="matrix(-0.866 0.5 -0.5 -0.866 1366.712 1761.5636)" class="st1" width="841.7" height="1.1"/>
			</g>
			<g>
				<line class="st1" x1="821.4" y1="870" x2="92.5" y2="1290.9"/>
				
					<rect x="36.1" y="1079.9" transform="matrix(-0.866 0.5 -0.5 -0.866 1392.8431 1787.6948)" class="st1" width="841.7" height="1.1"/>
			</g>
			<g>
				<line class="st1" x1="830.9" y1="886.6" x2="102" y2="1307.4"/>
				
					<rect x="45.6" y="1096.5" transform="matrix(-0.866 0.5 -0.5 -0.866 1418.9742 1813.8259)" class="st1" width="841.7" height="1.1"/>
			</g>
			<g>
				<line class="st1" x1="840.5" y1="903.2" x2="111.6" y2="1324"/>
				
					<rect x="55.2" y="1113" transform="matrix(-0.866 0.5 -0.5 -0.866 1445.1052 1839.9572)" class="st1" width="841.7" height="1.1"/>
			</g>
			<g>
				<line class="st1" x1="850.1" y1="919.7" x2="121.1" y2="1340.6"/>
				
					<rect x="64.8" y="1129.6" transform="matrix(-0.866 0.5 -0.5 -0.866 1471.2363 1866.0883)" class="st1" width="841.7" height="1.1"/>
			</g>
			<g>
				<line class="st1" x1="859.6" y1="936.3" x2="130.7" y2="1357.1"/>
				
					<rect x="74.3" y="1146.2" transform="matrix(-0.866 0.5 -0.5 -0.866 1497.3676 1892.2195)" class="st1" width="841.7" height="1.1"/>
			</g>
			<g>
				<line class="st1" x1="869.2" y1="952.9" x2="140.3" y2="1373.7"/>
				
					<rect x="83.9" y="1162.7" transform="matrix(-0.866 0.5 -0.5 -0.866 1523.4987 1918.3507)" class="st1" width="841.7" height="1.1"/>
			</g>
			<g>
				<line class="st1" x1="878.8" y1="969.4" x2="149.8" y2="1390.3"/>
				
					<rect x="93.5" y="1179.3" transform="matrix(-0.866 0.5 -0.5 -0.866 1549.6298 1944.4818)" class="st1" width="841.7" height="1.1"/>
			</g>
			<g>
				<line class="st1" x1="888.3" y1="986" x2="159.4" y2="1406.8"/>
				
					<rect x="103" y="1195.9" transform="matrix(-0.866 0.5 -0.5 -0.866 1575.7609 1970.613)" class="st1" width="841.7" height="1.1"/>
			</g>
			<g>
				<line class="st1" x1="897.9" y1="1002.6" x2="169" y2="1423.4"/>
				
					<rect x="112.6" y="1212.4" transform="matrix(-0.866 0.5 -0.5 -0.866 1601.8918 1996.7441)" class="st1" width="841.7" height="1.1"/>
			</g>
			<g>
				<line class="st1" x1="907.5" y1="1019.1" x2="178.5" y2="1440"/>
				
					<rect x="122.2" y="1229" transform="matrix(-0.866 0.5 -0.5 -0.866 1628.0229 2022.8754)" class="st1" width="841.7" height="1.1"/>
			</g>
			<g>
				<line class="st1" x1="917" y1="1035.7" x2="188.1" y2="1456.5"/>
				
					<rect x="131.7" y="1245.6" transform="matrix(-0.866 0.5 -0.5 -0.866 1654.1541 2049.0066)" class="st1" width="841.7" height="1.1"/>
			</g>
			<g>
				<line class="st1" x1="926.6" y1="1052.3" x2="197.7" y2="1473.1"/>
				
					<rect x="141.3" y="1262.1" transform="matrix(-0.866 0.5 -0.5 -0.866 1680.2853 2075.1377)" class="st1" width="841.7" height="1.1"/>
			</g>
			<g>
				<line class="st1" x1="936.2" y1="1068.8" x2="207.2" y2="1489.7"/>
				
					<rect x="150.8" y="1278.7" transform="matrix(-0.866 0.5 -0.5 -0.866 1706.4171 2101.2686)" class="st1" width="841.7" height="1.1"/>
			</g>
			<g>
				<line class="st1" x1="945.7" y1="1085.4" x2="216.8" y2="1506.2"/>
				
					<rect x="160.4" y="1295.3" transform="matrix(-0.866 0.5 -0.5 -0.866 1732.5482 2127.3997)" class="st1" width="841.7" height="1.1"/>
			</g>
			<g>
				<line class="st1" x1="955.3" y1="1102" x2="226.4" y2="1522.8"/>
				
					<rect x="170" y="1311.8" transform="matrix(-0.866 0.5 -0.5 -0.866 1758.6793 2153.5308)" class="st1" width="841.7" height="1.1"/>
			</g>
			<g>
				<line class="st1" x1="964.8" y1="1118.5" x2="235.9" y2="1539.4"/>
				
					<rect x="179.5" y="1328.4" transform="matrix(-0.866 0.5 -0.5 -0.866 1784.8103 2179.6619)" class="st1" width="841.7" height="1.1"/>
			</g>
			<g>
				<line class="st1" x1="974.4" y1="1135.1" x2="245.5" y2="1555.9"/>
				
					<rect x="189.1" y="1345" transform="matrix(-0.866 0.5 -0.5 -0.866 1810.9414 2205.7932)" class="st1" width="841.7" height="1.1"/>
			</g>
			<g>
				<line class="st1" x1="984" y1="1151.7" x2="255.1" y2="1572.5"/>
				
					<rect x="198.7" y="1361.5" transform="matrix(-0.866 0.5 -0.5 -0.866 1837.0725 2231.9243)" class="st1" width="841.7" height="1.1"/>
			</g>
			<g>
				<line class="st1" x1="993.5" y1="1168.2" x2="264.6" y2="1589.1"/>
				
					<rect x="208.2" y="1378.1" transform="matrix(-0.866 0.5 -0.5 -0.866 1863.2036 2258.0554)" class="st1" width="841.7" height="1.1"/>
			</g>
			<g>
				<line class="st1" x1="1003.1" y1="1184.8" x2="274.2" y2="1605.6"/>
				
					<rect x="217.8" y="1394.7" transform="matrix(-0.866 0.5 -0.5 -0.866 1889.3348 2284.1868)" class="st1" width="841.7" height="1.1"/>
			</g>
			<g>
				<line class="st1" x1="1012.7" y1="1201.4" x2="283.7" y2="1622.2"/>
				
					<rect x="227.4" y="1411.2" transform="matrix(-0.866 0.5 -0.5 -0.866 1915.4658 2310.3179)" class="st1" width="841.7" height="1.1"/>
			</g>
			<g>
				<line class="st1" x1="1022.2" y1="1217.9" x2="293.3" y2="1638.8"/>
				
					<rect x="236.9" y="1427.8" transform="matrix(-0.866 0.5 -0.5 -0.866 1941.5969 2336.449)" class="st1" width="841.7" height="1.1"/>
			</g>
			<g>
				<line class="st1" x1="1031.8" y1="1234.5" x2="302.9" y2="1655.3"/>
				
					<rect x="246.5" y="1444.4" transform="matrix(-0.866 0.5 -0.5 -0.866 1967.728 2362.5801)" class="st1" width="841.7" height="1.1"/>
			</g>
			<g>
				<line class="st1" x1="1041.4" y1="1251.1" x2="312.4" y2="1671.9"/>
				
					<rect x="256.1" y="1460.9" transform="matrix(-0.866 0.5 -0.5 -0.866 1993.8591 2388.7114)" class="st1" width="841.7" height="1.1"/>
			</g>
			<g>
				<line class="st1" x1="1050.9" y1="1267.6" x2="322" y2="1688.5"/>
				
					<rect x="265.6" y="1477.5" transform="matrix(-0.866 0.5 -0.5 -0.866 2019.9902 2414.8425)" class="st1" width="841.7" height="1.1"/>
			</g>
			<g>
				<line class="st1" x1="1060.5" y1="1284.2" x2="331.6" y2="1705"/>
				
					<rect x="275.2" y="1494.1" transform="matrix(-0.866 0.5 -0.5 -0.866 2046.1215 2440.9736)" class="st1" width="841.7" height="1.1"/>
			</g>
			<g>
				<line class="st1" x1="1070.1" y1="1300.8" x2="341.1" y2="1721.6"/>
				
					<rect x="284.8" y="1510.6" transform="matrix(-0.866 0.5 -0.5 -0.866 2072.2524 2467.1047)" class="st1" width="841.7" height="1.1"/>
			</g>
			<g>
				<line class="st1" x1="1079.6" y1="1317.3" x2="350.7" y2="1738.2"/>
				
					<rect x="294.3" y="1527.2" transform="matrix(-0.866 0.5 -0.5 -0.866 2098.3838 2493.2361)" class="st1" width="841.7" height="1.1"/>
			</g>
			<g>
				<line class="st1" x1="1089.2" y1="1333.9" x2="360.3" y2="1754.7"/>
				
					<rect x="303.9" y="1543.8" transform="matrix(-0.866 0.5 -0.5 -0.866 2124.5156 2519.3667)" class="st1" width="841.7" height="1.1"/>
			</g>
			<g>
				<line class="st1" x1="1098.8" y1="1350.5" x2="369.8" y2="1771.3"/>
				
					<rect x="313.4" y="1560.3" transform="matrix(-0.866 0.5 -0.5 -0.866 2150.6467 2545.4978)" class="st1" width="841.7" height="1.1"/>
			</g>
			<g>
				<line class="st1" x1="1108.3" y1="1367" x2="379.4" y2="1787.9"/>
				
					<rect x="323" y="1576.9" transform="matrix(-0.866 0.5 -0.5 -0.866 2176.7778 2571.6289)" class="st1" width="841.7" height="1.1"/>
			</g>
			<g>
				<line class="st1" x1="1117.9" y1="1383.6" x2="389" y2="1804.4"/>
				
					<rect x="332.6" y="1593.5" transform="matrix(-0.866 0.5 -0.5 -0.866 2202.9087 2597.7605)" class="st1" width="841.7" height="1.1"/>
			</g>
			<g>
				<line class="st1" x1="1127.4" y1="1400.2" x2="398.5" y2="1821"/>
				
					<rect x="342.1" y="1610" transform="matrix(-0.866 0.5 -0.5 -0.866 2229.0398 2623.8916)" class="st1" width="841.7" height="1.1"/>
			</g>
			<g>
				<line class="st1" x1="1137" y1="1416.7" x2="408.1" y2="1837.6"/>
				
					<rect x="351.7" y="1626.6" transform="matrix(-0.866 0.5 -0.5 -0.866 2255.1709 2650.0227)" class="st1" width="841.7" height="1.1"/>
			</g>
			<g>
				<line class="st1" x1="1146.6" y1="1433.3" x2="417.7" y2="1854.1"/>
				
					<rect x="361.3" y="1643.2" transform="matrix(-0.866 0.5 -0.5 -0.866 2281.302 2676.1541)" class="st1" width="841.7" height="1.1"/>
			</g>
			<g>
				<line class="st1" x1="1156.1" y1="1449.9" x2="427.2" y2="1870.7"/>
				
					<rect x="370.8" y="1659.7" transform="matrix(-0.866 0.5 -0.5 -0.866 2307.4331 2702.2854)" class="st1" width="841.7" height="1.1"/>
			</g>
			<g>
				<line class="st1" x1="1165.7" y1="1466.4" x2="436.8" y2="1887.3"/>
				
					<rect x="380.4" y="1676.3" transform="matrix(-0.866 0.5 -0.5 -0.866 2333.5642 2728.4165)" class="st1" width="841.7" height="1.1"/>
			</g>
			<g>
				<line class="st1" x1="1175.3" y1="1483" x2="446.3" y2="1903.8"/>
				
					<rect x="390" y="1692.9" transform="matrix(-0.866 0.5 -0.5 -0.866 2359.6953 2754.5476)" class="st1" width="841.7" height="1.1"/>
			</g>
			<g>
				<line class="st1" x1="1184.8" y1="1499.6" x2="455.9" y2="1920.4"/>
				
					<rect x="399.5" y="1709.4" transform="matrix(-0.866 0.5 -0.5 -0.866 2385.8267 2780.6785)" class="st1" width="841.7" height="1.1"/>
			</g>
			<g>
				<line class="st1" x1="1194.4" y1="1516.1" x2="465.5" y2="1937"/>
				
					<rect x="409.1" y="1726" transform="matrix(-0.866 0.5 -0.5 -0.866 2411.9575 2806.8098)" class="st1" width="841.7" height="1.1"/>
			</g>
		</g>
		<g class="st3">
			<g>
				<line class="st1" x1="352.7" y1="58.3" x2="-376.2" y2="479.1"/>
				
					<rect x="-432.6" y="268.1" transform="matrix(-0.866 0.5 -0.5 -0.866 112.4091 507.2956)" class="st1" width="841.7" height="1.1"/>
			</g>
			<g>
				<line class="st1" x1="362.3" y1="74.9" x2="-366.7" y2="495.7"/>
				
					<rect x="-423" y="284.7" transform="matrix(-0.866 0.5 -0.5 -0.866 138.541 533.4265)" class="st1" width="841.7" height="1.1"/>
			</g>
			<g>
				<line class="st1" x1="371.8" y1="91.4" x2="-357.1" y2="512.3"/>
				
					<rect x="-413.5" y="301.3" transform="matrix(-0.866 0.5 -0.5 -0.866 164.6721 559.5577)" class="st1" width="841.7" height="1.1"/>
			</g>
			<g>
				<line class="st1" x1="381.4" y1="108" x2="-347.5" y2="528.8"/>
				
					<rect x="-403.9" y="317.8" transform="matrix(-0.866 0.5 -0.5 -0.866 190.8032 585.6888)" class="st1" width="841.7" height="1.1"/>
			</g>
			<g>
				<line class="st1" x1="391" y1="124.6" x2="-338" y2="545.4"/>
				
					<rect x="-394.3" y="334.4" transform="matrix(-0.866 0.5 -0.5 -0.866 216.9343 611.82)" class="st1" width="841.7" height="1.1"/>
			</g>
			<g>
				<line class="st1" x1="400.5" y1="141.1" x2="-328.4" y2="562"/>
				
					<rect x="-384.8" y="351" transform="matrix(-0.866 0.5 -0.5 -0.866 243.0654 637.9512)" class="st1" width="841.7" height="1.1"/>
			</g>
			<g>
				<line class="st1" x1="410.1" y1="157.7" x2="-318.8" y2="578.5"/>
				
					<rect x="-375.2" y="367.5" transform="matrix(-0.866 0.5 -0.5 -0.866 269.1964 664.0823)" class="st1" width="841.7" height="1.1"/>
			</g>
			<g>
				<line class="st1" x1="419.7" y1="174.3" x2="-309.3" y2="595.1"/>
				
					<rect x="-365.7" y="384.1" transform="matrix(-0.866 0.5 -0.5 -0.866 295.3275 690.2134)" class="st1" width="841.7" height="1.1"/>
			</g>
			<g>
				<line class="st1" x1="429.2" y1="190.8" x2="-299.7" y2="611.7"/>
				
					<rect x="-356.1" y="400.7" transform="matrix(-0.866 0.5 -0.5 -0.866 321.4586 716.3446)" class="st1" width="841.7" height="1.1"/>
			</g>
			<g>
				<line class="st1" x1="438.8" y1="207.4" x2="-290.1" y2="628.2"/>
				
					<rect x="-346.5" y="417.2" transform="matrix(-0.866 0.5 -0.5 -0.866 347.5899 742.4758)" class="st1" width="841.7" height="1.1"/>
			</g>
			<g>
				<line class="st1" x1="448.3" y1="223.9" x2="-280.6" y2="644.8"/>
				
					<rect x="-337" y="433.8" transform="matrix(-0.866 0.5 -0.5 -0.866 373.721 768.6069)" class="st1" width="841.7" height="1.1"/>
			</g>
			<g>
				<line class="st1" x1="457.9" y1="240.5" x2="-271" y2="661.4"/>
				
					<rect x="-327.4" y="450.4" transform="matrix(-0.866 0.5 -0.5 -0.866 399.8521 794.7381)" class="st1" width="841.7" height="1.1"/>
			</g>
			<g>
				<line class="st1" x1="467.5" y1="257.1" x2="-261.4" y2="677.9"/>
				
					<rect x="-317.8" y="466.9" transform="matrix(-0.866 0.5 -0.5 -0.866 425.9831 820.8693)" class="st1" width="841.7" height="1.1"/>
			</g>
			<g>
				<line class="st1" x1="477" y1="273.6" x2="-251.9" y2="694.5"/>
				
					<rect x="-308.3" y="483.5" transform="matrix(-0.866 0.5 -0.5 -0.866 452.1142 847.0004)" class="st1" width="841.7" height="1.1"/>
			</g>
			<g>
				<line class="st1" x1="486.6" y1="290.2" x2="-242.3" y2="711.1"/>
				
					<rect x="-298.7" y="500.1" transform="matrix(-0.866 0.5 -0.5 -0.866 478.2453 873.1316)" class="st1" width="841.7" height="1.1"/>
			</g>
			<g>
				<line class="st1" x1="496.2" y1="306.8" x2="-232.8" y2="727.6"/>
				
					<rect x="-289.1" y="516.6" transform="matrix(-0.866 0.5 -0.5 -0.866 504.3764 899.2628)" class="st1" width="841.7" height="1.1"/>
			</g>
			<g>
				<line class="st1" x1="505.7" y1="323.3" x2="-223.2" y2="744.2"/>
				
					<rect x="-279.6" y="533.2" transform="matrix(-0.866 0.5 -0.5 -0.866 530.5076 925.3939)" class="st1" width="841.7" height="1.1"/>
			</g>
			<g>
				<line class="st1" x1="515.3" y1="339.9" x2="-213.6" y2="760.8"/>
				
					<rect x="-270" y="549.8" transform="matrix(-0.866 0.5 -0.5 -0.866 556.6393 951.5248)" class="st1" width="841.7" height="1.1"/>
			</g>
			<g>
				<line class="st1" x1="524.9" y1="356.5" x2="-204.1" y2="777.3"/>
				
					<rect x="-260.4" y="566.3" transform="matrix(-0.866 0.5 -0.5 -0.866 582.7704 977.6559)" class="st1" width="841.7" height="1.1"/>
			</g>
			<g>
				<line class="st1" x1="534.4" y1="373" x2="-194.5" y2="793.9"/>
				
					<rect x="-250.9" y="582.9" transform="matrix(-0.866 0.5 -0.5 -0.866 608.9016 1003.7871)" class="st1" width="841.7" height="1.1"/>
			</g>
			<g>
				<line class="st1" x1="544" y1="389.6" x2="-184.9" y2="810.5"/>
				
					<rect x="-241.3" y="599.5" transform="matrix(-0.866 0.5 -0.5 -0.866 635.0326 1029.9183)" class="st1" width="841.7" height="1.1"/>
			</g>
			<g>
				<line class="st1" x1="553.6" y1="406.2" x2="-175.4" y2="827"/>
				
					<rect x="-231.7" y="616" transform="matrix(-0.866 0.5 -0.5 -0.866 661.1637 1056.0494)" class="st1" width="841.7" height="1.1"/>
			</g>
			<g>
				<line class="st1" x1="563.1" y1="422.7" x2="-165.8" y2="843.6"/>
				
					<rect x="-222.2" y="632.6" transform="matrix(-0.866 0.5 -0.5 -0.866 687.2948 1082.1807)" class="st1" width="841.7" height="1.1"/>
			</g>
			<g>
				<line class="st1" x1="572.7" y1="439.3" x2="-156.2" y2="860.2"/>
				
					<rect x="-212.6" y="649.2" transform="matrix(-0.866 0.5 -0.5 -0.866 713.4258 1108.3118)" class="st1" width="841.7" height="1.1"/>
			</g>
			<g>
				<line class="st1" x1="582.3" y1="455.9" x2="-146.7" y2="876.7"/>
				
					<rect x="-203.1" y="665.7" transform="matrix(-0.866 0.5 -0.5 -0.866 739.5571 1134.443)" class="st1" width="841.7" height="1.1"/>
			</g>
			<g>
				<line class="st1" x1="591.8" y1="472.4" x2="-137.1" y2="893.3"/>
				
					<rect x="-193.5" y="682.3" transform="matrix(-0.866 0.5 -0.5 -0.866 765.6882 1160.5741)" class="st1" width="841.7" height="1.1"/>
			</g>
			<g>
				<line class="st1" x1="601.4" y1="489" x2="-127.5" y2="909.9"/>
				
					<rect x="-183.9" y="698.9" transform="matrix(-0.866 0.5 -0.5 -0.866 791.8193 1186.7053)" class="st1" width="841.7" height="1.1"/>
			</g>
			<g>
				<line class="st1" x1="610.9" y1="505.6" x2="-118" y2="926.4"/>
				
					<rect x="-174.4" y="715.4" transform="matrix(-0.866 0.5 -0.5 -0.866 817.9504 1212.8364)" class="st1" width="841.7" height="1.1"/>
			</g>
			<g>
				<line class="st1" x1="620.5" y1="522.1" x2="-108.4" y2="943"/>
				
					<rect x="-164.8" y="732" transform="matrix(-0.866 0.5 -0.5 -0.866 844.0814 1238.9677)" class="st1" width="841.7" height="1.1"/>
			</g>
			<g>
				<line class="st1" x1="630.1" y1="538.7" x2="-98.8" y2="959.6"/>
				
					<rect x="-155.2" y="748.6" transform="matrix(-0.866 0.5 -0.5 -0.866 870.2125 1265.0988)" class="st1" width="841.7" height="1.1"/>
			</g>
			<g>
				<line class="st1" x1="639.6" y1="555.3" x2="-89.3" y2="976.1"/>
				
					<rect x="-145.7" y="765.1" transform="matrix(-0.866 0.5 -0.5 -0.866 896.3437 1291.23)" class="st1" width="841.7" height="1.1"/>
			</g>
			<g>
				<line class="st1" x1="649.2" y1="571.8" x2="-79.7" y2="992.7"/>
				
					<rect x="-136.1" y="781.7" transform="matrix(-0.866 0.5 -0.5 -0.866 922.4748 1317.3611)" class="st1" width="841.7" height="1.1"/>
			</g>
			<g>
				<line class="st1" x1="658.8" y1="588.4" x2="-70.2" y2="1009.3"/>
				
					<rect x="-126.5" y="798.3" transform="matrix(-0.866 0.5 -0.5 -0.866 948.606 1343.4923)" class="st1" width="841.7" height="1.1"/>
			</g>
			<g>
				<line class="st1" x1="668.3" y1="605" x2="-60.6" y2="1025.8"/>
				
					<rect x="-117" y="814.8" transform="matrix(-0.866 0.5 -0.5 -0.866 974.7378 1369.6232)" class="st1" width="841.7" height="1.1"/>
			</g>
			<g>
				<line class="st1" x1="677.9" y1="621.5" x2="-51" y2="1042.4"/>
				
					<rect x="-107.4" y="831.4" transform="matrix(-0.866 0.5 -0.5 -0.866 1000.8689 1395.7543)" class="st1" width="841.7" height="1.1"/>
			</g>
			<g>
				<line class="st1" x1="687.5" y1="638.1" x2="-41.5" y2="1059"/>
				<rect x="-97.8" y="848" transform="matrix(-0.866 0.5 -0.5 -0.866 1027 1421.8855)" class="st1" width="841.7" height="1.1"/>
			</g>
			<g>
				<line class="st1" x1="697" y1="654.7" x2="-31.9" y2="1075.5"/>
				
					<rect x="-88.3" y="864.5" transform="matrix(-0.866 0.5 -0.5 -0.866 1053.131 1448.0168)" class="st1" width="841.7" height="1.1"/>
			</g>
			<g>
				<line class="st1" x1="706.6" y1="671.2" x2="-22.3" y2="1092.1"/>
				
					<rect x="-78.7" y="881.1" transform="matrix(-0.866 0.5 -0.5 -0.866 1079.2621 1474.1479)" class="st1" width="841.7" height="1.1"/>
			</g>
			<g>
				<line class="st1" x1="716.2" y1="687.8" x2="-12.8" y2="1108.7"/>
				
					<rect x="-69.1" y="897.7" transform="matrix(-0.866 0.5 -0.5 -0.866 1105.3932 1500.2792)" class="st1" width="841.7" height="1.1"/>
			</g>
			<g>
				<line class="st1" x1="725.7" y1="704.4" x2="-3.2" y2="1125.2"/>
				
					<rect x="-59.6" y="914.2" transform="matrix(-0.866 0.5 -0.5 -0.866 1131.5243 1526.4103)" class="st1" width="841.7" height="1.1"/>
			</g>
			<g>
				<line class="st1" x1="735.3" y1="720.9" x2="6.4" y2="1141.8"/>
				
					<rect x="-50" y="930.8" transform="matrix(-0.866 0.5 -0.5 -0.866 1157.6555 1552.5415)" class="st1" width="841.7" height="1.1"/>
			</g>
			<g>
				<line class="st1" x1="744.9" y1="737.5" x2="15.9" y2="1158.4"/>
				
					<rect x="-40.5" y="947.4" transform="matrix(-0.866 0.5 -0.5 -0.866 1183.7866 1578.6727)" class="st1" width="841.7" height="1.1"/>
			</g>
			<g>
				<line class="st1" x1="754.4" y1="754.1" x2="25.5" y2="1174.9"/>
				
					<rect x="-30.9" y="963.9" transform="matrix(-0.866 0.5 -0.5 -0.866 1209.9176 1604.8038)" class="st1" width="841.7" height="1.1"/>
			</g>
			<g>
				<line class="st1" x1="764" y1="770.6" x2="35.1" y2="1191.5"/>
				
					<rect x="-21.3" y="980.5" transform="matrix(-0.866 0.5 -0.5 -0.866 1236.0488 1630.9349)" class="st1" width="841.7" height="1.1"/>
			</g>
			<g>
				<line class="st1" x1="773.5" y1="787.2" x2="44.6" y2="1208.1"/>
				
					<rect x="-11.8" y="997.1" transform="matrix(-0.866 0.5 -0.5 -0.866 1262.1799 1657.066)" class="st1" width="841.7" height="1.1"/>
			</g>
		</g>
	</g>
	<g class="st0">
		<defs>
			<path id="SVGID_17_" d="M367.9,583.1c42.9-29.1,85.7-58.1,128.4-87.3c55.1-37.7,110.2-75.9,164.9-114.8
				c145.5,130.4,330.4,220,501.4,319.8c28.3,16.5,56.3,33.5,84.2,50.8c-122.3,162.3-198,356.2-194.4,558.3
				c0.2,8.8,0.5,17.7,0.9,26.4c-3.8,2-7.6,3.9-11.4,5.9C782.1,1122.4,551.8,873.4,367.9,583.1z"/>
		</defs>
		<clipPath id="SVGID_5_">
			<use xlink:href="#SVGID_17_"  style="overflow:visible;"/>
		</clipPath>
		<g class="st4">
			<line class="st1" x1="1410.8" y1="742.6" x2="548" y2="245.6"/>
			<polygon class="st1" points="1406.3,750.4 1415.3,734.8 552.5,237.9 543.5,253.4 			"/>
		</g>
		<g class="st4">
			<line class="st1" x1="1334.3" y1="875.2" x2="471.5" y2="378.2"/>
			<polygon class="st1" points="1329.8,883 1338.8,867.4 476,370.4 467,386 			"/>
		</g>
		<g class="st4">
			<line class="st1" x1="1296.1" y1="941.4" x2="433.2" y2="444.4"/>
			<polygon class="st1" points="1291.6,949.2 1300.6,933.6 437.7,436.7 428.7,452.2 			"/>
		</g>
		<g class="st4">
			<line class="st1" x1="1238.7" y1="1040.8" x2="375.9" y2="543.8"/>
			<polygon class="st1" points="1234.2,1048.6 1243.2,1033 380.3,536 371.4,551.6 			"/>
		</g>
		<g class="st4">
			<line class="st1" x1="1181.3" y1="1140.2" x2="318.5" y2="643.2"/>
			<polygon class="st1" points="1176.8,1148 1185.8,1132.4 323,635.4 314,651 			"/>
		</g>
		<g class="st4">
			<line class="st1" x1="1104.8" y1="1272.8" x2="241.9" y2="775.8"/>
			<polygon class="st1" points="1100.3,1280.6 1109.3,1265 246.4,768 237.4,783.6 			"/>
		</g>
		<g class="st4">
			<line class="st1" x1="1066.5" y1="1339" x2="203.7" y2="842"/>
			<polygon class="st1" points="1062,1346.8 1071,1331.2 208.2,834.2 199.2,849.8 			"/>
		</g>
		<g class="st4">
			<line class="st1" x1="1449.1" y1="676.4" x2="586.3" y2="179.4"/>
			<polygon class="st1" points="1444.6,684.2 1453.6,668.6 590.8,171.6 581.8,187.2 			"/>
		</g>
		<g class="st4">
			<line class="st1" x1="1391.7" y1="775.8" x2="528.9" y2="278.8"/>
			<polygon class="st1" points="1387.2,783.6 1396.2,768 533.4,271 524.4,286.6 			"/>
		</g>
		<g class="st4">
			<line class="st1" x1="1315.2" y1="908.3" x2="452.4" y2="411.3"/>
			<polygon class="st1" points="1310.7,916.1 1319.7,900.5 456.9,403.5 447.9,419.1 			"/>
		</g>
		<g class="st4">
			<line class="st1" x1="1276.9" y1="974.6" x2="414.1" y2="477.6"/>
			<polygon class="st1" points="1272.4,982.4 1281.4,966.8 418.6,469.8 409.6,485.4 			"/>
		</g>
		<g class="st4">
			<line class="st1" x1="1219.6" y1="1074" x2="356.7" y2="577"/>
			<polygon class="st1" points="1215.1,1081.8 1224.1,1066.2 361.2,569.2 352.2,584.8 			"/>
		</g>
		<g class="st4">
			<line class="st1" x1="1162.2" y1="1173.4" x2="299.3" y2="676.4"/>
			<polygon class="st1" points="1157.7,1181.2 1166.7,1165.6 303.8,668.6 294.8,684.2 			"/>
		</g>
		<g class="st4">
			<line class="st1" x1="1085.6" y1="1305.9" x2="222.8" y2="808.9"/>
			<polygon class="st1" points="1081.1,1313.7 1090.1,1298.1 227.3,801.1 218.3,816.7 			"/>
		</g>
		<g class="st4">
			<line class="st1" x1="1047.4" y1="1372.2" x2="184.6" y2="875.2"/>
			<polygon class="st1" points="1042.9,1380 1051.9,1364.4 189.1,867.4 180.1,883 			"/>
		</g>
		<g class="st4">
			<line class="st1" x1="1430" y1="709.5" x2="567.1" y2="212.5"/>
			<polygon class="st1" points="1425.5,717.3 1434.5,701.7 571.6,204.7 562.6,220.3 			"/>
		</g>
		<g class="st4">
			<line class="st1" x1="1372.6" y1="808.9" x2="509.8" y2="311.9"/>
			<polygon class="st1" points="1368.1,816.7 1377.1,801.1 514.3,304.1 505.3,319.7 			"/>
		</g>
		<g class="st4">
			<line class="st1" x1="1353.5" y1="842" x2="490.6" y2="345"/>
			<polygon class="st1" points="1349,849.8 1358,834.2 495.1,337.3 486.1,352.8 			"/>
		</g>
		<g class="st4">
			<line class="st1" x1="1257.8" y1="1007.7" x2="395" y2="510.7"/>
			<polygon class="st1" points="1253.3,1015.5 1262.3,999.9 399.5,502.9 390.5,518.5 			"/>
		</g>
		<g class="st4">
			<line class="st1" x1="1200.4" y1="1107.1" x2="337.6" y2="610.1"/>
			<polygon class="st1" points="1195.9,1114.9 1204.9,1099.3 342.1,602.3 333.1,617.9 			"/>
		</g>
		<g class="st4">
			<line class="st1" x1="1143" y1="1206.5" x2="280.2" y2="709.5"/>
			<polygon class="st1" points="1138.5,1214.3 1147.5,1198.7 284.7,701.7 275.7,717.3 			"/>
		</g>
		<g class="st4">
			<line class="st1" x1="1123.9" y1="1239.6" x2="261.1" y2="742.6"/>
			<polygon class="st1" points="1119.4,1247.4 1128.4,1231.8 265.6,734.8 256.6,750.4 			"/>
		</g>
		<g class="st4">
			<line class="st1" x1="1028.3" y1="1405.3" x2="165.4" y2="908.3"/>
			<polygon class="st1" points="1023.8,1413.1 1032.8,1397.5 169.9,900.5 160.9,916.1 			"/>
		</g>
	</g>
	<g class="st0">
		<path id="XMLID_26_" class="st1" d="M1246.7,751.6c146.3,91.2,285.7,193.7,415.5,306.9c-207.5,82.1-410.3,175.6-609,277.8
			c-0.4-8.8-0.8-17.6-0.9-26.4C1048.6,1107.8,1124.4,913.9,1246.7,751.6z"/>
	</g>
	<g class="st0">
		<defs>
			<path id="SVGID_19_" d="M-313.1,1079.4c71.4-60.3,145.1-118.1,220.3-174.2c187.7,256.9,394.9,502.2,622.7,724.5
				c-76.1,46-151.6,93-226.6,140.9C116.1,1525.5-91.3,1295-313.1,1079.4z"/>
		</defs>
		<clipPath id="SVGID_6_">
			<use xlink:href="#SVGID_19_"  style="overflow:visible;"/>
		</clipPath>
		<g class="st5">
			<line class="st1" x1="653.3" y1="1646.1" x2="33.7" y2="568.4"/>
			<polygon class="st1" points="645.5,1650.6 661.1,1641.6 41.5,563.9 25.9,572.9 			"/>
		</g>
		<g class="st5">
			<line class="st1" x1="520.8" y1="1722.6" x2="-98.8" y2="644.9"/>
			<polygon class="st1" points="513,1727.1 528.6,1718.1 -91.1,640.4 -106.6,649.4 			"/>
		</g>
		<g class="st5">
			<line class="st1" x1="454.5" y1="1760.9" x2="-165.1" y2="683.1"/>
			<polygon class="st1" points="446.7,1765.4 462.3,1756.4 -157.3,678.6 -172.9,687.6 			"/>
		</g>
		<g class="st5">
			<line class="st1" x1="355.1" y1="1818.3" x2="-264.5" y2="740.5"/>
			<polygon class="st1" points="347.3,1822.8 362.9,1813.8 -256.7,736 -272.3,745 			"/>
		</g>
		<g class="st5">
			<line class="st1" x1="255.7" y1="1875.7" x2="-363.9" y2="797.9"/>
			<polygon class="st1" points="247.9,1880.2 263.5,1871.2 -356.1,793.4 -371.7,802.4 			"/>
		</g>
		<g class="st5">
			<line class="st1" x1="123.2" y1="1952.2" x2="-496.4" y2="874.4"/>
			<polygon class="st1" points="115.4,1956.7 131,1947.7 -488.6,869.9 -504.2,878.9 			"/>
		</g>
		<g class="st5">
			<line class="st1" x1="56.9" y1="1990.4" x2="-562.7" y2="912.7"/>
			<polygon class="st1" points="49.1,1994.9 64.7,1985.9 -554.9,908.2 -570.5,917.2 			"/>
		</g>
		<g class="st5">
			<line class="st1" x1="719.6" y1="1607.9" x2="100" y2="530.1"/>
			<polygon class="st1" points="711.8,1612.3 727.4,1603.4 107.7,525.6 92.2,534.6 			"/>
		</g>
		<g class="st5">
			<line class="st1" x1="620.2" y1="1665.2" x2="0.6" y2="587.5"/>
			<polygon class="st1" points="612.4,1669.7 628,1660.7 8.3,583 -7.2,592 			"/>
		</g>
		<g class="st5">
			<line class="st1" x1="487.7" y1="1741.8" x2="-132" y2="664"/>
			<polygon class="st1" points="479.9,1746.3 495.5,1737.3 -124.2,659.5 -139.8,668.5 			"/>
		</g>
		<g class="st5">
			<line class="st1" x1="421.4" y1="1780" x2="-198.2" y2="702.3"/>
			<polygon class="st1" points="413.6,1784.5 429.2,1775.5 -190.4,697.8 -206,706.8 			"/>
		</g>
		<g class="st5">
			<line class="st1" x1="322" y1="1837.4" x2="-297.6" y2="759.7"/>
			<polygon class="st1" points="314.2,1841.9 329.8,1832.9 -289.8,755.2 -305.4,764.1 			"/>
		</g>
		<g class="st5">
			<line class="st1" x1="222.6" y1="1894.8" x2="-397" y2="817"/>
			<polygon class="st1" points="214.8,1899.3 230.4,1890.3 -389.2,812.5 -404.8,821.5 			"/>
		</g>
		<g class="st5">
			<line class="st1" x1="90.1" y1="1971.3" x2="-529.6" y2="893.6"/>
			<polygon class="st1" points="82.3,1975.8 97.9,1966.8 -521.8,889.1 -537.4,898.1 			"/>
		</g>
		<g class="st5">
			<line class="st1" x1="23.8" y1="2009.6" x2="-595.8" y2="931.8"/>
			<polygon class="st1" points="16,2014.1 31.6,2005.1 -588,927.3 -603.6,936.3 			"/>
		</g>
		<g class="st5">
			<line class="st1" x1="686.5" y1="1627" x2="66.8" y2="549.2"/>
			<polygon class="st1" points="678.7,1631.5 694.3,1622.5 74.6,544.7 59,553.7 			"/>
		</g>
		<g class="st5">
			<line class="st1" x1="587.1" y1="1684.4" x2="-32.6" y2="606.6"/>
			<polygon class="st1" points="579.3,1688.9 594.9,1679.9 -24.8,602.1 -40.4,611.1 			"/>
		</g>
		<g class="st5">
			<line class="st1" x1="553.9" y1="1703.5" x2="-65.7" y2="625.7"/>
			<polygon class="st1" points="546.1,1708 561.7,1699 -57.9,621.2 -73.5,630.2 			"/>
		</g>
		<g class="st5">
			<line class="st1" x1="388.3" y1="1799.1" x2="-231.4" y2="721.4"/>
			<polygon class="st1" points="380.5,1803.6 396.1,1794.6 -223.6,716.9 -239.2,725.9 			"/>
		</g>
		<g class="st5">
			<line class="st1" x1="288.9" y1="1856.5" x2="-330.8" y2="778.8"/>
			<polygon class="st1" points="281.1,1861 296.7,1852 -323,774.3 -338.6,783.3 			"/>
		</g>
		<g class="st5">
			<line class="st1" x1="189.5" y1="1913.9" x2="-430.2" y2="836.2"/>
			<polygon class="st1" points="181.7,1918.4 197.3,1909.4 -422.4,831.7 -438,840.7 			"/>
		</g>
		<g class="st5">
			<line class="st1" x1="156.3" y1="1933" x2="-463.3" y2="855.3"/>
			<polygon class="st1" points="148.5,1937.5 164.1,1928.6 -455.5,850.8 -471.1,859.8 			"/>
		</g>
		<g class="st5">
			<line class="st1" x1="-9.3" y1="2028.7" x2="-629" y2="950.9"/>
			<polygon class="st1" points="-17.1,2033.2 -1.5,2024.2 -621.2,946.4 -636.8,955.4 			"/>
		</g>
	</g>
	<path class="st6" d="M-92.7,905.8c0,0,1160.7-616.7,1354.2-1050.1L489.1-215H-52.4L-160.7,28.2L-92.7,905.8z"/>
</g>
</svg>
