<?xml version="1.0" encoding="utf-8"?>
<!-- Generator: Adobe Illustrator 19.0.0, SVG Export Plug-In . SVG Version: 6.00 Build 0)  -->
<svg version="1.1" id="Layer_1" xmlns="http://www.w3.org/2000/svg" xmlns:xlink="http://www.w3.org/1999/xlink" x="0px" y="0px"
	 viewBox="0 0 276.8 113.7" style="enable-background:new 0 0 276.8 113.7;" xml:space="preserve">
<style type="text/css">
	.st0{clip-path:url(#SVGID_1_);fill:#8E9090;}
</style>
<g>
	<defs>
		<rect id="SVGID_3_" y="1.8" width="275.4" height="110.5"/>
	</defs>
	<clipPath id="SVGID_1_">
		<use xlink:href="#SVGID_3_"  style="overflow:visible;"/>
	</clipPath>
	<path class="st0" d="M23.5,52l-8.7-18.8V52H0V1.8h18.9c4.1,0,7.5,0.7,10.4,2c2.9,1.4,5,3.3,6.5,5.7c1.5,2.4,2.2,5.2,2.2,8.2
		c0,3.1-0.8,5.9-2.3,8.3c-1.5,2.4-3.7,4.3-6.5,5.6L40.8,52H23.5z M16.5,24.4c2.1,0,3.7-0.5,4.9-1.5c1.1-1,1.7-2.3,1.7-4
		c0-1.7-0.6-3-1.7-4c-1.1-1-2.8-1.5-4.9-1.5h-1.7v10.9H16.5z"/>
	<rect x="45" y="1.8" class="st0" width="14.9" height="50.2"/>
	<polygon class="st0" points="115.4,1.8 98.5,52 80.9,52 64,1.8 80.2,1.8 89.7,33.4 99.2,1.8 	"/>
	<polygon class="st0" points="152,39 150.2,52 119.2,52 119.2,1.8 149.6,1.8 151.4,14.8 133.9,14.8 133.9,20.1 147.9,20.1 
		147.9,33.1 133.9,33.1 133.9,39 	"/>
	<path class="st0" d="M181,52l-8.7-18.8V52h-14.8V1.8h18.9c4.1,0,7.5,0.7,10.4,2c2.9,1.4,5,3.3,6.5,5.7c1.5,2.4,2.2,5.2,2.2,8.2
		c0,3.1-0.8,5.9-2.3,8.3c-1.5,2.4-3.7,4.3-6.5,5.6L198.3,52H181z M173.9,24.4c2.1,0,3.7-0.5,4.9-1.5c1.1-1,1.7-2.3,1.7-4
		c0-1.7-0.6-3-1.7-4c-1.1-1-2.8-1.5-4.9-1.5h-1.7v10.9H173.9z"/>
	<polygon class="st0" points="89.6,61 89.6,111.2 74.6,111.2 74.6,92.8 59.9,92.8 59.9,111.2 45,111.2 45,61 59.9,61 59.9,78.5 
		74.6,78.5 74.6,61 	"/>
	<path class="st0" d="M107.7,108.9c-4.1-2.3-7.4-5.5-9.8-9.5c-2.4-4-3.6-8.4-3.6-13.3c0-4.8,1.2-9.2,3.6-13.3c2.4-4,5.6-7.2,9.8-9.5
		c4.1-2.3,8.7-3.5,13.6-3.5c5,0,9.5,1.2,13.6,3.5c4.1,2.3,7.4,5.5,9.8,9.5c2.4,4,3.6,8.4,3.6,13.3c0,4.8-1.2,9.2-3.6,13.3
		c-2.4,4-5.6,7.2-9.8,9.5c-4.1,2.3-8.7,3.5-13.6,3.5C116.3,112.3,111.8,111.2,107.7,108.9 M127.3,96.5c1.8-1.1,3.2-2.5,4.2-4.3
		c1-1.8,1.5-3.8,1.5-6.1c0-2.2-0.5-4.3-1.5-6.1c-1-1.8-2.4-3.3-4.2-4.3c-1.8-1.1-3.8-1.6-6-1.6s-4.2,0.5-6,1.6
		c-1.8,1.1-3.2,2.5-4.2,4.3c-1,1.8-1.5,3.8-1.5,6.1c0,2.2,0.5,4.3,1.5,6.1c1,1.8,2.4,3.3,4.2,4.3c1.8,1.1,3.8,1.6,6,1.6
		S125.5,97.5,127.3,96.5"/>
	<path class="st0" d="M163,109.5c-3.3-1.7-5.8-4.1-7.6-7.3c-1.8-3.1-2.7-6.7-2.7-10.8V61h14.9v29.9c0,2.2,0.6,3.9,1.8,5.2
		c1.2,1.3,2.9,1.9,4.9,1.9s3.7-0.6,4.9-1.9c1.2-1.3,1.8-3,1.8-5.2V61h14.9v30.7c0,4-0.9,7.6-2.7,10.7c-1.8,3.1-4.3,5.5-7.6,7.2
		c-3.3,1.7-7.1,2.5-11.4,2.5C170.1,112.1,166.3,111.3,163,109.5"/>
	<path class="st0" d="M201.1,107.5L203,94c2.9,1.9,5.6,3.3,8.2,4.2c2.6,0.9,4.9,1.4,7.1,1.4c1.5,0,2.6-0.3,3.3-0.8
		c0.7-0.5,1-1.2,1-2c0-0.8-0.3-1.5-1-2.2c-0.7-0.6-2-1.3-4.1-2l-2.9-0.9c-4.2-1.3-7.3-3.4-9.3-6.1c-2.1-2.7-3.1-6-3.1-9.6
		c0-3.1,0.8-5.8,2.3-8.2c1.5-2.4,3.6-4.4,6.4-5.8c2.7-1.4,5.9-2.1,9.5-2.1c4.5,0,9.5,1.1,14.9,3.4l-1.9,13.2c-5.6-2.7-10.1-4-13.4-4
		c-1.3,0-2.2,0.3-2.8,0.8c-0.6,0.5-0.9,1.2-0.9,2c0,0.8,0.3,1.5,1,2.2c0.7,0.6,1.9,1.2,3.7,1.7l2.9,0.9c4.6,1.5,8,3.7,10.1,6.5
		c2.1,2.8,3.1,5.9,3.1,9.4c0,2.9-0.7,5.6-2,8.1c-1.3,2.5-3.4,4.6-6.1,6.1c-2.8,1.6-6.2,2.4-10.4,2.4
		C212.7,112.3,206.9,110.7,201.1,107.5"/>
	<polygon class="st0" points="275.4,98.2 273.7,111.2 242.6,111.2 242.6,61 273,61 274.8,74 257.3,74 257.3,79.3 271.4,79.3 
		271.4,92.3 257.3,92.3 257.3,98.2 	"/>
</g>
</svg>
