<?xml version="1.0" encoding="utf-8"?>
<!-- Generator: Adobe Illustrator 19.0.0, SVG Export Plug-In . SVG Version: 6.00 Build 0)  -->
<svg version="1.1" id="Layer_1" xmlns="http://www.w3.org/2000/svg" xmlns:xlink="http://www.w3.org/1999/xlink" x="0px" y="0px"
	 viewBox="0 0 93.5 149" style="enable-background:new 0 0 93.5 149;" xml:space="preserve">
<style type="text/css">
	.st0{fill:#FFFFFF;}
	.st1{fill:#8E9090;}
</style>
<g>
	<path class="st0" d="M46.8,145.4l37.1-72.7c4.7-7.1,7.4-15.5,7.4-24.6c0-24.6-19.9-44.5-44.5-44.5S2.2,23.5,2.2,48.1
		c0,4.4,0.6,8.6,1.8,12.5l-0.3,0.3L4.8,63C6.1,66.6,46.8,145.4,46.8,145.4z"/>
	<g>
		<path class="st1" d="M35.7,53.4l-4.6-9.8v9.8h-7.7V27.2h9.9c2.1,0,3.9,0.4,5.4,1.1c1.5,0.7,2.6,1.7,3.4,3c0.8,1.3,1.1,2.7,1.1,4.3
			c0,1.6-0.4,3.1-1.2,4.3c-0.8,1.3-1.9,2.2-3.4,2.9l6,10.7H35.7z M32,39c1.1,0,2-0.3,2.6-0.8c0.6-0.5,0.9-1.2,0.9-2.1
			c0-0.9-0.3-1.6-0.9-2.1c-0.6-0.5-1.5-0.8-2.6-0.8h-0.9V39H32z"/>
		<polygon class="st1" points="70.3,58.2 70.3,84.4 62.5,84.4 62.5,74.8 54.7,74.8 54.7,84.4 46.9,84.4 46.9,58.2 54.7,58.2 
			54.7,67.3 62.5,67.3 62.5,58.2 		"/>
	</g>
</g>
</svg>
