<svg version="1.1" id="Layer_1" xmlns="http://www.w3.org/2000/svg" xmlns:xlink="http://www.w3.org/1999/xlink" x="0" y="0" viewBox="0 0 102.7 34.4" xml:space="preserve" enable-background="new 0 0 102.7 34.4"><style type="text/css">.st0{fill-rule:evenodd;clip-rule:evenodd;fill:#fff}</style><g><polygon id="XMLID_75_" class="st0" points="3.7,13 5.5,17.3 5.5,25.7 3.7,25.7"/><polygon id="XMLID_74_" class="st0" points="9.9,25.7 8.9,25.7 2.8,10.8 2.8,25.7 1,25.7 1,8.7 3.7,8.7 9.9,23.4 16.2,8.7 18.9,8.7 18.9,25.7 17.1,25.7 17.1,10.8 10.9,25.7"/><polygon id="XMLID_73_" class="st0" points="3.7,8.7 6.5,8.7 12.9,23.3 17.1,13.1 17.1,17.7 13.9,25.7 11.9,25.7 5.5,10.9 5.5,12.9"/><polygon id="XMLID_72_" class="st0" points="18.9,8.7 21.6,8.7 21.6,25.7 19.8,25.7 19.8,11 18.9,13.3"/><g><path id="XMLID_71_" class="st0" d="M28.6,23.1c0,0.1-0.2,0.4-0.6,0.4c-0.4,0-0.7-0.3-0.7-0.7c0-0.4,0.3-0.7,0.7-0.7 c0.3,0,0.5,0.2,0.6,0.4h0.4c-0.1-0.3-0.4-0.7-1-0.7c-0.7,0-1.1,0.5-1.1,1.1c0,0.6,0.5,1.1,1.1,1.1c0.5,0,0.9-0.3,1-0.7H28.6z"/><polygon id="XMLID_70_" class="st0" points="29.8,23.8 29.8,23 30.6,23 30.6,23.8 31,23.8 31,21.8 30.6,21.8 30.6,22.6 29.8,22.6 29.8,21.8 29.3,21.8 29.3,23.8"/><path class="st0" d="M31.8,23.4h0.8l0.2,0.4h0.5l-0.8-2.1h-0.4l-0.8,2.1h0.5L31.8,23.4z M32.6,23.1H32l0.3-0.8L32.6,23.1z"/><path id="XMLID_67_" class="st0" d="M33.5,23.8h0.4v-1.7h0.2c0.1,0,0.2,0,0.3,0.1c0.1,0.1,0.2,0.2,0.2,0.3c0,0.1-0.1,0.2-0.1,0.3 c-0.1,0.1-0.2,0.1-0.4,0.1h-0.1l0.6,1h0.4l-0.5-0.8c0.1,0,0.3-0.1,0.3-0.2c0.1-0.1,0.1-0.2,0.1-0.4c0-0.2-0.1-0.4-0.3-0.6 c-0.1-0.1-0.3-0.1-0.6-0.1h-0.6V23.8z"/><polygon id="XMLID_66_" class="st0" points="35.7,23.8 36.1,23.8 36.1,22.1 36.6,22.1 36.6,21.8 35.3,21.8 35.3,22.1 35.7,22.1"/><polygon id="XMLID_65_" class="st0" points="36.9,23.8 38.1,23.8 38.1,23.5 37.3,23.5 37.3,23 38.1,23 38.1,22.6 37.3,22.6 37.3,22.1 38.1,22.1 38.1,21.8 36.9,21.8"/><path id="XMLID_64_" class="st0" d="M38.5,23.8h0.4v-1.7h0.2c0.1,0,0.2,0,0.3,0.1c0.1,0.1,0.2,0.2,0.2,0.3c0,0.1-0.1,0.2-0.1,0.3 c-0.1,0.1-0.2,0.1-0.4,0.1H39l0.6,1H40l-0.5-0.8c0.1,0,0.3-0.1,0.3-0.2c0.1-0.1,0.1-0.2,0.1-0.4c0-0.2-0.1-0.4-0.3-0.6 c-0.1-0.1-0.3-0.1-0.6-0.1h-0.6V23.8z"/><polygon id="XMLID_63_" class="st0" points="40.3,23.8 41.5,23.8 41.5,23.5 40.8,23.5 40.8,23 41.5,23 41.5,22.6 40.8,22.6 40.8,22.1 41.5,22.1 41.5,21.8 40.3,21.8"/><path class="st0" d="M41.9,23.8h0.7c0.8,0,1.1-0.5,1.1-1c0-0.3-0.1-0.5-0.2-0.7c-0.2-0.3-0.6-0.4-0.9-0.4h-0.7V23.8z M42.3,22.1 h0.3c0.3,0,0.4,0.1,0.5,0.2c0.1,0.1,0.1,0.3,0.1,0.5c0,0.4-0.2,0.7-0.6,0.7h-0.3V22.1z"/><path id="XMLID_60_" class="st0" d="M44.9,23.2c0,0.4,0.2,0.7,0.7,0.7c0.5,0,0.7-0.3,0.7-0.6c0-0.3-0.2-0.4-0.5-0.6 c-0.4-0.1-0.5-0.2-0.5-0.3c0-0.1,0.1-0.2,0.3-0.2c0.2,0,0.2,0.2,0.3,0.3h0.4c0-0.5-0.4-0.6-0.7-0.6c-0.3,0-0.7,0.2-0.7,0.6 c0,0.4,0.4,0.5,0.5,0.6c0.3,0.1,0.4,0.2,0.4,0.3c0,0.1-0.1,0.3-0.3,0.3c-0.1,0-0.3-0.1-0.3-0.3H44.9z"/><path id="XMLID_59_" class="st0" d="M46.6,21.8V23c0,0.3,0,0.5,0.2,0.6c0.2,0.2,0.4,0.2,0.5,0.2c0.2,0,0.4-0.1,0.5-0.2 c0.2-0.1,0.2-0.3,0.2-0.6v-1.3h-0.4V23c0,0.1,0,0.2-0.1,0.3c0,0.1-0.1,0.1-0.3,0.1c-0.1,0-0.2-0.1-0.3-0.2C47,23.2,47,23.1,47,23 v-1.3H46.6z"/><path id="XMLID_58_" class="st0" d="M48.5,23.8h0.4v-1.7h0.2c0.1,0,0.2,0,0.3,0.1c0.1,0.1,0.2,0.2,0.2,0.3c0,0.1-0.1,0.2-0.1,0.3 c-0.1,0.1-0.2,0.1-0.4,0.1h-0.1l0.6,1H50l-0.5-0.8c0.1,0,0.3-0.1,0.3-0.2c0.1-0.1,0.1-0.2,0.1-0.4c0-0.2-0.1-0.4-0.3-0.6 c-0.1-0.1-0.3-0.1-0.6-0.1h-0.6V23.8z"/><polygon id="XMLID_57_" class="st0" points="50.9,23.8 51.3,23.8 52.1,21.8 51.7,21.8 51.1,23.3 50.6,21.8 50.2,21.8"/><polygon id="XMLID_56_" class="st0" points="52.3,23.8 53.5,23.8 53.5,23.5 52.8,23.5 52.8,23 53.5,23 53.5,22.6 52.8,22.6 52.8,22.1 53.5,22.1 53.5,21.8 52.3,21.8"/><polygon id="XMLID_55_" class="st0" points="54.4,23.8 54.8,23.8 54.8,23.1 55.4,21.8 55,21.8 54.6,22.7 54.2,21.8 53.7,21.8 54.4,23.1"/><path class="st0" d="M55.4,22.8c0,0.6,0.5,1.1,1.1,1.1c0.6,0,1.1-0.5,1.1-1.1c0-0.6-0.5-1.1-1.1-1.1C56,21.7,55.4,22.1,55.4,22.8 L55.4,22.8z M55.9,22.8c0-0.4,0.3-0.7,0.7-0.7c0.4,0,0.7,0.4,0.7,0.7c0,0.3-0.2,0.7-0.7,0.7C56.1,23.5,55.9,23.2,55.9,22.8 L55.9,22.8z"/><path id="XMLID_52_" class="st0" d="M57.9,23.8h0.4v-1.7h0.2c0.1,0,0.2,0,0.3,0.1c0.1,0.1,0.2,0.2,0.2,0.3c0,0.1-0.1,0.2-0.1,0.3 c-0.1,0.1-0.2,0.1-0.4,0.1h-0.1l0.6,1h0.4L59,23.1c0.1,0,0.3-0.1,0.3-0.2c0.1-0.1,0.1-0.2,0.1-0.4c0-0.2-0.1-0.4-0.3-0.6 c-0.1-0.1-0.3-0.1-0.6-0.1h-0.6V23.8z"/><path id="XMLID_51_" class="st0" d="M59.7,23.2c0,0.4,0.2,0.7,0.7,0.7c0.5,0,0.7-0.3,0.7-0.6c0-0.3-0.2-0.4-0.5-0.6 c-0.4-0.1-0.5-0.2-0.5-0.3c0-0.1,0.1-0.2,0.3-0.2c0.2,0,0.2,0.2,0.3,0.3h0.4c0-0.5-0.4-0.6-0.7-0.6c-0.3,0-0.7,0.2-0.7,0.6 c0,0.4,0.4,0.5,0.5,0.6c0.3,0.1,0.4,0.2,0.4,0.3c0,0.1-0.1,0.3-0.3,0.3c-0.1,0-0.3-0.1-0.3-0.3H59.7z"/><path class="st0" d="M63.8,22.6L63.6,23l-0.3-0.3c0.1-0.1,0.3-0.2,0.3-0.5c0-0.3-0.2-0.5-0.5-0.5c-0.3,0-0.5,0.2-0.5,0.5 c0,0.2,0.1,0.3,0.2,0.5c-0.2,0.1-0.4,0.3-0.4,0.6c0,0.3,0.3,0.6,0.7,0.6c0.3,0,0.5-0.2,0.6-0.3l0.3,0.3l0.3-0.2l-0.4-0.4l0.3-0.7 H63.8z M63.1,22c0.1,0,0.2,0.1,0.2,0.2c0,0.1-0.1,0.2-0.2,0.3c-0.1-0.1-0.2-0.2-0.2-0.3C62.9,22.1,63,22,63.1,22L63.1,22z M63.4,23.3c-0.1,0.1-0.2,0.2-0.3,0.2c-0.2,0-0.3-0.1-0.3-0.3c0-0.1,0.1-0.2,0.3-0.3L63.4,23.3z"/><path class="st0" d="M65.5,21.8v2.1h0.4v-0.7h0.3c0.3,0,0.4-0.1,0.6-0.2c0.1-0.1,0.2-0.3,0.2-0.5s-0.1-0.4-0.2-0.5 c-0.1-0.1-0.3-0.1-0.6-0.1H65.5z M65.9,22.1h0.2c0.1,0,0.2,0,0.3,0.1c0.1,0,0.1,0.1,0.1,0.3c0,0.1-0.1,0.2-0.1,0.3 c-0.1,0-0.2,0.1-0.3,0.1h-0.2V22.1z"/><path id="XMLID_45_" class="st0" d="M67.3,23.8h0.4v-1.7H68c0.1,0,0.2,0,0.3,0.1c0.1,0.1,0.2,0.2,0.2,0.3c0,0.1-0.1,0.2-0.1,0.3 c-0.1,0.1-0.2,0.1-0.4,0.1h-0.1l0.6,1h0.4l-0.5-0.8c0.1,0,0.3-0.1,0.3-0.2c0.1-0.1,0.1-0.2,0.1-0.4c0-0.2-0.1-0.4-0.3-0.6 c-0.1-0.1-0.3-0.1-0.6-0.1h-0.6V23.8z"/><path class="st0" d="M69.1,22.8c0,0.6,0.5,1.1,1.1,1.1c0.6,0,1.1-0.5,1.1-1.1c0-0.6-0.5-1.1-1.1-1.1 C69.6,21.7,69.1,22.1,69.1,22.8L69.1,22.8z M69.5,22.8c0-0.4,0.3-0.7,0.7-0.7c0.4,0,0.7,0.4,0.7,0.7c0,0.3-0.2,0.7-0.7,0.7 C69.8,23.5,69.5,23.2,69.5,22.8L69.5,22.8z"/><path class="st0" d="M71.6,21.8v2.1H72v-0.7h0.3c0.3,0,0.4-0.1,0.6-0.2c0.1-0.1,0.2-0.3,0.2-0.5S73,22,72.9,21.9 c-0.1-0.1-0.3-0.1-0.6-0.1H71.6z M72,22.1h0.2c0.1,0,0.2,0,0.3,0.1c0.1,0,0.1,0.1,0.1,0.3c0,0.1-0.1,0.2-0.1,0.3 c-0.1,0-0.2,0.1-0.3,0.1H72V22.1z"/><polygon id="XMLID_40_" class="st0" points="73.4,23.8 74.6,23.8 74.6,23.5 73.8,23.5 73.8,23 74.6,23 74.6,22.6 73.8,22.6 73.8,22.1 74.6,22.1 74.6,21.8 73.4,21.8"/><path id="XMLID_39_" class="st0" d="M75,23.8h0.4v-1.7h0.2c0.1,0,0.2,0,0.3,0.1c0.1,0.1,0.2,0.2,0.2,0.3c0,0.1-0.1,0.2-0.1,0.3 c-0.1,0.1-0.2,0.1-0.4,0.1h-0.1l0.6,1h0.4l-0.5-0.8c0.1,0,0.3-0.1,0.3-0.2c0.1-0.1,0.1-0.2,0.1-0.4c0-0.2-0.1-0.4-0.3-0.6 c-0.1-0.1-0.3-0.1-0.6-0.1H75V23.8z"/><polygon id="XMLID_38_" class="st0" points="77.3,23.8 77.7,23.8 77.7,22.1 78.1,22.1 78.1,21.8 76.8,21.8 76.8,22.1 77.3,22.1"/><polygon id="XMLID_37_" class="st0" points="79.1,23.8 79.5,23.8 79.5,23.1 80.1,21.8 79.7,21.8 79.3,22.7 78.9,21.8 78.4,21.8 79.1,23.1"/><path id="XMLID_36_" class="st0" d="M82.9,23.1c0,0.1-0.2,0.4-0.6,0.4c-0.4,0-0.7-0.3-0.7-0.7c0-0.4,0.3-0.7,0.7-0.7 c0.3,0,0.5,0.2,0.6,0.4h0.4c-0.1-0.3-0.4-0.7-1-0.7c-0.7,0-1.1,0.5-1.1,1.1c0,0.6,0.5,1.1,1.1,1.1c0.5,0,0.9-0.3,1-0.7H82.9z"/><path class="st0" d="M83.6,22.8c0,0.6,0.5,1.1,1.1,1.1c0.6,0,1.1-0.5,1.1-1.1c0-0.6-0.5-1.1-1.1-1.1 C84.1,21.7,83.6,22.1,83.6,22.8L83.6,22.8z M84,22.8c0-0.4,0.3-0.7,0.7-0.7c0.4,0,0.7,0.4,0.7,0.7c0,0.3-0.2,0.7-0.7,0.7 C84.3,23.5,84,23.2,84,22.8L84,22.8z"/><polygon id="XMLID_33_" class="st0" points="86.5,21.8 86.1,21.8 86.1,23.8 86.5,23.8 86.5,22.4 87.5,23.8 87.8,23.8 87.8,21.8 87.4,21.8 87.4,23.2"/><path id="XMLID_32_" class="st0" d="M88.2,23.2c0,0.4,0.2,0.7,0.7,0.7c0.5,0,0.7-0.3,0.7-0.6c0-0.3-0.2-0.4-0.5-0.6 c-0.4-0.1-0.5-0.2-0.5-0.3c0-0.1,0.1-0.2,0.3-0.2c0.2,0,0.2,0.2,0.3,0.3h0.4c0-0.5-0.4-0.6-0.7-0.6c-0.3,0-0.7,0.2-0.7,0.6 c0,0.4,0.4,0.5,0.5,0.6c0.3,0.1,0.4,0.2,0.4,0.3c0,0.1-0.1,0.3-0.3,0.3c-0.1,0-0.3-0.1-0.3-0.3H88.2z"/><path id="XMLID_31_" class="st0" d="M90,21.8V23c0,0.3,0,0.5,0.2,0.6c0.2,0.2,0.4,0.2,0.5,0.2c0.2,0,0.4-0.1,0.5-0.2 c0.2-0.1,0.2-0.3,0.2-0.6v-1.3h-0.4V23c0,0.1,0,0.2-0.1,0.3c0,0.1-0.1,0.1-0.3,0.1c-0.1,0-0.2-0.1-0.3-0.2 c-0.1-0.1-0.1-0.2-0.1-0.3v-1.3H90z"/><polygon id="XMLID_30_" class="st0" points="91.9,23.8 93,23.8 93,23.5 92.4,23.5 92.4,21.8 91.9,21.8"/><polygon id="XMLID_29_" class="st0" points="93.6,23.8 94,23.8 94,22.1 94.4,22.1 94.4,21.8 93.1,21.8 93.1,22.1 93.6,22.1"/><path class="st0" d="M95,23.4h0.8l0.2,0.4h0.5l-0.8-2.1h-0.4l-0.8,2.1h0.5L95,23.4z M95.7,23.1h-0.6l0.3-0.8L95.7,23.1z"/><polygon id="XMLID_26_" class="st0" points="97.1,21.8 96.7,21.8 96.7,23.8 97.1,23.8 97.1,22.4 98.1,23.8 98.4,23.8 98.4,21.8 98,21.8 98,23.2"/><polygon id="XMLID_25_" class="st0" points="99.2,23.8 99.6,23.8 99.6,22.1 100.1,22.1 100.1,21.8 98.7,21.8 98.7,22.1 99.2,22.1"/><path id="XMLID_24_" class="st0" d="M100.3,23.2c0,0.4,0.2,0.7,0.7,0.7c0.5,0,0.7-0.3,0.7-0.6c0-0.3-0.2-0.4-0.5-0.6 c-0.4-0.1-0.5-0.2-0.5-0.3c0-0.1,0.1-0.2,0.3-0.2c0.2,0,0.2,0.2,0.3,0.3h0.4c0-0.5-0.4-0.6-0.7-0.6c-0.3,0-0.7,0.2-0.7,0.6 c0,0.4,0.4,0.5,0.5,0.6c0.3,0.1,0.4,0.2,0.4,0.3c0,0.1-0.1,0.3-0.3,0.3c-0.1,0-0.3-0.1-0.3-0.3H100.3z"/></g><path class="st0" d="M76.2,10.7h-1.9v9h1.8v-5.9l3.9,5.9h1.9v-9h-1.8l0,5.9L76.2,10.7z M32.4,17.3l-2.9-6.6H27v9h1.8v-6l2.7,6h1.7 l2.7-6v6h1.8v-9h-2.4L32.4,17.3z M43.7,16.1h1.6c-0.4,1.5-1.7,2.6-3.4,2.6c-2.1,0-3.5-1.6-3.5-3.5c0-1.9,1.5-3.5,3.5-3.5 c1.6,0,3,1.1,3.4,2.6h-1.6c-0.3-0.6-1-1.1-1.8-1.1c-1.4,0-2,1.2-2,2c0,1.2,1,2,2,2C42.8,17.3,43.4,16.6,43.7,16.1z M53,16.7 c-0.2,0.4-1,1.4-2.5,1.4c-1.6,0-2.9-1.3-2.9-2.9c0-1.7,1.5-2.9,2.8-2.9c1.4,0,2.2,0.8,2.6,1.4h2c-0.4-1.3-2-3.2-4.5-3.2 c-2.7,0-4.7,2.2-4.7,4.7c0,2.5,1.9,4.7,4.7,4.7c2.1,0,3.8-1.4,4.4-3.2H53z M67.6,10.7h-1.9v9h1.8v-5.9l3.9,5.9h1.9v-9h-1.8l0,5.9 L67.6,10.7z M82.9,19.7h5.3v-1.8h-3.5v-1.8h3.6v-1.8h-3.6v-1.8h3.5v-1.8h-5.3V19.7z M89.4,19.7H95v-1.8h-3.8v-7.2h-1.8V19.7z M96,19.7h5.6v-1.8h-3.8v-7.2H96V19.7z M55.5,15.2c0-2.6,2.1-4.7,4.7-4.7c2.6,0,4.7,2.1,4.7,4.7s-2.1,4.7-4.7,4.7 C57.6,19.9,55.5,17.8,55.5,15.2z M57.3,15.2c0,1.6,1.3,2.9,2.9,2.9c1.6,0,2.9-1.3,2.9-2.9c0-1.6-1.3-2.9-2.9-2.9 C58.6,12.3,57.3,13.6,57.3,15.2z"/></g></svg>