<?xml version="1.0" encoding="utf-8"?>
<!-- Generator: Adobe Illustrator 19.0.0, SVG Export Plug-In . SVG Version: 6.00 Build 0)  -->
<svg version="1.1" id="Layer_1" xmlns="http://www.w3.org/2000/svg" xmlns:xlink="http://www.w3.org/1999/xlink" x="0px" y="0px"
	 viewBox="0 0 87.7 76.7" style="enable-background:new 0 0 87.7 76.7;" xml:space="preserve">
<style type="text/css">
	.st0{fill:#8E9090;}
</style>
<g id="XMLID_3_">
	<g id="XMLID_67_">
		<path id="XMLID_68_" class="st0" d="M56.4,18.5h-25L43.9,6.3L56.4,18.5z M38.6,15.6h10.4l-5.2-5.1L38.6,15.6z"/>
	</g>
	<g id="XMLID_63_">
		<path id="XMLID_64_" class="st0" d="M29.1,57h-9.7V22.4h9.7V57z M22.4,54h3.7V25.4h-3.7V54z"/>
	</g>
	<g id="XMLID_59_">
		<path id="XMLID_60_" class="st0" d="M42.2,57h-9.7V22.4h9.7V57z M35.5,54h3.7V25.4h-3.7V54z"/>
	</g>
	<g id="XMLID_20_">
		<path id="XMLID_21_" class="st0" d="M55.2,57h-9.7V22.4h9.7V57z M48.6,54h3.7V25.4h-3.7V54z"/>
	</g>
	<g id="XMLID_16_">
		<path id="XMLID_17_" class="st0" d="M68.3,57h-9.7V22.4h9.7V57z M61.6,54h3.7V25.4h-3.7V54z"/>
	</g>
	<g id="XMLID_13_">
		<g id="XMLID_14_">
			<rect id="XMLID_15_" x="42.4" class="st0" width="3" height="9.3"/>
		</g>
	</g>
	<g id="XMLID_9_">
		<rect id="XMLID_11_" x="19.2" y="61.5" class="st0" width="49.4" height="3"/>
	</g>
	<g id="XMLID_4_">
		<g id="XMLID_7_">
			
				<rect id="XMLID_8_" x="11.9" y="73.5" transform="matrix(1 7.763056e-03 -7.763056e-03 1 0.5832 -0.3383)" class="st0" width="63.9" height="3"/>
		</g>
		<g id="XMLID_5_">
			<rect id="XMLID_6_" x="15.5" y="67.8" class="st0" width="56.8" height="3"/>
		</g>
	</g>
</g>
</svg>
