<svg version="1.1" id="Layer_1" xmlns="http://www.w3.org/2000/svg" xmlns:xlink="http://www.w3.org/1999/xlink" x="0" y="0" viewBox="0 0 202.2 129.8" xml:space="preserve" enable-background="new 0 0 202.2 129.8"><style type="text/css">.st0{fill:#8e9090}</style><g id="XMLID_92_"><path class="st0" d="M49.4,78.7l45.1-18l3-1.2v-3.2V19.9l4.9-4.9l4.9,4.9v36.5v3.2l2.9,1.2l44.9,18.2v0.5l-42.2-8.5l-5.6-1.1v5.7 v34.8v1.5l0.9,1.2l4.2,5.8H92.3l4.2-5.8l0.9-1.2v-1.5V75.7V70l-5.6,1.1l-42.4,8.3V78.7z M102.3,8.3l-9.6,9.6v38.4l-48,19.2v9.6 l48-9.4v34.6l-9.3,12.9h37.8l-9.3-12.9V75.5l47.8,9.6v-9.4l-47.8-19.4V17.9L102.3,8.3z"/></g></svg>