<?xml version="1.0" encoding="utf-8"?>
<!-- Generator: Adobe Illustrator 22.1.0, SVG Export Plug-In . SVG Version: 6.00 Build 0)  -->
<svg version="1.1" id="Layer_1" xmlns="http://www.w3.org/2000/svg" xmlns:xlink="http://www.w3.org/1999/xlink" x="0px" y="0px"
	 viewBox="0 0 872.7 308.6" style="enable-background:new 0 0 872.7 308.6;" xml:space="preserve">
<style type="text/css">
	.st0{fill:none;stroke:#8C9091;stroke-width:0.6095;stroke-linecap:round;stroke-linejoin:round;stroke-miterlimit:10;}
	.st1{fill:none;stroke:#8C9091;stroke-width:2.5075;stroke-linecap:round;stroke-linejoin:round;stroke-miterlimit:10;}
	.st2{fill:#8C9091;}
</style>
<g>
	<line class="st0" x1="80.5" y1="121.9" x2="871.4" y2="121.9"/>
	<line class="st0" x1="374.7" y1="177.2" x2="871.4" y2="177.2"/>
	<line class="st0" x1="438.1" y1="236.2" x2="871.4" y2="236.2"/>
	<line class="st0" x1="505.5" y1="285.2" x2="871.4" y2="285.2"/>
	<rect x="405.9" y="77.8" class="st1" width="64.4" height="229.4"/>
	<polygon class="st1" points="336.8,1.3 190.2,1.3 190.5,77.5 147,77.8 147.3,307.3 337.4,307.3 	"/>
	<rect x="337" y="77.4" class="st1" width="69" height="230"/>
	<polygon class="st1" points="11.9,77.6 1.3,307.3 147.3,307.3 147.1,77.6 	"/>
	<rect x="469.3" y="77.7" class="st1" width="68.1" height="229.5"/>
	<g>
		<path class="st2" d="M198.8,164.2c0-1.8,0.7-3.3,2-4.6c1.3-1.3,2.9-1.9,4.7-1.9c1.8,0,3.3,0.6,4.6,1.9c1.3,1.3,1.9,2.8,1.9,4.6
			c0,1.8-0.6,3.4-1.9,4.6c-1.3,1.3-2.9,1.9-4.7,1.9c-1.6,0-3.1-0.6-4.4-1.7C199.5,167.8,198.8,166.2,198.8,164.2z M200.7,164.2
			c0,1.4,0.5,2.5,1.4,3.4c0.9,0.9,2,1.4,3.2,1.4c1.3,0,2.4-0.5,3.4-1.4c0.9-0.9,1.4-2.1,1.4-3.4c0-1.3-0.5-2.5-1.4-3.4
			c-0.9-0.9-2-1.4-3.3-1.4c-1.3,0-2.4,0.5-3.3,1.4C201.2,161.7,200.7,162.8,200.7,164.2z"/>
		<path class="st2" d="M216.2,164.3v6.3h-1.9v-6.3h-0.7v-1.7h0.7v-3.1c0-1,0.2-1.7,0.5-2.1c0.5-0.6,1.2-0.9,2.1-0.9
			c0.3,0,0.7,0.1,1.2,0.3v1.9l-0.2-0.1c-0.4-0.2-0.7-0.3-1-0.3c-0.3,0-0.5,0.1-0.7,0.4c-0.1,0.2-0.2,0.7-0.2,1.3v2.6h2v1.7H216.2z"
			/>
		<path class="st2" d="M221.3,164.3v6.3h-1.9v-6.3h-0.7v-1.7h0.7v-3.1c0-1,0.2-1.7,0.5-2.1c0.5-0.6,1.2-0.9,2.1-0.9
			c0.3,0,0.7,0.1,1.2,0.3v1.9l-0.2-0.1c-0.4-0.2-0.7-0.3-1-0.3c-0.3,0-0.5,0.1-0.7,0.4c-0.1,0.2-0.2,0.7-0.2,1.3v2.6h2v1.7H221.3z"
			/>
		<path class="st2" d="M224.3,159.2c0-0.3,0.1-0.6,0.4-0.8c0.2-0.2,0.5-0.4,0.8-0.4c0.3,0,0.6,0.1,0.9,0.4c0.2,0.2,0.4,0.5,0.4,0.8
			s-0.1,0.6-0.4,0.9c-0.2,0.2-0.5,0.4-0.8,0.4c-0.3,0-0.6-0.1-0.9-0.4C224.4,159.9,224.3,159.6,224.3,159.2z M226.4,162.6v8h-1.8v-8
			H226.4z"/>
		<path class="st2" d="M235.1,162.9v2.4c-0.4-0.5-0.8-0.9-1.1-1.1c-0.3-0.2-0.7-0.3-1.2-0.3c-0.7,0-1.3,0.2-1.7,0.7
			c-0.5,0.5-0.7,1.1-0.7,1.8c0,0.7,0.2,1.4,0.7,1.8c0.4,0.5,1,0.7,1.7,0.7c0.4,0,0.8-0.1,1.2-0.3c0.3-0.2,0.7-0.5,1.2-1.1v2.4
			c-0.7,0.4-1.5,0.6-2.2,0.6c-1.2,0-2.3-0.4-3.1-1.2c-0.8-0.8-1.2-1.8-1.2-3s0.4-2.2,1.3-3c0.8-0.8,1.9-1.2,3.1-1.2
			C233.7,162.3,234.4,162.5,235.1,162.9z"/>
		<path class="st2" d="M244.3,167h-5.7c0,0.7,0.3,1.2,0.6,1.6c0.4,0.4,0.9,0.6,1.4,0.6c0.5,0,0.8-0.1,1.1-0.3c0.3-0.2,0.6-0.6,1-1.2
			l1.6,0.9c-0.2,0.4-0.5,0.8-0.8,1.1c-0.3,0.3-0.6,0.5-0.9,0.7s-0.6,0.3-1,0.4c-0.4,0.1-0.7,0.1-1.2,0.1c-1.2,0-2.1-0.4-2.9-1.1
			c-0.7-0.8-1.1-1.8-1.1-3.1c0-1.3,0.3-2.3,1-3.1c0.7-0.8,1.6-1.2,2.8-1.2c1.2,0,2.1,0.4,2.8,1.1c0.7,0.7,1,1.8,1,3.1L244.3,167z
			 M242.4,165.5c-0.3-1-0.9-1.5-1.9-1.5c-0.2,0-0.4,0-0.6,0.1c-0.2,0.1-0.4,0.2-0.5,0.3c-0.2,0.1-0.3,0.3-0.4,0.5
			c-0.1,0.2-0.2,0.4-0.3,0.6H242.4z"/>
		<path class="st2" d="M203.7,185.3l3.9,5.4h-2.3l-3.6-5.2h-0.3v5.2h-1.9V178h2.2c1.7,0,2.9,0.3,3.6,0.9c0.8,0.7,1.2,1.6,1.2,2.8
			c0,0.9-0.3,1.7-0.8,2.3C205.3,184.7,204.6,185.1,203.7,185.3z M201.4,183.8h0.6c1.8,0,2.7-0.7,2.7-2.1c0-1.3-0.9-1.9-2.6-1.9h-0.7
			V183.8z"/>
		<path class="st2" d="M216.6,187.1h-5.7c0,0.7,0.3,1.2,0.6,1.6c0.4,0.4,0.9,0.6,1.4,0.6c0.5,0,0.8-0.1,1.1-0.3
			c0.3-0.2,0.6-0.6,1-1.2l1.6,0.9c-0.2,0.4-0.5,0.8-0.8,1.1c-0.3,0.3-0.6,0.5-0.9,0.7s-0.6,0.3-1,0.4c-0.4,0.1-0.7,0.1-1.2,0.1
			c-1.2,0-2.1-0.4-2.9-1.1c-0.7-0.8-1.1-1.8-1.1-3.1c0-1.3,0.3-2.3,1-3.1c0.7-0.8,1.6-1.2,2.8-1.2c1.2,0,2.1,0.4,2.8,1.1
			c0.7,0.7,1,1.8,1,3.1L216.6,187.1z M214.7,185.6c-0.3-1-0.9-1.5-1.9-1.5c-0.2,0-0.4,0-0.6,0.1c-0.2,0.1-0.4,0.2-0.5,0.3
			c-0.2,0.1-0.3,0.3-0.4,0.5c-0.1,0.2-0.2,0.4-0.3,0.6H214.7z"/>
		<path class="st2" d="M225,183v2.4c-0.4-0.5-0.8-0.9-1.1-1.1c-0.3-0.2-0.7-0.3-1.2-0.3c-0.7,0-1.3,0.2-1.7,0.7
			c-0.5,0.5-0.7,1.1-0.7,1.8c0,0.7,0.2,1.4,0.7,1.8c0.4,0.5,1,0.7,1.7,0.7c0.4,0,0.8-0.1,1.2-0.3c0.3-0.2,0.7-0.5,1.2-1.1v2.4
			c-0.7,0.4-1.5,0.6-2.2,0.6c-1.2,0-2.3-0.4-3.1-1.2c-0.8-0.8-1.2-1.8-1.2-3s0.4-2.2,1.3-3c0.8-0.8,1.9-1.2,3.1-1.2
			C223.6,182.5,224.3,182.6,225,183z"/>
		<path class="st2" d="M234.2,187.1h-5.7c0,0.7,0.3,1.2,0.6,1.6c0.4,0.4,0.9,0.6,1.4,0.6c0.5,0,0.8-0.1,1.1-0.3
			c0.3-0.2,0.6-0.6,1-1.2l1.6,0.9c-0.2,0.4-0.5,0.8-0.8,1.1c-0.3,0.3-0.6,0.5-0.9,0.7s-0.6,0.3-1,0.4c-0.4,0.1-0.7,0.1-1.2,0.1
			c-1.2,0-2.1-0.4-2.9-1.1c-0.7-0.8-1.1-1.8-1.1-3.1c0-1.3,0.3-2.3,1-3.1c0.7-0.8,1.6-1.2,2.8-1.2c1.2,0,2.1,0.4,2.8,1.1
			c0.7,0.7,1,1.8,1,3.1L234.2,187.1z M232.3,185.6c-0.3-1-0.9-1.5-1.9-1.5c-0.2,0-0.4,0-0.6,0.1c-0.2,0.1-0.4,0.2-0.5,0.3
			c-0.2,0.1-0.3,0.3-0.4,0.5c-0.1,0.2-0.2,0.4-0.3,0.6H232.3z"/>
		<path class="st2" d="M238.3,195h-1.8v-12.3h1.8v0.9c0.7-0.7,1.6-1.1,2.5-1.1c1.1,0,2,0.4,2.7,1.2c0.7,0.8,1.1,1.8,1.1,3
			c0,1.2-0.4,2.2-1.1,3c-0.7,0.8-1.6,1.2-2.7,1.2c-0.9,0-1.8-0.4-2.5-1.1V195z M242.6,186.7c0-0.8-0.2-1.4-0.6-1.9
			c-0.4-0.5-0.9-0.7-1.6-0.7c-0.7,0-1.2,0.2-1.6,0.7c-0.4,0.5-0.6,1.1-0.6,1.9c0,0.7,0.2,1.4,0.6,1.8c0.4,0.5,1,0.7,1.6,0.7
			c0.6,0,1.2-0.2,1.6-0.7C242.4,188,242.6,187.4,242.6,186.7z"/>
		<path class="st2" d="M248.5,184.4v6.3h-1.8v-6.3h-0.8v-1.7h0.8v-2.9h1.8v2.9h1.4v1.7H248.5z"/>
		<path class="st2" d="M251.1,179.4c0-0.3,0.1-0.6,0.4-0.8c0.2-0.2,0.5-0.4,0.8-0.4c0.3,0,0.6,0.1,0.9,0.4c0.2,0.2,0.4,0.5,0.4,0.8
			s-0.1,0.6-0.4,0.9c-0.2,0.2-0.5,0.4-0.8,0.4c-0.3,0-0.6-0.1-0.9-0.4C251.2,180,251.1,179.7,251.1,179.4z M253.2,182.7v8h-1.8v-8
			H253.2z"/>
		<path class="st2" d="M255.3,186.6c0-1.2,0.4-2.1,1.2-2.9c0.8-0.8,1.8-1.2,3-1.2c1.2,0,2.2,0.4,3,1.2c0.8,0.8,1.2,1.8,1.2,3
			c0,1.2-0.4,2.2-1.2,3c-0.8,0.8-1.8,1.2-3.1,1.2c-1.2,0-2.2-0.4-3-1.2C255.8,188.8,255.3,187.8,255.3,186.6z M257.2,186.6
			c0,0.8,0.2,1.4,0.6,1.9c0.4,0.5,1,0.7,1.7,0.7c0.7,0,1.3-0.2,1.7-0.7s0.6-1.1,0.6-1.9c0-0.8-0.2-1.4-0.6-1.9
			c-0.4-0.5-1-0.7-1.7-0.7c-0.7,0-1.3,0.2-1.7,0.7C257.5,185.3,257.2,185.9,257.2,186.6z"/>
		<path class="st2" d="M266,182.7h1.9v0.7c0.6-0.6,1.4-1,2.2-1c0.9,0,1.7,0.3,2.2,0.9c0.4,0.5,0.7,1.3,0.7,2.4v4.9H271v-4.5
			c0-0.8-0.1-1.3-0.3-1.6c-0.2-0.3-0.6-0.5-1.2-0.5c-0.6,0-1,0.2-1.3,0.6c-0.3,0.4-0.4,1.1-0.4,2.1v3.8H266V182.7z"/>
	</g>
	<g>
		<path class="st2" d="M46.9,135.7v7.6c0,1.1,0.2,1.9,0.5,2.4c0.5,0.7,1.3,1.1,2.2,1.1c1,0,1.7-0.4,2.2-1.1c0.4-0.5,0.5-1.3,0.5-2.4
			v-7.6h1.9v8.1c0,1.3-0.4,2.4-1.2,3.3c-0.9,1-2.1,1.4-3.4,1.4c-1.4,0-2.5-0.5-3.4-1.4c-0.8-0.9-1.2-2-1.2-3.3v-8.1H46.9z"/>
		<path class="st2" d="M57.2,140.4h1.9v0.7c0.6-0.6,1.4-1,2.2-1c0.9,0,1.7,0.3,2.2,0.9c0.4,0.5,0.7,1.3,0.7,2.4v4.9h-1.9v-4.5
			c0-0.8-0.1-1.3-0.3-1.6c-0.2-0.3-0.6-0.5-1.2-0.5c-0.6,0-1,0.2-1.3,0.6c-0.3,0.4-0.4,1.1-0.4,2.1v3.8h-1.9V140.4z"/>
		<path class="st2" d="M66.3,137.1c0-0.3,0.1-0.6,0.4-0.8c0.2-0.2,0.5-0.4,0.8-0.4c0.3,0,0.6,0.1,0.9,0.4c0.2,0.2,0.4,0.5,0.4,0.8
			s-0.1,0.6-0.4,0.9c-0.2,0.2-0.5,0.4-0.8,0.4c-0.3,0-0.6-0.1-0.9-0.4C66.4,137.7,66.3,137.4,66.3,137.1z M68.4,140.4v8h-1.8v-8
			H68.4z"/>
		<path class="st2" d="M72.8,142.1v6.3H71v-6.3h-0.8v-1.7H71v-2.9h1.8v2.9h1.4v1.7H72.8z"/>
		<path class="st2" d="M84.4,137.5h-2.2l1-1.8h3v12.6h-1.9V137.5z"/>
		<path class="st2" d="M97.5,134.4l1.5,0.7l-7.2,16.8l-1.5-0.7L97.5,134.4z"/>
		<path class="st2" d="M103.4,146.6h4.7v1.8h-8.5l4.4-5.3c0.4-0.5,0.8-1,1.1-1.4c0.3-0.4,0.5-0.7,0.7-1c0.3-0.5,0.5-1,0.5-1.4
			c0-0.6-0.2-1.1-0.6-1.5c-0.4-0.4-0.9-0.6-1.5-0.6c-1.3,0-2,0.8-2.2,2.3H100c0.3-2.7,1.7-4,4-4c1.2,0,2.1,0.4,2.9,1.1
			c0.8,0.7,1.2,1.6,1.2,2.7c0,0.7-0.2,1.4-0.5,2c-0.2,0.3-0.5,0.8-0.8,1.2c-0.4,0.5-0.8,1-1.4,1.7L103.4,146.6z"/>
	</g>
	<g>
		<path class="st2" d="M351.8,144v7.6c0,1.1,0.2,1.9,0.5,2.4c0.5,0.7,1.3,1.1,2.2,1.1c1,0,1.7-0.4,2.2-1.1c0.4-0.5,0.5-1.3,0.5-2.4
			V144h1.9v8.1c0,1.3-0.4,2.4-1.2,3.3c-0.9,1-2.1,1.4-3.4,1.4c-1.4,0-2.5-0.5-3.4-1.4c-0.8-0.9-1.2-2-1.2-3.3V144H351.8z"/>
		<path class="st2" d="M362.1,148.6h1.9v0.7c0.6-0.6,1.4-1,2.2-1c0.9,0,1.7,0.3,2.2,0.9c0.4,0.5,0.7,1.3,0.7,2.4v4.9h-1.9v-4.5
			c0-0.8-0.1-1.3-0.3-1.6c-0.2-0.3-0.6-0.5-1.2-0.5c-0.6,0-1,0.2-1.3,0.6c-0.3,0.4-0.4,1.1-0.4,2.1v3.8h-1.9V148.6z"/>
		<path class="st2" d="M371.2,145.3c0-0.3,0.1-0.6,0.4-0.8c0.2-0.2,0.5-0.4,0.8-0.4c0.3,0,0.6,0.1,0.9,0.4c0.2,0.2,0.4,0.5,0.4,0.8
			s-0.1,0.6-0.4,0.9c-0.2,0.2-0.5,0.4-0.8,0.4c-0.3,0-0.6-0.1-0.9-0.4C371.3,145.9,371.2,145.6,371.2,145.3z M373.3,148.6v8h-1.8v-8
			H373.3z"/>
		<path class="st2" d="M377.7,150.3v6.3h-1.8v-6.3h-0.8v-1.7h0.8v-2.9h1.8v2.9h1.4v1.7H377.7z"/>
		<path class="st2" d="M389.1,150.7v-1.6c0.8,0,1.4-0.1,1.6-0.3c0.5-0.3,0.7-0.8,0.7-1.5c0-0.5-0.2-1-0.5-1.3
			c-0.4-0.3-0.8-0.5-1.4-0.5c-0.5,0-0.9,0.1-1.2,0.4c-0.3,0.3-0.5,0.7-0.6,1.3h-1.9c0.2-1.2,0.6-2.1,1.2-2.6s1.5-0.8,2.6-0.8
			c1.1,0,2,0.3,2.7,1c0.7,0.6,1,1.5,1,2.5c0,1.2-0.5,2.1-1.4,2.7c1,0.6,1.6,1.6,1.6,3c0,1.1-0.4,2.1-1.1,2.8
			c-0.8,0.7-1.7,1.1-2.9,1.1c-1.5,0-2.7-0.6-3.4-1.7c-0.3-0.5-0.5-1.1-0.6-1.9h1.8c0.1,0.6,0.3,1.1,0.7,1.4c0.4,0.3,0.9,0.5,1.5,0.5
			c0.6,0,1.1-0.2,1.5-0.6c0.4-0.4,0.6-1,0.6-1.6c0-0.9-0.3-1.5-0.9-1.8C390.3,150.8,389.8,150.7,389.1,150.7z"/>
	</g>
	<g>
		<path class="st2" d="M415.6,143.4v7.6c0,1.1,0.2,1.9,0.5,2.4c0.5,0.7,1.3,1.1,2.2,1.1c1,0,1.7-0.4,2.2-1.1
			c0.4-0.5,0.5-1.3,0.5-2.4v-7.6h1.9v8.1c0,1.3-0.4,2.4-1.2,3.3c-0.9,1-2.1,1.4-3.4,1.4c-1.4,0-2.5-0.5-3.4-1.4
			c-0.8-0.9-1.2-2-1.2-3.3v-8.1H415.6z"/>
		<path class="st2" d="M425.9,148.1h1.9v0.7c0.6-0.6,1.4-1,2.2-1c0.9,0,1.7,0.3,2.2,0.9c0.4,0.5,0.7,1.3,0.7,2.4v4.9h-1.9v-4.5
			c0-0.8-0.1-1.3-0.3-1.6c-0.2-0.3-0.6-0.5-1.2-0.5c-0.6,0-1,0.2-1.3,0.6c-0.3,0.4-0.4,1.1-0.4,2.1v3.8h-1.9V148.1z"/>
		<path class="st2" d="M435,144.7c0-0.3,0.1-0.6,0.4-0.8c0.2-0.2,0.5-0.4,0.8-0.4c0.3,0,0.6,0.1,0.9,0.4c0.2,0.2,0.4,0.5,0.4,0.8
			s-0.1,0.6-0.4,0.9c-0.2,0.2-0.5,0.4-0.8,0.4c-0.3,0-0.6-0.1-0.9-0.4C435.1,145.4,435,145.1,435,144.7z M437.1,148.1v8h-1.8v-8
			H437.1z"/>
		<path class="st2" d="M441.5,149.8v6.3h-1.8v-6.3h-0.8v-1.7h0.8v-2.9h1.8v2.9h1.4v1.7H441.5z"/>
		<path class="st2" d="M456.8,152.5h1.3v1.7h-1.3v1.8h-1.9v-1.8h-6.2l8.1-11.8V152.5z M454.9,152.5v-4.2l-2.9,4.2H454.9z"/>
	</g>
	<g>
		<path class="st2" d="M483.4,143.9v7.6c0,1.1,0.2,1.9,0.5,2.4c0.5,0.7,1.3,1.1,2.2,1.1c1,0,1.7-0.4,2.2-1.1
			c0.4-0.5,0.5-1.3,0.5-2.4v-7.6h1.9v8.1c0,1.3-0.4,2.4-1.2,3.3c-0.9,1-2.1,1.4-3.4,1.4s-2.5-0.5-3.4-1.4c-0.8-0.9-1.2-2-1.2-3.3
			v-8.1H483.4z"/>
		<path class="st2" d="M493.6,148.6h1.9v0.7c0.6-0.6,1.4-1,2.2-1c0.9,0,1.7,0.3,2.2,0.9c0.4,0.5,0.7,1.3,0.7,2.4v4.9h-1.9v-4.5
			c0-0.8-0.1-1.3-0.3-1.6c-0.2-0.3-0.6-0.5-1.2-0.5c-0.6,0-1,0.2-1.3,0.6c-0.3,0.4-0.4,1.1-0.4,2.1v3.8h-1.9V148.6z"/>
		<path class="st2" d="M502.7,145.2c0-0.3,0.1-0.6,0.4-0.8c0.2-0.2,0.5-0.4,0.8-0.4c0.3,0,0.6,0.1,0.9,0.4c0.2,0.2,0.4,0.5,0.4,0.8
			s-0.1,0.6-0.4,0.9c-0.2,0.2-0.5,0.4-0.8,0.4c-0.3,0-0.6-0.1-0.9-0.4C502.8,145.9,502.7,145.6,502.7,145.2z M504.9,148.6v8H503v-8
			H504.9z"/>
		<path class="st2" d="M509.3,150.3v6.3h-1.8v-6.3h-0.8v-1.7h0.8v-2.9h1.8v2.9h1.4v1.7H509.3z"/>
		<path class="st2" d="M525.1,145.7h-3.9l-0.6,2.1c0.1,0,0.2,0,0.3,0c0.1,0,0.2,0,0.2,0c1.2,0,2.2,0.4,3,1.2
			c0.8,0.8,1.2,1.9,1.2,3.2c0,1.3-0.4,2.4-1.3,3.3s-2,1.3-3.4,1.3c-1.7,0-3-0.8-4-2.4l1.4-1.2c0.4,0.7,0.8,1.2,1.2,1.4
			c0.4,0.3,0.9,0.4,1.5,0.4c0.8,0,1.4-0.3,1.9-0.8c0.5-0.6,0.8-1.2,0.8-2c0-0.8-0.3-1.5-0.8-2c-0.5-0.5-1.2-0.8-1.9-0.8
			c-0.9,0-1.6,0.4-2.2,1.1h-0.6l2-6.6h5.2V145.7z"/>
	</g>
	<g>
		<path class="st2" d="M695.9,106.1v4.8c0,0.3,0,0.5,0,0.8s0.1,0.5,0.2,0.7c0.1,0.2,0.3,0.4,0.5,0.5c0.2,0.1,0.5,0.2,0.9,0.2
			s0.7-0.1,0.9-0.2c0.2-0.1,0.4-0.3,0.5-0.5c0.1-0.2,0.2-0.5,0.2-0.7s0-0.5,0-0.8v-4.8h2.3v5.2c0,1.4-0.3,2.4-1,3
			c-0.6,0.6-1.6,1-2.9,1c-1.3,0-2.3-0.3-2.9-1c-0.6-0.6-1-1.6-1-3v-5.2H695.9z"/>
		<path class="st2" d="M703.2,108.9h2.1v0.8c0.3-0.4,0.6-0.6,0.9-0.7s0.6-0.2,1.1-0.2c0.4,0,0.8,0.1,1.1,0.2s0.6,0.3,0.8,0.6
			c0.2,0.2,0.3,0.4,0.4,0.7c0.1,0.3,0.1,0.5,0.1,0.9v3.8h-2.1v-3.1c0-0.3,0-0.5-0.1-0.7c0-0.2-0.1-0.3-0.2-0.4
			c-0.1-0.1-0.2-0.2-0.3-0.2s-0.2-0.1-0.4-0.1c-0.4,0-0.6,0.1-0.8,0.3s-0.3,0.5-0.3,0.9v3.2h-2.1V108.9z"/>
		<path class="st2" d="M711.1,106.6c0-0.2,0-0.3,0.1-0.5c0.1-0.1,0.1-0.3,0.3-0.4c0.1-0.1,0.2-0.2,0.4-0.3c0.1-0.1,0.3-0.1,0.5-0.1
			s0.3,0,0.5,0.1c0.1,0.1,0.3,0.1,0.4,0.3c0.1,0.1,0.2,0.2,0.3,0.4c0.1,0.1,0.1,0.3,0.1,0.5c0,0.2,0,0.3-0.1,0.5
			c-0.1,0.1-0.1,0.3-0.3,0.4s-0.2,0.2-0.4,0.3c-0.1,0.1-0.3,0.1-0.5,0.1s-0.3,0-0.5-0.1c-0.1-0.1-0.3-0.1-0.4-0.3s-0.2-0.2-0.3-0.4
			C711.2,106.9,711.1,106.7,711.1,106.6z M713.4,108.9v6.1h-2.1v-6.1H713.4z"/>
		<path class="st2" d="M717.5,110.7v4.3h-2.1v-4.3h-0.7v-1.8h0.7v-1.8h2.1v1.8h1.2v1.8H717.5z"/>
		<path class="st2" d="M726.4,108h-1.3v-2h3.6v8.9h-2.3V108z"/>
		<path class="st2" d="M736.3,105.2h1.7l-4.9,11.8h-1.7L736.3,105.2z"/>
		<path class="st2" d="M745.8,115h-7.2l2.2-2.3c0.6-0.6,1-1.1,1.4-1.5s0.6-0.8,0.7-1.1s0.3-0.5,0.3-0.7c0-0.2,0.1-0.3,0.1-0.5
			c0-0.1,0-0.3-0.1-0.4c0-0.1-0.1-0.2-0.2-0.3s-0.2-0.2-0.3-0.2c-0.1-0.1-0.3-0.1-0.4-0.1c-0.3,0-0.6,0.1-0.7,0.3
			c-0.2,0.2-0.3,0.5-0.3,0.8c0,0.1,0,0.2,0,0.4h-2.5c0-0.5,0.1-1,0.3-1.4s0.4-0.8,0.7-1.1c0.3-0.3,0.7-0.5,1.1-0.7s0.9-0.2,1.4-0.2
			c0.5,0,1,0.1,1.4,0.2s0.8,0.4,1.1,0.7s0.5,0.6,0.7,1s0.3,0.8,0.3,1.3c0,0.5-0.1,0.9-0.3,1.4c-0.2,0.4-0.5,0.8-1,1.3l-1.5,1.4h2.9
			V115z"/>
		<path class="st2" d="M753.4,113.7h3.3v1.3h-6l3.1-3.7c0.3-0.4,0.6-0.7,0.8-1c0.2-0.3,0.4-0.5,0.5-0.7c0.2-0.4,0.3-0.7,0.3-1
			c0-0.4-0.1-0.8-0.4-1c-0.3-0.3-0.7-0.4-1.1-0.4c-0.9,0-1.4,0.5-1.5,1.6H751c0.2-1.9,1.2-2.8,2.8-2.8c0.8,0,1.5,0.3,2,0.8
			c0.6,0.5,0.8,1.2,0.8,1.9c0,0.5-0.1,1-0.4,1.4c-0.1,0.2-0.3,0.5-0.6,0.9c-0.3,0.3-0.6,0.7-1,1.2L753.4,113.7z"/>
		<path class="st2" d="M761.1,107.3h-1.5l0.7-1.3h2.1v8.9h-1.3V107.3z"/>
		<path class="st2" d="M767.3,110.3c-0.7-0.5-1-1.1-1-1.9c0-0.7,0.2-1.3,0.7-1.8c0.5-0.5,1.1-0.7,1.9-0.7c0.7,0,1.4,0.2,1.8,0.7
			c0.5,0.5,0.7,1.1,0.7,1.8c0,0.8-0.3,1.4-1,1.9c0.4,0.2,0.6,0.5,0.8,0.8c0.2,0.4,0.3,0.8,0.3,1.2c0,0.8-0.3,1.4-0.8,1.9
			c-0.5,0.5-1.2,0.8-2,0.8c-0.8,0-1.5-0.3-2-0.8c-0.5-0.5-0.8-1.1-0.8-1.9C766.1,111.4,766.5,110.7,767.3,110.3z M767.5,112.4
			c0,0.4,0.1,0.8,0.4,1.1c0.3,0.3,0.6,0.4,1,0.4c0.4,0,0.8-0.1,1-0.4c0.3-0.3,0.4-0.6,0.4-1c0-0.4-0.1-0.8-0.4-1s-0.6-0.4-1-0.4
			c-0.4,0-0.8,0.1-1,0.4C767.6,111.6,767.5,112,767.5,112.4z M767.6,108.4c0,0.4,0.1,0.7,0.4,1c0.3,0.3,0.6,0.4,0.9,0.4
			c0.4,0,0.7-0.1,0.9-0.4c0.3-0.3,0.4-0.6,0.4-0.9s-0.1-0.7-0.4-0.9c-0.3-0.3-0.6-0.4-0.9-0.4s-0.7,0.1-0.9,0.4
			C767.8,107.8,767.6,108.1,767.6,108.4z"/>
		<path class="st2" d="M781.9,110.3l-1.1,0.6c-0.2-0.3-0.4-0.5-0.6-0.5c-0.1,0-0.2,0-0.3,0.1c-0.1,0.1-0.1,0.2-0.1,0.3
			c0,0.2,0.2,0.4,0.7,0.6c0.7,0.3,1.2,0.6,1.4,0.8s0.4,0.6,0.4,1c0,0.5-0.2,1-0.6,1.4c-0.4,0.3-0.9,0.5-1.4,0.5
			c-0.9,0-1.6-0.5-2-1.4l1.1-0.5c0.2,0.3,0.3,0.4,0.4,0.5c0.2,0.1,0.3,0.2,0.6,0.2c0.4,0,0.7-0.2,0.7-0.6c0-0.2-0.2-0.4-0.5-0.6
			c-0.1-0.1-0.3-0.1-0.4-0.2s-0.3-0.1-0.4-0.2c-0.4-0.2-0.6-0.4-0.8-0.6c-0.2-0.2-0.3-0.5-0.3-0.9c0-0.5,0.2-0.9,0.5-1.2
			c0.3-0.3,0.8-0.5,1.2-0.5C781.1,109.2,781.6,109.6,781.9,110.3z"/>
		<path class="st2" d="M787.9,118v-3.7c-0.5,0.5-1.1,0.8-1.8,0.8c-0.8,0-1.4-0.3-1.9-0.8c-0.5-0.6-0.8-1.3-0.8-2.1
			c0-0.9,0.3-1.6,0.8-2.1c0.5-0.6,1.1-0.9,1.9-0.9c0.6,0,1.2,0.3,1.7,0.8v-0.6h1.3v8.7H787.9z M784.8,112.1c0,0.5,0.1,1,0.4,1.3
			c0.3,0.3,0.7,0.5,1.1,0.5c0.5,0,0.9-0.2,1.2-0.5c0.3-0.3,0.4-0.8,0.4-1.3c0-0.5-0.1-1-0.4-1.3c-0.3-0.3-0.7-0.5-1.2-0.5
			c-0.4,0-0.8,0.2-1.1,0.5C785,111.2,784.8,111.6,784.8,112.1z"/>
		<path class="st2" d="M796.1,109.3h1.3v0.5c0.2-0.3,0.5-0.4,0.6-0.5c0.2-0.1,0.4-0.1,0.7-0.1c0.6,0,1.1,0.3,1.5,0.8
			c0.4-0.6,1-0.8,1.7-0.8c1.3,0,1.9,0.8,1.9,2.3v3.5h-1.3v-3.1c0-0.5-0.1-0.9-0.2-1.1c-0.1-0.2-0.4-0.3-0.7-0.3
			c-0.4,0-0.6,0.1-0.8,0.4c-0.2,0.3-0.2,0.7-0.2,1.3v2.9h-1.3v-3.1c0-1-0.3-1.5-0.9-1.5c-0.4,0-0.6,0.1-0.8,0.4
			c-0.2,0.3-0.3,0.7-0.3,1.3v2.9h-1.3V109.3z"/>
		<path class="st2" d="M811.5,113.7h3.3v1.3h-6l3.1-3.7c0.3-0.4,0.6-0.7,0.8-1c0.2-0.3,0.4-0.5,0.5-0.7c0.2-0.4,0.3-0.7,0.3-1
			c0-0.4-0.1-0.8-0.4-1c-0.3-0.3-0.7-0.4-1.1-0.4c-0.9,0-1.4,0.5-1.5,1.6H809c0.2-1.9,1.2-2.8,2.8-2.8c0.8,0,1.5,0.3,2,0.8
			c0.6,0.5,0.8,1.2,0.8,1.9c0,0.5-0.1,1-0.4,1.4c-0.1,0.2-0.3,0.5-0.6,0.9c-0.3,0.3-0.6,0.7-1,1.2L811.5,113.7z"/>
		<path class="st2" d="M817.6,113.3l1.2,0.4l-1.6,3.3l-0.9-0.4L817.6,113.3z"/>
		<path class="st2" d="M822.9,110.8v-1.1c0.6,0,1-0.1,1.1-0.2c0.3-0.2,0.5-0.6,0.5-1.1c0-0.4-0.1-0.7-0.4-0.9
			c-0.2-0.2-0.6-0.4-1-0.4c-0.4,0-0.7,0.1-0.9,0.3c-0.2,0.2-0.3,0.5-0.4,0.9h-1.3c0.1-0.8,0.4-1.5,0.9-1.8c0.4-0.4,1-0.6,1.8-0.6
			c0.8,0,1.4,0.2,1.9,0.7c0.5,0.5,0.7,1,0.7,1.8c0,0.8-0.3,1.4-1,1.9c0.7,0.4,1.1,1.1,1.1,2.1c0,0.8-0.3,1.5-0.8,2
			c-0.5,0.5-1.2,0.8-2.1,0.8c-1.1,0-1.9-0.4-2.4-1.2c-0.2-0.3-0.4-0.8-0.4-1.4h1.3c0.1,0.4,0.2,0.8,0.5,1c0.3,0.2,0.6,0.3,1,0.3
			c0.4,0,0.8-0.1,1.1-0.4c0.3-0.3,0.4-0.7,0.4-1.1c0-0.6-0.2-1-0.6-1.3C823.9,110.9,823.5,110.8,822.9,110.8z"/>
		<path class="st2" d="M833.2,112.5h0.9v1.2h-0.9v1.3h-1.3v-1.3h-4.4l5.7-8.3V112.5z M831.9,112.5v-3l-2.1,3H831.9z"/>
		<path class="st2" d="M839.8,107.3h-4.4v-1.3h6.6l-5.6,9.2l-1.1-0.7L839.8,107.3z"/>
		<path class="st2" d="M851.5,110.3l-1.1,0.6c-0.2-0.3-0.4-0.5-0.6-0.5c-0.1,0-0.2,0-0.3,0.1c-0.1,0.1-0.1,0.2-0.1,0.3
			c0,0.2,0.2,0.4,0.7,0.6c0.7,0.3,1.2,0.6,1.4,0.8c0.2,0.2,0.4,0.6,0.4,1c0,0.5-0.2,1-0.6,1.4c-0.4,0.3-0.9,0.5-1.4,0.5
			c-0.9,0-1.6-0.5-2-1.4l1.1-0.5c0.2,0.3,0.3,0.4,0.4,0.5c0.2,0.1,0.3,0.2,0.6,0.2c0.4,0,0.7-0.2,0.7-0.6c0-0.2-0.2-0.4-0.5-0.6
			c-0.1-0.1-0.3-0.1-0.4-0.2c-0.1-0.1-0.3-0.1-0.4-0.2c-0.4-0.2-0.6-0.4-0.8-0.6c-0.2-0.2-0.3-0.5-0.3-0.9c0-0.5,0.2-0.9,0.5-1.2
			c0.3-0.3,0.8-0.5,1.2-0.5C850.6,109.2,851.1,109.6,851.5,110.3z"/>
		<path class="st2" d="M857.4,118v-3.7c-0.5,0.5-1.1,0.8-1.8,0.8c-0.8,0-1.4-0.3-1.9-0.8c-0.5-0.6-0.8-1.3-0.8-2.1
			c0-0.9,0.3-1.6,0.8-2.1c0.5-0.6,1.1-0.9,1.9-0.9c0.6,0,1.2,0.3,1.7,0.8v-0.6h1.3v8.7H857.4z M854.3,112.1c0,0.5,0.1,1,0.4,1.3
			c0.3,0.3,0.7,0.5,1.1,0.5c0.5,0,0.9-0.2,1.2-0.5c0.3-0.3,0.5-0.8,0.5-1.3c0-0.5-0.1-1-0.4-1.3c-0.3-0.3-0.7-0.5-1.2-0.5
			c-0.4,0-0.8,0.2-1.1,0.5C854.5,111.2,854.3,111.6,854.3,112.1z"/>
		<path class="st2" d="M867,110.6v4.4h-1.3v-4.4h-0.5v-1.2h0.5v-2.2c0-0.7,0.1-1.2,0.4-1.5c0.3-0.4,0.8-0.6,1.5-0.6
			c0.2,0,0.5,0.1,0.9,0.2v1.3l-0.1-0.1c-0.3-0.1-0.5-0.2-0.7-0.2c-0.2,0-0.4,0.1-0.5,0.2c-0.1,0.2-0.1,0.5-0.1,0.9v1.8h1.4v1.2H867z
			"/>
		<path class="st2" d="M870.7,110.6v4.4h-1.3v-4.4h-0.6v-1.2h0.6v-2.1h1.3v2.1h1v1.2H870.7z"/>
	</g>
	<g>
		<path class="st2" d="M717.3,158.5v4.8c0,0.3,0,0.5,0,0.8s0.1,0.5,0.2,0.7c0.1,0.2,0.3,0.4,0.5,0.5s0.5,0.2,0.9,0.2
			c0.4,0,0.7-0.1,0.9-0.2c0.2-0.1,0.4-0.3,0.5-0.5c0.1-0.2,0.2-0.5,0.2-0.7c0-0.3,0-0.5,0-0.8v-4.8h2.3v5.2c0,1.4-0.3,2.4-0.9,3
			c-0.6,0.6-1.6,1-2.9,1c-1.3,0-2.3-0.3-2.9-1c-0.6-0.6-1-1.6-1-3v-5.2H717.3z"/>
		<path class="st2" d="M724.6,161.4h2.1v0.8c0.3-0.4,0.6-0.6,0.9-0.7s0.6-0.2,1-0.2c0.4,0,0.8,0.1,1.1,0.2s0.6,0.3,0.8,0.6
			c0.2,0.2,0.3,0.4,0.4,0.7c0.1,0.3,0.1,0.5,0.1,0.9v3.8h-2.1v-3.1c0-0.3,0-0.5-0.1-0.7s-0.1-0.3-0.2-0.4c-0.1-0.1-0.2-0.2-0.3-0.2
			s-0.2-0.1-0.4-0.1c-0.4,0-0.6,0.1-0.8,0.3c-0.2,0.2-0.3,0.5-0.3,0.9v3.2h-2.1V161.4z"/>
		<path class="st2" d="M732.5,159.1c0-0.2,0-0.3,0.1-0.5c0.1-0.1,0.1-0.3,0.3-0.4c0.1-0.1,0.2-0.2,0.4-0.3c0.1-0.1,0.3-0.1,0.5-0.1
			s0.3,0,0.5,0.1c0.1,0.1,0.3,0.1,0.4,0.3c0.1,0.1,0.2,0.2,0.3,0.4c0.1,0.1,0.1,0.3,0.1,0.5c0,0.2,0,0.3-0.1,0.5
			c-0.1,0.1-0.1,0.3-0.3,0.4s-0.2,0.2-0.4,0.3c-0.1,0.1-0.3,0.1-0.5,0.1s-0.3,0-0.5-0.1c-0.1-0.1-0.3-0.1-0.4-0.3
			c-0.1-0.1-0.2-0.2-0.3-0.4C732.6,159.4,732.5,159.2,732.5,159.1z M734.8,161.4v6.1h-2.1v-6.1H734.8z"/>
		<path class="st2" d="M738.9,163.2v4.3h-2.1v-4.3H736v-1.8h0.7v-1.8h2.1v1.8h1.2v1.8H738.9z"/>
		<path class="st2" d="M748.2,162c0.1,0,0.1,0,0.2,0c0,0,0.1,0,0.1,0c0.3,0,0.5-0.1,0.7-0.3c0.2-0.2,0.3-0.4,0.3-0.7
			c0-0.3-0.1-0.5-0.3-0.6c-0.2-0.2-0.4-0.2-0.7-0.2c-0.3,0-0.5,0.1-0.7,0.3c-0.2,0.2-0.3,0.4-0.3,0.7h-2.1c0.1-0.5,0.2-0.9,0.3-1.2
			c0.2-0.4,0.4-0.7,0.7-0.9c0.3-0.2,0.6-0.4,1-0.6c0.4-0.1,0.8-0.2,1.2-0.2c0.4,0,0.8,0.1,1.2,0.2c0.4,0.1,0.7,0.3,0.9,0.5
			s0.5,0.5,0.6,0.8s0.2,0.7,0.2,1.1c0,0.4-0.1,0.8-0.2,1s-0.4,0.5-0.7,0.7c0.5,0.1,0.8,0.4,1.1,0.8c0.3,0.4,0.4,0.8,0.4,1.4
			c0,0.4-0.1,0.8-0.3,1.2c-0.2,0.4-0.4,0.7-0.7,0.9c-0.3,0.3-0.7,0.5-1.1,0.6s-0.9,0.2-1.4,0.2c-0.7,0-1.3-0.1-1.9-0.4
			s-1-0.7-1.3-1.3c-0.1-0.3-0.2-0.5-0.3-0.8s-0.1-0.5-0.1-0.8h2.3c0,0.4,0.1,0.7,0.4,1c0.2,0.2,0.5,0.3,0.9,0.3
			c0.4,0,0.7-0.1,0.9-0.3c0.2-0.2,0.3-0.5,0.3-0.8c0-0.4-0.1-0.7-0.3-0.9c-0.2-0.2-0.5-0.3-0.8-0.3c-0.1,0-0.2,0-0.2,0
			c-0.1,0-0.1,0-0.2,0V162z"/>
		<path class="st2" d="M760.3,159.8h-1.5l0.7-1.3h2.1v8.9h-1.3V159.8z"/>
		<path class="st2" d="M765,162.9c0-1.4,0.3-2.5,1-3.4c0.6-0.8,1.3-1.1,2.1-1.1c0.8,0,1.6,0.4,2.1,1.1c0.7,0.8,1,2,1,3.5
			c0,1.5-0.3,2.6-1,3.4c-0.6,0.8-1.3,1.1-2.1,1.1c-0.8,0-1.6-0.4-2.2-1.1C765.3,165.6,765,164.4,765,162.9z M766.3,162.9
			c0,1,0.2,1.8,0.5,2.5c0.3,0.6,0.8,1,1.3,1c0.5,0,1-0.3,1.3-1c0.3-0.6,0.5-1.4,0.5-2.4c0-1-0.2-1.8-0.5-2.4c-0.3-0.6-0.8-1-1.3-1
			c-0.5,0-1,0.3-1.3,1C766.5,161.2,766.3,162,766.3,162.9z"/>
		<path class="st2" d="M776.5,158.2l1,0.7l-2.1,2.9c0.1,0,0.2,0,0.3,0c0.1,0,0.1,0,0.2,0c0.7,0,1.3,0.3,1.9,0.8
			c0.5,0.5,0.8,1.2,0.8,2c0,0.8-0.3,1.5-0.9,2.1c-0.6,0.6-1.3,0.9-2.1,0.9c-0.8,0-1.5-0.3-2.1-0.9c-0.6-0.6-0.9-1.2-0.9-2
			c0-0.7,0.3-1.4,0.9-2.2L776.5,158.2z M777.2,164.7c0-0.5-0.2-0.9-0.5-1.2c-0.3-0.3-0.7-0.5-1.2-0.5c-0.5,0-0.9,0.2-1.2,0.5
			c-0.3,0.3-0.5,0.7-0.5,1.2s0.2,0.9,0.5,1.2c0.3,0.3,0.7,0.5,1.2,0.5c0.5,0,0.9-0.2,1.2-0.5C777.1,165.5,777.2,165.2,777.2,164.7z"
			/>
		<path class="st2" d="M787.1,162.8l-1.1,0.6c-0.2-0.3-0.4-0.5-0.6-0.5c-0.1,0-0.2,0-0.3,0.1c-0.1,0.1-0.1,0.2-0.1,0.3
			c0,0.2,0.2,0.4,0.7,0.6c0.7,0.3,1.2,0.6,1.4,0.8c0.2,0.2,0.4,0.6,0.4,1c0,0.5-0.2,1-0.6,1.4c-0.4,0.3-0.9,0.5-1.4,0.5
			c-0.9,0-1.6-0.5-2-1.4l1.1-0.5c0.2,0.3,0.3,0.4,0.4,0.5c0.2,0.1,0.3,0.2,0.6,0.2c0.4,0,0.7-0.2,0.7-0.6c0-0.2-0.2-0.4-0.5-0.6
			c-0.1-0.1-0.3-0.1-0.4-0.2c-0.1-0.1-0.3-0.1-0.4-0.2c-0.4-0.2-0.6-0.4-0.8-0.6c-0.2-0.2-0.3-0.5-0.3-0.9c0-0.5,0.2-0.9,0.5-1.2
			c0.3-0.3,0.8-0.5,1.2-0.5C786.2,161.7,786.8,162,787.1,162.8z"/>
		<path class="st2" d="M792.9,170.5v-3.7c-0.5,0.5-1.1,0.8-1.8,0.8c-0.8,0-1.4-0.3-1.9-0.8c-0.5-0.6-0.8-1.3-0.8-2.1
			c0-0.9,0.3-1.6,0.8-2.1c0.5-0.6,1.1-0.9,1.9-0.9c0.6,0,1.2,0.3,1.7,0.8v-0.6h1.3v8.7H792.9z M789.8,164.6c0,0.5,0.1,1,0.4,1.3
			c0.3,0.3,0.7,0.5,1.1,0.5c0.5,0,0.9-0.2,1.2-0.5c0.3-0.3,0.5-0.8,0.5-1.3c0-0.5-0.1-1-0.4-1.3c-0.3-0.3-0.7-0.5-1.2-0.5
			c-0.4,0-0.8,0.2-1.1,0.5C790,163.7,789.8,164.1,789.8,164.6z"/>
		<path class="st2" d="M799.7,161.8h1.3v0.5c0.2-0.3,0.5-0.4,0.6-0.5c0.2-0.1,0.4-0.1,0.7-0.1c0.6,0,1.1,0.3,1.5,0.8
			c0.4-0.6,1-0.8,1.7-0.8c1.3,0,1.9,0.8,1.9,2.3v3.5h-1.3v-3.1c0-0.5-0.1-0.9-0.2-1.1c-0.1-0.2-0.4-0.3-0.7-0.3
			c-0.4,0-0.6,0.1-0.8,0.4c-0.2,0.3-0.2,0.7-0.2,1.3v2.9h-1.3v-3.1c0-1-0.3-1.5-0.9-1.5c-0.4,0-0.6,0.1-0.8,0.4
			c-0.2,0.3-0.3,0.7-0.3,1.3v2.9h-1.3V161.8z"/>
		<path class="st2" d="M815.2,159.8h-1.5l0.7-1.3h2.1v8.9h-1.3V159.8z"/>
		<path class="st2" d="M821.1,165.8l1.2,0.4l-1.6,3.3l-0.9-0.4L821.1,165.8z"/>
		<path class="st2" d="M826.4,159.8h-1.5l0.7-1.3h2.1v8.9h-1.3V159.8z"/>
		<path class="st2" d="M836.4,165h0.9v1.2h-0.9v1.3h-1.3v-1.3h-4.4l5.7-8.3V165z M835.1,165v-3l-2.1,3H835.1z"/>
		<path class="st2" d="M838.5,162.9c0-1.4,0.3-2.5,1-3.4c0.6-0.8,1.3-1.1,2.1-1.1c0.8,0,1.6,0.4,2.1,1.1c0.7,0.8,1,2,1,3.5
			c0,1.5-0.3,2.6-1,3.4c-0.6,0.8-1.3,1.1-2.1,1.1s-1.6-0.4-2.2-1.1C838.8,165.6,838.5,164.4,838.5,162.9z M839.8,162.9
			c0,1,0.2,1.8,0.5,2.5c0.3,0.6,0.8,1,1.3,1c0.5,0,1-0.3,1.3-1c0.3-0.6,0.5-1.4,0.5-2.4c0-1-0.2-1.8-0.5-2.4c-0.3-0.6-0.8-1-1.3-1
			c-0.5,0-1,0.3-1.3,1C840,161.2,839.8,162,839.8,162.9z"/>
		<path class="st2" d="M853.2,162.8l-1.1,0.6c-0.2-0.3-0.4-0.5-0.6-0.5c-0.1,0-0.2,0-0.3,0.1c-0.1,0.1-0.1,0.2-0.1,0.3
			c0,0.2,0.2,0.4,0.7,0.6c0.7,0.3,1.2,0.6,1.4,0.8s0.4,0.6,0.4,1c0,0.5-0.2,1-0.6,1.4c-0.4,0.3-0.9,0.5-1.4,0.5
			c-0.9,0-1.6-0.5-2-1.4l1.1-0.5c0.2,0.3,0.3,0.4,0.4,0.5c0.2,0.1,0.3,0.2,0.6,0.2c0.4,0,0.7-0.2,0.7-0.6c0-0.2-0.2-0.4-0.5-0.6
			c-0.1-0.1-0.3-0.1-0.4-0.2s-0.3-0.1-0.4-0.2c-0.4-0.2-0.6-0.4-0.8-0.6c-0.2-0.2-0.3-0.5-0.3-0.9c0-0.5,0.2-0.9,0.5-1.2
			c0.3-0.3,0.8-0.5,1.2-0.5C852.3,161.7,852.8,162,853.2,162.8z"/>
		<path class="st2" d="M859,170.5v-3.7c-0.5,0.5-1.1,0.8-1.8,0.8c-0.8,0-1.4-0.3-1.9-0.8c-0.5-0.6-0.8-1.3-0.8-2.1
			c0-0.9,0.3-1.6,0.8-2.1c0.5-0.6,1.1-0.9,1.9-0.9c0.6,0,1.2,0.3,1.7,0.8v-0.6h1.3v8.7H859z M855.9,164.6c0,0.5,0.1,1,0.4,1.3
			c0.3,0.3,0.7,0.5,1.1,0.5c0.5,0,0.9-0.2,1.2-0.5c0.3-0.3,0.4-0.8,0.4-1.3c0-0.5-0.1-1-0.4-1.3c-0.3-0.3-0.7-0.5-1.2-0.5
			c-0.4,0-0.8,0.2-1.1,0.5C856,163.7,855.9,164.1,855.9,164.6z"/>
		<path class="st2" d="M867.1,163v4.4h-1.3V163h-0.5v-1.2h0.5v-2.2c0-0.7,0.1-1.2,0.4-1.5c0.3-0.4,0.8-0.6,1.5-0.6
			c0.2,0,0.5,0.1,0.9,0.2v1.3l-0.1-0.1c-0.3-0.1-0.5-0.2-0.7-0.2c-0.2,0-0.4,0.1-0.5,0.2c-0.1,0.2-0.1,0.5-0.1,0.9v1.8h1.4v1.2
			H867.1z"/>
		<path class="st2" d="M870.7,163v4.4h-1.3V163h-0.6v-1.2h0.6v-2.1h1.3v2.1h1v1.2H870.7z"/>
	</g>
	<g>
		<g>
			<path class="st2" d="M717.9,268.2v4.8c0,0.3,0,0.5,0,0.8s0.1,0.5,0.2,0.7c0.1,0.2,0.3,0.4,0.5,0.5c0.2,0.1,0.5,0.2,0.9,0.2
				s0.7-0.1,0.9-0.2c0.2-0.1,0.4-0.3,0.5-0.5c0.1-0.2,0.2-0.5,0.2-0.7s0-0.5,0-0.8v-4.8h2.3v5.2c0,1.4-0.3,2.4-1,3
				c-0.6,0.6-1.6,1-2.9,1c-1.3,0-2.3-0.3-2.9-1c-0.6-0.6-1-1.6-1-3v-5.2H717.9z"/>
			<path class="st2" d="M725.2,271h2.1v0.8c0.3-0.4,0.6-0.6,0.9-0.7s0.6-0.2,1.1-0.2c0.4,0,0.8,0.1,1.1,0.2s0.6,0.3,0.8,0.6
				c0.2,0.2,0.3,0.4,0.4,0.7c0.1,0.3,0.1,0.5,0.1,0.9v3.8h-2.1V274c0-0.3,0-0.5-0.1-0.7c0-0.2-0.1-0.3-0.2-0.4
				c-0.1-0.1-0.2-0.2-0.3-0.2s-0.2-0.1-0.4-0.1c-0.4,0-0.6,0.1-0.8,0.3s-0.3,0.5-0.3,0.9v3.2h-2.1V271z"/>
			<path class="st2" d="M733.2,268.7c0-0.2,0-0.3,0.1-0.5c0.1-0.1,0.1-0.3,0.3-0.4c0.1-0.1,0.2-0.2,0.4-0.3c0.1-0.1,0.3-0.1,0.5-0.1
				s0.3,0,0.5,0.1c0.1,0.1,0.3,0.1,0.4,0.3c0.1,0.1,0.2,0.2,0.3,0.4c0.1,0.1,0.1,0.3,0.1,0.5c0,0.2,0,0.3-0.1,0.5
				c-0.1,0.1-0.1,0.3-0.3,0.4s-0.2,0.2-0.4,0.3c-0.1,0.1-0.3,0.1-0.5,0.1s-0.3,0-0.5-0.1c-0.1-0.1-0.3-0.1-0.4-0.3s-0.2-0.2-0.3-0.4
				C733.2,269,733.2,268.9,733.2,268.7z M735.4,271v6.1h-2.1V271H735.4z"/>
			<path class="st2" d="M739.5,272.8v4.3h-2.1v-4.3h-0.7V271h0.7v-1.8h2.1v1.8h1.2v1.8H739.5z"/>
			<path class="st2" d="M751.9,270.1h-3.1l-0.2,1c0.1,0,0.3,0,0.4,0c0.1,0,0.2,0,0.4,0c0.4,0,0.9,0.1,1.3,0.2c0.4,0.2,0.7,0.4,1,0.6
				s0.5,0.6,0.6,1s0.2,0.8,0.2,1.3c0,0.5-0.1,0.9-0.3,1.3c-0.2,0.4-0.4,0.7-0.8,1c-0.3,0.3-0.7,0.5-1.2,0.6c-0.5,0.1-1,0.2-1.5,0.2
				c-0.5,0-1-0.1-1.5-0.2c-0.5-0.1-0.9-0.3-1.4-0.6l0.3-2.2c0.4,0.3,0.8,0.6,1.2,0.8s0.8,0.3,1.2,0.3c0.5,0,0.8-0.1,1.1-0.4
				s0.4-0.6,0.4-1c0-0.4-0.2-0.8-0.6-1.1c-0.4-0.3-0.9-0.4-1.5-0.4c-0.3,0-0.5,0-0.8,0.1c-0.3,0.1-0.6,0.2-0.8,0.3l0.7-4.8h4.7
				V270.1z"/>
			<path class="st2" d="M760.9,269.4h-1.5l0.7-1.3h2.1v8.9h-1.3V269.4z"/>
			<path class="st2" d="M768.1,275.8h3.3v1.3h-6l3.1-3.7c0.3-0.4,0.6-0.7,0.8-1c0.2-0.3,0.4-0.5,0.5-0.7c0.2-0.4,0.3-0.7,0.3-1
				c0-0.4-0.1-0.8-0.4-1c-0.3-0.3-0.7-0.4-1.1-0.4c-0.9,0-1.4,0.5-1.5,1.6h-1.3c0.2-1.9,1.2-2.8,2.8-2.8c0.8,0,1.5,0.3,2,0.8
				c0.6,0.5,0.8,1.2,0.8,1.9c0,0.5-0.1,1-0.4,1.4c-0.1,0.2-0.3,0.5-0.6,0.9c-0.3,0.3-0.6,0.7-1,1.2L768.1,275.8z"/>
			<path class="st2" d="M773,272.6c0-1.4,0.3-2.5,1-3.4c0.6-0.8,1.3-1.1,2.1-1.1c0.8,0,1.6,0.4,2.1,1.1c0.7,0.8,1,2,1,3.5
				c0,1.5-0.3,2.6-1,3.4c-0.6,0.8-1.3,1.1-2.1,1.1c-0.8,0-1.6-0.4-2.2-1.1C773.3,275.2,773,274.1,773,272.6z M774.3,272.6
				c0,1,0.2,1.8,0.5,2.5c0.3,0.6,0.8,1,1.3,1c0.5,0,1-0.3,1.3-1c0.3-0.6,0.5-1.4,0.5-2.4c0-1-0.2-1.8-0.5-2.4c-0.3-0.6-0.8-1-1.3-1
				c-0.5,0-1,0.3-1.3,1C774.5,270.8,774.3,271.6,774.3,272.6z"/>
			<path class="st2" d="M787.7,272.4l-1.1,0.6c-0.2-0.3-0.4-0.5-0.6-0.5c-0.1,0-0.2,0-0.3,0.1c-0.1,0.1-0.1,0.2-0.1,0.3
				c0,0.2,0.2,0.4,0.7,0.6c0.7,0.3,1.2,0.6,1.4,0.8s0.4,0.6,0.4,1c0,0.5-0.2,1-0.6,1.4c-0.4,0.3-0.9,0.5-1.4,0.5
				c-0.9,0-1.6-0.5-2-1.4l1.1-0.5c0.2,0.3,0.3,0.4,0.4,0.5c0.2,0.1,0.3,0.2,0.6,0.2c0.4,0,0.7-0.2,0.7-0.6c0-0.2-0.2-0.4-0.5-0.6
				c-0.1-0.1-0.3-0.1-0.4-0.2s-0.3-0.1-0.4-0.2c-0.4-0.2-0.6-0.4-0.8-0.6c-0.2-0.2-0.3-0.5-0.3-0.9c0-0.5,0.2-0.9,0.5-1.2
				c0.3-0.3,0.8-0.5,1.2-0.5C786.8,271.3,787.4,271.7,787.7,272.4z"/>
			<path class="st2" d="M793.5,280.1v-3.7c-0.5,0.5-1.1,0.8-1.8,0.8c-0.8,0-1.4-0.3-1.9-0.8c-0.5-0.6-0.8-1.3-0.8-2.1
				c0-0.9,0.3-1.6,0.8-2.1c0.5-0.6,1.1-0.9,1.9-0.9c0.6,0,1.2,0.3,1.7,0.8v-0.6h1.3v8.7H793.5z M790.4,274.2c0,0.5,0.1,1,0.4,1.3
				c0.3,0.3,0.7,0.5,1.1,0.5c0.5,0,0.9-0.2,1.2-0.5c0.3-0.3,0.5-0.8,0.5-1.3c0-0.5-0.1-1-0.4-1.3c-0.3-0.3-0.7-0.5-1.2-0.5
				c-0.4,0-0.8,0.2-1.1,0.5C790.6,273.3,790.4,273.7,790.4,274.2z"/>
			<path class="st2" d="M800.3,271.5h1.3v0.5c0.2-0.3,0.5-0.4,0.6-0.5c0.2-0.1,0.4-0.1,0.7-0.1c0.6,0,1.1,0.3,1.5,0.8
				c0.4-0.6,1-0.8,1.7-0.8c1.3,0,1.9,0.8,1.9,2.3v3.5h-1.3V274c0-0.5-0.1-0.9-0.2-1.1c-0.1-0.2-0.4-0.3-0.7-0.3
				c-0.4,0-0.6,0.1-0.8,0.4c-0.2,0.3-0.2,0.7-0.2,1.3v2.9h-1.3V274c0-1-0.3-1.5-0.9-1.5c-0.4,0-0.6,0.1-0.8,0.4s-0.3,0.7-0.3,1.3
				v2.9h-1.3V271.5z"/>
			<path class="st2" d="M815.9,269.4h-1.5l0.7-1.3h2.1v8.9h-1.3V269.4z"/>
			<path class="st2" d="M821.7,275.4l1.2,0.4l-1.6,3.3l-0.9-0.4L821.7,275.4z"/>
			<path class="st2" d="M826.8,275.8h3.3v1.3h-6l3.1-3.7c0.3-0.4,0.6-0.7,0.8-1c0.2-0.3,0.4-0.5,0.5-0.7c0.2-0.4,0.3-0.7,0.3-1
				c0-0.4-0.1-0.8-0.4-1c-0.3-0.3-0.7-0.4-1.1-0.4c-0.9,0-1.4,0.5-1.5,1.6h-1.3c0.2-1.9,1.2-2.8,2.8-2.8c0.8,0,1.5,0.3,2,0.8
				c0.6,0.5,0.8,1.2,0.8,1.9c0,0.5-0.1,1-0.4,1.4c-0.1,0.2-0.3,0.5-0.6,0.9c-0.3,0.3-0.6,0.7-1,1.2L826.8,275.8z"/>
			<path class="st2" d="M833.8,277.4l-1-0.7l2.1-2.9c-0.1,0-0.2,0-0.3,0c-0.1,0-0.1,0-0.2,0c-0.7,0-1.3-0.3-1.9-0.8
				c-0.5-0.5-0.8-1.2-0.8-2c0-0.8,0.3-1.5,0.9-2.1c0.6-0.6,1.3-0.9,2.1-0.9c0.8,0,1.5,0.3,2.1,0.9c0.6,0.6,0.9,1.2,0.9,2
				c0,0.7-0.3,1.4-0.9,2.2L833.8,277.4z M833.2,270.9c0,0.5,0.2,0.9,0.5,1.2c0.3,0.3,0.7,0.5,1.2,0.5s0.9-0.2,1.2-0.5
				c0.3-0.3,0.5-0.7,0.5-1.2s-0.2-0.9-0.5-1.2c-0.3-0.3-0.7-0.5-1.2-0.5c-0.5,0-0.9,0.2-1.2,0.5
				C833.3,270.1,833.2,270.5,833.2,270.9z"/>
			<path class="st2" d="M841.5,275.8h3.3v1.3h-6l3.1-3.7c0.3-0.4,0.6-0.7,0.8-1c0.2-0.3,0.4-0.5,0.5-0.7c0.2-0.4,0.3-0.7,0.3-1
				c0-0.4-0.1-0.8-0.4-1c-0.3-0.3-0.7-0.4-1.1-0.4c-0.9,0-1.4,0.5-1.5,1.6h-1.3c0.2-1.9,1.2-2.8,2.8-2.8c0.8,0,1.5,0.3,2,0.8
				c0.6,0.5,0.8,1.2,0.8,1.9c0,0.5-0.1,1-0.4,1.4c-0.1,0.2-0.3,0.5-0.6,0.9c-0.3,0.3-0.6,0.7-1,1.2L841.5,275.8z"/>
			<path class="st2" d="M853.8,272.4l-1.1,0.6c-0.2-0.3-0.4-0.5-0.6-0.5c-0.1,0-0.2,0-0.3,0.1c-0.1,0.1-0.1,0.2-0.1,0.3
				c0,0.2,0.2,0.4,0.7,0.6c0.7,0.3,1.2,0.6,1.4,0.8c0.2,0.2,0.4,0.6,0.4,1c0,0.5-0.2,1-0.6,1.4c-0.4,0.3-0.9,0.5-1.4,0.5
				c-0.9,0-1.6-0.5-2-1.4l1.1-0.5c0.2,0.3,0.3,0.4,0.4,0.5c0.2,0.1,0.3,0.2,0.6,0.2c0.4,0,0.7-0.2,0.7-0.6c0-0.2-0.2-0.4-0.5-0.6
				c-0.1-0.1-0.3-0.1-0.4-0.2c-0.1-0.1-0.3-0.1-0.4-0.2c-0.4-0.2-0.6-0.4-0.8-0.6c-0.2-0.2-0.3-0.5-0.3-0.9c0-0.5,0.2-0.9,0.5-1.2
				c0.3-0.3,0.8-0.5,1.2-0.5C852.9,271.3,853.5,271.7,853.8,272.4z"/>
			<path class="st2" d="M859.6,280.1v-3.7c-0.5,0.5-1.1,0.8-1.8,0.8c-0.8,0-1.4-0.3-1.9-0.8c-0.5-0.6-0.8-1.3-0.8-2.1
				c0-0.9,0.3-1.6,0.8-2.1c0.5-0.6,1.1-0.9,1.9-0.9c0.6,0,1.2,0.3,1.7,0.8v-0.6h1.3v8.7H859.6z M856.5,274.2c0,0.5,0.1,1,0.4,1.3
				c0.3,0.3,0.7,0.5,1.1,0.5c0.5,0,0.9-0.2,1.2-0.5c0.3-0.3,0.5-0.8,0.5-1.3c0-0.5-0.1-1-0.4-1.3c-0.3-0.3-0.7-0.5-1.2-0.5
				c-0.4,0-0.8,0.2-1.1,0.5C856.6,273.3,856.5,273.7,856.5,274.2z"/>
			<path class="st2" d="M867.7,272.7v4.4h-1.3v-4.4h-0.5v-1.2h0.5v-2.2c0-0.7,0.1-1.2,0.4-1.5c0.3-0.4,0.8-0.6,1.5-0.6
				c0.2,0,0.5,0.1,0.9,0.2v1.3l-0.1-0.1c-0.3-0.1-0.5-0.2-0.7-0.2c-0.2,0-0.4,0.1-0.5,0.2c-0.1,0.2-0.1,0.5-0.1,0.9v1.8h1.4v1.2
				H867.7z"/>
			<path class="st2" d="M871.3,272.7v4.4H870v-4.4h-0.6v-1.2h0.6v-2.1h1.3v2.1h1v1.2H871.3z"/>
		</g>
	</g>
	<g>
		<path class="st2" d="M795,218.9v4.8c0,0.3,0,0.5,0,0.8s0.1,0.5,0.2,0.7c0.1,0.2,0.3,0.4,0.5,0.5s0.5,0.2,0.9,0.2
			c0.4,0,0.7-0.1,0.9-0.2c0.2-0.1,0.4-0.3,0.5-0.5c0.1-0.2,0.2-0.5,0.2-0.7c0-0.3,0-0.5,0-0.8v-4.8h2.3v5.2c0,1.4-0.3,2.4-0.9,3
			c-0.6,0.6-1.6,1-2.9,1c-1.3,0-2.3-0.3-2.9-1c-0.6-0.6-1-1.6-1-3v-5.2H795z"/>
		<path class="st2" d="M802.3,221.7h2.1v0.8c0.3-0.4,0.6-0.6,0.9-0.7s0.6-0.2,1-0.2c0.4,0,0.8,0.1,1.1,0.2s0.6,0.3,0.8,0.6
			c0.2,0.2,0.3,0.4,0.4,0.7c0.1,0.3,0.1,0.5,0.1,0.9v3.8h-2.1v-3.1c0-0.3,0-0.5-0.1-0.7s-0.1-0.3-0.2-0.4c-0.1-0.1-0.2-0.2-0.3-0.2
			s-0.2-0.1-0.4-0.1c-0.4,0-0.6,0.1-0.8,0.3c-0.2,0.2-0.3,0.5-0.3,0.9v3.2h-2.1V221.7z"/>
		<path class="st2" d="M810.2,219.4c0-0.2,0-0.3,0.1-0.5c0.1-0.1,0.1-0.3,0.3-0.4c0.1-0.1,0.2-0.2,0.4-0.3c0.1-0.1,0.3-0.1,0.5-0.1
			s0.3,0,0.5,0.1c0.1,0.1,0.3,0.1,0.4,0.3c0.1,0.1,0.2,0.2,0.3,0.4c0.1,0.1,0.1,0.3,0.1,0.5c0,0.2,0,0.3-0.1,0.5
			c-0.1,0.1-0.1,0.3-0.3,0.4s-0.2,0.2-0.4,0.3c-0.1,0.1-0.3,0.1-0.5,0.1s-0.3,0-0.5-0.1c-0.1-0.1-0.3-0.1-0.4-0.3
			c-0.1-0.1-0.2-0.2-0.3-0.4C810.3,219.7,810.2,219.5,810.2,219.4z M812.5,221.7v6.1h-2.1v-6.1H812.5z"/>
		<path class="st2" d="M816.6,223.5v4.3h-2.1v-4.3h-0.7v-1.8h0.7v-1.8h2.1v1.8h1.2v1.8H816.6z"/>
		<path class="st2" d="M828.9,224.2h1.1v1.8h-1.1v1.8h-2.1v-1.8h-4.3v-1.5l3.4-5.6h3V224.2z M826.8,224.2v-3.5l-2,3.5H826.8z"/>
		<path class="st2" d="M837.2,218.9v7.6h2.6v1.3h-4v-8.9H837.2z"/>
		<path class="st2" d="M846.1,225.3h-4c0,0.5,0.2,0.8,0.4,1.1c0.3,0.3,0.6,0.4,1,0.4c0.3,0,0.6-0.1,0.8-0.2c0.2-0.2,0.4-0.4,0.7-0.9
			l1.1,0.6c-0.2,0.3-0.3,0.5-0.5,0.7c-0.2,0.2-0.4,0.4-0.6,0.5c-0.2,0.1-0.4,0.2-0.7,0.3c-0.2,0.1-0.5,0.1-0.8,0.1
			c-0.8,0-1.5-0.3-2-0.8c-0.5-0.5-0.8-1.3-0.8-2.2c0-0.9,0.2-1.6,0.7-2.2c0.5-0.5,1.2-0.8,2-0.8c0.8,0,1.5,0.3,2,0.8
			c0.5,0.5,0.7,1.2,0.7,2.2L846.1,225.3z M844.7,224.2c-0.2-0.7-0.6-1-1.3-1c-0.2,0-0.3,0-0.4,0.1c-0.1,0-0.3,0.1-0.4,0.2
			c-0.1,0.1-0.2,0.2-0.3,0.3c-0.1,0.1-0.1,0.3-0.2,0.4H844.7z"/>
		<path class="st2" d="M851.7,222.1h1.3v5.6h-1.3v-0.6c-0.5,0.5-1.1,0.7-1.7,0.7c-0.8,0-1.4-0.3-1.9-0.8c-0.5-0.6-0.8-1.3-0.8-2.1
			c0-0.8,0.3-1.5,0.8-2.1c0.5-0.6,1.1-0.8,1.9-0.8c0.7,0,1.2,0.3,1.8,0.8V222.1z M848.7,224.9c0,0.5,0.1,1,0.4,1.3
			c0.3,0.3,0.7,0.5,1.1,0.5c0.5,0,0.9-0.2,1.2-0.5c0.3-0.3,0.4-0.8,0.4-1.3s-0.1-1-0.4-1.3c-0.3-0.3-0.7-0.5-1.2-0.5
			c-0.4,0-0.8,0.2-1.1,0.5C848.8,224,848.7,224.4,848.7,224.9z"/>
		<path class="st2" d="M858,223.1l-1.1,0.6c-0.2-0.3-0.4-0.5-0.6-0.5c-0.1,0-0.2,0-0.3,0.1c-0.1,0.1-0.1,0.2-0.1,0.3
			c0,0.2,0.2,0.4,0.7,0.6c0.7,0.3,1.2,0.6,1.4,0.8s0.4,0.6,0.4,1c0,0.5-0.2,1-0.6,1.4c-0.4,0.3-0.9,0.5-1.4,0.5
			c-0.9,0-1.6-0.5-2-1.4l1.1-0.5c0.2,0.3,0.3,0.4,0.4,0.5c0.2,0.1,0.3,0.2,0.6,0.2c0.4,0,0.7-0.2,0.7-0.6c0-0.2-0.2-0.4-0.5-0.6
			c-0.1-0.1-0.3-0.1-0.4-0.2s-0.3-0.1-0.4-0.2c-0.4-0.2-0.6-0.4-0.8-0.6c-0.2-0.2-0.3-0.5-0.3-0.9c0-0.5,0.2-0.9,0.5-1.2
			c0.3-0.3,0.8-0.5,1.2-0.5C857.2,222,857.7,222.4,858,223.1z"/>
		<path class="st2" d="M864.8,225.3h-4c0,0.5,0.2,0.8,0.4,1.1c0.3,0.3,0.6,0.4,1,0.4c0.3,0,0.6-0.1,0.8-0.2c0.2-0.2,0.4-0.4,0.7-0.9
			l1.1,0.6c-0.2,0.3-0.3,0.5-0.5,0.7c-0.2,0.2-0.4,0.4-0.6,0.5c-0.2,0.1-0.4,0.2-0.7,0.3c-0.2,0.1-0.5,0.1-0.8,0.1
			c-0.8,0-1.5-0.3-2-0.8c-0.5-0.5-0.8-1.3-0.8-2.2c0-0.9,0.2-1.6,0.7-2.2c0.5-0.5,1.2-0.8,2-0.8c0.8,0,1.5,0.3,2,0.8
			c0.5,0.5,0.7,1.2,0.7,2.2L864.8,225.3z M863.5,224.2c-0.2-0.7-0.6-1-1.3-1c-0.2,0-0.3,0-0.4,0.1c-0.1,0-0.3,0.1-0.4,0.2
			c-0.1,0.1-0.2,0.2-0.3,0.3c-0.1,0.1-0.1,0.3-0.2,0.4H863.5z"/>
		<path class="st2" d="M870.5,218h1.3v9.7h-1.3v-0.6c-0.5,0.5-1.1,0.7-1.7,0.7c-0.8,0-1.4-0.3-1.9-0.8c-0.5-0.6-0.8-1.3-0.8-2.1
			c0-0.8,0.3-1.5,0.8-2.1c0.5-0.6,1.1-0.8,1.9-0.8c0.7,0,1.2,0.3,1.8,0.8V218z M867.4,224.9c0,0.5,0.1,1,0.4,1.3
			c0.3,0.3,0.7,0.5,1.1,0.5c0.5,0,0.9-0.2,1.2-0.5c0.3-0.3,0.4-0.8,0.4-1.3s-0.1-1-0.4-1.3c-0.3-0.3-0.7-0.5-1.2-0.5
			c-0.4,0-0.8,0.2-1.1,0.5C867.5,224,867.4,224.4,867.4,224.9z"/>
	</g>
	<rect x="78.8" y="119" class="st2" width="6" height="6"/>
	<rect x="368.7" y="174.5" class="st2" width="6" height="6"/>
	<rect x="435.1" y="233.2" class="st2" width="6" height="6"/>
	<rect x="502.5" y="282.2" class="st2" width="6" height="6"/>
</g>
</svg>
