<?xml version="1.0" encoding="utf-8"?>
<!-- Generator: Adobe Illustrator 19.0.0, SVG Export Plug-In . SVG Version: 6.00 Build 0)  -->
<svg version="1.1" id="Layer_1" xmlns="http://www.w3.org/2000/svg" xmlns:xlink="http://www.w3.org/1999/xlink" x="0px" y="0px"
	 viewBox="0 0 149 149" style="enable-background:new 0 0 149 149;" xml:space="preserve">
<style type="text/css">
	.st0{fill:#FEEB17;}
</style>
<path id="XMLID_9_" class="st0" d="M74.5,108.4C56,108.4,41,93.3,41,74.9c0-18.5,15-33.5,33.5-33.5c18.5,0,33.5,15,33.5,33.5
	C108,93.3,93,108.4,74.5,108.4z M74.5,55.2c-10.8,0-19.7,8.8-19.7,19.7c0,10.8,8.8,19.7,19.7,19.7c10.8,0,19.7-8.8,19.7-19.7
	C94.1,64,85.3,55.2,74.5,55.2z"/>
<path id="XMLID_8_" class="st0" d="M74.5,31.6c-3.8,0-6.9-3.1-6.9-6.9V6.9c0-3.8,3.1-6.9,6.9-6.9s6.9,3.1,6.9,6.9v17.7
	C81.4,28.5,78.3,31.6,74.5,31.6z"/>
<path id="XMLID_7_" class="st0" d="M74.5,149c-3.8,0-6.9-3.1-6.9-6.9v-17.7c0-3.8,3.1-6.9,6.9-6.9s6.9,3.1,6.9,6.9V142
	C81.4,145.9,78.3,149,74.5,149z"/>
<path id="XMLID_6_" class="st0" d="M142,81.4h-17.7c-3.8,0-6.9-3.1-6.9-6.9c0-3.8,3.1-6.9,6.9-6.9H142c3.8,0,6.9,3.1,6.9,6.9
	C149,78.3,145.9,81.4,142,81.4z"/>
<path id="XMLID_5_" class="st0" d="M24.7,81.4H6.9c-3.8,0-6.9-3.1-6.9-6.9c0-3.8,3.1-6.9,6.9-6.9h17.7c3.8,0,6.9,3.1,6.9,6.9
	C31.6,78.3,28.5,81.4,24.7,81.4z"/>
<path id="XMLID_4_" class="st0" d="M122.2,129.2c-1.8,0-3.5-0.7-4.9-2l-12.5-12.5c-2.7-2.7-2.7-7.1,0-9.8c2.7-2.7,7.1-2.7,9.8,0
	l12.5,12.5c2.7,2.7,2.7,7.1,0,9.8C125.8,128.5,124,129.2,122.2,129.2z"/>
<path id="XMLID_3_" class="st0" d="M39.3,46.2c-1.8,0-3.5-0.7-4.9-2L21.8,31.6c-2.7-2.7-2.7-7.1,0-9.8c2.7-2.7,7.1-2.7,9.8,0
	l12.5,12.5c2.7,2.7,2.7,7.1,0,9.8C42.8,45.5,41,46.2,39.3,46.2z"/>
<path id="XMLID_2_" class="st0" d="M26.7,129.2c-1.8,0-3.5-0.7-4.9-2c-2.7-2.7-2.7-7.1,0-9.8l12.5-12.5c2.7-2.7,7.1-2.7,9.8,0
	c2.7,2.7,2.7,7.1,0,9.8l-12.5,12.5C30.3,128.5,28.5,129.2,26.7,129.2z"/>
<path id="XMLID_11_" class="st0" d="M109.7,46.2c-1.8,0-3.5-0.7-4.9-2c-2.7-2.7-2.7-7.1,0-9.8l12.5-12.5c2.7-2.7,7.1-2.7,9.8,0
	c2.7,2.7,2.7,7.1,0,9.8l-12.5,12.5C113.2,45.5,111.5,46.2,109.7,46.2z"/>
</svg>
