<?xml version="1.0" encoding="utf-8"?>
<!-- Generator: Adobe Illustrator 22.1.0, SVG Export Plug-In . SVG Version: 6.00 Build 0)  -->
<svg version="1.1" xmlns="http://www.w3.org/2000/svg" xmlns:xlink="http://www.w3.org/1999/xlink" x="0px" y="0px"
	 viewBox="0 0 202.2 129.8" style="enable-background:new 0 0 202.2 129.8;" xml:space="preserve">
<style type="text/css">
	.st0{fill:#73C3D5;}
	.st1{display:none;}
	.st2{display:inline;}
	.st3{clip-path:url(#SVGID_1_);fill:#73C3D5;}
	.st4{clip-path:url(#SVGID_2_);fill:#73C3D5;}
</style>
<g id="Layer_1">
	<g>
		<rect x="179.8" y="67.8" class="st0" width="10" height="3.9"/>
		<rect x="185.8" y="69.1" class="st0" width="3.9" height="16"/>
		<rect x="110.3" y="67.8" class="st0" width="10" height="3.9"/>
		<rect x="110.3" y="69.1" class="st0" width="3.9" height="16"/>
		<path class="st0" d="M122.1,63.3l5.7-5.7h44.4l5.7,5.7v50.4h-55.8V63.3z M126.2,53.7l-7.9,8v55.9h63.6V61.7l-7.9-8H126.2z"/>
		<rect x="126.2" y="103.3" class="st0" width="8" height="3.9"/>
		<rect x="165.9" y="103.3" class="st0" width="8" height="3.9"/>
		<rect x="142.1" y="103.3" class="st0" width="15.9" height="3.9"/>
		<rect x="124.2" y="116.3" class="st0" width="3.9" height="1.9"/>
		<rect x="171.9" y="117.4" class="st0" width="3.9" height="0.7"/>
		<path class="st0" d="M168.5,65.6l1.4,1.2v23h-39.9V66.8l1.5-1.2H168.5z M169.9,61.7h-39.7l-4,3.3v28.7h47.7V64.9L169.9,61.7z"/>
		<path class="st0" d="M25.8,21l6.8-5.4h56.2l6.8,5.4v64.6H25.8V21z M30.9,10.7l-9.9,8v71.8h79.5V18.7l-9.9-8H30.9z"/>
		<path class="st0" d="M84.3,30.5l1.3,0.6v24.6H35.7V31.2l1.3-0.7H84.3z M85.5,25.7H35.8l-5,2.6v32.4h59.6V28.2L85.5,25.7z"/>
		<rect x="33.7" y="67.3" class="st0" width="4.9" height="10"/>
		<rect x="83.4" y="67.3" class="st0" width="4.9" height="10"/>
		<rect x="43.5" y="68.1" class="st0" width="34.6" height="4.9"/>
		<polygon class="st0" points="24,119.1 29.1,119.1 38.1,88.9 33.5,87.5 		"/>
		<polygon class="st0" points="83.3,88.9 92.3,119.1 97.4,119.1 88,87.5 		"/>
		<rect x="33.5" y="98" class="st0" width="56.1" height="4.9"/>
		<rect x="31.2" y="108" class="st0" width="60.3" height="4.9"/>
	</g>
</g>
<g id="Layer_2" class="st1">
	<g class="st2">
		<g>
			<defs>
				<rect id="SVGID_5_" x="-197.1" y="227.8" width="142.2" height="98.1"/>
			</defs>
			<clipPath id="SVGID_1_">
				<use xlink:href="#SVGID_5_"  style="overflow:visible;"/>
			</clipPath>
			<path class="st3" d="M-170,277.6c11.7,0,21.2,9.5,21.2,21.2s-9.5,21.2-21.2,21.2s-21.2-9.5-21.2-21.2S-181.7,277.6-170,277.6
				 M-170,271.8c-14.9,0-27.1,12.1-27.1,27.1c0,14.9,12.1,27.1,27.1,27.1c14.9,0,27.1-12.1,27.1-27.1
				C-143,283.9-155.1,271.8-170,271.8"/>
			<path class="st3" d="M-82.7,276c12.2,0,22.1,9.9,22.1,22.1c0,12.2-9.9,22.1-22.1,22.1s-22.1-9.9-22.1-22.1
				C-104.8,285.9-94.9,276-82.7,276 M-82.7,270.2c-15.4,0-27.9,12.5-27.9,27.9c0,15.4,12.5,27.9,27.9,27.9s27.9-12.5,27.9-27.9
				C-54.8,282.7-67.3,270.2-82.7,270.2"/>
			<polygon class="st3" points="-85,298.9 -104.4,233.7 -114.1,233.7 -114.1,227.8 -100.1,227.8 -79.4,297.2 			"/>
			<path class="st3" d="M-169.9,301l-2.5-4.6l32.2-43.5l2.3-1.2h42l2.4,4.6l-30.2,41.8l-2.2,1.2L-169.9,301z M-136.4,257.4
				l-27.7,37.5l36.6-1.5l26-36H-136.4z"/>
			
				<rect x="-136.6" y="241.6" transform="matrix(0.9612 -0.2757 0.2757 0.9612 -79.4829 -26.4078)" class="st3" width="5.8" height="55.8"/>
			<rect x="-149.7" y="239.7" class="st3" width="23.7" height="5.8"/>
		</g>
	</g>
	<g class="st2">
		<path class="st0" d="M-191.4-110.9l55.8-22.3l3.7-1.5v-3.9v-45.2l6.1-6.1l6,6.1v45.2v3.9l3.6,1.5l55.6,22.6v0.7l-52.3-10.5l-7-1.4
			v7.1v43.1v1.9l1.1,1.5l5.2,7.2h-24.7l5.2-7.2l1.1-1.5v-1.9v-42.9v-7.1l-6.9,1.4l-52.6,10.3V-110.9z M-125.8-198.1l-11.9,11.9v47.6
			l-59.5,23.8v11.9l59.5-11.7v42.9l-11.8,16.4h47.4L-114-71.8v-43.1l59.3,11.9v-11.7l-59.3-24v-47.6L-125.8-198.1z"/>
	</g>
	<g class="st2">
		<polygon class="st0" points="327.7,320.3 304,296.5 280.3,320.3 256.6,296.5 232.6,320.6 232.6,324.2 232.9,324.4 237,324.4 
			256.6,304.8 276.2,324.4 284.4,324.4 304,304.8 323.6,324.4 331.8,324.4 351.4,304.8 371,324.4 375.1,324.4 375.4,324.2 
			375.4,320.6 351.4,296.5 		"/>
		<polygon class="st0" points="252.4,274.9 277,324.4 280.3,324.4 282.9,323.1 260.8,278.8 304,267.9 347.2,278.8 325.1,323.1 
			327.7,324.4 330.9,324.4 355.6,274.9 304,261.9 		"/>
		<rect x="301.1" y="264.9" class="st0" width="5.8" height="35.7"/>
		<polygon class="st0" points="342.5,272.9 336.6,272.9 336.6,236.5 332.4,232.2 275.6,232.2 271.3,236.5 271.3,272.9 265.5,272.9 
			265.5,234.1 273.1,226.3 334.8,226.3 342.5,234.1 		"/>
		<g>
			<defs>
				<rect id="SVGID_7_" x="232.6" y="214.4" width="142.8" height="110"/>
			</defs>
			<clipPath id="SVGID_2_">
				<use xlink:href="#SVGID_7_"  style="overflow:visible;"/>
			</clipPath>
			<path class="st4" d="M295,229.3l-5.8,0c0-5.1,3.1-14.8,14.8-14.8c11.7,0,14.8,9.7,14.8,14.8h-5.8c0-1.5-0.5-9-8.9-9
				C295.3,220.3,295,228.3,295,229.3"/>
		</g>
	</g>
</g>
</svg>
