<?xml version="1.0" encoding="utf-8"?>
<!-- Generator: Adobe Illustrator 19.0.0, SVG Export Plug-In . SVG Version: 6.00 Build 0)  -->
<svg version="1.1" id="Layer_1" xmlns="http://www.w3.org/2000/svg" xmlns:xlink="http://www.w3.org/1999/xlink" x="0px" y="0px"
	 viewBox="0 0 202.2 129.8" style="enable-background:new 0 0 202.2 129.8;" xml:space="preserve">
<style type="text/css">
	.st0{clip-path:url(#SVGID_1_);fill:none;stroke:#8E9090;stroke-width:2.075;stroke-miterlimit:10;}
	.st1{fill:#8E9090;}
	.st2{fill:none;stroke:#8E9090;stroke-width:2.075;stroke-miterlimit:10;}
	.st3{clip-path:url(#SVGID_2_);fill:none;stroke:#8E9090;stroke-width:2.075;stroke-miterlimit:10;}
	.st4{fill:none;stroke:#8E9090;stroke-width:2.856;stroke-miterlimit:10;}
	.st5{clip-path:url(#SVGID_3_);fill:none;stroke:#8E9090;stroke-width:2.856;stroke-miterlimit:10;}
</style>
<g>
	<g>
		<defs>
			<rect id="SVGID_7_" x="106.8" y="51.9" width="92.2" height="74.8"/>
		</defs>
		<clipPath id="SVGID_1_">
			<use xlink:href="#SVGID_7_"  style="overflow:visible;"/>
		</clipPath>
		<line class="st0" x1="183.9" y1="68.6" x2="194.3" y2="68.6"/>
		<line class="st0" x1="192.2" y1="67.9" x2="192.2" y2="84.5"/>
		<line class="st0" x1="121.9" y1="68.6" x2="111.6" y2="68.6"/>
		<line class="st0" x1="113.6" y1="67.9" x2="113.6" y2="84.5"/>
	</g>
	<path class="st1" d="M123.9,61.9l5.9-5.9H176l5.9,5.9v52.5h-58.1V61.9z M128.1,51.9l-8.3,8.3v58.2H186V60.2l-8.3-8.3H128.1z"/>
	<line class="st2" x1="128.1" y1="105.5" x2="136.4" y2="105.5"/>
	<line class="st2" x1="169.4" y1="105.5" x2="177.7" y2="105.5"/>
	<line class="st2" x1="144.6" y1="105.5" x2="161.2" y2="105.5"/>
	<g>
		<defs>
			<rect id="SVGID_9_" x="106.8" y="51.9" width="92.2" height="74.8"/>
		</defs>
		<clipPath id="SVGID_2_">
			<use xlink:href="#SVGID_9_"  style="overflow:visible;"/>
		</clipPath>
		<line class="st3" x1="128.1" y1="127.7" x2="128.1" y2="117.1"/>
		<line class="st3" x1="177.7" y1="126.6" x2="177.7" y2="118.3"/>
	</g>
	<path class="st1" d="M172.2,64.3l1.5,1.2v24h-41.5V65.6l1.6-1.3H172.2z M173.6,60.2h-41.4l-4.2,3.5v29.8h49.6v-30L173.6,60.2z"/>
	<path class="st1" d="M9.2,13.9L17,7.6h64.4l7.8,6.2v74H9.2V13.9z M15,2.1L3.7,11.2v82.3h91.1V11.2L83.3,2.1H15z"/>
	<path class="st1" d="M76.3,24.8l1.4,0.7v28.2H20.6V25.6l1.5-0.8H76.3z M77.7,19.2H20.7l-5.7,3v37.1h68.3V22.1L77.7,19.2z"/>
	<line class="st4" x1="21.1" y1="66.9" x2="21.1" y2="78.3"/>
	<line class="st4" x1="78" y1="66.9" x2="78" y2="78.3"/>
	<line class="st4" x1="29.5" y1="70.6" x2="69.2" y2="70.6"/>
	<g>
		<defs>
			<rect id="SVGID_11_" x="3.2" y="2.1" width="92.2" height="125.7"/>
		</defs>
		<clipPath id="SVGID_3_">
			<use xlink:href="#SVGID_11_"  style="overflow:visible;"/>
		</clipPath>
		<line class="st5" x1="20.7" y1="90.9" x2="9.7" y2="127.7"/>
		<line class="st5" x1="77.8" y1="90.9" x2="88.9" y2="127.7"/>
	</g>
	<line class="st4" x1="18.1" y1="104.9" x2="82.3" y2="104.9"/>
	<line class="st4" x1="15.4" y1="116.3" x2="84.5" y2="116.3"/>
</g>
</svg>
